<svg width="60" height="68" viewBox="0 0 60 68" fill="none" xmlns="http://www.w3.org/2000/svg">
<path fill-rule="evenodd" clip-rule="evenodd" d="M58.9995 52.8334L57.1433 51.7637C55.811 50.9959 55.8074 49.0763 57.1433 48.3064L58.9995 47.2366C59.9563 46.6857 60.2839 45.4649 59.7318 44.5103L55.7319 37.5953C55.1793 36.6407 53.9564 36.3133 52.9996 36.8648L51.1434 37.9346C49.8079 38.704 48.1434 37.7421 48.1434 36.2059V34.0664C48.1434 32.964 47.2481 32.0706 46.1434 32.0706H43.9997V7.31921C43.9997 3.28348 40.7101 0 36.6664 0H7.33328C3.28956 0 0 3.28348 0 7.31921V60.6813C0 64.717 3.28956 68 7.33328 68H46.1434C47.2481 68 48.1434 67.1066 48.1434 66.0042V63.8647C48.1434 62.3295 49.8079 61.3661 51.1434 62.136L52.9996 63.2058C53.9558 63.7568 55.1793 63.4294 55.7319 62.4748L59.7318 55.5602C60.2839 54.6057 59.9563 53.3849 58.9995 52.8334ZM38.1435 32.0706C37.0388 32.0706 36.1435 32.964 36.1435 34.0664V36.2059C36.1435 37.7416 34.4789 38.7045 33.1435 37.9346L31.2873 36.8648C30.3305 36.3133 29.1071 36.6412 28.555 37.5958L24.555 44.5103C24.0029 45.4649 24.3305 46.6857 25.2873 47.2366L27.1435 48.3069C28.4758 49.0747 28.4789 50.9943 27.1435 51.7642L26.9102 51.8986H3.99997V15.9686H39.9997V32.0706H38.1435ZM7.33328 3.99216H36.6664C38.5044 3.99216 39.9997 5.48474 39.9997 7.31921V11.9765H3.99997V7.31921C3.99997 5.48474 5.49527 3.99216 7.33328 3.99216ZM3.99997 60.6808V55.8902H24.7462L28.555 62.4748C29.1076 63.4299 30.3305 63.7568 31.2873 63.2053L33.1435 62.136C34.3581 61.4362 36.1435 62.1241 36.1435 64.0079H7.33328C5.49527 64.0079 3.99997 62.5153 3.99997 60.6808ZM55.2673 55.2931L53.2673 58.7503C49.1262 56.3654 44.1434 59.1472 44.1434 64.0079H40.1434C40.1434 59.1477 35.1643 56.3633 31.019 58.7503L29.019 55.2931C33.1977 52.8822 33.2018 47.1905 29.019 44.7775L31.019 41.3203C35.1601 43.7052 40.1434 40.9234 40.1434 36.0627H44.1434C44.1434 40.845 49.0548 43.7462 53.2673 41.3203L55.2673 44.7775C51.1475 47.1547 51.0293 52.848 55.2673 55.2931ZM17.9999 19.9608H9.99992C8.89524 19.9608 7.99994 20.8547 7.99994 21.9572V29.9415C7.99994 31.0434 8.89524 31.9373 9.99992 31.9373H17.9999C19.1045 31.9373 19.9998 31.0434 19.9998 29.9415V21.9572C19.9998 20.8547 19.1045 19.9608 17.9999 19.9608ZM15.9999 27.9451H11.9999V23.953H15.9999V27.9451ZM17.9999 35.9294H9.99992C8.89524 35.9294 7.99994 36.8233 7.99994 37.9258V45.9101C7.99994 47.012 8.89524 47.9059 9.99992 47.9059H17.9999C19.1045 47.9059 19.9998 47.012 19.9998 45.9101V37.9258C19.9998 36.8233 19.1045 35.9294 17.9999 35.9294ZM15.9999 43.9138H11.9999V39.9216H15.9999V43.9138ZM25.9998 19.9608H33.9997C35.1044 19.9608 35.9997 20.8547 35.9997 21.9572V29.9415C35.9997 31.0434 35.1044 31.9373 33.9997 31.9373H25.9998C24.8951 31.9373 23.9998 31.0434 23.9998 29.9415V21.9572C23.9998 20.8547 24.8951 19.9608 25.9998 19.9608ZM27.9998 27.9451H31.9997V23.953H27.9998V27.9451ZM36.1435 50.0351C36.1435 46.7335 38.8351 44.0471 42.1434 44.0471C45.4517 44.0471 48.1434 46.7335 48.1434 50.0351C48.1434 53.3372 45.4517 56.0236 42.1434 56.0236C38.8351 56.0236 36.1435 53.3372 36.1435 50.0351ZM40.1434 50.0351C40.1434 51.136 41.0403 52.0314 42.1434 52.0314C43.246 52.0314 44.1434 51.136 44.1434 50.0351C44.1434 48.9347 43.246 48.0393 42.1434 48.0393C41.0403 48.0393 40.1434 48.9347 40.1434 50.0351Z" fill="#D83A6A"/>
</svg>
