<svg width="28" height="32" viewBox="0 0 28 32" fill="none" xmlns="http://www.w3.org/2000/svg">
<path d="M22.0659 16.7964C22.0531 14.5023 23.1116 12.7707 25.254 11.4955C24.0553 9.81392 22.2444 8.88875 19.8533 8.70747C17.5898 8.53244 15.1158 10.0015 14.2104 10.0015C13.254 10.0015 11.0606 8.76998 9.339 8.76998C5.78108 8.82624 2 11.5517 2 17.0965C2 18.7343 2.30606 20.4263 2.91817 22.1724C3.73433 24.4666 6.68013 30.0926 9.75345 29.9988C11.3603 29.9613 12.4952 28.8799 14.5866 28.8799C16.6142 28.8799 17.6663 29.9988 19.458 29.9988C22.5569 29.9551 25.2221 24.8417 26 22.5412C21.8427 20.6221 22.0659 16.9152 22.0659 16.7964ZM18.457 6.53207C20.1977 4.50671 20.0383 2.66262 19.9872 2C18.4506 2.08752 16.6716 3.02519 15.6578 4.18165C14.542 5.41937 13.8852 6.9509 14.0255 8.67621C15.6897 8.80124 17.2072 7.96358 18.457 6.53207Z" fill="white"/>
</svg>
