<svg width="44" height="44" viewBox="0 0 44 44" fill="none" xmlns="http://www.w3.org/2000/svg">
<path fill-rule="evenodd" clip-rule="evenodd" d="M16.5441 7.30008C16.5441 4.37734 18.9917 2 22 2C25.0083 2 27.4559 4.37781 27.456 7.30008V8.17861C32.6514 10.2872 36.316 15.3128 36.316 21.1619V27.5019C38.4384 28.0773 40 29.9725 40 32.2152C39.9338 34.9726 37.722 37.1077 34.9637 37.1077H28.4298C27.7174 39.9132 25.1046 41.9999 22 41.9999H21.9067C18.8017 41.9999 16.1891 39.9133 15.4768 37.1077H9.03628C6.2593 37.1077 4 34.9129 4 32.2152C4 29.9725 5.56158 28.0773 7.68396 27.5019V21.1619C7.68396 15.3128 11.3486 10.2871 16.5441 8.17856V7.30008ZM10.4818 27.3228H33.5181V21.1619C33.5181 14.9173 28.3513 9.83694 22 9.83694C15.6486 9.83694 10.4818 14.9173 10.4818 21.1619V27.3228ZM18.4273 37.1077C19.0309 38.3892 20.3634 39.2819 21.9067 39.2819H22C23.543 39.2819 24.8756 38.3892 25.4793 37.1077H18.4273ZM19.3421 7.36154C20.2035 7.20224 21.092 7.1189 22 7.1189C22.908 7.1189 23.7966 7.20226 24.6581 7.36158V7.30008C24.6581 5.87633 23.4657 4.71797 22.0001 4.71797C20.5345 4.71797 19.3421 5.87633 19.3421 7.30008V7.36154ZM9.03628 34.3897H34.9637C36.1892 34.3897 37.1722 33.4207 37.2025 32.1837C37.202 31.0167 36.198 30.0409 34.9637 30.0409H9.03628C7.80244 30.0409 6.79797 31.0162 6.79797 32.2153C6.79797 33.4144 7.80196 34.3897 9.03628 34.3897Z" fill="#D83A6A"/>
</svg>
