<svg width="68" height="68" viewBox="0 0 68 68" fill="none" xmlns="http://www.w3.org/2000/svg">
<path d="M66.2476 7.38573L60.6134 1.75061C58.2835 -0.579495 54.4917 -0.579495 52.1617 1.75061C50.154 3.75852 36.1439 17.7698 33.9997 19.9141L21.6695 7.58289C21.4745 7.38729 21.242 7.23682 20.9733 7.13098L2.70597 0.131834C1.9724 -0.149377 1.14077 0.0275474 0.585137 0.583743C0.0289877 1.13994 -0.147922 1.97112 0.133266 2.70528L7.13182 20.9741C7.13338 20.9778 7.13493 20.9814 7.13649 20.985C7.22884 21.2216 7.37669 21.4634 7.58317 21.6704L19.9134 34.0017C17.2878 36.6275 3.77314 50.1433 1.75191 52.1647C-0.58371 54.5005 -0.584229 58.2813 1.75191 60.6171L7.38603 66.2522C9.71594 68.5823 13.5078 68.5828 15.8383 66.2522L33.9997 48.0892L52.1617 66.2522C54.4917 68.5823 58.2835 68.5828 60.6134 66.2522L66.2481 60.6176C68.5837 58.2813 68.5842 54.501 66.2481 52.1647L48.0861 34.0017L66.2481 15.8381C68.5837 13.5023 68.5837 9.72206 66.2476 7.38573ZM5.45144 5.45098L16.6818 9.75371L9.75382 16.6818L5.45144 5.45098ZM13.0207 63.4349C12.244 64.2116 10.9802 64.2116 10.2036 63.4349L4.56897 57.7998C3.79026 57.021 3.79026 55.7613 4.56897 54.9825L5.74352 53.8079L9.96912 58.0343C10.7468 58.8121 12.0085 58.8121 12.7862 58.0343C13.5644 57.2561 13.5644 55.9948 12.7862 55.2165L8.56059 50.9906L11.3776 48.1727L12.7867 49.5819C13.5644 50.3596 14.8256 50.3596 15.6038 49.5819C16.382 48.8036 16.382 47.5424 15.6038 46.7641L14.1952 45.3554L17.0123 42.5381L21.2384 46.7646C22.0161 47.5424 23.2773 47.5424 24.0555 46.7646C24.8337 45.9864 24.8337 44.7251 24.0555 43.9468L19.8294 39.7208L22.7305 36.819L31.1827 45.2719L13.0207 63.4349ZM11.8093 20.2613L14.6263 17.444L52.1171 54.9374L49.3001 57.7552L11.8093 20.2613ZM63.4305 54.9825C64.2092 55.7613 64.2092 57.021 63.4305 57.7998L57.7964 63.4349C57.0197 64.2116 55.756 64.2116 54.9788 63.4349L52.1171 60.5725C52.8808 59.8088 59.6988 52.9902 60.5688 52.1201L63.4305 54.9825ZM57.7518 49.3028L54.9342 52.1201L17.4439 14.6267L20.261 11.8088L57.7518 49.3028ZM63.4305 13.0208L45.269 31.1839L36.8173 22.7314L39.5503 19.9977L43.7764 24.2241C44.5541 25.0024 45.8158 25.0024 46.5935 24.2241C47.3717 23.4459 47.3717 22.1846 46.5935 21.4068L42.3679 17.1804L45.185 14.3631L46.5935 15.7717C47.3717 16.5495 48.6329 16.5495 49.4111 15.7717C50.1888 14.9935 50.1888 13.7322 49.4111 12.9539L48.0026 11.5453L50.8196 8.72797L55.0452 12.9539C55.8234 13.7322 57.0846 13.7322 57.8628 12.9539C58.6405 12.1762 58.6405 10.9149 57.8628 10.1366L53.6367 5.91067L54.9788 4.56791C55.756 3.79121 57.0197 3.79121 57.7964 4.56791L63.431 10.203C64.2092 10.9818 64.2092 12.2421 63.4305 13.0208Z" fill="#D8ECB7"/>
</svg>
