<svg width="28" height="26" viewBox="0 0 28 26" fill="none" xmlns="http://www.w3.org/2000/svg">
<path d="M14.0025 7.35948C10.8803 7.35948 8.36195 9.87783 8.36195 13C8.36195 16.1222 10.8803 18.6405 14.0025 18.6405C17.1246 18.6405 19.643 16.1222 19.643 13C19.643 9.87783 17.1246 7.35948 14.0025 7.35948ZM14.0025 16.6671C11.9848 16.6671 10.3354 15.0225 10.3354 13C10.3354 10.9775 11.9799 9.33292 14.0025 9.33292C16.025 9.33292 17.6695 10.9775 17.6695 13C17.6695 15.0225 16.0201 16.6671 14.0025 16.6671ZM21.1893 7.12875C21.1893 7.8602 20.6003 8.44438 19.8737 8.44438C19.1423 8.44438 18.5581 7.85529 18.5581 7.12875C18.5581 6.40221 19.1472 5.81312 19.8737 5.81312C20.6003 5.81312 21.1893 6.40221 21.1893 7.12875ZM24.9251 8.46402C24.8417 6.70166 24.4392 5.14058 23.1481 3.8544C21.8619 2.56822 20.3008 2.16568 18.5384 2.07732C16.7221 1.97423 11.2779 1.97423 9.46158 2.07732C7.70413 2.16077 6.14305 2.56332 4.85196 3.84949C3.56087 5.13567 3.16324 6.69675 3.07488 8.45911C2.97179 10.2755 2.97179 15.7196 3.07488 17.536C3.15833 19.2983 3.56087 20.8594 4.85196 22.1456C6.14305 23.4318 7.69922 23.8343 9.46158 23.9227C11.2779 24.0258 16.7221 24.0258 18.5384 23.9227C20.3008 23.8392 21.8619 23.4367 23.1481 22.1456C24.4342 20.8594 24.8368 19.2983 24.9251 17.536C25.0282 15.7196 25.0282 10.2804 24.9251 8.46402ZM22.5786 19.4849C22.1957 20.4471 21.4544 21.1883 20.4874 21.5761C19.0392 22.1505 15.6028 22.018 14.0025 22.018C12.4021 22.018 8.96085 22.1456 7.51759 21.5761C6.55541 21.1932 5.81414 20.452 5.42632 19.4849C4.85196 18.0367 4.98451 14.6004 4.98451 13C4.98451 11.3996 4.85687 7.95838 5.42632 6.51512C5.80923 5.55294 6.5505 4.81167 7.51759 4.42385C8.96576 3.84949 12.4021 3.98204 14.0025 3.98204C15.6028 3.98204 19.0441 3.8544 20.4874 4.42385C21.4495 4.80676 22.1908 5.54803 22.5786 6.51512C23.153 7.96329 23.0204 11.3996 23.0204 13C23.0204 14.6004 23.153 18.0416 22.5786 19.4849Z" fill="white"/>
</svg>
