<svg width="27" height="26" viewBox="0 0 27 26" fill="none" xmlns="http://www.w3.org/2000/svg">
<path d="M6.92938 24H2.36831V9.31173H6.92938V24ZM4.64639 7.30811C3.1879 7.30811 2.00491 6.10005 2.00491 4.64153C2.00491 3.94095 2.28321 3.26907 2.77858 2.77369C3.27396 2.2783 3.94582 2 4.64639 2C5.34695 2 6.01882 2.2783 6.51419 2.77369C7.00956 3.26907 7.28786 3.94095 7.28786 4.64153C7.28786 6.10005 6.10438 7.30811 4.64639 7.30811ZM24 24H19.4488V16.8498C19.4488 15.1458 19.4144 12.9605 17.0774 12.9605C14.706 12.9605 14.3426 14.8118 14.3426 16.7271V24H9.78643V9.31173H14.1609V11.3153H14.2247C14.8337 10.1613 16.3211 8.94341 18.5403 8.94341C23.1563 8.94341 24.0049 11.9832 24.0049 15.9315V24H24Z" fill="white"/>
</svg>
