<svg width="36" height="36" viewBox="0 0 36 36" fill="none" xmlns="http://www.w3.org/2000/svg">
<path fill-rule="evenodd" clip-rule="evenodd" d="M6.68114 10.1215C6.89162 9.7218 7.32445 9.44444 7.81822 9.44444H28.1817C28.6755 9.44444 29.1083 9.72182 29.3188 10.1215L18 17.7303L6.68114 10.1215ZM4.00011 10.6498C3.99998 10.6593 3.99997 10.6687 4.00007 10.6781V25.3333C4.00007 27.3528 5.71533 29 7.81822 29H28.1817C30.2846 29 31.9998 27.3528 31.9998 25.3333V10.6845C32.0001 10.6704 32 10.6562 31.9998 10.6421C31.9859 8.63387 30.2761 7 28.1817 7H7.81822C5.72118 7 4.00962 8.63805 4.00011 10.6498ZM29.4544 13.0142V25.3333C29.4544 26.0028 28.8788 26.5556 28.1817 26.5556H7.81822C7.12113 26.5556 6.5455 26.0028 6.5455 25.3333V13.0141L17.2701 20.2235C17.7084 20.5181 18.2916 20.5181 18.7299 20.2235L29.4544 13.0142Z" fill="#5B8B7C"/>
</svg>
