<svg width="44" height="44" viewBox="0 0 44 44" fill="none" xmlns="http://www.w3.org/2000/svg">
<path fill-rule="evenodd" clip-rule="evenodd" d="M34.7384 5.14506C35.1355 4.93859 35.6128 4.95347 35.9966 5.18365C36.3808 5.41383 36.6154 5.82676 36.6154 6.27185V14.7506H40.718C41.4261 14.7506 42 15.32 42 16.0224V27.5536C42 28.2561 41.4261 28.8254 40.718 28.8254H36.6154V37.7282C36.6154 38.1733 36.3808 38.5858 35.997 38.816C35.7936 38.9381 35.5637 39 35.3334 39C35.1291 39 34.9252 38.9521 34.7385 38.8546L17.0693 29.6732H14.6496V37.4734C14.6496 38.1759 14.0757 38.7452 13.3676 38.7452H6.44451C5.73638 38.7452 5.16248 38.1759 5.16248 37.4734V29.6732H4.56406C3.12648 29.6732 2 28.5557 2 27.1296V16.8703C2 15.4442 3.12648 14.3267 4.56406 14.3267H17.0689L34.7384 5.14506ZM36.6154 26.2818H39.436V17.2942H36.6154V26.2818ZM7.72654 29.6732H12.0855V36.2016H7.72654V29.6732ZM16.1026 16.8703H4.56406V27.1296H16.1026V16.8703ZM18.6666 27.6316L34.0512 35.6259V8.37377L18.6666 16.368V27.6316Z" fill="#5B8B7C"/>
</svg>
