<svg width="36" height="36" viewBox="0 0 36 36" fill="none" xmlns="http://www.w3.org/2000/svg">
<path d="M28.1714 32C28.0512 32 27.9309 31.9962 27.812 31.9847C23.6801 31.5365 19.6699 30.1127 16.1955 27.8628C12.9784 25.8223 10.1884 23.0387 8.13658 19.8145C5.88262 16.3426 4.45632 12.3203 4.01627 8.19464C3.92289 7.15651 4.23374 6.16308 4.88997 5.37651C5.54747 4.59121 6.47106 4.10726 7.49186 4.01532C7.60699 4.00511 7.72084 4 7.83469 4H11.6723C13.5988 4 15.2323 5.41609 15.4971 7.2957C15.648 8.43597 15.9256 9.54816 16.3247 10.6157C16.8492 12.0088 16.5102 13.5947 15.46 14.6545L14.5377 15.5739C16.042 17.9285 18.0453 19.9281 20.4028 21.4298L21.32 20.5142C22.3779 19.4697 23.9859 19.1262 25.3725 19.6447C26.4355 20.0431 27.551 20.3201 28.6869 20.4695C30.6288 20.7402 32.0474 22.4117 31.9988 24.359V28.1578C32.0026 29.1768 31.6073 30.1395 30.8859 30.8661C30.1644 31.5927 29.2025 31.9949 28.1765 31.9987C28.174 32 28.1727 32 28.1714 32ZM11.6966 6.55381H7.83469C7.38185 6.58957 7.07356 6.75046 6.85482 7.01222C6.63607 7.27399 6.53246 7.60598 6.56316 7.94564C6.95715 11.6551 8.24659 15.2891 10.2895 18.4367C12.1469 21.3544 14.6656 23.8687 17.5771 25.7151C20.7265 27.7543 24.3504 29.0401 28.0691 29.4436L28.1714 30.7231L28.1663 29.4462C28.5091 29.4449 28.8289 29.3121 29.0694 29.0695C29.3099 28.8269 29.4417 28.5064 29.4404 28.1642V24.3283C29.457 23.6478 28.985 23.091 28.3428 23.0016C27.0253 22.828 25.7205 22.5024 24.4771 22.0376C24.014 21.8665 23.4755 21.9801 23.125 22.3262L21.5055 23.9427C21.0974 24.3488 20.4655 24.4331 19.9692 24.1496C16.5678 22.2189 13.7484 19.4046 11.8143 16.0093C11.529 15.5088 11.6147 14.8818 12.0215 14.4745L13.6461 12.8528C13.9915 12.5042 14.104 11.9756 13.9288 11.5108C13.4619 10.2607 13.137 8.9595 12.963 7.64174C12.876 7.02627 12.3311 6.55381 11.6966 6.55381Z" fill="#5B8B7C"/>
</svg>
