<svg width="36" height="36" viewBox="0 0 36 36" fill="none" xmlns="http://www.w3.org/2000/svg">
<path fill-rule="evenodd" clip-rule="evenodd" d="M11.4946 9.06704C13.22 7.31669 15.56 6.33335 18 6.33335C20.44 6.33335 22.78 7.31669 24.5054 9.06704C26.2307 10.8174 27.2 13.1914 27.2 15.6668C27.2 19.2812 24.8819 22.7884 22.3402 25.5103C21.0928 26.8461 19.8415 27.9396 18.9008 28.6995C18.5507 28.9824 18.2449 29.2179 18 29.4016C17.7551 29.2179 17.4493 28.9824 17.0992 28.6995C16.1585 27.9396 14.9072 26.8461 13.6598 25.5103C11.1181 22.7884 8.8 19.2812 8.8 15.6668C8.8 13.1914 9.76928 10.8174 11.4946 9.06704ZM17.3615 31.8039C17.3618 31.8041 17.3621 31.8043 18 30.8336L18.6379 31.8043C18.2516 32.0655 17.7478 32.0651 17.3615 31.8039ZM17.3615 31.8039L18 30.8336C18.6379 31.8043 18.6391 31.8035 18.6394 31.8033L18.6418 31.8016L18.6495 31.7964L18.6758 31.7783C18.6982 31.7629 18.7302 31.7407 18.771 31.7121C18.8527 31.6547 18.9701 31.571 19.118 31.4626C19.4139 31.2459 19.8327 30.9295 20.3336 30.5249C21.3335 29.7171 22.6697 28.5502 24.0098 27.1151C26.6431 24.2952 29.5 20.2191 29.5 15.6668C29.5 12.5725 28.2884 9.60506 26.1317 7.41712C23.9751 5.22917 21.05 4 18 4C14.95 4 12.0249 5.22917 9.86827 7.41712C7.7116 9.60506 6.5 12.5725 6.5 15.6668C6.5 20.2191 9.3569 24.2952 11.9902 27.1151C13.3303 28.5502 14.6665 29.7171 15.6664 30.5249C16.1673 30.9295 16.5861 31.2459 16.882 31.4626C17.0299 31.571 17.1473 31.6547 17.229 31.7121C17.2698 31.7407 17.3018 31.7629 17.3242 31.7783L17.3505 31.7964L17.3582 31.8016L17.3615 31.8039ZM15.7 15.6668C15.7 14.3781 16.7298 13.3334 18 13.3334C19.2703 13.3334 20.3 14.3781 20.3 15.6668C20.3 16.9554 19.2703 18.0001 18 18.0001C16.7298 18.0001 15.7 16.9554 15.7 15.6668ZM18 11.0001C15.4595 11.0001 13.4 13.0894 13.4 15.6668C13.4 18.2441 15.4595 20.3335 18 20.3335C20.5405 20.3335 22.6 18.2441 22.6 15.6668C22.6 13.0894 20.5405 11.0001 18 11.0001Z" fill="#5B8B7C"/>
</svg>
