<svg width="68" height="68" viewBox="0 0 68 68" fill="none" xmlns="http://www.w3.org/2000/svg">
<path fill-rule="evenodd" clip-rule="evenodd" d="M60.6958 0H7.30417C3.27673 0 0 3.27673 0 7.30417V60.6958C0 64.7233 3.27673 68 7.30417 68H60.6958C64.7233 68 68 64.7233 68 60.6958V7.30417C68 3.27673 64.7233 0 60.6958 0ZM7.30417 3.98438H60.6958C62.5262 3.98438 64.0156 5.47385 64.0156 7.30417V16.0703H3.98438V7.30417C3.98438 5.47385 5.47385 3.98438 7.30417 3.98438ZM64.0156 60.6958C64.0156 62.5262 62.5262 64.0156 60.6958 64.0156H7.30417C5.47385 64.0156 3.98438 62.5262 3.98438 60.6958V20.0547H64.0156V60.6958ZM59.8984 10.0938C59.8984 11.1941 59.0066 12.0859 57.9062 12.0859C56.8059 12.0859 55.9141 11.1941 55.9141 10.0938C55.9141 8.99338 56.8059 8.10156 57.9062 8.10156C59.0066 8.10156 59.8984 8.99338 59.8984 10.0938ZM49.9375 12.0859C51.0379 12.0859 51.9297 11.1941 51.9297 10.0938C51.9297 8.99338 51.0379 8.10156 49.9375 8.10156C48.8371 8.10156 47.9453 8.99338 47.9453 10.0938C47.9453 11.1941 48.8371 12.0859 49.9375 12.0859ZM43.9609 10.0938C43.9609 11.1941 43.0691 12.0859 41.9688 12.0859C40.8684 12.0859 39.9766 11.1941 39.9766 10.0938C39.9766 8.99338 40.8684 8.10156 41.9688 8.10156C43.0691 8.10156 43.9609 8.99338 43.9609 10.0938ZM8.10156 53.9219C8.10156 39.6414 19.7195 28.0234 34 28.0234C48.2805 28.0234 59.8984 39.6414 59.8984 53.9219C59.8984 55.0222 59.0066 55.9141 57.9062 55.9141H10.0938C8.99338 55.9141 8.10156 55.0222 8.10156 53.9219ZM43.6943 41.1158L37.4505 51.9297H55.8243C54.8152 40.776 45.4125 32.0078 34 32.0078C22.5875 32.0078 13.1853 40.776 12.1757 51.9297H32.8498L40.2437 39.1237C40.7937 38.1706 42.0118 37.8438 42.9648 38.3942C43.9179 38.9447 44.2442 40.1628 43.6943 41.1158Z" fill="#5B8B7C"/>
</svg>
