<svg width="68" height="68" viewBox="0 0 68 68" fill="none" xmlns="http://www.w3.org/2000/svg">
<path fill-rule="evenodd" clip-rule="evenodd" d="M65.9999 11.9531C67.1046 11.9531 67.9999 11.0613 67.9999 9.96094V1.99219C67.9999 0.891815 67.1046 0 65.9999 0H57.9997C56.895 0 55.9997 0.891815 55.9997 1.99219V3.98438H21.3322V1.99219C21.3322 0.891815 20.4369 0 19.3322 0H11.332C10.2278 0 9.33195 0.891815 9.33195 1.99219V9.96094C9.33195 11.0613 10.2278 11.9531 11.332 11.9531H13.332V46.4844H11.332C10.2278 46.4844 9.33195 47.3762 9.33195 48.4766V56.4453C9.33195 57.5452 10.2278 58.4375 11.332 58.4375H19.3322C20.4369 58.4375 21.3322 57.5452 21.3322 56.4453V54.4531H46.6677V58.0619C46.6677 59.1623 47.563 60.0541 48.6677 60.0541C49.7719 60.0541 50.6673 59.1623 50.6673 58.0619V54.4531H55.9997V56.4453C55.9997 57.5452 56.895 58.4375 57.9997 58.4375H65.9999C67.1046 58.4375 67.9999 57.5452 67.9999 56.4453V48.4766C67.9999 47.3762 67.1046 46.4844 65.9999 46.4844H63.9999V11.9531H65.9999ZM59.9998 3.98438H63.9999V7.96875H59.9998V3.98438ZM13.332 3.98438H17.3321V7.96875H13.332V3.98438ZM17.3321 54.4531H13.332V50.4688H17.3321V54.4531ZM63.9999 54.4531H59.9998V50.4688H63.9999V54.4531ZM59.9998 46.4844H57.9997C56.895 46.4844 55.9997 47.3762 55.9997 48.4766V50.4688H21.3322V48.4766C21.3322 47.3762 20.4369 46.4844 19.3322 46.4844H17.3321V11.9531H19.3322C20.4369 11.9531 21.3322 11.0613 21.3322 9.96094V7.96875H55.9997V9.96094C55.9997 11.0613 56.895 11.9531 57.9997 11.9531H59.9998V46.4844ZM7.24391 21.5156H2.00005C0.895333 21.5156 0 20.6238 0 19.5234C0 18.4231 0.895333 17.5312 2.00005 17.5312H7.24391C8.34863 17.5312 9.24396 18.4231 9.24396 19.5234C9.24396 20.6238 8.34863 21.5156 7.24391 21.5156ZM4.00009 32.8042C4.00009 33.9046 3.10476 34.7964 2.00005 34.7964C0.895333 34.7964 0 33.9046 0 32.8042V27.5809C0 26.4805 0.895333 25.5887 2.00005 25.5887C3.10476 25.5887 4.00009 26.4805 4.00009 27.5809V32.8042ZM2.00005 47.9899C3.10476 47.9899 4.00009 47.0981 4.00009 45.9977V40.7745C4.00009 39.6741 3.10476 38.7823 2.00005 38.7823C0.895333 38.7823 0 39.6741 0 40.7745V45.9977C0 47.0981 0.895333 47.9899 2.00005 47.9899ZM4.00009 54.0557V59.279C4.00009 60.3794 3.10476 61.2712 2.00005 61.2712C0.895333 61.2712 0 60.3794 0 59.279V54.0557C0 52.9554 0.895333 52.0635 2.00005 52.0635C3.10476 52.0635 4.00009 52.9554 4.00009 54.0557ZM8.62152 64.0156H3.37765C2.27294 64.0156 1.3776 64.9074 1.3776 66.0078C1.3776 67.1077 2.27294 68 3.37765 68H8.62152C9.72623 68 10.6216 67.1077 10.6216 66.0078C10.6216 64.9074 9.72623 64.0156 8.62152 64.0156ZM16.7103 64.0156H21.9547C23.0594 64.0156 23.9547 64.9074 23.9547 66.0078C23.9547 67.1077 23.0589 68 21.9547 68H16.7103C15.6061 68 14.7103 67.1077 14.7103 66.0078C14.7103 64.9074 15.6061 64.0156 16.7103 64.0156ZM35.3045 64.0156H30.0606C28.9559 64.0156 28.0606 64.9074 28.0606 66.0078C28.0606 67.1077 28.9559 67.9995 30.0606 67.9995H35.3045C36.4092 67.9995 37.3045 67.1077 37.3045 66.0078C37.3045 64.9074 36.4092 64.0156 35.3045 64.0156ZM43.3771 64.0156H48.6215C49.7257 64.0156 50.6215 64.9074 50.6215 66.0078C50.6215 67.1077 49.7257 67.9995 48.6215 67.9995H43.3771C42.2729 67.9995 41.377 67.1077 41.377 66.0078C41.377 64.9074 42.2729 64.0156 43.3771 64.0156ZM26.9323 14.0781H50.1329C51.2376 14.0781 52.1329 14.9699 52.1329 16.0703V20.8516C52.1329 21.9519 51.2376 22.8438 50.1329 22.8438C49.0282 22.8438 48.1328 21.9519 48.1328 20.8516V18.0625H40.5326V40.375H41.866C42.9707 40.375 43.8661 41.2668 43.8661 42.3672C43.8661 43.467 42.9707 44.3594 41.866 44.3594H35.1992C34.095 44.3594 33.1992 43.467 33.1992 42.3672C33.1992 41.2668 34.095 40.375 35.1992 40.375H36.5326V18.0625H28.9324V20.8516C28.9324 21.9519 28.0371 22.8438 26.9323 22.8438C25.8282 22.8438 24.9323 21.9519 24.9323 20.8516V16.0703C24.9323 14.9699 25.8282 14.0781 26.9323 14.0781Z" fill="#EAA581"/>
</svg>
