<svg width="26" height="26" viewBox="0 0 26 26" fill="none" xmlns="http://www.w3.org/2000/svg">
<path d="M21.7386 8.48592C21.7526 8.68279 21.7526 8.87969 21.7526 9.07656C21.7526 15.0812 17.2158 22 8.92388 22C6.36929 22 3.99621 21.2547 2 19.961C2.36296 20.0031 2.71191 20.0172 3.08883 20.0172C5.19667 20.0172 7.13706 19.3 8.68656 18.0766C6.70432 18.0344 5.04314 16.7266 4.4708 14.9266C4.75001 14.9687 5.02918 14.9969 5.32236 14.9969C5.72717 14.9969 6.13202 14.9406 6.5089 14.8422C4.44291 14.4203 2.89337 12.5922 2.89337 10.3844V10.3281C3.4936 10.6656 4.19163 10.8766 4.93143 10.9047C3.71695 10.089 2.9213 8.69685 2.9213 7.12184C2.9213 6.27811 3.14461 5.50467 3.53549 4.82967C5.75505 7.58591 9.09138 9.38588 12.8325 9.58279C12.7627 9.24529 12.7208 8.89376 12.7208 8.54219C12.7208 6.03904 14.731 4 17.2297 4C18.5279 4 19.7005 4.54844 20.5241 5.43437C21.5431 5.23751 22.5203 4.8578 23.3858 4.3375C23.0507 5.39221 22.3388 6.27815 21.4036 6.84061C22.3109 6.74222 23.1904 6.48904 24 6.13752C23.3859 7.03748 22.6181 7.83901 21.7386 8.48592Z" fill="white"/>
</svg>
