<svg width="965" height="977" viewBox="0 0 965 977" fill="none" xmlns="http://www.w3.org/2000/svg">
<path opacity="0.2" d="M877.002 524.112C877.002 523.899 877.002 523.702 877.003 523.489C876.803 408.746 794.136 293.852 686.178 213.127C641.484 179.707 586.907 150.155 523.29 143.467C406.678 131.211 306.677 197.538 306.626 275.943C306.617 289.484 309.584 303.372 315.964 317.294C329.099 345.945 347.523 374.74 347.503 404.59C347.501 408.007 347.258 411.43 346.737 414.875C341.771 447.737 312.516 475.605 286.528 502.839C242.338 549.148 204.157 599.974 191.185 655.422C188.373 667.438 187.008 679.38 187 691.108C186.93 799.022 301.598 890.249 460.247 882.545C561.893 877.607 650.734 832.168 722.244 782.389C820.341 714.102 876.937 622.832 877.002 524.112Z" fill="url(#paint0_linear_6_440)"/>
<path opacity="0.2" d="M615.076 43.4555C693.543 -8.15746 829.534 -19.6725 901.384 41.2765C990.887 117.208 985.395 246.939 888.4 315.346C843.834 346.781 791.803 375.048 767.781 418.552C744.239 461.17 752.207 510.147 757.087 556.681C765.382 635.804 762.983 717.359 728.397 791.619C651.933 955.785 416.068 1031.19 227.549 930.584C118.594 872.446 59.756 771.483 24.0722 674.118C-41.8742 494.199 17.3718 159.884 331.166 174.827C383.67 177.328 439.89 190.946 486.429 171.484C533.659 151.728 551.254 106.088 582.105 71.4385C591.255 61.1555 602.422 51.7815 615.076 43.4555Z" fill="url(#paint1_linear_6_440)"/>
<defs>
<linearGradient id="paint0_linear_6_440" x1="532.002" y1="142" x2="532.002" y2="883" gradientUnits="userSpaceOnUse">
<stop stop-color="#CB6F41"/>
<stop offset="1" stop-color="white"/>
</linearGradient>
<linearGradient id="paint1_linear_6_440" x1="482.5" y1="0" x2="482.5" y2="976.003" gradientUnits="userSpaceOnUse">
<stop stop-color="#CB6F41"/>
<stop offset="1" stop-color="white"/>
</linearGradient>
</defs>
</svg>
