<svg width="1720" height="754" viewBox="0 0 1720 754" fill="none" xmlns="http://www.w3.org/2000/svg">
<path opacity="0.5" d="M1186.58 90C1139.08 90 1091.58 96.8272 1049.22 110.451C972.468 135.138 907.148 176.644 886.677 229.405C884.055 236.176 882.161 243.135 881.085 250.267C875.899 284.553 881.085 319.623 868.468 353.131C855.85 386.636 818.902 419.976 765.115 425.18C759.91 425.683 754.753 425.918 749.655 425.918C697.568 425.918 650.685 401.404 601.287 387.919C560.726 376.85 495.032 367.641 430.648 367.639C342.369 367.636 256.545 384.94 241.164 438.479C233.23 466.113 247.928 494.795 271.924 518.42C362.064 607.152 541.975 611.263 660.045 677.012C709.932 704.791 758.005 737.486 823.833 749.645C840.149 752.658 855.931 754 871.265 754C959.491 754 1032.99 709.619 1109.2 684.091C1193.27 655.929 1290.69 656.129 1383.31 654.945C1432 654.325 1479.86 650.509 1528.27 648.91C1567.78 647.6 1606.68 652.97 1632.79 628.058C1650.73 610.945 1652.31 588.614 1644.65 568.656C1636.98 548.696 1621.02 530.481 1605.65 512.39C1555.27 453.079 1508.79 390.773 1496.35 323.894C1491.41 297.309 1491.92 270.291 1483.67 244.036C1465.49 186.2 1402.65 134.686 1318.86 108.921C1277.81 96.2982 1232.2 90 1186.58 90Z" fill="url(#paint0_linear_5_695)"/>
<path opacity="0.5" d="M725.667 720C726.001 720 726.313 720 726.649 720C907.821 719.728 1089.23 637.691 1216.69 530.603C1269.46 486.27 1316.12 432.139 1326.68 369.062C1346.04 253.438 1241.31 154.334 1117.51 154.334C1096.13 154.334 1074.2 157.286 1052.22 163.62C1006.98 176.662 961.516 194.946 914.385 194.946C908.99 194.946 903.585 194.708 898.145 194.193C846.257 189.291 802.255 160.305 759.253 134.555C686.134 90.7717 605.881 52.9512 518.333 40.1261C499.362 37.347 480.504 36 461.987 36C291.597 36 147.555 149.748 159.718 307.038C167.515 407.811 239.26 495.865 317.86 566.732C425.68 663.946 569.791 720 725.667 720Z" fill="url(#paint1_linear_5_695)"/>
<path opacity="0.5" d="M692.692 250C692.46 250 692.244 250 692.012 250C566.585 250.168 440.992 300.9 352.75 367.126C316.218 394.543 283.915 428.019 276.603 467.027C263.207 538.531 335.709 599.819 421.416 599.819C436.216 599.819 451.398 597.993 466.616 594.076C497.936 586.011 529.412 574.704 562.04 574.704C565.775 574.704 569.518 574.851 573.284 575.169C609.207 578.201 639.669 596.128 669.44 612.051C720.062 639.129 775.62 662.517 836.231 670.448C849.365 672.168 862.419 673 875.24 673C993.202 673 1092.92 602.655 1084.5 505.385C1079.11 443.064 1029.44 388.609 975.021 344.784C900.374 284.665 800.605 250 692.692 250Z" fill="url(#paint2_linear_5_695)"/>
<path opacity="0.5" d="M1634.5 0C1615.86 0 1597.45 6.32269 1583.16 20.214C1548.88 53.5534 1554.16 112.529 1589.08 143.556C1606.04 158.623 1624.04 165 1641.07 165C1699.82 165 1747.27 89.1997 1701.98 32.1994C1696.11 24.8068 1688.98 18.5521 1681.06 13.5733C1667.11 4.79676 1650.72 0 1634.5 0Z" fill="url(#paint3_linear_5_695)"/>
<path opacity="0.5" d="M164.502 698C183.136 698 201.554 692.06 215.839 679.012C250.122 647.693 244.84 592.291 209.917 563.145C192.959 548.991 174.964 543 157.926 543C99.1747 543 51.7313 614.207 97.0202 667.753C102.893 674.697 110.02 680.574 117.937 685.251C131.886 693.493 148.278 698 164.502 698Z" fill="url(#paint4_linear_5_695)"/>
<path opacity="0.5" d="M54.5066 490.004C66.3865 490.004 78.1274 485.981 87.2347 477.14C109.09 455.924 105.724 418.392 83.4595 398.647C72.6482 389.058 61.1765 385 50.3151 385C12.8613 385 -17.3834 433.238 11.4875 469.514C15.2316 474.219 19.7743 478.2 24.8212 481.368C33.7134 486.951 44.1635 490.004 54.5066 490.004Z" fill="url(#paint5_linear_5_695)"/>
<defs>
<linearGradient id="paint0_linear_5_695" x1="944" y1="90" x2="944" y2="754" gradientUnits="userSpaceOnUse">
<stop stop-color="#D8ECB7"/>
<stop offset="1" stop-color="#DCECF2" stop-opacity="0"/>
</linearGradient>
<linearGradient id="paint1_linear_5_695" x1="744" y1="36" x2="744" y2="720" gradientUnits="userSpaceOnUse">
<stop stop-color="#D8ECB7"/>
<stop offset="1" stop-color="#DCECF2" stop-opacity="0"/>
</linearGradient>
<linearGradient id="paint2_linear_5_695" x1="680" y1="250" x2="680" y2="673" gradientUnits="userSpaceOnUse">
<stop stop-color="#D8ECB7"/>
<stop offset="1" stop-color="#DCECF2" stop-opacity="0"/>
</linearGradient>
<linearGradient id="paint3_linear_5_695" x1="1640" y1="0" x2="1640" y2="165" gradientUnits="userSpaceOnUse">
<stop stop-color="#D8ECB7"/>
<stop offset="1" stop-color="#DCECF2" stop-opacity="0"/>
</linearGradient>
<linearGradient id="paint4_linear_5_695" x1="159" y1="543" x2="159" y2="698" gradientUnits="userSpaceOnUse">
<stop stop-color="#D8ECB7"/>
<stop offset="1" stop-color="#DCECF2" stop-opacity="0"/>
</linearGradient>
<linearGradient id="paint5_linear_5_695" x1="51" y1="385" x2="51" y2="490.004" gradientUnits="userSpaceOnUse">
<stop stop-color="#D8ECB7"/>
<stop offset="1" stop-color="#DCECF2" stop-opacity="0"/>
</linearGradient>
</defs>
</svg>
