<svg width="995" height="986" viewBox="0 0 995 986" fill="none" xmlns="http://www.w3.org/2000/svg">
<path opacity="0.2" d="M968.782 299.698C921.858 205.873 835.447 153.509 744.799 149.304C736.925 148.939 729.125 148.921 721.385 149.152C721.192 149.15 721.015 149.141 720.82 149.142C418.774 147.069 223.218 273.772 141.741 340.008C126.454 351.595 112.035 364.6 98.6508 378.989C98.5103 379.14 98.4167 379.242 98.4167 379.242L98.4154 379.244C66.1384 414.03 39.9641 456.924 22.5497 507.809C-7.85697 596.642 -9.20964 702.807 28.9268 793.486C66.5377 882.905 140.261 948.488 222.143 974.734C261.505 987.355 303.679 989.923 342.545 979.625C387.364 967.756 426.137 940.639 459.986 906.545C495.408 870.865 525.773 829.217 560.516 792.725C598.155 753.204 636.426 715.016 684.541 694.472C773.25 656.596 872.617 643.203 939.719 563.063C998.227 493.187 1014.13 390.384 968.782 299.698Z" fill="url(#paint0_linear_4_617)"/>
<path opacity="0.2" d="M595.768 742.895C673.115 706.912 716.283 640.649 719.749 571.137C720.05 565.099 720.065 559.118 719.875 553.182C719.876 553.035 719.884 552.899 719.883 552.75C721.592 321.13 617.141 171.171 562.538 108.692C552.986 96.9689 542.265 85.9119 530.403 75.6488C530.278 75.5411 530.195 75.4693 530.195 75.4693L530.193 75.4683C501.517 50.7172 466.156 30.6459 424.207 17.2919C350.976 -6.02498 263.456 -7.06226 188.703 22.182C114.988 51.0234 60.9238 107.557 39.2873 170.346C28.883 200.531 26.7657 232.872 35.255 262.675C45.0397 297.044 67.3943 326.776 95.5003 352.733C124.914 379.896 159.247 403.181 189.33 429.823C221.91 458.685 253.392 488.033 270.327 524.93C301.551 592.954 312.592 669.152 378.657 720.608C436.261 765.475 521.009 777.672 595.768 742.895Z" fill="url(#paint1_linear_4_617)"/>
<defs>
<linearGradient id="paint0_linear_4_617" x1="-1.82205e-05" y1="567.5" x2="995" y2="567.5" gradientUnits="userSpaceOnUse">
<stop stop-color="#CB6F41" stop-opacity="0"/>
<stop offset="1" stop-color="#CB6F41"/>
</linearGradient>
<linearGradient id="paint1_linear_4_617" x1="375" y1="0" x2="375" y2="763" gradientUnits="userSpaceOnUse">
<stop stop-color="#CB6F41" stop-opacity="0"/>
<stop offset="1" stop-color="#CB6F41"/>
</linearGradient>
</defs>
</svg>
