<svg width="398" height="469" viewBox="0 0 398 469" fill="none" xmlns="http://www.w3.org/2000/svg">
<g filter="url(#filter0_d_1_1210)">
<rect x="28" y="20" width="330" height="394" rx="8" fill="white" shape-rendering="crispEdges"/>
<rect x="158" y="68" width="70" height="70" rx="35" fill="#76AAEB"/>
<path d="M201.739 98.4859C201.753 98.6828 201.753 98.8797 201.753 99.0766C201.753 105.081 197.216 112 188.924 112C186.369 112 183.996 111.255 182 109.961C182.363 110.003 182.712 110.017 183.089 110.017C185.197 110.017 187.137 109.3 188.687 108.077C186.704 108.034 185.043 106.727 184.471 104.927C184.75 104.969 185.029 104.997 185.322 104.997C185.727 104.997 186.132 104.941 186.509 104.842C184.443 104.42 182.893 102.592 182.893 100.384V100.328C183.494 100.666 184.192 100.877 184.931 100.905C183.717 100.089 182.921 98.6969 182.921 97.1218C182.921 96.2781 183.145 95.5047 183.535 94.8297C185.755 97.5859 189.091 99.3859 192.832 99.5828C192.763 99.2453 192.721 98.8938 192.721 98.5422C192.721 96.039 194.731 94 197.23 94C198.528 94 199.7 94.5484 200.524 95.4344C201.543 95.2375 202.52 94.8578 203.386 94.3375C203.051 95.3922 202.339 96.2782 201.404 96.8406C202.311 96.7422 203.19 96.489 204 96.1375C203.386 97.0375 202.618 97.839 201.739 98.4859Z" fill="white"/>
<path d="M114.865 176.18C113.881 176.18 113.023 176.024 112.291 175.712C111.571 175.4 111.019 174.992 110.635 174.488C110.263 173.972 110.065 173.42 110.041 172.832C110.041 172.736 110.077 172.652 110.149 172.58C110.221 172.508 110.311 172.472 110.419 172.472H111.301C111.517 172.472 111.667 172.592 111.751 172.832C111.859 173.336 112.165 173.774 112.669 174.146C113.185 174.506 113.917 174.686 114.865 174.686C115.885 174.686 116.647 174.506 117.151 174.146C117.655 173.786 117.907 173.288 117.907 172.652C117.907 172.244 117.781 171.908 117.529 171.644C117.289 171.38 116.923 171.152 116.431 170.96C115.951 170.756 115.225 170.51 114.253 170.222C113.329 169.958 112.591 169.676 112.039 169.376C111.499 169.076 111.091 168.71 110.815 168.278C110.539 167.834 110.401 167.276 110.401 166.604C110.401 165.956 110.575 165.38 110.923 164.876C111.271 164.36 111.775 163.958 112.435 163.67C113.095 163.37 113.875 163.22 114.775 163.22C115.711 163.22 116.509 163.388 117.169 163.724C117.841 164.048 118.351 164.462 118.699 164.966C119.047 165.458 119.233 165.956 119.257 166.46C119.257 166.568 119.221 166.658 119.149 166.73C119.077 166.802 118.987 166.838 118.879 166.838H117.979C117.883 166.838 117.793 166.808 117.709 166.748C117.625 166.688 117.565 166.598 117.529 166.478C117.457 165.962 117.169 165.536 116.665 165.2C116.161 164.864 115.531 164.696 114.775 164.696C113.959 164.696 113.311 164.858 112.831 165.182C112.351 165.494 112.111 165.962 112.111 166.586C112.111 167.006 112.219 167.348 112.435 167.612C112.663 167.876 113.005 168.11 113.461 168.314C113.929 168.518 114.607 168.752 115.495 169.016C116.515 169.304 117.313 169.592 117.889 169.88C118.477 170.168 118.915 170.528 119.203 170.96C119.491 171.38 119.635 171.926 119.635 172.598C119.635 173.726 119.203 174.608 118.339 175.244C117.487 175.868 116.329 176.18 114.865 176.18ZM122.211 179.42C122.091 179.42 121.989 179.384 121.905 179.312C121.833 179.24 121.797 179.138 121.797 179.006V167.054C121.797 166.922 121.833 166.82 121.905 166.748C121.989 166.676 122.091 166.64 122.211 166.64H122.967C123.099 166.64 123.201 166.676 123.273 166.748C123.345 166.82 123.381 166.922 123.381 167.054V167.846C124.077 166.922 125.067 166.46 126.351 166.46C127.611 166.46 128.553 166.862 129.177 167.666C129.813 168.458 130.149 169.472 130.185 170.708C130.197 170.84 130.203 171.044 130.203 171.32C130.203 171.596 130.197 171.8 130.185 171.932C130.149 173.156 129.813 174.17 129.177 174.974C128.553 175.778 127.611 176.18 126.351 176.18C125.067 176.18 124.095 175.724 123.435 174.812V179.006C123.435 179.126 123.393 179.222 123.309 179.294C123.237 179.378 123.141 179.42 123.021 179.42H122.211ZM126.009 174.776C126.873 174.776 127.503 174.506 127.899 173.966C128.295 173.426 128.511 172.718 128.547 171.842C128.559 171.722 128.565 171.548 128.565 171.32C128.565 169.016 127.713 167.864 126.009 167.864C125.169 167.864 124.533 168.146 124.101 168.71C123.681 169.262 123.459 169.916 123.435 170.672C123.423 170.804 123.417 171.038 123.417 171.374C123.417 171.71 123.423 171.944 123.435 172.076C123.459 172.808 123.687 173.444 124.119 173.984C124.563 174.512 125.193 174.776 126.009 174.776ZM136.174 176.18C134.95 176.18 133.972 175.802 133.24 175.046C132.508 174.278 132.106 173.234 132.034 171.914L132.016 171.302L132.034 170.708C132.106 169.412 132.508 168.38 133.24 167.612C133.972 166.844 134.95 166.46 136.174 166.46C137.494 166.46 138.514 166.88 139.234 167.72C139.966 168.56 140.332 169.7 140.332 171.14V171.464C140.332 171.584 140.29 171.686 140.206 171.77C140.134 171.842 140.038 171.878 139.918 171.878H133.672V172.04C133.708 172.82 133.948 173.486 134.392 174.038C134.836 174.59 135.424 174.866 136.156 174.866C136.72 174.866 137.176 174.758 137.524 174.542C137.884 174.314 138.154 174.08 138.334 173.84C138.442 173.696 138.526 173.612 138.586 173.588C138.646 173.552 138.748 173.534 138.892 173.534H139.684C139.792 173.534 139.882 173.564 139.954 173.624C140.038 173.684 140.08 173.762 140.08 173.858C140.08 174.122 139.918 174.44 139.594 174.812C139.27 175.184 138.808 175.508 138.208 175.784C137.62 176.048 136.942 176.18 136.174 176.18ZM138.694 170.654V170.6C138.694 169.76 138.466 169.076 138.01 168.548C137.554 168.02 136.942 167.756 136.174 167.756C135.394 167.756 134.782 168.02 134.338 168.548C133.894 169.076 133.672 169.76 133.672 170.6V170.654H138.694ZM142.935 176C142.815 176 142.713 175.964 142.629 175.892C142.557 175.808 142.521 175.706 142.521 175.586V167.054C142.521 166.934 142.557 166.838 142.629 166.766C142.713 166.682 142.815 166.64 142.935 166.64H143.709C143.841 166.64 143.943 166.676 144.015 166.748C144.087 166.82 144.123 166.922 144.123 167.054V167.846C144.483 167.402 144.897 167.06 145.365 166.82C145.845 166.58 146.439 166.46 147.147 166.46C148.299 166.46 149.193 166.832 149.829 167.576C150.465 168.308 150.783 169.28 150.783 170.492V175.586C150.783 175.706 150.741 175.808 150.657 175.892C150.585 175.964 150.489 176 150.369 176H149.541C149.421 176 149.319 175.964 149.235 175.892C149.163 175.808 149.127 175.706 149.127 175.586V170.6C149.127 169.736 148.917 169.064 148.497 168.584C148.077 168.104 147.477 167.864 146.697 167.864C145.929 167.864 145.317 168.11 144.861 168.602C144.405 169.082 144.177 169.748 144.177 170.6V175.586C144.177 175.706 144.135 175.808 144.051 175.892C143.979 175.964 143.883 176 143.763 176H142.935ZM156.804 176.18C155.544 176.18 154.596 175.772 153.96 174.956C153.336 174.14 153 173.108 152.952 171.86L152.934 171.32L152.952 170.78C153 169.544 153.342 168.518 153.978 167.702C154.614 166.874 155.556 166.46 156.804 166.46C158.052 166.46 159.024 166.904 159.72 167.792V163.634C159.72 163.514 159.756 163.418 159.828 163.346C159.912 163.262 160.014 163.22 160.134 163.22H160.944C161.064 163.22 161.16 163.262 161.232 163.346C161.316 163.418 161.358 163.514 161.358 163.634V175.586C161.358 175.706 161.316 175.808 161.232 175.892C161.16 175.964 161.064 176 160.944 176H160.17C160.05 176 159.954 175.964 159.882 175.892C159.81 175.808 159.774 175.706 159.774 175.586V174.812C159.09 175.724 158.1 176.18 156.804 176.18ZM157.146 174.776C157.986 174.776 158.616 174.5 159.036 173.948C159.456 173.384 159.684 172.718 159.72 171.95C159.732 171.818 159.738 171.59 159.738 171.266C159.738 170.93 159.732 170.696 159.72 170.564C159.696 169.832 159.462 169.202 159.018 168.674C158.586 168.134 157.962 167.864 157.146 167.864C156.282 167.864 155.652 168.134 155.256 168.674C154.86 169.214 154.644 169.922 154.608 170.798L154.59 171.32C154.59 173.624 155.442 174.776 157.146 174.776ZM164.342 164.876C164.222 164.876 164.12 164.84 164.036 164.768C163.964 164.684 163.928 164.582 163.928 164.462V163.526C163.928 163.406 163.964 163.304 164.036 163.22C164.12 163.136 164.222 163.094 164.342 163.094H165.404C165.524 163.094 165.626 163.136 165.71 163.22C165.794 163.304 165.836 163.406 165.836 163.526V164.462C165.836 164.582 165.794 164.684 165.71 164.768C165.626 164.84 165.524 164.876 165.404 164.876H164.342ZM164.486 176C164.366 176 164.264 175.964 164.18 175.892C164.108 175.808 164.072 175.706 164.072 175.586V167.054C164.072 166.934 164.108 166.838 164.18 166.766C164.264 166.682 164.366 166.64 164.486 166.64H165.278C165.398 166.64 165.494 166.682 165.566 166.766C165.65 166.838 165.692 166.934 165.692 167.054V175.586C165.692 175.706 165.65 175.808 165.566 175.892C165.494 175.964 165.398 176 165.278 176H164.486ZM168.81 176C168.69 176 168.588 175.964 168.504 175.892C168.432 175.808 168.396 175.706 168.396 175.586V167.054C168.396 166.934 168.432 166.838 168.504 166.766C168.588 166.682 168.69 166.64 168.81 166.64H169.584C169.716 166.64 169.818 166.676 169.89 166.748C169.962 166.82 169.998 166.922 169.998 167.054V167.846C170.358 167.402 170.772 167.06 171.24 166.82C171.72 166.58 172.314 166.46 173.022 166.46C174.174 166.46 175.068 166.832 175.704 167.576C176.34 168.308 176.658 169.28 176.658 170.492V175.586C176.658 175.706 176.616 175.808 176.532 175.892C176.46 175.964 176.364 176 176.244 176H175.416C175.296 176 175.194 175.964 175.11 175.892C175.038 175.808 175.002 175.706 175.002 175.586V170.6C175.002 169.736 174.792 169.064 174.372 168.584C173.952 168.104 173.352 167.864 172.572 167.864C171.804 167.864 171.192 168.11 170.736 168.602C170.28 169.082 170.052 169.748 170.052 170.6V175.586C170.052 175.706 170.01 175.808 169.926 175.892C169.854 175.964 169.758 176 169.638 176H168.81ZM183.057 179.96C182.061 179.96 181.263 179.792 180.663 179.456C180.063 179.12 179.637 178.736 179.385 178.304C179.145 177.872 179.025 177.5 179.025 177.188C179.025 177.08 179.067 176.984 179.151 176.9C179.235 176.828 179.331 176.792 179.439 176.792H180.231C180.339 176.792 180.429 176.816 180.501 176.864C180.573 176.924 180.633 177.026 180.681 177.17C181.017 178.13 181.779 178.61 182.967 178.61C183.867 178.61 184.533 178.418 184.965 178.034C185.397 177.65 185.613 176.972 185.613 176V174.758C184.917 175.646 183.945 176.09 182.697 176.09C181.425 176.09 180.471 175.682 179.835 174.866C179.211 174.05 178.881 173.018 178.845 171.77L178.827 171.266L178.845 170.78C178.881 169.544 179.211 168.518 179.835 167.702C180.471 166.874 181.425 166.46 182.697 166.46C183.957 166.46 184.941 166.922 185.649 167.846V167.072C185.649 166.952 185.685 166.85 185.757 166.766C185.841 166.682 185.943 166.64 186.063 166.64H186.837C186.957 166.64 187.053 166.682 187.125 166.766C187.209 166.85 187.251 166.952 187.251 167.072V175.802C187.251 178.574 185.853 179.96 183.057 179.96ZM183.021 174.686C183.861 174.686 184.491 174.416 184.911 173.876C185.343 173.324 185.577 172.664 185.613 171.896C185.625 171.788 185.631 171.578 185.631 171.266C185.631 170.966 185.625 170.762 185.613 170.654C185.577 169.886 185.343 169.232 184.911 168.692C184.491 168.14 183.861 167.864 183.021 167.864C182.157 167.864 181.527 168.14 181.131 168.692C180.747 169.232 180.537 169.934 180.501 170.798L180.483 171.266L180.501 171.752C180.537 172.616 180.747 173.324 181.131 173.876C181.527 174.416 182.157 174.686 183.021 174.686ZM198.192 176.18C196.872 176.18 195.852 175.808 195.132 175.064C194.424 174.32 194.046 173.33 193.998 172.094L193.98 171.32L193.998 170.546C194.046 169.31 194.43 168.32 195.15 167.576C195.882 166.832 196.896 166.46 198.192 166.46C199.488 166.46 200.496 166.832 201.216 167.576C201.948 168.32 202.338 169.31 202.386 170.546C202.41 170.81 202.422 171.068 202.422 171.32C202.422 171.572 202.41 171.83 202.386 172.094C202.338 173.33 201.954 174.32 201.234 175.064C200.526 175.808 199.512 176.18 198.192 176.18ZM198.192 174.83C198.96 174.83 199.566 174.59 200.01 174.11C200.466 173.618 200.712 172.916 200.748 172.004C200.76 171.884 200.766 171.656 200.766 171.32C200.766 170.984 200.76 170.756 200.748 170.636C200.712 169.724 200.466 169.028 200.01 168.548C199.566 168.056 198.96 167.81 198.192 167.81C197.424 167.81 196.812 168.056 196.356 168.548C195.912 169.028 195.672 169.724 195.636 170.636L195.618 171.32L195.636 172.004C195.672 172.916 195.912 173.618 196.356 174.11C196.812 174.59 197.424 174.83 198.192 174.83ZM205.109 176C204.989 176 204.887 175.964 204.803 175.892C204.731 175.808 204.695 175.706 204.695 175.586V167.054C204.695 166.934 204.731 166.838 204.803 166.766C204.887 166.682 204.989 166.64 205.109 166.64H205.883C206.015 166.64 206.117 166.676 206.189 166.748C206.261 166.82 206.297 166.922 206.297 167.054V167.846C206.657 167.402 207.071 167.06 207.539 166.82C208.019 166.58 208.613 166.46 209.321 166.46C210.473 166.46 211.367 166.832 212.003 167.576C212.639 168.308 212.957 169.28 212.957 170.492V175.586C212.957 175.706 212.915 175.808 212.831 175.892C212.759 175.964 212.663 176 212.543 176H211.715C211.595 176 211.493 175.964 211.409 175.892C211.337 175.808 211.301 175.706 211.301 175.586V170.6C211.301 169.736 211.091 169.064 210.671 168.584C210.251 168.104 209.651 167.864 208.871 167.864C208.103 167.864 207.491 168.11 207.035 168.602C206.579 169.082 206.351 169.748 206.351 170.6V175.586C206.351 175.706 206.309 175.808 206.225 175.892C206.153 175.964 206.057 176 205.937 176H205.109ZM222.933 176C222.813 176 222.711 175.964 222.627 175.892C222.555 175.808 222.519 175.706 222.519 175.586V164.948H219.045C218.925 164.948 218.823 164.912 218.739 164.84C218.667 164.756 218.631 164.654 218.631 164.534V163.832C218.631 163.7 218.667 163.598 218.739 163.526C218.823 163.442 218.925 163.4 219.045 163.4H227.685C227.817 163.4 227.919 163.442 227.991 163.526C228.063 163.598 228.099 163.7 228.099 163.832V164.534C228.099 164.654 228.057 164.756 227.973 164.84C227.901 164.912 227.805 164.948 227.685 164.948H224.229V175.586C224.229 175.706 224.187 175.808 224.103 175.892C224.019 175.964 223.917 176 223.797 176H222.933ZM231.067 176C230.899 176 230.773 175.964 230.689 175.892C230.605 175.82 230.539 175.706 230.491 175.55L227.935 167.198L227.899 167.018C227.899 166.91 227.935 166.82 228.007 166.748C228.079 166.676 228.169 166.64 228.277 166.64H229.015C229.135 166.64 229.231 166.676 229.303 166.748C229.387 166.808 229.435 166.868 229.447 166.928L231.481 173.804L233.641 167.018C233.665 166.922 233.719 166.838 233.803 166.766C233.887 166.682 234.001 166.64 234.145 166.64H234.721C234.865 166.64 234.979 166.682 235.063 166.766C235.147 166.838 235.201 166.922 235.225 167.018L237.385 173.804L239.419 166.928C239.431 166.868 239.473 166.808 239.545 166.748C239.629 166.676 239.731 166.64 239.851 166.64H240.589C240.697 166.64 240.787 166.676 240.859 166.748C240.931 166.82 240.967 166.91 240.967 167.018L240.931 167.198L238.375 175.55C238.327 175.706 238.261 175.82 238.177 175.892C238.093 175.964 237.967 176 237.799 176H237.151C236.839 176 236.635 175.85 236.539 175.55L234.433 169.034L232.327 175.55C232.231 175.85 232.027 176 231.715 176H231.067ZM243.25 164.876C243.13 164.876 243.028 164.84 242.944 164.768C242.872 164.684 242.836 164.582 242.836 164.462V163.526C242.836 163.406 242.872 163.304 242.944 163.22C243.028 163.136 243.13 163.094 243.25 163.094H244.312C244.432 163.094 244.534 163.136 244.618 163.22C244.702 163.304 244.744 163.406 244.744 163.526V164.462C244.744 164.582 244.702 164.684 244.618 164.768C244.534 164.84 244.432 164.876 244.312 164.876H243.25ZM243.394 176C243.274 176 243.172 175.964 243.088 175.892C243.016 175.808 242.98 175.706 242.98 175.586V167.054C242.98 166.934 243.016 166.838 243.088 166.766C243.172 166.682 243.274 166.64 243.394 166.64H244.186C244.306 166.64 244.402 166.682 244.474 166.766C244.558 166.838 244.6 166.934 244.6 167.054V175.586C244.6 175.706 244.558 175.808 244.474 175.892C244.402 175.964 244.306 176 244.186 176H243.394ZM250.904 176C249.044 176 248.114 174.95 248.114 172.85V168.026H246.692C246.572 168.026 246.476 167.99 246.404 167.918C246.332 167.846 246.296 167.75 246.296 167.63V167.054C246.296 166.934 246.332 166.838 246.404 166.766C246.476 166.682 246.572 166.64 246.692 166.64H248.114V163.634C248.114 163.514 248.15 163.418 248.222 163.346C248.294 163.262 248.39 163.22 248.51 163.22H249.302C249.422 163.22 249.518 163.262 249.59 163.346C249.674 163.418 249.716 163.514 249.716 163.634V166.64H251.948C252.068 166.64 252.164 166.682 252.236 166.766C252.32 166.838 252.362 166.934 252.362 167.054V167.63C252.362 167.75 252.32 167.846 252.236 167.918C252.164 167.99 252.068 168.026 251.948 168.026H249.716V172.724C249.716 173.336 249.812 173.798 250.004 174.11C250.208 174.422 250.55 174.578 251.03 174.578H252.128C252.248 174.578 252.344 174.62 252.416 174.704C252.488 174.776 252.524 174.872 252.524 174.992V175.586C252.524 175.706 252.488 175.808 252.416 175.892C252.344 175.964 252.248 176 252.128 176H250.904ZM257.883 176C256.023 176 255.093 174.95 255.093 172.85V168.026H253.671C253.551 168.026 253.455 167.99 253.383 167.918C253.311 167.846 253.275 167.75 253.275 167.63V167.054C253.275 166.934 253.311 166.838 253.383 166.766C253.455 166.682 253.551 166.64 253.671 166.64H255.093V163.634C255.093 163.514 255.129 163.418 255.201 163.346C255.273 163.262 255.369 163.22 255.489 163.22H256.281C256.401 163.22 256.497 163.262 256.569 163.346C256.653 163.418 256.695 163.514 256.695 163.634V166.64H258.927C259.047 166.64 259.143 166.682 259.215 166.766C259.299 166.838 259.341 166.934 259.341 167.054V167.63C259.341 167.75 259.299 167.846 259.215 167.918C259.143 167.99 259.047 168.026 258.927 168.026H256.695V172.724C256.695 173.336 256.791 173.798 256.983 174.11C257.187 174.422 257.529 174.578 258.009 174.578H259.107C259.227 174.578 259.323 174.62 259.395 174.704C259.467 174.776 259.503 174.872 259.503 174.992V175.586C259.503 175.706 259.467 175.808 259.395 175.892C259.323 175.964 259.227 176 259.107 176H257.883ZM264.969 176.18C263.745 176.18 262.767 175.802 262.035 175.046C261.303 174.278 260.901 173.234 260.829 171.914L260.811 171.302L260.829 170.708C260.901 169.412 261.303 168.38 262.035 167.612C262.767 166.844 263.745 166.46 264.969 166.46C266.289 166.46 267.309 166.88 268.029 167.72C268.761 168.56 269.127 169.7 269.127 171.14V171.464C269.127 171.584 269.085 171.686 269.001 171.77C268.929 171.842 268.833 171.878 268.713 171.878H262.467V172.04C262.503 172.82 262.743 173.486 263.187 174.038C263.631 174.59 264.219 174.866 264.951 174.866C265.515 174.866 265.971 174.758 266.319 174.542C266.679 174.314 266.949 174.08 267.129 173.84C267.237 173.696 267.321 173.612 267.381 173.588C267.441 173.552 267.543 173.534 267.687 173.534H268.479C268.587 173.534 268.677 173.564 268.749 173.624C268.833 173.684 268.875 173.762 268.875 173.858C268.875 174.122 268.713 174.44 268.389 174.812C268.065 175.184 267.603 175.508 267.003 175.784C266.415 176.048 265.737 176.18 264.969 176.18ZM267.489 170.654V170.6C267.489 169.76 267.261 169.076 266.805 168.548C266.349 168.02 265.737 167.756 264.969 167.756C264.189 167.756 263.577 168.02 263.133 168.548C262.689 169.076 262.467 169.76 262.467 170.6V170.654H267.489ZM271.73 176C271.61 176 271.508 175.964 271.424 175.892C271.352 175.808 271.316 175.706 271.316 175.586V167.072C271.316 166.952 271.352 166.85 271.424 166.766C271.508 166.682 271.61 166.64 271.73 166.64H272.486C272.618 166.64 272.72 166.682 272.792 166.766C272.876 166.838 272.918 166.94 272.918 167.072V167.864C273.41 167.048 274.244 166.64 275.42 166.64H276.122C276.254 166.64 276.356 166.676 276.428 166.748C276.5 166.82 276.536 166.922 276.536 167.054V167.72C276.536 167.84 276.5 167.942 276.428 168.026C276.356 168.098 276.254 168.134 276.122 168.134H275.096C274.436 168.134 273.914 168.326 273.53 168.71C273.158 169.094 272.972 169.616 272.972 170.276V175.586C272.972 175.706 272.93 175.808 272.846 175.892C272.762 175.964 272.66 176 272.54 176H271.73Z" fill="#3E4442"/>
<path d="M176.967 272.8C176.647 272.8 176.375 272.704 176.151 272.512C175.959 272.32 175.863 272.048 175.863 271.696V268.336C173.623 268.144 171.687 267.632 170.055 266.8C168.455 265.936 167.223 264.88 166.359 263.632C165.527 262.352 165.079 260.992 165.015 259.552C165.015 259.296 165.111 259.072 165.303 258.88C165.495 258.688 165.735 258.592 166.023 258.592H168.327C168.935 258.592 169.351 258.912 169.575 259.552C169.863 260.896 170.679 262.064 172.023 263.056C173.399 264.016 175.351 264.496 177.879 264.496C180.599 264.496 182.631 264.016 183.975 263.056C185.319 262.096 185.991 260.768 185.991 259.072C185.991 257.984 185.655 257.088 184.983 256.384C184.343 255.68 183.367 255.072 182.055 254.56C180.775 254.016 178.839 253.36 176.247 252.592C173.783 251.888 171.815 251.136 170.343 250.336C168.871 249.536 167.767 248.56 167.031 247.408C166.295 246.224 165.927 244.736 165.927 242.944C165.927 240.544 166.807 238.528 168.567 236.896C170.327 235.264 172.759 234.304 175.863 234.016V230.704C175.863 230.352 175.959 230.08 176.151 229.888C176.375 229.696 176.647 229.6 176.967 229.6H178.695C179.015 229.6 179.271 229.712 179.463 229.936C179.655 230.128 179.751 230.384 179.751 230.704V234.064C181.799 234.32 183.559 234.896 185.031 235.792C186.503 236.688 187.607 237.744 188.343 238.96C189.111 240.144 189.527 241.344 189.591 242.56C189.591 242.848 189.495 243.088 189.303 243.28C189.111 243.472 188.871 243.568 188.583 243.568H186.183C185.927 243.568 185.671 243.488 185.415 243.328C185.191 243.168 185.047 242.928 184.983 242.608C184.791 241.232 184.023 240.096 182.679 239.2C181.335 238.304 179.655 237.856 177.639 237.856C175.463 237.856 173.735 238.288 172.455 239.152C171.175 239.984 170.535 241.232 170.535 242.896C170.535 244.016 170.823 244.928 171.399 245.632C172.007 246.336 172.919 246.96 174.135 247.504C175.383 248.048 177.175 248.672 179.511 249.376C182.231 250.144 184.375 250.912 185.943 251.68C187.511 252.448 188.679 253.408 189.447 254.56C190.215 255.68 190.599 257.136 190.599 258.928C190.599 261.648 189.623 263.84 187.671 265.504C185.751 267.168 183.111 268.128 179.751 268.384V271.696C179.751 272.016 179.655 272.272 179.463 272.464C179.271 272.688 179.015 272.8 178.695 272.8H176.967ZM207.746 268.48C203.618 268.48 200.594 267.28 198.674 264.88C196.786 262.448 195.778 259.28 195.65 255.376L195.602 251.248L195.65 246.976C195.746 243.104 196.754 239.968 198.674 237.568C200.626 235.136 203.65 233.92 207.746 233.92C211.874 233.92 214.898 235.136 216.818 237.568C218.77 239.968 219.794 243.104 219.89 246.976C219.922 247.872 219.938 249.296 219.938 251.248C219.938 253.136 219.922 254.512 219.89 255.376C219.762 259.28 218.738 262.448 216.818 264.88C214.93 267.28 211.906 268.48 207.746 268.48ZM207.746 264.496C210.21 264.496 212.066 263.68 213.314 262.048C214.562 260.416 215.218 258.112 215.282 255.136C215.314 254.208 215.33 252.88 215.33 251.152C215.33 249.392 215.314 248.08 215.282 247.216C215.218 244.272 214.546 241.984 213.266 240.352C212.018 238.688 210.178 237.856 207.746 237.856C205.314 237.856 203.474 238.688 202.226 240.352C200.978 241.984 200.322 244.272 200.258 247.216L200.21 251.152L200.258 255.136C200.322 258.112 200.978 260.416 202.226 262.048C203.474 263.68 205.314 264.496 207.746 264.496Z" fill="#76AAEB"/>
<path d="M106.976 334C106.816 334 106.688 333.952 106.592 333.856C106.496 333.744 106.448 333.608 106.448 333.448V317.776C106.448 317.6 106.496 317.464 106.592 317.368C106.688 317.256 106.816 317.2 106.976 317.2H113.048C114.856 317.2 116.272 317.64 117.296 318.52C118.336 319.384 118.856 320.648 118.856 322.312C118.856 323.976 118.336 325.24 117.296 326.104C116.272 326.968 114.856 327.4 113.048 327.4H108.728V333.448C108.728 333.608 108.672 333.744 108.56 333.856C108.464 333.952 108.336 334 108.176 334H106.976ZM112.928 325.456C115.344 325.456 116.552 324.408 116.552 322.312C116.552 321.288 116.248 320.504 115.64 319.96C115.048 319.416 114.144 319.144 112.928 319.144H108.728V325.456H112.928ZM122.063 334C121.903 334 121.767 333.952 121.655 333.856C121.559 333.744 121.511 333.608 121.511 333.448V322.096C121.511 321.936 121.559 321.8 121.655 321.688C121.767 321.576 121.903 321.52 122.063 321.52H123.071C123.247 321.52 123.383 321.576 123.479 321.688C123.591 321.784 123.647 321.92 123.647 322.096V323.152C124.303 322.064 125.415 321.52 126.983 321.52H127.919C128.095 321.52 128.231 321.568 128.327 321.664C128.423 321.76 128.471 321.896 128.471 322.072V322.96C128.471 323.12 128.423 323.256 128.327 323.368C128.231 323.464 128.095 323.512 127.919 323.512H126.551C125.671 323.512 124.975 323.768 124.463 324.28C123.967 324.792 123.719 325.488 123.719 326.368V333.448C123.719 333.608 123.663 333.744 123.551 333.856C123.439 333.952 123.303 334 123.143 334H122.063ZM135.364 334.24C133.604 334.24 132.244 333.744 131.284 332.752C130.34 331.76 129.836 330.44 129.772 328.792L129.748 327.76L129.772 326.728C129.836 325.08 130.348 323.76 131.308 322.768C132.284 321.776 133.636 321.28 135.364 321.28C137.092 321.28 138.436 321.776 139.396 322.768C140.372 323.76 140.892 325.08 140.956 326.728C140.988 327.08 141.004 327.424 141.004 327.76C141.004 328.096 140.988 328.44 140.956 328.792C140.892 330.44 140.38 331.76 139.42 332.752C138.476 333.744 137.124 334.24 135.364 334.24ZM135.364 332.44C136.388 332.44 137.196 332.12 137.788 331.48C138.396 330.824 138.724 329.888 138.772 328.672C138.788 328.512 138.796 328.208 138.796 327.76C138.796 327.312 138.788 327.008 138.772 326.848C138.724 325.632 138.396 324.704 137.788 324.064C137.196 323.408 136.388 323.08 135.364 323.08C134.34 323.08 133.524 323.408 132.916 324.064C132.324 324.704 132.004 325.632 131.956 326.848L131.932 327.76L131.956 328.672C132.004 329.888 132.324 330.824 132.916 331.48C133.524 332.12 134.34 332.44 135.364 332.44ZM144.586 334C144.426 334 144.29 333.952 144.178 333.856C144.082 333.744 144.034 333.608 144.034 333.448V322.072C144.034 321.912 144.082 321.784 144.178 321.688C144.29 321.576 144.426 321.52 144.586 321.52H145.594C145.754 321.52 145.882 321.576 145.978 321.688C146.074 321.784 146.122 321.912 146.122 322.072V322.888C146.986 321.816 148.154 321.28 149.626 321.28C151.386 321.28 152.634 322.016 153.37 323.488C153.754 322.816 154.298 322.28 155.002 321.88C155.722 321.48 156.522 321.28 157.402 321.28C158.714 321.28 159.786 321.728 160.618 322.624C161.45 323.52 161.866 324.816 161.866 326.512V333.448C161.866 333.608 161.81 333.744 161.698 333.856C161.602 333.952 161.474 334 161.314 334H160.282C160.122 334 159.986 333.952 159.874 333.856C159.778 333.744 159.73 333.608 159.73 333.448V326.728C159.73 325.448 159.466 324.536 158.938 323.992C158.41 323.432 157.714 323.152 156.85 323.152C156.082 323.152 155.418 323.44 154.858 324.016C154.314 324.576 154.042 325.48 154.042 326.728V333.448C154.042 333.608 153.986 333.744 153.874 333.856C153.778 333.952 153.65 334 153.49 334H152.434C152.274 334 152.138 333.952 152.026 333.856C151.93 333.744 151.882 333.608 151.882 333.448V326.728C151.882 325.464 151.602 324.552 151.042 323.992C150.498 323.432 149.818 323.152 149.002 323.152C148.234 323.152 147.57 323.432 147.01 323.992C146.466 324.552 146.194 325.456 146.194 326.704V333.448C146.194 333.608 146.138 333.744 146.026 333.856C145.93 333.952 145.802 334 145.642 334H144.586ZM170.403 334.24C168.643 334.24 167.283 333.744 166.323 332.752C165.379 331.76 164.875 330.44 164.811 328.792L164.787 327.76L164.811 326.728C164.875 325.08 165.387 323.76 166.347 322.768C167.323 321.776 168.675 321.28 170.403 321.28C172.131 321.28 173.475 321.776 174.435 322.768C175.411 323.76 175.931 325.08 175.995 326.728C176.027 327.08 176.043 327.424 176.043 327.76C176.043 328.096 176.027 328.44 175.995 328.792C175.931 330.44 175.419 331.76 174.459 332.752C173.515 333.744 172.163 334.24 170.403 334.24ZM170.403 332.44C171.427 332.44 172.235 332.12 172.827 331.48C173.435 330.824 173.763 329.888 173.811 328.672C173.827 328.512 173.835 328.208 173.835 327.76C173.835 327.312 173.827 327.008 173.811 326.848C173.763 325.632 173.435 324.704 172.827 324.064C172.235 323.408 171.427 323.08 170.403 323.08C169.379 323.08 168.563 323.408 167.955 324.064C167.363 324.704 167.043 325.632 166.995 326.848L166.971 327.76L166.995 328.672C167.043 329.888 167.363 330.824 167.955 331.48C168.563 332.12 169.379 332.44 170.403 332.44ZM183.756 334C181.276 334 180.036 332.6 180.036 329.8V323.368H178.14C177.98 323.368 177.852 323.32 177.756 323.224C177.66 323.128 177.612 323 177.612 322.84V322.072C177.612 321.912 177.66 321.784 177.756 321.688C177.852 321.576 177.98 321.52 178.14 321.52H180.036V317.512C180.036 317.352 180.084 317.224 180.18 317.128C180.276 317.016 180.404 316.96 180.564 316.96H181.62C181.78 316.96 181.908 317.016 182.004 317.128C182.116 317.224 182.172 317.352 182.172 317.512V321.52H185.148C185.308 321.52 185.436 321.576 185.532 321.688C185.644 321.784 185.7 321.912 185.7 322.072V322.84C185.7 323 185.644 323.128 185.532 323.224C185.436 323.32 185.308 323.368 185.148 323.368H182.172V329.632C182.172 330.448 182.3 331.064 182.556 331.48C182.828 331.896 183.284 332.104 183.924 332.104H185.388C185.548 332.104 185.676 332.16 185.772 332.272C185.868 332.368 185.916 332.496 185.916 332.656V333.448C185.916 333.608 185.868 333.744 185.772 333.856C185.676 333.952 185.548 334 185.388 334H183.756ZM193.205 334.24C191.573 334.24 190.269 333.736 189.293 332.728C188.317 331.704 187.781 330.312 187.685 328.552L187.661 327.736L187.685 326.944C187.781 325.216 188.317 323.84 189.293 322.816C190.269 321.792 191.573 321.28 193.205 321.28C194.965 321.28 196.325 321.84 197.285 322.96C198.261 324.08 198.749 325.6 198.749 327.52V327.952C198.749 328.112 198.693 328.248 198.581 328.36C198.485 328.456 198.357 328.504 198.197 328.504H189.869V328.72C189.917 329.76 190.237 330.648 190.829 331.384C191.421 332.12 192.205 332.488 193.181 332.488C193.933 332.488 194.541 332.344 195.005 332.056C195.485 331.752 195.845 331.44 196.085 331.12C196.229 330.928 196.341 330.816 196.421 330.784C196.501 330.736 196.637 330.712 196.829 330.712H197.885C198.029 330.712 198.149 330.752 198.245 330.832C198.357 330.912 198.413 331.016 198.413 331.144C198.413 331.496 198.197 331.92 197.765 332.416C197.333 332.912 196.717 333.344 195.917 333.712C195.133 334.064 194.229 334.24 193.205 334.24ZM196.565 326.872V326.8C196.565 325.68 196.261 324.768 195.653 324.064C195.045 323.36 194.229 323.008 193.205 323.008C192.165 323.008 191.349 323.36 190.757 324.064C190.165 324.768 189.869 325.68 189.869 326.8V326.872H196.565ZM206.227 334.24C204.547 334.24 203.283 333.696 202.435 332.608C201.603 331.52 201.155 330.144 201.091 328.48L201.067 327.76L201.091 327.04C201.155 325.392 201.611 324.024 202.459 322.936C203.307 321.832 204.563 321.28 206.227 321.28C207.891 321.28 209.187 321.872 210.115 323.056V317.512C210.115 317.352 210.163 317.224 210.259 317.128C210.371 317.016 210.507 316.96 210.667 316.96H211.747C211.907 316.96 212.035 317.016 212.131 317.128C212.243 317.224 212.299 317.352 212.299 317.512V333.448C212.299 333.608 212.243 333.744 212.131 333.856C212.035 333.952 211.907 334 211.747 334H210.715C210.555 334 210.427 333.952 210.331 333.856C210.235 333.744 210.187 333.608 210.187 333.448V332.416C209.275 333.632 207.955 334.24 206.227 334.24ZM206.683 332.368C207.803 332.368 208.643 332 209.203 331.264C209.763 330.512 210.067 329.624 210.115 328.6C210.131 328.424 210.139 328.12 210.139 327.688C210.139 327.24 210.131 326.928 210.115 326.752C210.083 325.776 209.771 324.936 209.179 324.232C208.603 323.512 207.771 323.152 206.683 323.152C205.531 323.152 204.691 323.512 204.163 324.232C203.635 324.952 203.347 325.896 203.299 327.064L203.275 327.76C203.275 330.832 204.411 332.368 206.683 332.368ZM222.399 338.56C222.239 338.56 222.103 338.512 221.991 338.416C221.895 338.32 221.847 338.184 221.847 338.008V322.072C221.847 321.896 221.895 321.76 221.991 321.664C222.103 321.568 222.239 321.52 222.399 321.52H223.407C223.583 321.52 223.719 321.568 223.815 321.664C223.911 321.76 223.959 321.896 223.959 322.072V323.128C224.887 321.896 226.207 321.28 227.919 321.28C229.599 321.28 230.855 321.816 231.687 322.888C232.535 323.944 232.983 325.296 233.031 326.944C233.047 327.12 233.055 327.392 233.055 327.76C233.055 328.128 233.047 328.4 233.031 328.576C232.983 330.208 232.535 331.56 231.687 332.632C230.855 333.704 229.599 334.24 227.919 334.24C226.207 334.24 224.911 333.632 224.031 332.416V338.008C224.031 338.168 223.975 338.296 223.863 338.392C223.767 338.504 223.639 338.56 223.479 338.56H222.399ZM227.463 332.368C228.615 332.368 229.455 332.008 229.983 331.288C230.511 330.568 230.799 329.624 230.847 328.456C230.863 328.296 230.871 328.064 230.871 327.76C230.871 324.688 229.735 323.152 227.463 323.152C226.343 323.152 225.495 323.528 224.919 324.28C224.359 325.016 224.063 325.888 224.031 326.896C224.015 327.072 224.007 327.384 224.007 327.832C224.007 328.28 224.015 328.592 224.031 328.768C224.063 329.744 224.367 330.592 224.943 331.312C225.535 332.016 226.375 332.368 227.463 332.368ZM241.137 334.24C239.377 334.24 238.017 333.744 237.057 332.752C236.113 331.76 235.609 330.44 235.545 328.792L235.521 327.76L235.545 326.728C235.609 325.08 236.121 323.76 237.081 322.768C238.057 321.776 239.409 321.28 241.137 321.28C242.865 321.28 244.209 321.776 245.169 322.768C246.145 323.76 246.665 325.08 246.729 326.728C246.761 327.08 246.777 327.424 246.777 327.76C246.777 328.096 246.761 328.44 246.729 328.792C246.665 330.44 246.153 331.76 245.193 332.752C244.249 333.744 242.897 334.24 241.137 334.24ZM241.137 332.44C242.161 332.44 242.969 332.12 243.561 331.48C244.169 330.824 244.497 329.888 244.545 328.672C244.561 328.512 244.569 328.208 244.569 327.76C244.569 327.312 244.561 327.008 244.545 326.848C244.497 325.632 244.169 324.704 243.561 324.064C242.969 323.408 242.161 323.08 241.137 323.08C240.113 323.08 239.297 323.408 238.689 324.064C238.097 324.704 237.777 325.632 237.729 326.848L237.705 327.76L237.729 328.672C237.777 329.888 238.097 330.824 238.689 331.48C239.297 332.12 240.113 332.44 241.137 332.44ZM254.08 334.24C252.976 334.24 252.04 334.064 251.272 333.712C250.52 333.344 249.96 332.928 249.592 332.464C249.224 332 249.04 331.616 249.04 331.312C249.04 331.152 249.096 331.032 249.208 330.952C249.32 330.856 249.44 330.808 249.568 330.808H250.576C250.672 330.808 250.744 330.824 250.792 330.856C250.856 330.888 250.936 330.96 251.032 331.072C251.4 331.52 251.808 331.872 252.256 332.128C252.72 332.384 253.336 332.512 254.104 332.512C254.968 332.512 255.656 332.352 256.168 332.032C256.696 331.712 256.96 331.248 256.96 330.64C256.96 330.24 256.848 329.92 256.624 329.68C256.4 329.44 256.024 329.224 255.496 329.032C254.984 328.84 254.216 328.632 253.192 328.408C251.8 328.104 250.816 327.664 250.24 327.088C249.664 326.512 249.376 325.768 249.376 324.856C249.376 324.264 249.552 323.696 249.904 323.152C250.256 322.592 250.776 322.144 251.464 321.808C252.168 321.456 253 321.28 253.96 321.28C254.968 321.28 255.824 321.448 256.528 321.784C257.248 322.12 257.784 322.512 258.136 322.96C258.504 323.408 258.688 323.784 258.688 324.088C258.688 324.232 258.632 324.352 258.52 324.448C258.424 324.544 258.304 324.592 258.16 324.592H257.248C257.024 324.592 256.864 324.504 256.768 324.328C256.496 324.024 256.264 323.792 256.072 323.632C255.896 323.456 255.632 323.312 255.28 323.2C254.928 323.072 254.488 323.008 253.96 323.008C253.176 323.008 252.576 323.176 252.16 323.512C251.744 323.832 251.536 324.264 251.536 324.808C251.536 325.144 251.624 325.432 251.8 325.672C251.976 325.896 252.312 326.112 252.808 326.32C253.304 326.512 254.04 326.712 255.016 326.92C256.536 327.24 257.608 327.696 258.232 328.288C258.872 328.88 259.192 329.64 259.192 330.568C259.192 331.256 258.992 331.88 258.592 332.44C258.208 333 257.624 333.44 256.84 333.76C256.072 334.08 255.152 334.24 254.08 334.24ZM266.772 334C264.292 334 263.052 332.6 263.052 329.8V323.368H261.156C260.996 323.368 260.868 323.32 260.772 323.224C260.676 323.128 260.628 323 260.628 322.84V322.072C260.628 321.912 260.676 321.784 260.772 321.688C260.868 321.576 260.996 321.52 261.156 321.52H263.052V317.512C263.052 317.352 263.1 317.224 263.196 317.128C263.292 317.016 263.42 316.96 263.58 316.96H264.636C264.796 316.96 264.924 317.016 265.02 317.128C265.132 317.224 265.188 317.352 265.188 317.512V321.52H268.164C268.324 321.52 268.452 321.576 268.548 321.688C268.66 321.784 268.716 321.912 268.716 322.072V322.84C268.716 323 268.66 323.128 268.548 323.224C268.452 323.32 268.324 323.368 268.164 323.368H265.188V329.632C265.188 330.448 265.316 331.064 265.572 331.48C265.844 331.896 266.3 332.104 266.94 332.104H268.404C268.564 332.104 268.692 332.16 268.788 332.272C268.884 332.368 268.932 332.496 268.932 332.656V333.448C268.932 333.608 268.884 333.744 268.788 333.856C268.692 333.952 268.564 334 268.404 334H266.772ZM275.549 334.24C274.445 334.24 273.509 334.064 272.741 333.712C271.989 333.344 271.429 332.928 271.061 332.464C270.693 332 270.509 331.616 270.509 331.312C270.509 331.152 270.565 331.032 270.677 330.952C270.789 330.856 270.909 330.808 271.037 330.808H272.045C272.141 330.808 272.213 330.824 272.261 330.856C272.325 330.888 272.405 330.96 272.501 331.072C272.869 331.52 273.277 331.872 273.725 332.128C274.189 332.384 274.805 332.512 275.573 332.512C276.437 332.512 277.125 332.352 277.637 332.032C278.165 331.712 278.429 331.248 278.429 330.64C278.429 330.24 278.317 329.92 278.093 329.68C277.869 329.44 277.493 329.224 276.965 329.032C276.453 328.84 275.685 328.632 274.661 328.408C273.269 328.104 272.285 327.664 271.709 327.088C271.133 326.512 270.845 325.768 270.845 324.856C270.845 324.264 271.021 323.696 271.373 323.152C271.725 322.592 272.245 322.144 272.933 321.808C273.637 321.456 274.469 321.28 275.429 321.28C276.437 321.28 277.293 321.448 277.997 321.784C278.717 322.12 279.253 322.512 279.605 322.96C279.973 323.408 280.157 323.784 280.157 324.088C280.157 324.232 280.101 324.352 279.989 324.448C279.893 324.544 279.773 324.592 279.629 324.592H278.717C278.493 324.592 278.333 324.504 278.237 324.328C277.965 324.024 277.733 323.792 277.541 323.632C277.365 323.456 277.101 323.312 276.749 323.2C276.397 323.072 275.957 323.008 275.429 323.008C274.645 323.008 274.045 323.176 273.629 323.512C273.213 323.832 273.005 324.264 273.005 324.808C273.005 325.144 273.093 325.432 273.269 325.672C273.445 325.896 273.781 326.112 274.277 326.32C274.773 326.512 275.509 326.712 276.485 326.92C278.005 327.24 279.077 327.696 279.701 328.288C280.341 328.88 280.661 329.64 280.661 330.568C280.661 331.256 280.461 331.88 280.061 332.44C279.677 333 279.093 333.44 278.309 333.76C277.541 334.08 276.621 334.24 275.549 334.24Z" fill="#76AAEB"/>
<path d="M132.062 379H130.617V369.656C130.617 369.047 130.727 368.534 130.945 368.117C131.169 367.695 131.49 367.378 131.906 367.164C132.323 366.945 132.818 366.836 133.391 366.836C133.557 366.836 133.724 366.846 133.891 366.867C134.062 366.888 134.229 366.919 134.391 366.961L134.312 368.141C134.203 368.115 134.078 368.096 133.938 368.086C133.802 368.076 133.667 368.07 133.531 368.07C133.224 368.07 132.958 368.133 132.734 368.258C132.516 368.378 132.349 368.555 132.234 368.789C132.12 369.023 132.062 369.312 132.062 369.656V379ZM133.859 370.547V371.656H129.281V370.547H133.859ZM135.086 374.867V374.688C135.086 374.078 135.174 373.513 135.352 372.992C135.529 372.466 135.784 372.01 136.117 371.625C136.451 371.234 136.854 370.932 137.328 370.719C137.802 370.5 138.333 370.391 138.922 370.391C139.516 370.391 140.049 370.5 140.523 370.719C141.003 370.932 141.409 371.234 141.742 371.625C142.081 372.01 142.339 372.466 142.516 372.992C142.693 373.513 142.781 374.078 142.781 374.688V374.867C142.781 375.477 142.693 376.042 142.516 376.562C142.339 377.083 142.081 377.539 141.742 377.93C141.409 378.315 141.005 378.617 140.531 378.836C140.062 379.049 139.531 379.156 138.938 379.156C138.344 379.156 137.81 379.049 137.336 378.836C136.862 378.617 136.456 378.315 136.117 377.93C135.784 377.539 135.529 377.083 135.352 376.562C135.174 376.042 135.086 375.477 135.086 374.867ZM136.531 374.688V374.867C136.531 375.289 136.581 375.688 136.68 376.062C136.779 376.432 136.927 376.76 137.125 377.047C137.328 377.333 137.581 377.56 137.883 377.727C138.185 377.888 138.536 377.969 138.938 377.969C139.333 377.969 139.68 377.888 139.977 377.727C140.279 377.56 140.529 377.333 140.727 377.047C140.924 376.76 141.073 376.432 141.172 376.062C141.276 375.688 141.328 375.289 141.328 374.867V374.688C141.328 374.271 141.276 373.878 141.172 373.508C141.073 373.133 140.922 372.802 140.719 372.516C140.521 372.224 140.271 371.995 139.969 371.828C139.672 371.661 139.323 371.578 138.922 371.578C138.526 371.578 138.177 371.661 137.875 371.828C137.578 371.995 137.328 372.224 137.125 372.516C136.927 372.802 136.779 373.133 136.68 373.508C136.581 373.878 136.531 374.271 136.531 374.688ZM146.039 371.875V379H144.594V370.547H146L146.039 371.875ZM148.68 370.5L148.672 371.844C148.552 371.818 148.438 371.802 148.328 371.797C148.224 371.786 148.104 371.781 147.969 371.781C147.635 371.781 147.341 371.833 147.086 371.938C146.831 372.042 146.615 372.188 146.438 372.375C146.26 372.562 146.12 372.786 146.016 373.047C145.917 373.302 145.852 373.583 145.82 373.891L145.414 374.125C145.414 373.615 145.464 373.135 145.562 372.688C145.667 372.24 145.826 371.844 146.039 371.5C146.253 371.151 146.523 370.88 146.852 370.688C147.185 370.49 147.581 370.391 148.039 370.391C148.143 370.391 148.263 370.404 148.398 370.43C148.534 370.451 148.628 370.474 148.68 370.5ZM157.523 370.547V371.656H152.953V370.547H157.523ZM154.5 368.492H155.945V376.906C155.945 377.193 155.99 377.409 156.078 377.555C156.167 377.701 156.281 377.797 156.422 377.844C156.562 377.891 156.714 377.914 156.875 377.914C156.995 377.914 157.12 377.904 157.25 377.883C157.385 377.857 157.487 377.836 157.555 377.82L157.562 379C157.448 379.036 157.297 379.07 157.109 379.102C156.927 379.138 156.706 379.156 156.445 379.156C156.091 379.156 155.766 379.086 155.469 378.945C155.172 378.805 154.935 378.57 154.758 378.242C154.586 377.909 154.5 377.461 154.5 376.898V368.492ZM160.664 367V379H159.219V367H160.664ZM160.32 374.453L159.719 374.43C159.724 373.852 159.81 373.318 159.977 372.828C160.143 372.333 160.378 371.904 160.68 371.539C160.982 371.174 161.341 370.893 161.758 370.695C162.18 370.492 162.646 370.391 163.156 370.391C163.573 370.391 163.948 370.448 164.281 370.562C164.615 370.672 164.898 370.849 165.133 371.094C165.372 371.339 165.555 371.656 165.68 372.047C165.805 372.432 165.867 372.904 165.867 373.461V379H164.414V373.445C164.414 373.003 164.349 372.648 164.219 372.383C164.089 372.112 163.898 371.917 163.648 371.797C163.398 371.672 163.091 371.609 162.727 371.609C162.367 371.609 162.039 371.685 161.742 371.836C161.451 371.987 161.198 372.195 160.984 372.461C160.776 372.727 160.612 373.031 160.492 373.375C160.378 373.714 160.32 374.073 160.32 374.453ZM171.539 379.156C170.951 379.156 170.417 379.057 169.938 378.859C169.464 378.656 169.055 378.372 168.711 378.008C168.372 377.643 168.112 377.211 167.93 376.711C167.747 376.211 167.656 375.664 167.656 375.07V374.742C167.656 374.055 167.758 373.443 167.961 372.906C168.164 372.365 168.44 371.906 168.789 371.531C169.138 371.156 169.534 370.872 169.977 370.68C170.419 370.487 170.878 370.391 171.352 370.391C171.956 370.391 172.477 370.495 172.914 370.703C173.357 370.911 173.719 371.203 174 371.578C174.281 371.948 174.49 372.385 174.625 372.891C174.76 373.391 174.828 373.938 174.828 374.531V375.18H168.516V374H173.383V373.891C173.362 373.516 173.284 373.151 173.148 372.797C173.018 372.443 172.81 372.151 172.523 371.922C172.237 371.693 171.846 371.578 171.352 371.578C171.023 371.578 170.721 371.648 170.445 371.789C170.169 371.924 169.932 372.128 169.734 372.398C169.536 372.669 169.383 373 169.273 373.391C169.164 373.781 169.109 374.232 169.109 374.742V375.07C169.109 375.471 169.164 375.849 169.273 376.203C169.388 376.552 169.552 376.859 169.766 377.125C169.984 377.391 170.247 377.599 170.555 377.75C170.867 377.901 171.221 377.977 171.617 377.977C172.128 377.977 172.56 377.872 172.914 377.664C173.268 377.456 173.578 377.177 173.844 376.828L174.719 377.523C174.536 377.799 174.305 378.062 174.023 378.312C173.742 378.562 173.396 378.766 172.984 378.922C172.578 379.078 172.096 379.156 171.539 379.156ZM182.414 379H180.969V369.812C180.969 369.172 181.094 368.63 181.344 368.188C181.594 367.745 181.951 367.409 182.414 367.18C182.878 366.951 183.427 366.836 184.062 366.836C184.438 366.836 184.805 366.883 185.164 366.977C185.523 367.065 185.893 367.177 186.273 367.312L186.031 368.531C185.792 368.438 185.513 368.349 185.195 368.266C184.883 368.177 184.539 368.133 184.164 368.133C183.544 368.133 183.096 368.273 182.82 368.555C182.549 368.831 182.414 369.25 182.414 369.812V379ZM184.141 370.547V371.656H179.633V370.547H184.141ZM186.984 370.547V379H185.539V370.547H186.984ZM190.805 371.875V379H189.359V370.547H190.766L190.805 371.875ZM193.445 370.5L193.438 371.844C193.318 371.818 193.203 371.802 193.094 371.797C192.99 371.786 192.87 371.781 192.734 371.781C192.401 371.781 192.107 371.833 191.852 371.938C191.596 372.042 191.38 372.188 191.203 372.375C191.026 372.562 190.885 372.786 190.781 373.047C190.682 373.302 190.617 373.583 190.586 373.891L190.18 374.125C190.18 373.615 190.229 373.135 190.328 372.688C190.432 372.24 190.591 371.844 190.805 371.5C191.018 371.151 191.289 370.88 191.617 370.688C191.951 370.49 192.346 370.391 192.805 370.391C192.909 370.391 193.029 370.404 193.164 370.43C193.299 370.451 193.393 370.474 193.445 370.5ZM199.703 376.758C199.703 376.549 199.656 376.357 199.562 376.18C199.474 375.997 199.289 375.833 199.008 375.688C198.732 375.536 198.315 375.406 197.758 375.297C197.289 375.198 196.865 375.081 196.484 374.945C196.109 374.81 195.789 374.646 195.523 374.453C195.263 374.26 195.062 374.034 194.922 373.773C194.781 373.513 194.711 373.208 194.711 372.859C194.711 372.526 194.784 372.211 194.93 371.914C195.081 371.617 195.292 371.354 195.562 371.125C195.839 370.896 196.169 370.716 196.555 370.586C196.94 370.456 197.37 370.391 197.844 370.391C198.521 370.391 199.099 370.51 199.578 370.75C200.057 370.99 200.424 371.31 200.68 371.711C200.935 372.107 201.062 372.547 201.062 373.031H199.617C199.617 372.797 199.547 372.57 199.406 372.352C199.271 372.128 199.07 371.943 198.805 371.797C198.544 371.651 198.224 371.578 197.844 371.578C197.443 371.578 197.117 371.641 196.867 371.766C196.622 371.885 196.443 372.039 196.328 372.227C196.219 372.414 196.164 372.612 196.164 372.82C196.164 372.977 196.19 373.117 196.242 373.242C196.299 373.362 196.398 373.474 196.539 373.578C196.68 373.677 196.878 373.771 197.133 373.859C197.388 373.948 197.714 374.036 198.109 374.125C198.802 374.281 199.372 374.469 199.82 374.688C200.268 374.906 200.602 375.174 200.82 375.492C201.039 375.81 201.148 376.195 201.148 376.648C201.148 377.018 201.07 377.357 200.914 377.664C200.763 377.971 200.542 378.237 200.25 378.461C199.964 378.68 199.62 378.852 199.219 378.977C198.823 379.096 198.378 379.156 197.883 379.156C197.138 379.156 196.508 379.023 195.992 378.758C195.477 378.492 195.086 378.148 194.82 377.727C194.555 377.305 194.422 376.859 194.422 376.391H195.875C195.896 376.786 196.01 377.102 196.219 377.336C196.427 377.565 196.682 377.729 196.984 377.828C197.286 377.922 197.586 377.969 197.883 377.969C198.279 377.969 198.609 377.917 198.875 377.812C199.146 377.708 199.352 377.565 199.492 377.383C199.633 377.201 199.703 376.992 199.703 376.758ZM206.586 370.547V371.656H202.016V370.547H206.586ZM203.562 368.492H205.008V376.906C205.008 377.193 205.052 377.409 205.141 377.555C205.229 377.701 205.344 377.797 205.484 377.844C205.625 377.891 205.776 377.914 205.938 377.914C206.057 377.914 206.182 377.904 206.312 377.883C206.448 377.857 206.549 377.836 206.617 377.82L206.625 379C206.51 379.036 206.359 379.07 206.172 379.102C205.99 379.138 205.768 379.156 205.508 379.156C205.154 379.156 204.828 379.086 204.531 378.945C204.234 378.805 203.997 378.57 203.82 378.242C203.648 377.909 203.562 377.461 203.562 376.898V368.492ZM213.688 372.227V379H212.234V370.547H213.609L213.688 372.227ZM213.391 374.453L212.719 374.43C212.724 373.852 212.799 373.318 212.945 372.828C213.091 372.333 213.307 371.904 213.594 371.539C213.88 371.174 214.237 370.893 214.664 370.695C215.091 370.492 215.586 370.391 216.148 370.391C216.544 370.391 216.909 370.448 217.242 370.562C217.576 370.672 217.865 370.846 218.109 371.086C218.354 371.326 218.544 371.633 218.68 372.008C218.815 372.383 218.883 372.836 218.883 373.367V379H217.438V373.438C217.438 372.995 217.362 372.641 217.211 372.375C217.065 372.109 216.857 371.917 216.586 371.797C216.315 371.672 215.997 371.609 215.633 371.609C215.206 371.609 214.849 371.685 214.562 371.836C214.276 371.987 214.047 372.195 213.875 372.461C213.703 372.727 213.578 373.031 213.5 373.375C213.427 373.714 213.391 374.073 213.391 374.453ZM218.867 373.656L217.898 373.953C217.904 373.49 217.979 373.044 218.125 372.617C218.276 372.19 218.492 371.81 218.773 371.477C219.06 371.143 219.411 370.88 219.828 370.688C220.245 370.49 220.721 370.391 221.258 370.391C221.711 370.391 222.112 370.451 222.461 370.57C222.815 370.69 223.112 370.875 223.352 371.125C223.596 371.37 223.781 371.685 223.906 372.07C224.031 372.456 224.094 372.914 224.094 373.445V379H222.641V373.43C222.641 372.956 222.565 372.589 222.414 372.328C222.268 372.062 222.06 371.878 221.789 371.773C221.523 371.664 221.206 371.609 220.836 371.609C220.518 371.609 220.237 371.664 219.992 371.773C219.747 371.883 219.542 372.034 219.375 372.227C219.208 372.414 219.081 372.63 218.992 372.875C218.909 373.12 218.867 373.38 218.867 373.656ZM225.898 374.867V374.688C225.898 374.078 225.987 373.513 226.164 372.992C226.341 372.466 226.596 372.01 226.93 371.625C227.263 371.234 227.667 370.932 228.141 370.719C228.615 370.5 229.146 370.391 229.734 370.391C230.328 370.391 230.862 370.5 231.336 370.719C231.815 370.932 232.221 371.234 232.555 371.625C232.893 372.01 233.151 372.466 233.328 372.992C233.505 373.513 233.594 374.078 233.594 374.688V374.867C233.594 375.477 233.505 376.042 233.328 376.562C233.151 377.083 232.893 377.539 232.555 377.93C232.221 378.315 231.818 378.617 231.344 378.836C230.875 379.049 230.344 379.156 229.75 379.156C229.156 379.156 228.622 379.049 228.148 378.836C227.674 378.617 227.268 378.315 226.93 377.93C226.596 377.539 226.341 377.083 226.164 376.562C225.987 376.042 225.898 375.477 225.898 374.867ZM227.344 374.688V374.867C227.344 375.289 227.393 375.688 227.492 376.062C227.591 376.432 227.74 376.76 227.938 377.047C228.141 377.333 228.393 377.56 228.695 377.727C228.997 377.888 229.349 377.969 229.75 377.969C230.146 377.969 230.492 377.888 230.789 377.727C231.091 377.56 231.341 377.333 231.539 377.047C231.737 376.76 231.885 376.432 231.984 376.062C232.089 375.688 232.141 375.289 232.141 374.867V374.688C232.141 374.271 232.089 373.878 231.984 373.508C231.885 373.133 231.734 372.802 231.531 372.516C231.333 372.224 231.083 371.995 230.781 371.828C230.484 371.661 230.135 371.578 229.734 371.578C229.339 371.578 228.99 371.661 228.688 371.828C228.391 371.995 228.141 372.224 227.938 372.516C227.74 372.802 227.591 373.133 227.492 373.508C227.393 373.878 227.344 374.271 227.344 374.688ZM236.852 372.352V379H235.406V370.547H236.773L236.852 372.352ZM236.508 374.453L235.906 374.43C235.911 373.852 235.997 373.318 236.164 372.828C236.331 372.333 236.565 371.904 236.867 371.539C237.169 371.174 237.529 370.893 237.945 370.695C238.367 370.492 238.833 370.391 239.344 370.391C239.76 370.391 240.135 370.448 240.469 370.562C240.802 370.672 241.086 370.849 241.32 371.094C241.56 371.339 241.742 371.656 241.867 372.047C241.992 372.432 242.055 372.904 242.055 373.461V379H240.602V373.445C240.602 373.003 240.536 372.648 240.406 372.383C240.276 372.112 240.086 371.917 239.836 371.797C239.586 371.672 239.279 371.609 238.914 371.609C238.555 371.609 238.227 371.685 237.93 371.836C237.638 371.987 237.385 372.195 237.172 372.461C236.964 372.727 236.799 373.031 236.68 373.375C236.565 373.714 236.508 374.073 236.508 374.453ZM247.789 370.547V371.656H243.219V370.547H247.789ZM244.766 368.492H246.211V376.906C246.211 377.193 246.255 377.409 246.344 377.555C246.432 377.701 246.547 377.797 246.688 377.844C246.828 377.891 246.979 377.914 247.141 377.914C247.26 377.914 247.385 377.904 247.516 377.883C247.651 377.857 247.753 377.836 247.82 377.82L247.828 379C247.714 379.036 247.562 379.07 247.375 379.102C247.193 379.138 246.971 379.156 246.711 379.156C246.357 379.156 246.031 379.086 245.734 378.945C245.438 378.805 245.201 378.57 245.023 378.242C244.852 377.909 244.766 377.461 244.766 376.898V368.492ZM250.93 367V379H249.484V367H250.93ZM250.586 374.453L249.984 374.43C249.99 373.852 250.076 373.318 250.242 372.828C250.409 372.333 250.643 371.904 250.945 371.539C251.247 371.174 251.607 370.893 252.023 370.695C252.445 370.492 252.911 370.391 253.422 370.391C253.839 370.391 254.214 370.448 254.547 370.562C254.88 370.672 255.164 370.849 255.398 371.094C255.638 371.339 255.82 371.656 255.945 372.047C256.07 372.432 256.133 372.904 256.133 373.461V379H254.68V373.445C254.68 373.003 254.615 372.648 254.484 372.383C254.354 372.112 254.164 371.917 253.914 371.797C253.664 371.672 253.357 371.609 252.992 371.609C252.633 371.609 252.305 371.685 252.008 371.836C251.716 371.987 251.464 372.195 251.25 372.461C251.042 372.727 250.878 373.031 250.758 373.375C250.643 373.714 250.586 374.073 250.586 374.453Z" fill="#767272"/>
</g>
<defs>
<filter id="filter0_d_1_1210" x="-12" y="0" width="410" height="474" filterUnits="userSpaceOnUse" color-interpolation-filters="sRGB">
<feFlood flood-opacity="0" result="BackgroundImageFix"/>
<feColorMatrix in="SourceAlpha" type="matrix" values="0 0 0 0 0 0 0 0 0 0 0 0 0 0 0 0 0 0 127 0" result="hardAlpha"/>
<feOffset dy="20"/>
<feGaussianBlur stdDeviation="20"/>
<feComposite in2="hardAlpha" operator="out"/>
<feColorMatrix type="matrix" values="0 0 0 0 0.796078 0 0 0 0 0.435294 0 0 0 0 0.254902 0 0 0 0.2 0"/>
<feBlend mode="normal" in2="BackgroundImageFix" result="effect1_dropShadow_1_1210"/>
<feBlend mode="normal" in="SourceGraphic" in2="effect1_dropShadow_1_1210" result="shape"/>
</filter>
</defs>
</svg>
