<svg width="410" height="469" viewBox="0 0 410 469" fill="none" xmlns="http://www.w3.org/2000/svg">
<g filter="url(#filter0_d_1_1209)">
<rect x="40" y="20" width="330" height="396" rx="8" fill="white" shape-rendering="crispEdges"/>
<rect x="170" y="68" width="70" height="70" rx="35" fill="#475996"/>
<path d="M210.214 104.375L210.836 100.394H206.945V97.8098C206.945 96.7205 207.489 95.6588 209.231 95.6588H211V92.269C211 92.269 209.395 92 207.86 92C204.656 92 202.562 93.907 202.562 97.3591V100.394H199V104.375H202.562V114H206.945V104.375H210.214Z" fill="white"/>
<path d="M115.574 176C115.454 176 115.358 175.964 115.286 175.892C115.214 175.808 115.178 175.706 115.178 175.586V163.832C115.178 163.7 115.214 163.598 115.286 163.526C115.358 163.442 115.454 163.4 115.574 163.4H120.128C121.484 163.4 122.546 163.73 123.314 164.39C124.094 165.038 124.484 165.986 124.484 167.234C124.484 168.482 124.094 169.43 123.314 170.078C122.546 170.726 121.484 171.05 120.128 171.05H116.888V175.586C116.888 175.706 116.846 175.808 116.762 175.892C116.69 175.964 116.594 176 116.474 176H115.574ZM120.038 169.592C121.85 169.592 122.756 168.806 122.756 167.234C122.756 166.466 122.528 165.878 122.072 165.47C121.628 165.062 120.95 164.858 120.038 164.858H116.888V169.592H120.038ZM126.889 176C126.769 176 126.667 175.964 126.583 175.892C126.511 175.808 126.475 175.706 126.475 175.586V167.072C126.475 166.952 126.511 166.85 126.583 166.766C126.667 166.682 126.769 166.64 126.889 166.64H127.645C127.777 166.64 127.879 166.682 127.951 166.766C128.035 166.838 128.077 166.94 128.077 167.072V167.864C128.569 167.048 129.403 166.64 130.579 166.64H131.281C131.413 166.64 131.515 166.676 131.587 166.748C131.659 166.82 131.695 166.922 131.695 167.054V167.72C131.695 167.84 131.659 167.942 131.587 168.026C131.515 168.098 131.413 168.134 131.281 168.134H130.255C129.595 168.134 129.073 168.326 128.689 168.71C128.317 169.094 128.131 169.616 128.131 170.276V175.586C128.131 175.706 128.089 175.808 128.005 175.892C127.921 175.964 127.819 176 127.699 176H126.889ZM136.865 176.18C135.545 176.18 134.525 175.808 133.805 175.064C133.097 174.32 132.719 173.33 132.671 172.094L132.653 171.32L132.671 170.546C132.719 169.31 133.103 168.32 133.823 167.576C134.555 166.832 135.569 166.46 136.865 166.46C138.161 166.46 139.169 166.832 139.889 167.576C140.621 168.32 141.011 169.31 141.059 170.546C141.083 170.81 141.095 171.068 141.095 171.32C141.095 171.572 141.083 171.83 141.059 172.094C141.011 173.33 140.627 174.32 139.907 175.064C139.199 175.808 138.185 176.18 136.865 176.18ZM136.865 174.83C137.633 174.83 138.239 174.59 138.683 174.11C139.139 173.618 139.385 172.916 139.421 172.004C139.433 171.884 139.439 171.656 139.439 171.32C139.439 170.984 139.433 170.756 139.421 170.636C139.385 169.724 139.139 169.028 138.683 168.548C138.239 168.056 137.633 167.81 136.865 167.81C136.097 167.81 135.485 168.056 135.029 168.548C134.585 169.028 134.345 169.724 134.309 170.636L134.291 171.32L134.309 172.004C134.345 172.916 134.585 173.618 135.029 174.11C135.485 174.59 136.097 174.83 136.865 174.83ZM144.612 176C144.492 176 144.39 175.964 144.306 175.892C144.234 175.808 144.198 175.706 144.198 175.586V168.026H142.65C142.53 168.026 142.428 167.99 142.344 167.918C142.272 167.846 142.236 167.75 142.236 167.63V167.054C142.236 166.934 142.272 166.838 142.344 166.766C142.428 166.682 142.53 166.64 142.65 166.64H144.198V165.74C144.198 164.768 144.432 164.018 144.9 163.49C145.38 162.95 146.16 162.68 147.24 162.68H149.94C150.06 162.68 150.156 162.722 150.228 162.806C150.3 162.878 150.336 162.974 150.336 163.094V163.67C150.336 163.79 150.3 163.886 150.228 163.958C150.156 164.03 150.06 164.066 149.94 164.066H147.276C146.724 164.066 146.34 164.21 146.124 164.498C145.908 164.786 145.8 165.23 145.8 165.83V166.64H149.94C150.06 166.64 150.156 166.682 150.228 166.766C150.3 166.838 150.336 166.934 150.336 167.054V175.586C150.336 175.706 150.3 175.808 150.228 175.892C150.156 175.964 150.06 176 149.94 176H149.148C149.028 176 148.926 175.964 148.842 175.892C148.77 175.808 148.734 175.706 148.734 175.586V168.026H145.8V175.586C145.8 175.706 145.758 175.808 145.674 175.892C145.602 175.964 145.506 176 145.386 176H144.612ZM156.636 176C154.776 176 153.846 174.95 153.846 172.85V168.026H152.424C152.304 168.026 152.208 167.99 152.136 167.918C152.064 167.846 152.028 167.75 152.028 167.63V167.054C152.028 166.934 152.064 166.838 152.136 166.766C152.208 166.682 152.304 166.64 152.424 166.64H153.846V163.634C153.846 163.514 153.882 163.418 153.954 163.346C154.026 163.262 154.122 163.22 154.242 163.22H155.034C155.154 163.22 155.25 163.262 155.322 163.346C155.406 163.418 155.448 163.514 155.448 163.634V166.64H157.68C157.8 166.64 157.896 166.682 157.968 166.766C158.052 166.838 158.094 166.934 158.094 167.054V167.63C158.094 167.75 158.052 167.846 157.968 167.918C157.896 167.99 157.8 168.026 157.68 168.026H155.448V172.724C155.448 173.336 155.544 173.798 155.736 174.11C155.94 174.422 156.282 174.578 156.762 174.578H157.86C157.98 174.578 158.076 174.62 158.148 174.704C158.22 174.776 158.256 174.872 158.256 174.992V175.586C158.256 175.706 158.22 175.808 158.148 175.892C158.076 175.964 157.98 176 157.86 176H156.636ZM163.218 176.18C162.39 176.18 161.688 176.048 161.112 175.784C160.548 175.508 160.128 175.196 159.852 174.848C159.576 174.5 159.438 174.212 159.438 173.984C159.438 173.864 159.48 173.774 159.564 173.714C159.648 173.642 159.738 173.606 159.834 173.606H160.59C160.662 173.606 160.716 173.618 160.752 173.642C160.8 173.666 160.86 173.72 160.932 173.804C161.208 174.14 161.514 174.404 161.85 174.596C162.198 174.788 162.66 174.884 163.236 174.884C163.884 174.884 164.4 174.764 164.784 174.524C165.18 174.284 165.378 173.936 165.378 173.48C165.378 173.18 165.294 172.94 165.126 172.76C164.958 172.58 164.676 172.418 164.28 172.274C163.896 172.13 163.32 171.974 162.552 171.806C161.508 171.578 160.77 171.248 160.338 170.816C159.906 170.384 159.69 169.826 159.69 169.142C159.69 168.698 159.822 168.272 160.086 167.864C160.35 167.444 160.74 167.108 161.256 166.856C161.784 166.592 162.408 166.46 163.128 166.46C163.884 166.46 164.526 166.586 165.054 166.838C165.594 167.09 165.996 167.384 166.26 167.72C166.536 168.056 166.674 168.338 166.674 168.566C166.674 168.674 166.632 168.764 166.548 168.836C166.476 168.908 166.386 168.944 166.278 168.944H165.594C165.426 168.944 165.306 168.878 165.234 168.746C165.03 168.518 164.856 168.344 164.712 168.224C164.58 168.092 164.382 167.984 164.118 167.9C163.854 167.804 163.524 167.756 163.128 167.756C162.54 167.756 162.09 167.882 161.778 168.134C161.466 168.374 161.31 168.698 161.31 169.106C161.31 169.358 161.376 169.574 161.508 169.754C161.64 169.922 161.892 170.084 162.264 170.24C162.636 170.384 163.188 170.534 163.92 170.69C165.06 170.93 165.864 171.272 166.332 171.716C166.812 172.16 167.052 172.73 167.052 173.426C167.052 173.942 166.902 174.41 166.602 174.83C166.314 175.25 165.876 175.58 165.288 175.82C164.712 176.06 164.022 176.18 163.218 176.18ZM174.6 176C174.48 176 174.378 175.964 174.294 175.892C174.222 175.808 174.186 175.706 174.186 175.586V168.026H172.638C172.518 168.026 172.416 167.99 172.332 167.918C172.26 167.846 172.224 167.75 172.224 167.63V167.054C172.224 166.934 172.26 166.838 172.332 166.766C172.416 166.682 172.518 166.64 172.638 166.64H174.186V165.74C174.186 164.768 174.42 164.018 174.888 163.49C175.368 162.95 176.148 162.68 177.228 162.68H178.29C178.41 162.68 178.506 162.722 178.578 162.806C178.662 162.878 178.704 162.974 178.704 163.094V163.67C178.704 163.79 178.662 163.886 178.578 163.958C178.506 164.03 178.41 164.066 178.29 164.066H177.264C176.712 164.066 176.328 164.21 176.112 164.498C175.896 164.786 175.788 165.23 175.788 165.83V166.64H178.11C178.23 166.64 178.326 166.682 178.398 166.766C178.482 166.838 178.524 166.934 178.524 167.054V167.63C178.524 167.75 178.482 167.846 178.398 167.918C178.326 167.99 178.23 168.026 178.11 168.026H175.788V175.586C175.788 175.706 175.746 175.808 175.662 175.892C175.59 175.964 175.494 176 175.374 176H174.6ZM180.537 176C180.417 176 180.315 175.964 180.231 175.892C180.159 175.808 180.123 175.706 180.123 175.586V167.072C180.123 166.952 180.159 166.85 180.231 166.766C180.315 166.682 180.417 166.64 180.537 166.64H181.293C181.425 166.64 181.527 166.682 181.599 166.766C181.683 166.838 181.725 166.94 181.725 167.072V167.864C182.217 167.048 183.051 166.64 184.227 166.64H184.929C185.061 166.64 185.163 166.676 185.235 166.748C185.307 166.82 185.343 166.922 185.343 167.054V167.72C185.343 167.84 185.307 167.942 185.235 168.026C185.163 168.098 185.061 168.134 184.929 168.134H183.903C183.243 168.134 182.721 168.326 182.337 168.71C181.965 169.094 181.779 169.616 181.779 170.276V175.586C181.779 175.706 181.737 175.808 181.653 175.892C181.569 175.964 181.467 176 181.347 176H180.537ZM190.513 176.18C189.193 176.18 188.173 175.808 187.453 175.064C186.745 174.32 186.367 173.33 186.319 172.094L186.301 171.32L186.319 170.546C186.367 169.31 186.751 168.32 187.471 167.576C188.203 166.832 189.217 166.46 190.513 166.46C191.809 166.46 192.817 166.832 193.537 167.576C194.269 168.32 194.659 169.31 194.707 170.546C194.731 170.81 194.743 171.068 194.743 171.32C194.743 171.572 194.731 171.83 194.707 172.094C194.659 173.33 194.275 174.32 193.555 175.064C192.847 175.808 191.833 176.18 190.513 176.18ZM190.513 174.83C191.281 174.83 191.887 174.59 192.331 174.11C192.787 173.618 193.033 172.916 193.069 172.004C193.081 171.884 193.087 171.656 193.087 171.32C193.087 170.984 193.081 170.756 193.069 170.636C193.033 169.724 192.787 169.028 192.331 168.548C191.887 168.056 191.281 167.81 190.513 167.81C189.745 167.81 189.133 168.056 188.677 168.548C188.233 169.028 187.993 169.724 187.957 170.636L187.939 171.32L187.957 172.004C187.993 172.916 188.233 173.618 188.677 174.11C189.133 174.59 189.745 174.83 190.513 174.83ZM197.43 176C197.31 176 197.208 175.964 197.124 175.892C197.052 175.808 197.016 175.706 197.016 175.586V167.054C197.016 166.934 197.052 166.838 197.124 166.766C197.208 166.682 197.31 166.64 197.43 166.64H198.186C198.306 166.64 198.402 166.682 198.474 166.766C198.546 166.838 198.582 166.934 198.582 167.054V167.666C199.23 166.862 200.106 166.46 201.21 166.46C202.53 166.46 203.466 167.012 204.018 168.116C204.306 167.612 204.714 167.21 205.242 166.91C205.782 166.61 206.382 166.46 207.042 166.46C208.026 166.46 208.83 166.796 209.454 167.468C210.078 168.14 210.39 169.112 210.39 170.384V175.586C210.39 175.706 210.348 175.808 210.264 175.892C210.192 175.964 210.096 176 209.976 176H209.202C209.082 176 208.98 175.964 208.896 175.892C208.824 175.808 208.788 175.706 208.788 175.586V170.546C208.788 169.586 208.59 168.902 208.194 168.494C207.798 168.074 207.276 167.864 206.628 167.864C206.052 167.864 205.554 168.08 205.134 168.512C204.726 168.932 204.522 169.61 204.522 170.546V175.586C204.522 175.706 204.48 175.808 204.396 175.892C204.324 175.964 204.228 176 204.108 176H203.316C203.196 176 203.094 175.964 203.01 175.892C202.938 175.808 202.902 175.706 202.902 175.586V170.546C202.902 169.598 202.692 168.914 202.272 168.494C201.864 168.074 201.354 167.864 200.742 167.864C200.166 167.864 199.668 168.074 199.248 168.494C198.84 168.914 198.636 169.592 198.636 170.528V175.586C198.636 175.706 198.594 175.808 198.51 175.892C198.438 175.964 198.342 176 198.222 176H197.43ZM218.054 176C217.934 176 217.838 175.964 217.766 175.892C217.694 175.808 217.658 175.706 217.658 175.586V163.832C217.658 163.7 217.694 163.598 217.766 163.526C217.838 163.442 217.934 163.4 218.054 163.4H225.362C225.494 163.4 225.596 163.442 225.668 163.526C225.752 163.598 225.794 163.7 225.794 163.832V164.498C225.794 164.618 225.752 164.72 225.668 164.804C225.596 164.876 225.494 164.912 225.362 164.912H219.332V169.178H225.002C225.134 169.178 225.236 169.22 225.308 169.304C225.392 169.376 225.434 169.472 225.434 169.592V170.276C225.434 170.396 225.392 170.498 225.308 170.582C225.224 170.654 225.122 170.69 225.002 170.69H219.332V175.586C219.332 175.706 219.29 175.808 219.206 175.892C219.122 175.964 219.02 176 218.9 176H218.054ZM229.983 176.18C229.395 176.18 228.849 176.06 228.345 175.82C227.853 175.58 227.457 175.256 227.157 174.848C226.869 174.428 226.725 173.966 226.725 173.462C226.725 172.67 227.049 172.022 227.697 171.518C228.345 171.014 229.227 170.678 230.343 170.51L233.043 170.132V169.61C233.043 168.374 232.329 167.756 230.901 167.756C230.349 167.756 229.905 167.87 229.569 168.098C229.233 168.314 228.987 168.572 228.831 168.872C228.783 168.992 228.729 169.076 228.669 169.124C228.621 169.16 228.549 169.178 228.453 169.178H227.751C227.643 169.178 227.547 169.142 227.463 169.07C227.391 168.986 227.355 168.89 227.355 168.782C227.355 168.506 227.481 168.188 227.733 167.828C227.997 167.456 228.399 167.138 228.939 166.874C229.479 166.598 230.139 166.46 230.919 166.46C232.263 166.46 233.223 166.772 233.799 167.396C234.387 168.02 234.681 168.8 234.681 169.736V175.586C234.681 175.706 234.639 175.808 234.555 175.892C234.483 175.964 234.387 176 234.267 176H233.475C233.355 176 233.259 175.964 233.187 175.892C233.115 175.808 233.079 175.706 233.079 175.586V174.794C232.815 175.19 232.431 175.52 231.927 175.784C231.423 176.048 230.775 176.18 229.983 176.18ZM230.343 174.866C231.135 174.866 231.783 174.608 232.287 174.092C232.791 173.576 233.043 172.826 233.043 171.842V171.338L230.937 171.644C230.073 171.764 229.419 171.968 228.975 172.256C228.531 172.544 228.309 172.904 228.309 173.336C228.309 173.828 228.507 174.206 228.903 174.47C229.311 174.734 229.791 174.866 230.343 174.866ZM241.032 176.18C239.748 176.18 238.746 175.82 238.026 175.1C237.306 174.368 236.928 173.348 236.892 172.04L236.874 171.32L236.892 170.6C236.928 169.292 237.306 168.278 238.026 167.558C238.746 166.826 239.748 166.46 241.032 166.46C241.896 166.46 242.622 166.616 243.21 166.928C243.81 167.228 244.254 167.606 244.542 168.062C244.842 168.518 245.004 168.974 245.027 169.43C245.04 169.538 244.998 169.634 244.902 169.718C244.818 169.802 244.722 169.844 244.614 169.844H243.822C243.702 169.844 243.612 169.82 243.552 169.772C243.492 169.712 243.432 169.61 243.372 169.466C243.156 168.878 242.856 168.464 242.472 168.224C242.1 167.972 241.626 167.846 241.05 167.846C240.294 167.846 239.694 168.08 239.25 168.548C238.806 169.016 238.566 169.73 238.53 170.69L238.512 171.32L238.53 171.95C238.566 172.91 238.806 173.624 239.25 174.092C239.694 174.56 240.294 174.794 241.05 174.794C241.638 174.794 242.118 174.674 242.49 174.434C242.862 174.182 243.156 173.762 243.372 173.174C243.432 173.03 243.492 172.934 243.552 172.886C243.612 172.826 243.702 172.796 243.822 172.796H244.614C244.722 172.796 244.818 172.838 244.902 172.922C244.998 173.006 245.04 173.102 245.027 173.21C245.004 173.654 244.842 174.104 244.542 174.56C244.254 175.016 243.81 175.4 243.21 175.712C242.622 176.024 241.896 176.18 241.032 176.18ZM250.892 176.18C249.668 176.18 248.69 175.802 247.958 175.046C247.226 174.278 246.824 173.234 246.752 171.914L246.734 171.302L246.752 170.708C246.824 169.412 247.226 168.38 247.958 167.612C248.69 166.844 249.668 166.46 250.892 166.46C252.212 166.46 253.232 166.88 253.952 167.72C254.684 168.56 255.05 169.7 255.05 171.14V171.464C255.05 171.584 255.008 171.686 254.924 171.77C254.852 171.842 254.756 171.878 254.636 171.878H248.39V172.04C248.426 172.82 248.666 173.486 249.11 174.038C249.554 174.59 250.142 174.866 250.874 174.866C251.438 174.866 251.894 174.758 252.242 174.542C252.602 174.314 252.872 174.08 253.052 173.84C253.16 173.696 253.244 173.612 253.304 173.588C253.364 173.552 253.466 173.534 253.61 173.534H254.402C254.51 173.534 254.6 173.564 254.672 173.624C254.756 173.684 254.798 173.762 254.798 173.858C254.798 174.122 254.636 174.44 254.312 174.812C253.988 175.184 253.526 175.508 252.926 175.784C252.338 176.048 251.66 176.18 250.892 176.18ZM253.412 170.654V170.6C253.412 169.76 253.184 169.076 252.728 168.548C252.272 168.02 251.66 167.756 250.892 167.756C250.112 167.756 249.5 168.02 249.056 168.548C248.612 169.076 248.39 169.76 248.39 170.6V170.654H253.412ZM261.811 176.18C260.515 176.18 259.525 175.724 258.841 174.812V175.586C258.841 175.706 258.799 175.808 258.715 175.892C258.643 175.964 258.547 176 258.427 176H257.671C257.551 176 257.449 175.964 257.365 175.892C257.293 175.808 257.257 175.706 257.257 175.586V163.634C257.257 163.502 257.293 163.4 257.365 163.328C257.449 163.256 257.551 163.22 257.671 163.22H258.481C258.601 163.22 258.697 163.262 258.769 163.346C258.853 163.418 258.895 163.514 258.895 163.634V167.792C259.567 166.904 260.539 166.46 261.811 166.46C263.071 166.46 264.013 166.874 264.637 167.702C265.273 168.518 265.609 169.544 265.645 170.78C265.657 170.912 265.663 171.092 265.663 171.32C265.663 171.548 265.657 171.728 265.645 171.86C265.609 173.096 265.273 174.128 264.637 174.956C264.013 175.772 263.071 176.18 261.811 176.18ZM261.469 174.776C262.333 174.776 262.963 174.506 263.359 173.966C263.755 173.426 263.971 172.718 264.007 171.842C264.019 171.722 264.025 171.548 264.025 171.32C264.025 169.016 263.173 167.864 261.469 167.864C260.653 167.864 260.023 168.134 259.579 168.674C259.147 169.202 258.919 169.832 258.895 170.564C258.883 170.696 258.877 170.93 258.877 171.266C258.877 171.59 258.883 171.818 258.895 171.95C258.919 172.718 259.141 173.384 259.561 173.948C259.993 174.5 260.629 174.776 261.469 174.776ZM271.724 176.18C270.404 176.18 269.384 175.808 268.664 175.064C267.956 174.32 267.578 173.33 267.53 172.094L267.512 171.32L267.53 170.546C267.578 169.31 267.962 168.32 268.682 167.576C269.414 166.832 270.428 166.46 271.724 166.46C273.02 166.46 274.028 166.832 274.748 167.576C275.48 168.32 275.87 169.31 275.918 170.546C275.942 170.81 275.954 171.068 275.954 171.32C275.954 171.572 275.942 171.83 275.918 172.094C275.87 173.33 275.486 174.32 274.766 175.064C274.058 175.808 273.044 176.18 271.724 176.18ZM271.724 174.83C272.492 174.83 273.098 174.59 273.542 174.11C273.998 173.618 274.244 172.916 274.28 172.004C274.292 171.884 274.298 171.656 274.298 171.32C274.298 170.984 274.292 170.756 274.28 170.636C274.244 169.724 273.998 169.028 273.542 168.548C273.098 168.056 272.492 167.81 271.724 167.81C270.956 167.81 270.344 168.056 269.888 168.548C269.444 169.028 269.204 169.724 269.168 170.636L269.15 171.32L269.168 172.004C269.204 172.916 269.444 173.618 269.888 174.11C270.344 174.59 270.956 174.83 271.724 174.83ZM282.025 176.18C280.705 176.18 279.685 175.808 278.965 175.064C278.257 174.32 277.879 173.33 277.831 172.094L277.813 171.32L277.831 170.546C277.879 169.31 278.263 168.32 278.983 167.576C279.715 166.832 280.729 166.46 282.025 166.46C283.321 166.46 284.329 166.832 285.049 167.576C285.781 168.32 286.171 169.31 286.219 170.546C286.243 170.81 286.255 171.068 286.255 171.32C286.255 171.572 286.243 171.83 286.219 172.094C286.171 173.33 285.787 174.32 285.067 175.064C284.359 175.808 283.345 176.18 282.025 176.18ZM282.025 174.83C282.793 174.83 283.399 174.59 283.843 174.11C284.299 173.618 284.545 172.916 284.581 172.004C284.593 171.884 284.599 171.656 284.599 171.32C284.599 170.984 284.593 170.756 284.581 170.636C284.545 169.724 284.299 169.028 283.843 168.548C283.399 168.056 282.793 167.81 282.025 167.81C281.257 167.81 280.645 168.056 280.189 168.548C279.745 169.028 279.505 169.724 279.469 170.636L279.451 171.32L279.469 172.004C279.505 172.916 279.745 173.618 280.189 174.11C280.645 174.59 281.257 174.83 282.025 174.83ZM288.96 176C288.84 176 288.738 175.964 288.654 175.892C288.582 175.808 288.546 175.706 288.546 175.586V163.634C288.546 163.502 288.582 163.4 288.654 163.328C288.738 163.256 288.84 163.22 288.96 163.22H289.734C289.854 163.22 289.95 163.262 290.022 163.346C290.106 163.418 290.148 163.514 290.148 163.634V169.916L293.748 166.946C293.928 166.814 294.054 166.73 294.126 166.694C294.198 166.658 294.312 166.64 294.468 166.64H295.368C295.476 166.64 295.56 166.676 295.62 166.748C295.692 166.808 295.728 166.898 295.728 167.018C295.728 167.126 295.662 167.24 295.53 167.36L291.318 170.816L295.98 175.28C296.112 175.412 296.178 175.526 296.178 175.622C296.178 175.73 296.142 175.82 296.07 175.892C296.01 175.964 295.926 176 295.818 176H294.936C294.756 176 294.624 175.982 294.54 175.946C294.468 175.91 294.36 175.826 294.216 175.694L290.148 171.842V175.586C290.148 175.706 290.106 175.808 290.022 175.892C289.95 175.964 289.854 176 289.734 176H288.96Z" fill="#3E4442"/>
<path d="M128.653 374.812V376H121.208V374.961L124.934 370.812C125.393 370.302 125.747 369.87 125.997 369.516C126.252 369.156 126.429 368.836 126.528 368.555C126.632 368.268 126.684 367.977 126.684 367.68C126.684 367.305 126.606 366.966 126.45 366.664C126.299 366.357 126.075 366.112 125.778 365.93C125.481 365.747 125.122 365.656 124.7 365.656C124.195 365.656 123.773 365.755 123.434 365.953C123.101 366.146 122.851 366.417 122.684 366.766C122.518 367.115 122.434 367.516 122.434 367.969H120.989C120.989 367.328 121.13 366.742 121.411 366.211C121.692 365.68 122.109 365.258 122.661 364.945C123.213 364.628 123.893 364.469 124.7 364.469C125.419 364.469 126.033 364.596 126.544 364.852C127.054 365.102 127.445 365.456 127.716 365.914C127.992 366.367 128.13 366.898 128.13 367.508C128.13 367.841 128.072 368.18 127.958 368.523C127.848 368.862 127.695 369.201 127.497 369.539C127.304 369.878 127.078 370.211 126.817 370.539C126.562 370.867 126.288 371.19 125.997 371.508L122.95 374.812H128.653ZM137.341 369.406V371.141C137.341 372.073 137.257 372.859 137.091 373.5C136.924 374.141 136.684 374.656 136.372 375.047C136.059 375.438 135.682 375.721 135.239 375.898C134.801 376.07 134.307 376.156 133.755 376.156C133.317 376.156 132.913 376.102 132.544 375.992C132.174 375.883 131.841 375.708 131.544 375.469C131.252 375.224 131.002 374.906 130.794 374.516C130.585 374.125 130.426 373.651 130.317 373.094C130.208 372.536 130.153 371.885 130.153 371.141V369.406C130.153 368.474 130.236 367.693 130.403 367.062C130.575 366.432 130.817 365.927 131.13 365.547C131.442 365.161 131.817 364.885 132.255 364.719C132.697 364.552 133.192 364.469 133.739 364.469C134.182 364.469 134.588 364.523 134.958 364.633C135.333 364.737 135.666 364.906 135.958 365.141C136.249 365.37 136.497 365.677 136.7 366.062C136.908 366.443 137.067 366.909 137.176 367.461C137.286 368.013 137.341 368.661 137.341 369.406ZM135.887 371.375V369.164C135.887 368.654 135.856 368.206 135.794 367.82C135.736 367.43 135.65 367.096 135.536 366.82C135.421 366.544 135.275 366.32 135.098 366.148C134.926 365.977 134.726 365.852 134.497 365.773C134.273 365.69 134.02 365.648 133.739 365.648C133.395 365.648 133.091 365.714 132.825 365.844C132.559 365.969 132.335 366.169 132.153 366.445C131.976 366.721 131.841 367.083 131.747 367.531C131.653 367.979 131.606 368.523 131.606 369.164V371.375C131.606 371.885 131.635 372.336 131.692 372.727C131.755 373.117 131.846 373.456 131.966 373.742C132.085 374.023 132.231 374.255 132.403 374.438C132.575 374.62 132.773 374.755 132.997 374.844C133.226 374.927 133.479 374.969 133.755 374.969C134.109 374.969 134.419 374.901 134.684 374.766C134.95 374.63 135.171 374.419 135.348 374.133C135.531 373.841 135.666 373.469 135.755 373.016C135.843 372.557 135.887 372.01 135.887 371.375ZM146.653 374.812V376H139.208V374.961L142.934 370.812C143.393 370.302 143.747 369.87 143.997 369.516C144.252 369.156 144.429 368.836 144.528 368.555C144.632 368.268 144.684 367.977 144.684 367.68C144.684 367.305 144.606 366.966 144.45 366.664C144.299 366.357 144.075 366.112 143.778 365.93C143.481 365.747 143.122 365.656 142.7 365.656C142.195 365.656 141.773 365.755 141.434 365.953C141.101 366.146 140.851 366.417 140.684 366.766C140.518 367.115 140.434 367.516 140.434 367.969H138.989C138.989 367.328 139.13 366.742 139.411 366.211C139.692 365.68 140.109 365.258 140.661 364.945C141.213 364.628 141.893 364.469 142.7 364.469C143.419 364.469 144.033 364.596 144.544 364.852C145.054 365.102 145.445 365.456 145.716 365.914C145.992 366.367 146.13 366.898 146.13 367.508C146.13 367.841 146.072 368.18 145.958 368.523C145.848 368.862 145.695 369.201 145.497 369.539C145.304 369.878 145.078 370.211 144.817 370.539C144.562 370.867 144.288 371.19 143.997 371.508L140.95 374.812H146.653ZM155.341 369.406V371.141C155.341 372.073 155.257 372.859 155.091 373.5C154.924 374.141 154.684 374.656 154.372 375.047C154.059 375.438 153.682 375.721 153.239 375.898C152.801 376.07 152.307 376.156 151.755 376.156C151.317 376.156 150.913 376.102 150.544 375.992C150.174 375.883 149.841 375.708 149.544 375.469C149.252 375.224 149.002 374.906 148.794 374.516C148.585 374.125 148.426 373.651 148.317 373.094C148.208 372.536 148.153 371.885 148.153 371.141V369.406C148.153 368.474 148.236 367.693 148.403 367.062C148.575 366.432 148.817 365.927 149.13 365.547C149.442 365.161 149.817 364.885 150.255 364.719C150.697 364.552 151.192 364.469 151.739 364.469C152.182 364.469 152.588 364.523 152.958 364.633C153.333 364.737 153.666 364.906 153.958 365.141C154.249 365.37 154.497 365.677 154.7 366.062C154.908 366.443 155.067 366.909 155.176 367.461C155.286 368.013 155.341 368.661 155.341 369.406ZM153.887 371.375V369.164C153.887 368.654 153.856 368.206 153.794 367.82C153.736 367.43 153.65 367.096 153.536 366.82C153.421 366.544 153.275 366.32 153.098 366.148C152.926 365.977 152.726 365.852 152.497 365.773C152.273 365.69 152.02 365.648 151.739 365.648C151.395 365.648 151.091 365.714 150.825 365.844C150.559 365.969 150.335 366.169 150.153 366.445C149.976 366.721 149.841 367.083 149.747 367.531C149.653 367.979 149.606 368.523 149.606 369.164V371.375C149.606 371.885 149.635 372.336 149.692 372.727C149.755 373.117 149.846 373.456 149.966 373.742C150.085 374.023 150.231 374.255 150.403 374.438C150.575 374.62 150.773 374.755 150.997 374.844C151.226 374.927 151.479 374.969 151.755 374.969C152.109 374.969 152.419 374.901 152.684 374.766C152.95 374.63 153.171 374.419 153.348 374.133C153.531 373.841 153.666 373.469 153.755 373.016C153.843 372.557 153.887 372.01 153.887 371.375Z" fill="#767272"/>
<path d="M262.144 374.812V376H254.699V374.961L258.425 370.812C258.884 370.302 259.238 369.87 259.488 369.516C259.743 369.156 259.92 368.836 260.019 368.555C260.123 368.268 260.175 367.977 260.175 367.68C260.175 367.305 260.097 366.966 259.941 366.664C259.79 366.357 259.566 366.112 259.269 365.93C258.972 365.747 258.613 365.656 258.191 365.656C257.686 365.656 257.264 365.755 256.925 365.953C256.592 366.146 256.342 366.417 256.175 366.766C256.009 367.115 255.925 367.516 255.925 367.969H254.48C254.48 367.328 254.621 366.742 254.902 366.211C255.183 365.68 255.6 365.258 256.152 364.945C256.704 364.628 257.384 364.469 258.191 364.469C258.91 364.469 259.524 364.596 260.035 364.852C260.545 365.102 260.936 365.456 261.207 365.914C261.483 366.367 261.621 366.898 261.621 367.508C261.621 367.841 261.563 368.18 261.449 368.523C261.339 368.862 261.186 369.201 260.988 369.539C260.795 369.878 260.568 370.211 260.308 370.539C260.053 370.867 259.779 371.19 259.488 371.508L256.441 374.812H262.144ZM270.832 369.406V371.141C270.832 372.073 270.748 372.859 270.582 373.5C270.415 374.141 270.175 374.656 269.863 375.047C269.55 375.438 269.173 375.721 268.73 375.898C268.292 376.07 267.798 376.156 267.246 376.156C266.808 376.156 266.404 376.102 266.035 375.992C265.665 375.883 265.332 375.708 265.035 375.469C264.743 375.224 264.493 374.906 264.285 374.516C264.076 374.125 263.917 373.651 263.808 373.094C263.699 372.536 263.644 371.885 263.644 371.141V369.406C263.644 368.474 263.727 367.693 263.894 367.062C264.066 366.432 264.308 365.927 264.621 365.547C264.933 365.161 265.308 364.885 265.746 364.719C266.188 364.552 266.683 364.469 267.23 364.469C267.673 364.469 268.079 364.523 268.449 364.633C268.824 364.737 269.157 364.906 269.449 365.141C269.74 365.37 269.988 365.677 270.191 366.062C270.399 366.443 270.558 366.909 270.667 367.461C270.777 368.013 270.832 368.661 270.832 369.406ZM269.378 371.375V369.164C269.378 368.654 269.347 368.206 269.285 367.82C269.227 367.43 269.141 367.096 269.027 366.82C268.912 366.544 268.766 366.32 268.589 366.148C268.417 365.977 268.217 365.852 267.988 365.773C267.764 365.69 267.511 365.648 267.23 365.648C266.886 365.648 266.582 365.714 266.316 365.844C266.05 365.969 265.826 366.169 265.644 366.445C265.467 366.721 265.332 367.083 265.238 367.531C265.144 367.979 265.097 368.523 265.097 369.164V371.375C265.097 371.885 265.126 372.336 265.183 372.727C265.246 373.117 265.337 373.456 265.457 373.742C265.576 374.023 265.722 374.255 265.894 374.438C266.066 374.62 266.264 374.755 266.488 374.844C266.717 374.927 266.97 374.969 267.246 374.969C267.6 374.969 267.91 374.901 268.175 374.766C268.441 374.63 268.662 374.419 268.839 374.133C269.022 373.841 269.157 373.469 269.246 373.016C269.334 372.557 269.378 372.01 269.378 371.375ZM280.144 374.812V376H272.699V374.961L276.425 370.812C276.884 370.302 277.238 369.87 277.488 369.516C277.743 369.156 277.92 368.836 278.019 368.555C278.123 368.268 278.175 367.977 278.175 367.68C278.175 367.305 278.097 366.966 277.941 366.664C277.79 366.357 277.566 366.112 277.269 365.93C276.972 365.747 276.613 365.656 276.191 365.656C275.686 365.656 275.264 365.755 274.925 365.953C274.592 366.146 274.342 366.417 274.175 366.766C274.009 367.115 273.925 367.516 273.925 367.969H272.48C272.48 367.328 272.621 366.742 272.902 366.211C273.183 365.68 273.6 365.258 274.152 364.945C274.704 364.628 275.384 364.469 276.191 364.469C276.91 364.469 277.524 364.596 278.035 364.852C278.545 365.102 278.936 365.456 279.207 365.914C279.483 366.367 279.621 366.898 279.621 367.508C279.621 367.841 279.563 368.18 279.449 368.523C279.339 368.862 279.186 369.201 278.988 369.539C278.795 369.878 278.568 370.211 278.308 370.539C278.053 370.867 277.779 371.19 277.488 371.508L274.441 374.812H280.144ZM286.441 364.562V376H284.996V366.367L282.082 367.43V366.125L286.214 364.562H286.441Z" fill="#767272"/>
<rect x="72" y="255" width="265.018" height="1" fill="#C3CDCA"/>
<rect x="72" y="288" width="265.018" height="1" fill="#C3CDCA"/>
<rect x="72" y="321" width="265.018" height="1" fill="#C3CDCA"/>
<rect x="72" y="354" width="265.018" height="1" fill="#C3CDCA"/>
<rect x="204.509" y="222" width="0.98155" height="166" fill="#C3CDCA"/>
<path d="M72 321.356L91.3191 300.282L109.647 296.361L129.957 339L151.258 315.965L172.063 332.139L192.868 278.228L213.178 292.931L234.479 261.074L255.779 274.307L275.594 250.292L297.389 261.074L317.204 245.881L337.018 240" stroke="#475996" stroke-width="3" stroke-linecap="round"/>
</g>
<defs>
<filter id="filter0_d_1_1209" x="0" y="0" width="410" height="476" filterUnits="userSpaceOnUse" color-interpolation-filters="sRGB">
<feFlood flood-opacity="0" result="BackgroundImageFix"/>
<feColorMatrix in="SourceAlpha" type="matrix" values="0 0 0 0 0 0 0 0 0 0 0 0 0 0 0 0 0 0 127 0" result="hardAlpha"/>
<feOffset dy="20"/>
<feGaussianBlur stdDeviation="20"/>
<feComposite in2="hardAlpha" operator="out"/>
<feColorMatrix type="matrix" values="0 0 0 0 0.796078 0 0 0 0 0.435294 0 0 0 0 0.254902 0 0 0 0.2 0"/>
<feBlend mode="normal" in2="BackgroundImageFix" result="effect1_dropShadow_1_1209"/>
<feBlend mode="normal" in="SourceGraphic" in2="effect1_dropShadow_1_1209" result="shape"/>
</filter>
</defs>
</svg>
