<svg width="410" height="469" viewBox="0 0 410 469" fill="none" xmlns="http://www.w3.org/2000/svg">
<g filter="url(#filter0_d_1_1208)">
<rect x="40" y="20" width="330" height="391" rx="8" fill="white" shape-rendering="crispEdges"/>
<rect x="169.998" y="68" width="70.0049" height="70" rx="35" fill="#D83A6A"/>
<path d="M205.002 97.3595C201.88 97.3595 199.362 99.8778 199.362 103C199.362 106.122 201.88 108.641 205.002 108.641C208.125 108.641 210.643 106.122 210.643 103C210.643 99.8778 208.125 97.3595 205.002 97.3595ZM205.002 106.667C202.985 106.667 201.335 105.023 201.335 103C201.335 100.977 202.98 99.3329 205.002 99.3329C207.025 99.3329 208.67 100.977 208.67 103C208.67 105.023 207.02 106.667 205.002 106.667ZM212.189 97.1288C212.189 97.8602 211.6 98.4444 210.874 98.4444C210.142 98.4444 209.558 97.8553 209.558 97.1288C209.558 96.4022 210.147 95.8131 210.874 95.8131C211.6 95.8131 212.189 96.4022 212.189 97.1288ZM215.925 98.464C215.842 96.7017 215.439 95.1406 214.148 93.8544C212.862 92.5682 211.301 92.1657 209.538 92.0773C207.722 91.9742 202.278 91.9742 200.462 92.0773C198.704 92.1608 197.143 92.5633 195.852 93.8495C194.561 95.1357 194.163 96.6968 194.075 98.4591C193.972 100.275 193.972 105.72 194.075 107.536C194.158 109.298 194.561 110.859 195.852 112.146C197.143 113.432 198.699 113.834 200.462 113.923C202.278 114.026 207.722 114.026 209.538 113.923C211.301 113.839 212.862 113.437 214.148 112.146C215.434 110.859 215.837 109.298 215.925 107.536C216.028 105.72 216.028 100.28 215.925 98.464ZM213.579 109.485C213.196 110.447 212.454 111.188 211.487 111.576C210.039 112.151 206.603 112.018 205.002 112.018C203.402 112.018 199.961 112.146 198.518 111.576C197.555 111.193 196.814 110.452 196.426 109.485C195.852 108.037 195.985 104.6 195.985 103C195.985 101.4 195.857 97.9584 196.426 96.5151C196.809 95.5529 197.55 94.8117 198.518 94.4239C199.966 93.8495 203.402 93.982 205.002 93.982C206.603 93.982 210.044 93.8544 211.487 94.4239C212.45 94.8068 213.191 95.548 213.579 96.5151C214.153 97.9633 214.02 101.4 214.02 103C214.02 104.6 214.153 108.042 213.579 109.485Z" fill="white"/>
<path d="M115.574 176C115.454 176 115.358 175.964 115.286 175.892C115.214 175.808 115.178 175.706 115.178 175.586V163.832C115.178 163.7 115.214 163.598 115.286 163.526C115.358 163.442 115.454 163.4 115.574 163.4H120.128C121.484 163.4 122.546 163.73 123.314 164.39C124.094 165.038 124.484 165.986 124.484 167.234C124.484 168.482 124.094 169.43 123.314 170.078C122.546 170.726 121.484 171.05 120.128 171.05H116.888V175.586C116.888 175.706 116.846 175.808 116.762 175.892C116.69 175.964 116.594 176 116.474 176H115.574ZM120.038 169.592C121.85 169.592 122.756 168.806 122.756 167.234C122.756 166.466 122.528 165.878 122.072 165.47C121.628 165.062 120.95 164.858 120.038 164.858H116.888V169.592H120.038ZM126.889 176C126.769 176 126.667 175.964 126.583 175.892C126.511 175.808 126.475 175.706 126.475 175.586V167.072C126.475 166.952 126.511 166.85 126.583 166.766C126.667 166.682 126.769 166.64 126.889 166.64H127.645C127.777 166.64 127.879 166.682 127.951 166.766C128.035 166.838 128.077 166.94 128.077 167.072V167.864C128.569 167.048 129.403 166.64 130.579 166.64H131.281C131.413 166.64 131.515 166.676 131.587 166.748C131.659 166.82 131.695 166.922 131.695 167.054V167.72C131.695 167.84 131.659 167.942 131.587 168.026C131.515 168.098 131.413 168.134 131.281 168.134H130.255C129.595 168.134 129.073 168.326 128.689 168.71C128.317 169.094 128.131 169.616 128.131 170.276V175.586C128.131 175.706 128.089 175.808 128.005 175.892C127.921 175.964 127.819 176 127.699 176H126.889ZM136.865 176.18C135.545 176.18 134.525 175.808 133.805 175.064C133.097 174.32 132.719 173.33 132.671 172.094L132.653 171.32L132.671 170.546C132.719 169.31 133.103 168.32 133.823 167.576C134.555 166.832 135.569 166.46 136.865 166.46C138.161 166.46 139.169 166.832 139.889 167.576C140.621 168.32 141.011 169.31 141.059 170.546C141.083 170.81 141.095 171.068 141.095 171.32C141.095 171.572 141.083 171.83 141.059 172.094C141.011 173.33 140.627 174.32 139.907 175.064C139.199 175.808 138.185 176.18 136.865 176.18ZM136.865 174.83C137.633 174.83 138.239 174.59 138.683 174.11C139.139 173.618 139.385 172.916 139.421 172.004C139.433 171.884 139.439 171.656 139.439 171.32C139.439 170.984 139.433 170.756 139.421 170.636C139.385 169.724 139.139 169.028 138.683 168.548C138.239 168.056 137.633 167.81 136.865 167.81C136.097 167.81 135.485 168.056 135.029 168.548C134.585 169.028 134.345 169.724 134.309 170.636L134.291 171.32L134.309 172.004C134.345 172.916 134.585 173.618 135.029 174.11C135.485 174.59 136.097 174.83 136.865 174.83ZM144.612 176C144.492 176 144.39 175.964 144.306 175.892C144.234 175.808 144.198 175.706 144.198 175.586V168.026H142.65C142.53 168.026 142.428 167.99 142.344 167.918C142.272 167.846 142.236 167.75 142.236 167.63V167.054C142.236 166.934 142.272 166.838 142.344 166.766C142.428 166.682 142.53 166.64 142.65 166.64H144.198V165.74C144.198 164.768 144.432 164.018 144.9 163.49C145.38 162.95 146.16 162.68 147.24 162.68H149.94C150.06 162.68 150.156 162.722 150.228 162.806C150.3 162.878 150.336 162.974 150.336 163.094V163.67C150.336 163.79 150.3 163.886 150.228 163.958C150.156 164.03 150.06 164.066 149.94 164.066H147.276C146.724 164.066 146.34 164.21 146.124 164.498C145.908 164.786 145.8 165.23 145.8 165.83V166.64H149.94C150.06 166.64 150.156 166.682 150.228 166.766C150.3 166.838 150.336 166.934 150.336 167.054V175.586C150.336 175.706 150.3 175.808 150.228 175.892C150.156 175.964 150.06 176 149.94 176H149.148C149.028 176 148.926 175.964 148.842 175.892C148.77 175.808 148.734 175.706 148.734 175.586V168.026H145.8V175.586C145.8 175.706 145.758 175.808 145.674 175.892C145.602 175.964 145.506 176 145.386 176H144.612ZM156.636 176C154.776 176 153.846 174.95 153.846 172.85V168.026H152.424C152.304 168.026 152.208 167.99 152.136 167.918C152.064 167.846 152.028 167.75 152.028 167.63V167.054C152.028 166.934 152.064 166.838 152.136 166.766C152.208 166.682 152.304 166.64 152.424 166.64H153.846V163.634C153.846 163.514 153.882 163.418 153.954 163.346C154.026 163.262 154.122 163.22 154.242 163.22H155.034C155.154 163.22 155.25 163.262 155.322 163.346C155.406 163.418 155.448 163.514 155.448 163.634V166.64H157.68C157.8 166.64 157.896 166.682 157.968 166.766C158.052 166.838 158.094 166.934 158.094 167.054V167.63C158.094 167.75 158.052 167.846 157.968 167.918C157.896 167.99 157.8 168.026 157.68 168.026H155.448V172.724C155.448 173.336 155.544 173.798 155.736 174.11C155.94 174.422 156.282 174.578 156.762 174.578H157.86C157.98 174.578 158.076 174.62 158.148 174.704C158.22 174.776 158.256 174.872 158.256 174.992V175.586C158.256 175.706 158.22 175.808 158.148 175.892C158.076 175.964 157.98 176 157.86 176H156.636ZM163.218 176.18C162.39 176.18 161.688 176.048 161.112 175.784C160.548 175.508 160.128 175.196 159.852 174.848C159.576 174.5 159.438 174.212 159.438 173.984C159.438 173.864 159.48 173.774 159.564 173.714C159.648 173.642 159.738 173.606 159.834 173.606H160.59C160.662 173.606 160.716 173.618 160.752 173.642C160.8 173.666 160.86 173.72 160.932 173.804C161.208 174.14 161.514 174.404 161.85 174.596C162.198 174.788 162.66 174.884 163.236 174.884C163.884 174.884 164.4 174.764 164.784 174.524C165.18 174.284 165.378 173.936 165.378 173.48C165.378 173.18 165.294 172.94 165.126 172.76C164.958 172.58 164.676 172.418 164.28 172.274C163.896 172.13 163.32 171.974 162.552 171.806C161.508 171.578 160.77 171.248 160.338 170.816C159.906 170.384 159.69 169.826 159.69 169.142C159.69 168.698 159.822 168.272 160.086 167.864C160.35 167.444 160.74 167.108 161.256 166.856C161.784 166.592 162.408 166.46 163.128 166.46C163.884 166.46 164.526 166.586 165.054 166.838C165.594 167.09 165.996 167.384 166.26 167.72C166.536 168.056 166.674 168.338 166.674 168.566C166.674 168.674 166.632 168.764 166.548 168.836C166.476 168.908 166.386 168.944 166.278 168.944H165.594C165.426 168.944 165.306 168.878 165.234 168.746C165.03 168.518 164.856 168.344 164.712 168.224C164.58 168.092 164.382 167.984 164.118 167.9C163.854 167.804 163.524 167.756 163.128 167.756C162.54 167.756 162.09 167.882 161.778 168.134C161.466 168.374 161.31 168.698 161.31 169.106C161.31 169.358 161.376 169.574 161.508 169.754C161.64 169.922 161.892 170.084 162.264 170.24C162.636 170.384 163.188 170.534 163.92 170.69C165.06 170.93 165.864 171.272 166.332 171.716C166.812 172.16 167.052 172.73 167.052 173.426C167.052 173.942 166.902 174.41 166.602 174.83C166.314 175.25 165.876 175.58 165.288 175.82C164.712 176.06 164.022 176.18 163.218 176.18ZM174.6 176C174.48 176 174.378 175.964 174.294 175.892C174.222 175.808 174.186 175.706 174.186 175.586V168.026H172.638C172.518 168.026 172.416 167.99 172.332 167.918C172.26 167.846 172.224 167.75 172.224 167.63V167.054C172.224 166.934 172.26 166.838 172.332 166.766C172.416 166.682 172.518 166.64 172.638 166.64H174.186V165.74C174.186 164.768 174.42 164.018 174.888 163.49C175.368 162.95 176.148 162.68 177.228 162.68H178.29C178.41 162.68 178.506 162.722 178.578 162.806C178.662 162.878 178.704 162.974 178.704 163.094V163.67C178.704 163.79 178.662 163.886 178.578 163.958C178.506 164.03 178.41 164.066 178.29 164.066H177.264C176.712 164.066 176.328 164.21 176.112 164.498C175.896 164.786 175.788 165.23 175.788 165.83V166.64H178.11C178.23 166.64 178.326 166.682 178.398 166.766C178.482 166.838 178.524 166.934 178.524 167.054V167.63C178.524 167.75 178.482 167.846 178.398 167.918C178.326 167.99 178.23 168.026 178.11 168.026H175.788V175.586C175.788 175.706 175.746 175.808 175.662 175.892C175.59 175.964 175.494 176 175.374 176H174.6ZM180.537 176C180.417 176 180.315 175.964 180.231 175.892C180.159 175.808 180.123 175.706 180.123 175.586V167.072C180.123 166.952 180.159 166.85 180.231 166.766C180.315 166.682 180.417 166.64 180.537 166.64H181.293C181.425 166.64 181.527 166.682 181.599 166.766C181.683 166.838 181.725 166.94 181.725 167.072V167.864C182.217 167.048 183.051 166.64 184.227 166.64H184.929C185.061 166.64 185.163 166.676 185.235 166.748C185.307 166.82 185.343 166.922 185.343 167.054V167.72C185.343 167.84 185.307 167.942 185.235 168.026C185.163 168.098 185.061 168.134 184.929 168.134H183.903C183.243 168.134 182.721 168.326 182.337 168.71C181.965 169.094 181.779 169.616 181.779 170.276V175.586C181.779 175.706 181.737 175.808 181.653 175.892C181.569 175.964 181.467 176 181.347 176H180.537ZM190.513 176.18C189.193 176.18 188.173 175.808 187.453 175.064C186.745 174.32 186.367 173.33 186.319 172.094L186.301 171.32L186.319 170.546C186.367 169.31 186.751 168.32 187.471 167.576C188.203 166.832 189.217 166.46 190.513 166.46C191.809 166.46 192.817 166.832 193.537 167.576C194.269 168.32 194.659 169.31 194.707 170.546C194.731 170.81 194.743 171.068 194.743 171.32C194.743 171.572 194.731 171.83 194.707 172.094C194.659 173.33 194.275 174.32 193.555 175.064C192.847 175.808 191.833 176.18 190.513 176.18ZM190.513 174.83C191.281 174.83 191.887 174.59 192.331 174.11C192.787 173.618 193.033 172.916 193.069 172.004C193.081 171.884 193.087 171.656 193.087 171.32C193.087 170.984 193.081 170.756 193.069 170.636C193.033 169.724 192.787 169.028 192.331 168.548C191.887 168.056 191.281 167.81 190.513 167.81C189.745 167.81 189.133 168.056 188.677 168.548C188.233 169.028 187.993 169.724 187.957 170.636L187.939 171.32L187.957 172.004C187.993 172.916 188.233 173.618 188.677 174.11C189.133 174.59 189.745 174.83 190.513 174.83ZM197.43 176C197.31 176 197.208 175.964 197.124 175.892C197.052 175.808 197.016 175.706 197.016 175.586V167.054C197.016 166.934 197.052 166.838 197.124 166.766C197.208 166.682 197.31 166.64 197.43 166.64H198.186C198.306 166.64 198.402 166.682 198.474 166.766C198.546 166.838 198.582 166.934 198.582 167.054V167.666C199.23 166.862 200.106 166.46 201.21 166.46C202.53 166.46 203.466 167.012 204.018 168.116C204.306 167.612 204.714 167.21 205.242 166.91C205.782 166.61 206.382 166.46 207.042 166.46C208.026 166.46 208.83 166.796 209.454 167.468C210.078 168.14 210.39 169.112 210.39 170.384V175.586C210.39 175.706 210.348 175.808 210.264 175.892C210.192 175.964 210.096 176 209.976 176H209.202C209.082 176 208.98 175.964 208.896 175.892C208.824 175.808 208.788 175.706 208.788 175.586V170.546C208.788 169.586 208.59 168.902 208.194 168.494C207.798 168.074 207.276 167.864 206.628 167.864C206.052 167.864 205.554 168.08 205.134 168.512C204.726 168.932 204.522 169.61 204.522 170.546V175.586C204.522 175.706 204.48 175.808 204.396 175.892C204.324 175.964 204.228 176 204.108 176H203.316C203.196 176 203.094 175.964 203.01 175.892C202.938 175.808 202.902 175.706 202.902 175.586V170.546C202.902 169.598 202.692 168.914 202.272 168.494C201.864 168.074 201.354 167.864 200.742 167.864C200.166 167.864 199.668 168.074 199.248 168.494C198.84 168.914 198.636 169.592 198.636 170.528V175.586C198.636 175.706 198.594 175.808 198.51 175.892C198.438 175.964 198.342 176 198.222 176H197.43ZM218.054 176C217.934 176 217.838 175.964 217.766 175.892C217.694 175.808 217.658 175.706 217.658 175.586V163.832C217.658 163.7 217.694 163.598 217.766 163.526C217.838 163.442 217.934 163.4 218.054 163.4H225.362C225.494 163.4 225.596 163.442 225.668 163.526C225.752 163.598 225.794 163.7 225.794 163.832V164.498C225.794 164.618 225.752 164.72 225.668 164.804C225.596 164.876 225.494 164.912 225.362 164.912H219.332V169.178H225.002C225.134 169.178 225.236 169.22 225.308 169.304C225.392 169.376 225.434 169.472 225.434 169.592V170.276C225.434 170.396 225.392 170.498 225.308 170.582C225.224 170.654 225.122 170.69 225.002 170.69H219.332V175.586C219.332 175.706 219.29 175.808 219.206 175.892C219.122 175.964 219.02 176 218.9 176H218.054ZM229.983 176.18C229.395 176.18 228.849 176.06 228.345 175.82C227.853 175.58 227.457 175.256 227.157 174.848C226.869 174.428 226.725 173.966 226.725 173.462C226.725 172.67 227.049 172.022 227.697 171.518C228.345 171.014 229.227 170.678 230.343 170.51L233.043 170.132V169.61C233.043 168.374 232.329 167.756 230.901 167.756C230.349 167.756 229.905 167.87 229.569 168.098C229.233 168.314 228.987 168.572 228.831 168.872C228.783 168.992 228.729 169.076 228.669 169.124C228.621 169.16 228.549 169.178 228.453 169.178H227.751C227.643 169.178 227.547 169.142 227.463 169.07C227.391 168.986 227.355 168.89 227.355 168.782C227.355 168.506 227.481 168.188 227.733 167.828C227.997 167.456 228.399 167.138 228.939 166.874C229.479 166.598 230.139 166.46 230.919 166.46C232.263 166.46 233.223 166.772 233.799 167.396C234.387 168.02 234.681 168.8 234.681 169.736V175.586C234.681 175.706 234.639 175.808 234.555 175.892C234.483 175.964 234.387 176 234.267 176H233.475C233.355 176 233.259 175.964 233.187 175.892C233.115 175.808 233.079 175.706 233.079 175.586V174.794C232.815 175.19 232.431 175.52 231.927 175.784C231.423 176.048 230.775 176.18 229.983 176.18ZM230.343 174.866C231.135 174.866 231.783 174.608 232.287 174.092C232.791 173.576 233.043 172.826 233.043 171.842V171.338L230.937 171.644C230.073 171.764 229.419 171.968 228.975 172.256C228.531 172.544 228.309 172.904 228.309 173.336C228.309 173.828 228.507 174.206 228.903 174.47C229.311 174.734 229.791 174.866 230.343 174.866ZM241.032 176.18C239.748 176.18 238.746 175.82 238.026 175.1C237.306 174.368 236.928 173.348 236.892 172.04L236.874 171.32L236.892 170.6C236.928 169.292 237.306 168.278 238.026 167.558C238.746 166.826 239.748 166.46 241.032 166.46C241.896 166.46 242.622 166.616 243.21 166.928C243.81 167.228 244.254 167.606 244.542 168.062C244.842 168.518 245.004 168.974 245.027 169.43C245.04 169.538 244.998 169.634 244.902 169.718C244.818 169.802 244.722 169.844 244.614 169.844H243.822C243.702 169.844 243.612 169.82 243.552 169.772C243.492 169.712 243.432 169.61 243.372 169.466C243.156 168.878 242.856 168.464 242.472 168.224C242.1 167.972 241.626 167.846 241.05 167.846C240.294 167.846 239.694 168.08 239.25 168.548C238.806 169.016 238.566 169.73 238.53 170.69L238.512 171.32L238.53 171.95C238.566 172.91 238.806 173.624 239.25 174.092C239.694 174.56 240.294 174.794 241.05 174.794C241.638 174.794 242.118 174.674 242.49 174.434C242.862 174.182 243.156 173.762 243.372 173.174C243.432 173.03 243.492 172.934 243.552 172.886C243.612 172.826 243.702 172.796 243.822 172.796H244.614C244.722 172.796 244.818 172.838 244.902 172.922C244.998 173.006 245.04 173.102 245.027 173.21C245.004 173.654 244.842 174.104 244.542 174.56C244.254 175.016 243.81 175.4 243.21 175.712C242.622 176.024 241.896 176.18 241.032 176.18ZM250.892 176.18C249.668 176.18 248.69 175.802 247.958 175.046C247.226 174.278 246.824 173.234 246.752 171.914L246.734 171.302L246.752 170.708C246.824 169.412 247.226 168.38 247.958 167.612C248.69 166.844 249.668 166.46 250.892 166.46C252.212 166.46 253.232 166.88 253.952 167.72C254.684 168.56 255.05 169.7 255.05 171.14V171.464C255.05 171.584 255.008 171.686 254.924 171.77C254.852 171.842 254.756 171.878 254.636 171.878H248.39V172.04C248.426 172.82 248.666 173.486 249.11 174.038C249.554 174.59 250.142 174.866 250.874 174.866C251.438 174.866 251.894 174.758 252.242 174.542C252.602 174.314 252.872 174.08 253.052 173.84C253.16 173.696 253.244 173.612 253.304 173.588C253.364 173.552 253.466 173.534 253.61 173.534H254.402C254.51 173.534 254.6 173.564 254.672 173.624C254.756 173.684 254.798 173.762 254.798 173.858C254.798 174.122 254.636 174.44 254.312 174.812C253.988 175.184 253.526 175.508 252.926 175.784C252.338 176.048 251.66 176.18 250.892 176.18ZM253.412 170.654V170.6C253.412 169.76 253.184 169.076 252.728 168.548C252.272 168.02 251.66 167.756 250.892 167.756C250.112 167.756 249.5 168.02 249.056 168.548C248.612 169.076 248.39 169.76 248.39 170.6V170.654H253.412ZM261.811 176.18C260.515 176.18 259.525 175.724 258.841 174.812V175.586C258.841 175.706 258.799 175.808 258.715 175.892C258.643 175.964 258.547 176 258.427 176H257.671C257.551 176 257.449 175.964 257.365 175.892C257.293 175.808 257.257 175.706 257.257 175.586V163.634C257.257 163.502 257.293 163.4 257.365 163.328C257.449 163.256 257.551 163.22 257.671 163.22H258.481C258.601 163.22 258.697 163.262 258.769 163.346C258.853 163.418 258.895 163.514 258.895 163.634V167.792C259.567 166.904 260.539 166.46 261.811 166.46C263.071 166.46 264.013 166.874 264.637 167.702C265.273 168.518 265.609 169.544 265.645 170.78C265.657 170.912 265.663 171.092 265.663 171.32C265.663 171.548 265.657 171.728 265.645 171.86C265.609 173.096 265.273 174.128 264.637 174.956C264.013 175.772 263.071 176.18 261.811 176.18ZM261.469 174.776C262.333 174.776 262.963 174.506 263.359 173.966C263.755 173.426 263.971 172.718 264.007 171.842C264.019 171.722 264.025 171.548 264.025 171.32C264.025 169.016 263.173 167.864 261.469 167.864C260.653 167.864 260.023 168.134 259.579 168.674C259.147 169.202 258.919 169.832 258.895 170.564C258.883 170.696 258.877 170.93 258.877 171.266C258.877 171.59 258.883 171.818 258.895 171.95C258.919 172.718 259.141 173.384 259.561 173.948C259.993 174.5 260.629 174.776 261.469 174.776ZM271.724 176.18C270.404 176.18 269.384 175.808 268.664 175.064C267.956 174.32 267.578 173.33 267.53 172.094L267.512 171.32L267.53 170.546C267.578 169.31 267.962 168.32 268.682 167.576C269.414 166.832 270.428 166.46 271.724 166.46C273.02 166.46 274.028 166.832 274.748 167.576C275.48 168.32 275.87 169.31 275.918 170.546C275.942 170.81 275.954 171.068 275.954 171.32C275.954 171.572 275.942 171.83 275.918 172.094C275.87 173.33 275.486 174.32 274.766 175.064C274.058 175.808 273.044 176.18 271.724 176.18ZM271.724 174.83C272.492 174.83 273.098 174.59 273.542 174.11C273.998 173.618 274.244 172.916 274.28 172.004C274.292 171.884 274.298 171.656 274.298 171.32C274.298 170.984 274.292 170.756 274.28 170.636C274.244 169.724 273.998 169.028 273.542 168.548C273.098 168.056 272.492 167.81 271.724 167.81C270.956 167.81 270.344 168.056 269.888 168.548C269.444 169.028 269.204 169.724 269.168 170.636L269.15 171.32L269.168 172.004C269.204 172.916 269.444 173.618 269.888 174.11C270.344 174.59 270.956 174.83 271.724 174.83ZM282.025 176.18C280.705 176.18 279.685 175.808 278.965 175.064C278.257 174.32 277.879 173.33 277.831 172.094L277.813 171.32L277.831 170.546C277.879 169.31 278.263 168.32 278.983 167.576C279.715 166.832 280.729 166.46 282.025 166.46C283.321 166.46 284.329 166.832 285.049 167.576C285.781 168.32 286.171 169.31 286.219 170.546C286.243 170.81 286.255 171.068 286.255 171.32C286.255 171.572 286.243 171.83 286.219 172.094C286.171 173.33 285.787 174.32 285.067 175.064C284.359 175.808 283.345 176.18 282.025 176.18ZM282.025 174.83C282.793 174.83 283.399 174.59 283.843 174.11C284.299 173.618 284.545 172.916 284.581 172.004C284.593 171.884 284.599 171.656 284.599 171.32C284.599 170.984 284.593 170.756 284.581 170.636C284.545 169.724 284.299 169.028 283.843 168.548C283.399 168.056 282.793 167.81 282.025 167.81C281.257 167.81 280.645 168.056 280.189 168.548C279.745 169.028 279.505 169.724 279.469 170.636L279.451 171.32L279.469 172.004C279.505 172.916 279.745 173.618 280.189 174.11C280.645 174.59 281.257 174.83 282.025 174.83ZM288.96 176C288.84 176 288.738 175.964 288.654 175.892C288.582 175.808 288.546 175.706 288.546 175.586V163.634C288.546 163.502 288.582 163.4 288.654 163.328C288.738 163.256 288.84 163.22 288.96 163.22H289.734C289.854 163.22 289.95 163.262 290.022 163.346C290.106 163.418 290.148 163.514 290.148 163.634V169.916L293.748 166.946C293.928 166.814 294.054 166.73 294.126 166.694C294.198 166.658 294.312 166.64 294.468 166.64H295.368C295.476 166.64 295.56 166.676 295.62 166.748C295.692 166.808 295.728 166.898 295.728 167.018C295.728 167.126 295.662 167.24 295.53 167.36L291.318 170.816L295.98 175.28C296.112 175.412 296.178 175.526 296.178 175.622C296.178 175.73 296.142 175.82 296.07 175.892C296.01 175.964 295.926 176 295.818 176H294.936C294.756 176 294.624 175.982 294.54 175.946C294.468 175.91 294.36 175.826 294.216 175.694L290.148 171.842V175.586C290.148 175.706 290.106 175.808 290.022 175.892C289.95 175.964 289.854 176 289.734 176H288.96Z" fill="#3E4442"/>
<path d="M106.732 374.812V376H99.2865V374.961L103.013 370.812C103.471 370.302 103.826 369.87 104.076 369.516C104.331 369.156 104.508 368.836 104.607 368.555C104.711 368.268 104.763 367.977 104.763 367.68C104.763 367.305 104.685 366.966 104.529 366.664C104.378 366.357 104.154 366.112 103.857 365.93C103.56 365.747 103.201 365.656 102.779 365.656C102.273 365.656 101.852 365.755 101.513 365.953C101.18 366.146 100.93 366.417 100.763 366.766C100.596 367.115 100.513 367.516 100.513 367.969H99.0677C99.0677 367.328 99.2083 366.742 99.4896 366.211C99.7708 365.68 100.187 365.258 100.74 364.945C101.292 364.628 101.971 364.469 102.779 364.469C103.497 364.469 104.112 364.596 104.622 364.852C105.133 365.102 105.523 365.456 105.794 365.914C106.07 366.367 106.208 366.898 106.208 367.508C106.208 367.841 106.151 368.18 106.036 368.523C105.927 368.862 105.773 369.201 105.576 369.539C105.383 369.878 105.156 370.211 104.896 370.539C104.641 370.867 104.367 371.19 104.076 371.508L101.029 374.812H106.732ZM115.419 369.406V371.141C115.419 372.073 115.336 372.859 115.169 373.5C115.003 374.141 114.763 374.656 114.451 375.047C114.138 375.438 113.76 375.721 113.318 375.898C112.88 376.07 112.385 376.156 111.833 376.156C111.396 376.156 110.992 376.102 110.622 375.992C110.253 375.883 109.919 375.708 109.622 375.469C109.331 375.224 109.081 374.906 108.872 374.516C108.664 374.125 108.505 373.651 108.396 373.094C108.286 372.536 108.232 371.885 108.232 371.141V369.406C108.232 368.474 108.315 367.693 108.482 367.062C108.654 366.432 108.896 365.927 109.208 365.547C109.521 365.161 109.896 364.885 110.333 364.719C110.776 364.552 111.271 364.469 111.818 364.469C112.26 364.469 112.667 364.523 113.036 364.633C113.411 364.737 113.745 364.906 114.036 365.141C114.328 365.37 114.576 365.677 114.779 366.062C114.987 366.443 115.146 366.909 115.255 367.461C115.365 368.013 115.419 368.661 115.419 369.406ZM113.966 371.375V369.164C113.966 368.654 113.935 368.206 113.872 367.82C113.815 367.43 113.729 367.096 113.615 366.82C113.5 366.544 113.354 366.32 113.177 366.148C113.005 365.977 112.805 365.852 112.576 365.773C112.352 365.69 112.099 365.648 111.818 365.648C111.474 365.648 111.169 365.714 110.904 365.844C110.638 365.969 110.414 366.169 110.232 366.445C110.055 366.721 109.919 367.083 109.826 367.531C109.732 367.979 109.685 368.523 109.685 369.164V371.375C109.685 371.885 109.714 372.336 109.771 372.727C109.833 373.117 109.924 373.456 110.044 373.742C110.164 374.023 110.31 374.255 110.482 374.438C110.654 374.62 110.852 374.755 111.076 374.844C111.305 374.927 111.557 374.969 111.833 374.969C112.187 374.969 112.497 374.901 112.763 374.766C113.029 374.63 113.25 374.419 113.427 374.133C113.609 373.841 113.745 373.469 113.833 373.016C113.922 372.557 113.966 372.01 113.966 371.375ZM122.029 364.562V376H120.583V366.367L117.669 367.43V366.125L121.802 364.562H122.029ZM127.716 374.789H127.865C128.698 374.789 129.375 374.672 129.896 374.438C130.417 374.203 130.818 373.888 131.099 373.492C131.38 373.096 131.573 372.651 131.677 372.156C131.781 371.656 131.833 371.143 131.833 370.617V368.875C131.833 368.359 131.773 367.901 131.654 367.5C131.539 367.099 131.378 366.763 131.169 366.492C130.966 366.221 130.734 366.016 130.474 365.875C130.214 365.734 129.937 365.664 129.646 365.664C129.312 365.664 129.013 365.732 128.747 365.867C128.487 365.997 128.266 366.182 128.083 366.422C127.906 366.661 127.771 366.943 127.677 367.266C127.583 367.589 127.536 367.94 127.536 368.32C127.536 368.659 127.578 368.987 127.661 369.305C127.745 369.622 127.872 369.909 128.044 370.164C128.216 370.419 128.43 370.622 128.685 370.773C128.945 370.919 129.25 370.992 129.599 370.992C129.922 370.992 130.224 370.93 130.505 370.805C130.792 370.674 131.044 370.5 131.263 370.281C131.487 370.057 131.664 369.805 131.794 369.523C131.93 369.242 132.008 368.948 132.029 368.641H132.716C132.716 369.073 132.63 369.5 132.458 369.922C132.292 370.339 132.057 370.719 131.755 371.062C131.453 371.406 131.099 371.682 130.693 371.891C130.286 372.094 129.844 372.195 129.365 372.195C128.802 372.195 128.315 372.086 127.904 371.867C127.492 371.648 127.154 371.357 126.888 370.992C126.628 370.628 126.432 370.221 126.302 369.773C126.177 369.32 126.115 368.862 126.115 368.398C126.115 367.857 126.19 367.349 126.341 366.875C126.492 366.401 126.716 365.984 127.013 365.625C127.31 365.26 127.677 364.977 128.115 364.773C128.557 364.57 129.068 364.469 129.646 364.469C130.297 364.469 130.852 364.599 131.31 364.859C131.768 365.12 132.141 365.469 132.427 365.906C132.719 366.344 132.932 366.836 133.068 367.383C133.203 367.93 133.271 368.492 133.271 369.07V369.594C133.271 370.182 133.232 370.781 133.154 371.391C133.081 371.995 132.937 372.573 132.724 373.125C132.516 373.677 132.211 374.172 131.81 374.609C131.409 375.042 130.885 375.385 130.24 375.641C129.599 375.891 128.807 376.016 127.865 376.016H127.716V374.789Z" fill="#767272"/>
<path d="M195.399 374.812V376H187.953V374.961L191.68 370.812C192.138 370.302 192.492 369.87 192.742 369.516C192.997 369.156 193.175 368.836 193.274 368.555C193.378 368.268 193.43 367.977 193.43 367.68C193.43 367.305 193.352 366.966 193.195 366.664C193.044 366.357 192.82 366.112 192.524 365.93C192.227 365.747 191.867 365.656 191.445 365.656C190.94 365.656 190.518 365.755 190.18 365.953C189.846 366.146 189.596 366.417 189.43 366.766C189.263 367.115 189.18 367.516 189.18 367.969H187.734C187.734 367.328 187.875 366.742 188.156 366.211C188.438 365.68 188.854 365.258 189.406 364.945C189.958 364.628 190.638 364.469 191.445 364.469C192.164 364.469 192.779 364.596 193.289 364.852C193.8 365.102 194.19 365.456 194.461 365.914C194.737 366.367 194.875 366.898 194.875 367.508C194.875 367.841 194.818 368.18 194.703 368.523C194.594 368.862 194.44 369.201 194.242 369.539C194.05 369.878 193.823 370.211 193.563 370.539C193.307 370.867 193.034 371.19 192.742 371.508L189.695 374.812H195.399ZM204.086 369.406V371.141C204.086 372.073 204.003 372.859 203.836 373.5C203.669 374.141 203.43 374.656 203.117 375.047C202.805 375.438 202.427 375.721 201.984 375.898C201.547 376.07 201.052 376.156 200.5 376.156C200.063 376.156 199.659 376.102 199.289 375.992C198.919 375.883 198.586 375.708 198.289 375.469C197.997 375.224 197.747 374.906 197.539 374.516C197.331 374.125 197.172 373.651 197.063 373.094C196.953 372.536 196.899 371.885 196.899 371.141V369.406C196.899 368.474 196.982 367.693 197.149 367.062C197.32 366.432 197.563 365.927 197.875 365.547C198.188 365.161 198.563 364.885 199 364.719C199.443 364.552 199.938 364.469 200.484 364.469C200.927 364.469 201.333 364.523 201.703 364.633C202.078 364.737 202.412 364.906 202.703 365.141C202.995 365.37 203.242 365.677 203.445 366.062C203.654 366.443 203.813 366.909 203.922 367.461C204.031 368.013 204.086 368.661 204.086 369.406ZM202.633 371.375V369.164C202.633 368.654 202.602 368.206 202.539 367.82C202.482 367.43 202.396 367.096 202.281 366.82C202.167 366.544 202.021 366.32 201.844 366.148C201.672 365.977 201.471 365.852 201.242 365.773C201.018 365.69 200.766 365.648 200.484 365.648C200.141 365.648 199.836 365.714 199.57 365.844C199.305 365.969 199.081 366.169 198.899 366.445C198.721 366.721 198.586 367.083 198.492 367.531C198.399 367.979 198.352 368.523 198.352 369.164V371.375C198.352 371.885 198.38 372.336 198.438 372.727C198.5 373.117 198.591 373.456 198.711 373.742C198.831 374.023 198.977 374.255 199.149 374.438C199.32 374.62 199.518 374.755 199.742 374.844C199.971 374.927 200.224 374.969 200.5 374.969C200.854 374.969 201.164 374.901 201.43 374.766C201.695 374.63 201.917 374.419 202.094 374.133C202.276 373.841 202.412 373.469 202.5 373.016C202.589 372.557 202.633 372.01 202.633 371.375ZM213.399 374.812V376H205.953V374.961L209.68 370.812C210.138 370.302 210.492 369.87 210.742 369.516C210.997 369.156 211.175 368.836 211.274 368.555C211.378 368.268 211.43 367.977 211.43 367.68C211.43 367.305 211.352 366.966 211.195 366.664C211.044 366.357 210.82 366.112 210.524 365.93C210.227 365.747 209.867 365.656 209.445 365.656C208.94 365.656 208.518 365.755 208.18 365.953C207.846 366.146 207.596 366.417 207.43 366.766C207.263 367.115 207.18 367.516 207.18 367.969H205.734C205.734 367.328 205.875 366.742 206.156 366.211C206.438 365.68 206.854 365.258 207.406 364.945C207.958 364.628 208.638 364.469 209.445 364.469C210.164 364.469 210.779 364.596 211.289 364.852C211.8 365.102 212.19 365.456 212.461 365.914C212.737 366.367 212.875 366.898 212.875 367.508C212.875 367.841 212.818 368.18 212.703 368.523C212.594 368.862 212.44 369.201 212.242 369.539C212.05 369.878 211.823 370.211 211.563 370.539C211.307 370.867 211.034 371.19 210.742 371.508L207.695 374.812H213.399ZM222.086 369.406V371.141C222.086 372.073 222.003 372.859 221.836 373.5C221.669 374.141 221.43 374.656 221.117 375.047C220.805 375.438 220.427 375.721 219.984 375.898C219.547 376.07 219.052 376.156 218.5 376.156C218.063 376.156 217.659 376.102 217.289 375.992C216.919 375.883 216.586 375.708 216.289 375.469C215.997 375.224 215.747 374.906 215.539 374.516C215.331 374.125 215.172 373.651 215.063 373.094C214.953 372.536 214.899 371.885 214.899 371.141V369.406C214.899 368.474 214.982 367.693 215.149 367.062C215.32 366.432 215.563 365.927 215.875 365.547C216.188 365.161 216.563 364.885 217 364.719C217.443 364.552 217.938 364.469 218.484 364.469C218.927 364.469 219.333 364.523 219.703 364.633C220.078 364.737 220.412 364.906 220.703 365.141C220.995 365.37 221.242 365.677 221.445 366.062C221.654 366.443 221.813 366.909 221.922 367.461C222.031 368.013 222.086 368.661 222.086 369.406ZM220.633 371.375V369.164C220.633 368.654 220.602 368.206 220.539 367.82C220.482 367.43 220.396 367.096 220.281 366.82C220.167 366.544 220.021 366.32 219.844 366.148C219.672 365.977 219.471 365.852 219.242 365.773C219.018 365.69 218.766 365.648 218.484 365.648C218.141 365.648 217.836 365.714 217.57 365.844C217.305 365.969 217.081 366.169 216.899 366.445C216.721 366.721 216.586 367.083 216.492 367.531C216.399 367.979 216.352 368.523 216.352 369.164V371.375C216.352 371.885 216.38 372.336 216.438 372.727C216.5 373.117 216.591 373.456 216.711 373.742C216.831 374.023 216.977 374.255 217.149 374.438C217.32 374.62 217.518 374.755 217.742 374.844C217.971 374.927 218.224 374.969 218.5 374.969C218.854 374.969 219.164 374.901 219.43 374.766C219.695 374.63 219.917 374.419 220.094 374.133C220.276 373.841 220.412 373.469 220.5 373.016C220.589 372.557 220.633 372.01 220.633 371.375Z" fill="#767272"/>
<path d="M284.065 374.812V376H276.62V374.961L280.346 370.812C280.805 370.302 281.159 369.87 281.409 369.516C281.664 369.156 281.841 368.836 281.94 368.555C282.044 368.268 282.096 367.977 282.096 367.68C282.096 367.305 282.018 366.966 281.862 366.664C281.711 366.357 281.487 366.112 281.19 365.93C280.893 365.747 280.534 365.656 280.112 365.656C279.607 365.656 279.185 365.755 278.846 365.953C278.513 366.146 278.263 366.417 278.096 366.766C277.93 367.115 277.846 367.516 277.846 367.969H276.401C276.401 367.328 276.542 366.742 276.823 366.211C277.104 365.68 277.521 365.258 278.073 364.945C278.625 364.628 279.305 364.469 280.112 364.469C280.831 364.469 281.445 364.596 281.956 364.852C282.466 365.102 282.857 365.456 283.128 365.914C283.404 366.367 283.542 366.898 283.542 367.508C283.542 367.841 283.484 368.18 283.37 368.523C283.26 368.862 283.107 369.201 282.909 369.539C282.716 369.878 282.49 370.211 282.229 370.539C281.974 370.867 281.7 371.19 281.409 371.508L278.362 374.812H284.065ZM292.753 369.406V371.141C292.753 372.073 292.669 372.859 292.503 373.5C292.336 374.141 292.096 374.656 291.784 375.047C291.471 375.438 291.094 375.721 290.651 375.898C290.213 376.07 289.719 376.156 289.167 376.156C288.729 376.156 288.325 376.102 287.956 375.992C287.586 375.883 287.253 375.708 286.956 375.469C286.664 375.224 286.414 374.906 286.206 374.516C285.997 374.125 285.838 373.651 285.729 373.094C285.62 372.536 285.565 371.885 285.565 371.141V369.406C285.565 368.474 285.648 367.693 285.815 367.062C285.987 366.432 286.229 365.927 286.542 365.547C286.854 365.161 287.229 364.885 287.667 364.719C288.109 364.552 288.604 364.469 289.151 364.469C289.594 364.469 290 364.523 290.37 364.633C290.745 364.737 291.078 364.906 291.37 365.141C291.661 365.37 291.909 365.677 292.112 366.062C292.32 366.443 292.479 366.909 292.588 367.461C292.698 368.013 292.753 368.661 292.753 369.406ZM291.299 371.375V369.164C291.299 368.654 291.268 368.206 291.206 367.82C291.148 367.43 291.062 367.096 290.948 366.82C290.833 366.544 290.687 366.32 290.51 366.148C290.338 365.977 290.138 365.852 289.909 365.773C289.685 365.69 289.432 365.648 289.151 365.648C288.807 365.648 288.503 365.714 288.237 365.844C287.971 365.969 287.747 366.169 287.565 366.445C287.388 366.721 287.253 367.083 287.159 367.531C287.065 367.979 287.018 368.523 287.018 369.164V371.375C287.018 371.885 287.047 372.336 287.104 372.727C287.167 373.117 287.258 373.456 287.378 373.742C287.497 374.023 287.643 374.255 287.815 374.438C287.987 374.62 288.185 374.755 288.409 374.844C288.638 374.927 288.891 374.969 289.167 374.969C289.521 374.969 289.831 374.901 290.096 374.766C290.362 374.63 290.583 374.419 290.76 374.133C290.943 373.841 291.078 373.469 291.167 373.016C291.255 372.557 291.299 372.01 291.299 371.375ZM302.065 374.812V376H294.62V374.961L298.346 370.812C298.805 370.302 299.159 369.87 299.409 369.516C299.664 369.156 299.841 368.836 299.94 368.555C300.044 368.268 300.096 367.977 300.096 367.68C300.096 367.305 300.018 366.966 299.862 366.664C299.711 366.357 299.487 366.112 299.19 365.93C298.893 365.747 298.534 365.656 298.112 365.656C297.607 365.656 297.185 365.755 296.846 365.953C296.513 366.146 296.263 366.417 296.096 366.766C295.93 367.115 295.846 367.516 295.846 367.969H294.401C294.401 367.328 294.542 366.742 294.823 366.211C295.104 365.68 295.521 365.258 296.073 364.945C296.625 364.628 297.305 364.469 298.112 364.469C298.831 364.469 299.445 364.596 299.956 364.852C300.466 365.102 300.857 365.456 301.128 365.914C301.404 366.367 301.542 366.898 301.542 367.508C301.542 367.841 301.484 368.18 301.37 368.523C301.26 368.862 301.107 369.201 300.909 369.539C300.716 369.878 300.49 370.211 300.229 370.539C299.974 370.867 299.7 371.19 299.409 371.508L296.362 374.812H302.065ZM308.362 364.562V376H306.917V366.367L304.003 367.43V366.125L308.135 364.562H308.362Z" fill="#767272"/>
<rect x="72" y="222" width="265.989" height="1" fill="#C3CDCA"/>
<rect x="72" y="255" width="265.989" height="1" fill="#C3CDCA"/>
<rect x="72" y="288" width="265.989" height="1" fill="#C3CDCA"/>
<rect x="72" y="321" width="265.989" height="1" fill="#C3CDCA"/>
<rect x="72" y="354" width="265.989" height="1" fill="#C3CDCA"/>
<path d="M79.7949 312.897C79.7949 310.745 81.5399 309 83.6924 309C85.8449 309 87.5898 310.745 87.5898 312.897V355H79.7949V312.897Z" fill="#D83A6A"/>
<path d="M107.077 319.897C107.077 317.745 108.822 316 110.974 316C113.127 316 114.872 317.745 114.872 319.897V355H107.077V319.897Z" fill="#D83A6A"/>
<path d="M134.359 299.897C134.359 297.745 136.104 296 138.256 296C140.409 296 142.154 297.745 142.154 299.897V355H134.359V299.897Z" fill="#D83A6A"/>
<path d="M161.641 278.897C161.641 276.745 163.386 275 165.538 275C167.691 275 169.436 276.745 169.436 278.897V355H161.641V278.897Z" fill="#D83A6A"/>
<path d="M188.923 264.897C188.923 262.745 190.668 261 192.82 261C194.973 261 196.718 262.745 196.718 264.897V355H188.923V264.897Z" fill="#D83A6A"/>
<path d="M216.205 286.897C216.205 284.745 217.95 283 220.103 283C222.255 283 224 284.745 224 286.897V355H216.205V286.897Z" fill="#D83A6A"/>
<path d="M243.487 301.897C243.487 299.745 245.232 298 247.385 298C249.537 298 251.282 299.745 251.282 301.897V355H243.487V301.897Z" fill="#D83A6A"/>
<path d="M270.769 249.897C270.769 247.745 272.514 246 274.667 246C276.819 246 278.564 247.745 278.564 249.897V355H270.769V249.897Z" fill="#D83A6A"/>
<path d="M298.051 232.897C298.051 230.745 299.796 229 301.949 229C304.101 229 305.846 230.745 305.846 232.897V355H298.051V232.897Z" fill="#D83A6A"/>
<path d="M325.333 254.897C325.333 252.745 327.078 251 329.231 251C331.383 251 333.128 252.745 333.128 254.897V355H325.333V254.897Z" fill="#D83A6A"/>
</g>
<defs>
<filter id="filter0_d_1_1208" x="0" y="0" width="410" height="471" filterUnits="userSpaceOnUse" color-interpolation-filters="sRGB">
<feFlood flood-opacity="0" result="BackgroundImageFix"/>
<feColorMatrix in="SourceAlpha" type="matrix" values="0 0 0 0 0 0 0 0 0 0 0 0 0 0 0 0 0 0 127 0" result="hardAlpha"/>
<feOffset dy="20"/>
<feGaussianBlur stdDeviation="20"/>
<feComposite in2="hardAlpha" operator="out"/>
<feColorMatrix type="matrix" values="0 0 0 0 0.796078 0 0 0 0 0.435294 0 0 0 0 0.254902 0 0 0 0.2 0"/>
<feBlend mode="normal" in2="BackgroundImageFix" result="effect1_dropShadow_1_1208"/>
<feBlend mode="normal" in="SourceGraphic" in2="effect1_dropShadow_1_1208" result="shape"/>
</filter>
</defs>
</svg>
