<svg width="330" height="396" viewBox="0 0 330 396" fill="none" xmlns="http://www.w3.org/2000/svg">
<rect width="330" height="396" rx="8" fill="white"/>
<rect x="130" y="48" width="70" height="70" rx="35" fill="#475996"/>
<path d="M170.214 84.375L170.836 80.3935H166.945V77.8098C166.945 76.7205 167.489 75.6588 169.231 75.6588H171V72.269C171 72.269 169.395 72 167.86 72C164.656 72 162.562 73.907 162.562 77.3591V80.3935H159V84.375H162.562V94H166.945V84.375H170.214Z" fill="white"/>
<path d="M75.2222 156C75.0902 156 74.9882 155.964 74.9162 155.892C74.8442 155.808 74.8082 155.706 74.8082 155.586V143.832C74.8082 143.7 74.8442 143.598 74.9162 143.526C74.9882 143.442 75.0902 143.4 75.2222 143.4H79.7942C80.6822 143.4 81.4502 143.544 82.0982 143.832C82.7582 144.12 83.2682 144.552 83.6282 145.128C83.9882 145.692 84.1682 146.4 84.1682 147.252C84.1682 148.104 83.9882 148.812 83.6282 149.376C83.2682 149.94 82.7582 150.366 82.0982 150.654C81.4502 150.942 80.6822 151.086 79.7942 151.086H76.6082V155.586C76.6082 155.706 76.5662 155.808 76.4822 155.892C76.4102 155.964 76.3082 156 76.1762 156H75.2222ZM76.5902 149.574H79.7042C80.5922 149.574 81.2582 149.376 81.7022 148.98C82.1462 148.584 82.3682 148.008 82.3682 147.252C82.3682 146.508 82.1522 145.932 81.7202 145.524C81.2882 145.116 80.6162 144.912 79.7042 144.912H76.5902V149.574ZM86.537 156C86.417 156 86.315 155.964 86.231 155.892C86.159 155.808 86.123 155.706 86.123 155.586V147.072C86.123 146.952 86.159 146.85 86.231 146.766C86.315 146.682 86.417 146.64 86.537 146.64H87.365C87.485 146.64 87.587 146.682 87.671 146.766C87.755 146.85 87.797 146.952 87.797 147.072V147.864C88.037 147.456 88.367 147.15 88.787 146.946C89.207 146.742 89.711 146.64 90.299 146.64H91.019C91.139 146.64 91.235 146.682 91.307 146.766C91.379 146.838 91.415 146.934 91.415 147.054V147.792C91.415 147.912 91.379 148.008 91.307 148.08C91.235 148.152 91.139 148.188 91.019 148.188H89.939C89.291 148.188 88.781 148.38 88.409 148.764C88.037 149.136 87.851 149.646 87.851 150.294V155.586C87.851 155.706 87.809 155.808 87.725 155.892C87.641 155.964 87.539 156 87.419 156H86.537ZM96.6191 156.18C95.7071 156.18 94.9451 156.006 94.3331 155.658C93.7211 155.31 93.2531 154.83 92.9291 154.218C92.6051 153.594 92.4251 152.886 92.3891 152.094C92.3771 151.89 92.3711 151.632 92.3711 151.32C92.3711 150.996 92.3771 150.738 92.3891 150.546C92.4251 149.742 92.6051 149.034 92.9291 148.422C93.2651 147.81 93.7391 147.33 94.3511 146.982C94.9631 146.634 95.7191 146.46 96.6191 146.46C97.5191 146.46 98.2751 146.634 98.8871 146.982C99.4991 147.33 99.9671 147.81 100.291 148.422C100.627 149.034 100.813 149.742 100.849 150.546C100.861 150.738 100.867 150.996 100.867 151.32C100.867 151.632 100.861 151.89 100.849 152.094C100.813 152.886 100.633 153.594 100.309 154.218C99.9851 154.83 99.5171 155.31 98.9051 155.658C98.2931 156.006 97.5311 156.18 96.6191 156.18ZM96.6191 154.794C97.3631 154.794 97.9571 154.56 98.4011 154.092C98.8451 153.612 99.0851 152.916 99.1211 152.004C99.1331 151.824 99.1391 151.596 99.1391 151.32C99.1391 151.044 99.1331 150.816 99.1211 150.636C99.0851 149.724 98.8451 149.034 98.4011 148.566C97.9571 148.086 97.3631 147.846 96.6191 147.846C95.8751 147.846 95.2751 148.086 94.8191 148.566C94.3751 149.034 94.1411 149.724 94.1171 150.636C94.1051 150.816 94.0991 151.044 94.0991 151.32C94.0991 151.596 94.1051 151.824 94.1171 152.004C94.1411 152.916 94.3751 153.612 94.8191 154.092C95.2751 154.56 95.8751 154.794 96.6191 154.794ZM104.366 156C104.246 156 104.144 155.964 104.06 155.892C103.988 155.808 103.952 155.706 103.952 155.586V148.08H102.422C102.302 148.08 102.2 148.044 102.116 147.972C102.044 147.888 102.008 147.786 102.008 147.666V147.054C102.008 146.934 102.044 146.838 102.116 146.766C102.2 146.682 102.302 146.64 102.422 146.64H103.952V145.74C103.952 145.128 104.054 144.594 104.258 144.138C104.462 143.67 104.786 143.31 105.23 143.058C105.686 142.806 106.292 142.68 107.048 142.68H109.82C109.94 142.68 110.036 142.722 110.108 142.806C110.192 142.878 110.234 142.974 110.234 143.094V143.706C110.234 143.826 110.192 143.928 110.108 144.012C110.036 144.084 109.94 144.12 109.82 144.12H107.084C106.52 144.12 106.136 144.27 105.932 144.57C105.728 144.858 105.626 145.278 105.626 145.83V146.64H109.82C109.94 146.64 110.036 146.682 110.108 146.766C110.192 146.838 110.234 146.934 110.234 147.054V155.586C110.234 155.706 110.192 155.808 110.108 155.892C110.036 155.964 109.94 156 109.82 156H108.992C108.86 156 108.758 155.964 108.686 155.892C108.614 155.808 108.578 155.706 108.578 155.586V148.08H105.626V155.586C105.626 155.706 105.584 155.808 105.5 155.892C105.428 155.964 105.332 156 105.212 156H104.366ZM116.549 156C115.877 156 115.331 155.874 114.911 155.622C114.491 155.358 114.185 154.992 113.993 154.524C113.801 154.044 113.705 153.48 113.705 152.832V148.08H112.301C112.181 148.08 112.079 148.044 111.995 147.972C111.923 147.888 111.887 147.786 111.887 147.666V147.054C111.887 146.934 111.923 146.838 111.995 146.766C112.079 146.682 112.181 146.64 112.301 146.64H113.705V143.634C113.705 143.514 113.741 143.418 113.812 143.346C113.896 143.262 113.999 143.22 114.119 143.22H114.965C115.085 143.22 115.181 143.262 115.253 143.346C115.337 143.418 115.379 143.514 115.379 143.634V146.64H117.611C117.731 146.64 117.827 146.682 117.899 146.766C117.983 146.838 118.025 146.934 118.025 147.054V147.666C118.025 147.786 117.983 147.888 117.899 147.972C117.827 148.044 117.731 148.08 117.611 148.08H115.379V152.706C115.379 153.27 115.475 153.714 115.667 154.038C115.859 154.362 116.201 154.524 116.693 154.524H117.791C117.911 154.524 118.007 154.566 118.079 154.65C118.163 154.722 118.205 154.818 118.205 154.938V155.586C118.205 155.706 118.163 155.808 118.079 155.892C118.007 155.964 117.911 156 117.791 156H116.549ZM123.166 156.18C122.494 156.18 121.918 156.096 121.438 155.928C120.958 155.76 120.568 155.556 120.268 155.316C119.968 155.076 119.74 154.836 119.584 154.596C119.44 154.356 119.362 154.164 119.35 154.02C119.338 153.888 119.38 153.786 119.476 153.714C119.572 153.642 119.668 153.606 119.764 153.606H120.556C120.628 153.606 120.682 153.618 120.718 153.642C120.766 153.654 120.826 153.702 120.898 153.786C121.054 153.954 121.228 154.122 121.42 154.29C121.612 154.458 121.846 154.596 122.122 154.704C122.41 154.812 122.764 154.866 123.184 154.866C123.796 154.866 124.3 154.752 124.696 154.524C125.092 154.284 125.29 153.936 125.29 153.48C125.29 153.18 125.206 152.94 125.038 152.76C124.882 152.58 124.594 152.418 124.174 152.274C123.766 152.13 123.202 151.98 122.482 151.824C121.762 151.656 121.192 151.452 120.772 151.212C120.352 150.96 120.052 150.666 119.872 150.33C119.692 149.982 119.602 149.592 119.602 149.16C119.602 148.716 119.734 148.29 119.998 147.882C120.262 147.462 120.646 147.12 121.15 146.856C121.666 146.592 122.308 146.46 123.076 146.46C123.7 146.46 124.234 146.538 124.678 146.694C125.122 146.85 125.488 147.048 125.776 147.288C126.064 147.516 126.28 147.744 126.424 147.972C126.568 148.2 126.646 148.392 126.658 148.548C126.67 148.668 126.634 148.77 126.55 148.854C126.466 148.926 126.37 148.962 126.262 148.962H125.506C125.422 148.962 125.35 148.944 125.29 148.908C125.242 148.872 125.194 148.83 125.146 148.782C125.026 148.626 124.882 148.47 124.714 148.314C124.558 148.158 124.348 148.032 124.084 147.936C123.832 147.828 123.496 147.774 123.076 147.774C122.476 147.774 122.026 147.9 121.726 148.152C121.426 148.404 121.276 148.722 121.276 149.106C121.276 149.334 121.342 149.538 121.474 149.718C121.606 149.898 121.858 150.06 122.23 150.204C122.602 150.348 123.154 150.504 123.886 150.672C124.678 150.828 125.302 151.038 125.758 151.302C126.214 151.566 126.538 151.872 126.73 152.22C126.922 152.568 127.018 152.97 127.018 153.426C127.018 153.93 126.868 154.392 126.568 154.812C126.28 155.232 125.848 155.568 125.272 155.82C124.708 156.06 124.006 156.18 123.166 156.18ZM134.53 156C134.41 156 134.308 155.964 134.224 155.892C134.152 155.808 134.116 155.706 134.116 155.586V148.08H132.586C132.466 148.08 132.364 148.044 132.28 147.972C132.208 147.888 132.172 147.786 132.172 147.666V147.054C132.172 146.934 132.208 146.838 132.28 146.766C132.364 146.682 132.466 146.64 132.586 146.64H134.116V145.74C134.116 145.128 134.218 144.594 134.422 144.138C134.626 143.67 134.95 143.31 135.394 143.058C135.85 142.806 136.456 142.68 137.212 142.68H138.292C138.412 142.68 138.508 142.722 138.58 142.806C138.652 142.878 138.688 142.974 138.688 143.094V143.706C138.688 143.826 138.652 143.928 138.58 144.012C138.508 144.084 138.412 144.12 138.292 144.12H137.248C136.684 144.12 136.3 144.27 136.096 144.57C135.892 144.858 135.79 145.278 135.79 145.83V146.64H138.112C138.232 146.64 138.328 146.682 138.4 146.766C138.472 146.838 138.508 146.934 138.508 147.054V147.666C138.508 147.786 138.472 147.888 138.4 147.972C138.328 148.044 138.232 148.08 138.112 148.08H135.79V155.586C135.79 155.706 135.748 155.808 135.664 155.892C135.592 155.964 135.496 156 135.376 156H134.53ZM140.519 156C140.399 156 140.297 155.964 140.213 155.892C140.141 155.808 140.105 155.706 140.105 155.586V147.072C140.105 146.952 140.141 146.85 140.213 146.766C140.297 146.682 140.399 146.64 140.519 146.64H141.347C141.467 146.64 141.569 146.682 141.653 146.766C141.737 146.85 141.779 146.952 141.779 147.072V147.864C142.019 147.456 142.349 147.15 142.769 146.946C143.189 146.742 143.693 146.64 144.281 146.64H145.001C145.121 146.64 145.217 146.682 145.289 146.766C145.361 146.838 145.397 146.934 145.397 147.054V147.792C145.397 147.912 145.361 148.008 145.289 148.08C145.217 148.152 145.121 148.188 145.001 148.188H143.921C143.273 148.188 142.763 148.38 142.391 148.764C142.019 149.136 141.833 149.646 141.833 150.294V155.586C141.833 155.706 141.791 155.808 141.707 155.892C141.623 155.964 141.521 156 141.401 156H140.519ZM150.602 156.18C149.69 156.18 148.928 156.006 148.316 155.658C147.704 155.31 147.236 154.83 146.912 154.218C146.588 153.594 146.408 152.886 146.372 152.094C146.36 151.89 146.354 151.632 146.354 151.32C146.354 150.996 146.36 150.738 146.372 150.546C146.408 149.742 146.588 149.034 146.912 148.422C147.248 147.81 147.722 147.33 148.334 146.982C148.946 146.634 149.702 146.46 150.602 146.46C151.502 146.46 152.258 146.634 152.87 146.982C153.482 147.33 153.95 147.81 154.274 148.422C154.61 149.034 154.796 149.742 154.832 150.546C154.844 150.738 154.85 150.996 154.85 151.32C154.85 151.632 154.844 151.89 154.832 152.094C154.796 152.886 154.616 153.594 154.292 154.218C153.968 154.83 153.5 155.31 152.888 155.658C152.276 156.006 151.514 156.18 150.602 156.18ZM150.602 154.794C151.346 154.794 151.94 154.56 152.384 154.092C152.828 153.612 153.068 152.916 153.104 152.004C153.116 151.824 153.122 151.596 153.122 151.32C153.122 151.044 153.116 150.816 153.104 150.636C153.068 149.724 152.828 149.034 152.384 148.566C151.94 148.086 151.346 147.846 150.602 147.846C149.858 147.846 149.258 148.086 148.802 148.566C148.358 149.034 148.124 149.724 148.1 150.636C148.088 150.816 148.082 151.044 148.082 151.32C148.082 151.596 148.088 151.824 148.1 152.004C148.124 152.916 148.358 153.612 148.802 154.092C149.258 154.56 149.858 154.794 150.602 154.794ZM157.517 156C157.397 156 157.295 155.964 157.211 155.892C157.139 155.808 157.103 155.706 157.103 155.586V147.054C157.103 146.934 157.139 146.838 157.211 146.766C157.295 146.682 157.397 146.64 157.517 146.64H158.327C158.447 146.64 158.543 146.682 158.615 146.766C158.699 146.838 158.741 146.934 158.741 147.054V147.684C159.017 147.312 159.365 147.018 159.785 146.802C160.205 146.574 160.709 146.46 161.297 146.46C162.653 146.448 163.613 147 164.177 148.116C164.453 147.612 164.855 147.21 165.383 146.91C165.911 146.61 166.511 146.46 167.183 146.46C167.807 146.46 168.371 146.604 168.875 146.892C169.391 147.18 169.793 147.618 170.081 148.206C170.381 148.782 170.531 149.508 170.531 150.384V155.586C170.531 155.706 170.489 155.808 170.405 155.892C170.333 155.964 170.237 156 170.117 156H169.271C169.151 156 169.049 155.964 168.965 155.892C168.893 155.808 168.857 155.706 168.857 155.586V150.546C168.857 149.874 168.761 149.346 168.569 148.962C168.377 148.578 168.119 148.308 167.795 148.152C167.471 147.996 167.117 147.918 166.733 147.918C166.421 147.918 166.103 147.996 165.779 148.152C165.455 148.308 165.185 148.578 164.969 148.962C164.765 149.346 164.663 149.874 164.663 150.546V155.586C164.663 155.706 164.621 155.808 164.537 155.892C164.465 155.964 164.369 156 164.249 156H163.403C163.283 156 163.181 155.964 163.097 155.892C163.025 155.808 162.989 155.706 162.989 155.586V150.546C162.989 149.874 162.887 149.346 162.683 148.962C162.479 148.578 162.215 148.308 161.891 148.152C161.567 147.996 161.225 147.918 160.865 147.918C160.553 147.918 160.235 147.996 159.911 148.152C159.587 148.308 159.317 148.578 159.101 148.962C158.897 149.346 158.795 149.868 158.795 150.528V155.586C158.795 155.706 158.753 155.808 158.669 155.892C158.597 155.964 158.501 156 158.381 156H157.517ZM178.16 156C178.028 156 177.926 155.964 177.854 155.892C177.782 155.808 177.746 155.706 177.746 155.586V143.832C177.746 143.7 177.782 143.598 177.854 143.526C177.926 143.442 178.028 143.4 178.16 143.4H185.504C185.636 143.4 185.738 143.442 185.81 143.526C185.882 143.598 185.918 143.7 185.918 143.832V144.552C185.918 144.684 185.882 144.786 185.81 144.858C185.738 144.93 185.636 144.966 185.504 144.966H179.492V149.16H185.144C185.276 149.16 185.378 149.202 185.45 149.286C185.522 149.358 185.558 149.46 185.558 149.592V150.312C185.558 150.432 185.522 150.534 185.45 150.618C185.378 150.69 185.276 150.726 185.144 150.726H179.492V155.586C179.492 155.706 179.45 155.808 179.366 155.892C179.294 155.964 179.192 156 179.06 156H178.16ZM190.106 156.18C189.506 156.18 188.96 156.06 188.468 155.82C187.976 155.58 187.58 155.256 187.28 154.848C186.98 154.44 186.83 153.978 186.83 153.462C186.83 152.634 187.166 151.974 187.838 151.482C188.51 150.99 189.386 150.666 190.466 150.51L193.148 150.132V149.61C193.148 149.034 192.98 148.584 192.644 148.26C192.32 147.936 191.786 147.774 191.042 147.774C190.502 147.774 190.064 147.882 189.728 148.098C189.404 148.314 189.176 148.59 189.044 148.926C188.972 149.106 188.846 149.196 188.666 149.196H187.856C187.724 149.196 187.622 149.16 187.55 149.088C187.49 149.004 187.46 148.908 187.46 148.8C187.46 148.62 187.526 148.398 187.658 148.134C187.802 147.87 188.018 147.612 188.306 147.36C188.594 147.108 188.96 146.898 189.404 146.73C189.86 146.55 190.412 146.46 191.06 146.46C191.78 146.46 192.386 146.556 192.878 146.748C193.37 146.928 193.754 147.174 194.03 147.486C194.318 147.798 194.522 148.152 194.642 148.548C194.774 148.944 194.84 149.346 194.84 149.754V155.586C194.84 155.706 194.798 155.808 194.714 155.892C194.642 155.964 194.546 156 194.426 156H193.598C193.466 156 193.364 155.964 193.292 155.892C193.22 155.808 193.184 155.706 193.184 155.586V154.812C193.028 155.028 192.818 155.244 192.554 155.46C192.29 155.664 191.96 155.838 191.564 155.982C191.168 156.114 190.682 156.18 190.106 156.18ZM190.484 154.83C190.976 154.83 191.426 154.728 191.834 154.524C192.242 154.308 192.56 153.978 192.788 153.534C193.028 153.09 193.148 152.532 193.148 151.86V151.356L191.06 151.662C190.208 151.782 189.566 151.986 189.134 152.274C188.702 152.55 188.486 152.904 188.486 153.336C188.486 153.672 188.582 153.954 188.774 154.182C188.978 154.398 189.23 154.56 189.53 154.668C189.842 154.776 190.16 154.83 190.484 154.83ZM201.208 156.18C200.356 156.18 199.618 156.018 198.994 155.694C198.382 155.358 197.908 154.884 197.572 154.272C197.236 153.648 197.056 152.904 197.032 152.04C197.02 151.86 197.014 151.62 197.014 151.32C197.014 151.02 197.02 150.78 197.032 150.6C197.056 149.736 197.236 148.998 197.572 148.386C197.908 147.762 198.382 147.288 198.994 146.964C199.618 146.628 200.356 146.46 201.208 146.46C201.904 146.46 202.498 146.556 202.99 146.748C203.494 146.94 203.908 147.186 204.232 147.486C204.556 147.786 204.796 148.11 204.952 148.458C205.12 148.806 205.21 149.136 205.222 149.448C205.234 149.568 205.198 149.664 205.114 149.736C205.03 149.808 204.928 149.844 204.808 149.844H203.944C203.824 149.844 203.734 149.82 203.674 149.772C203.614 149.712 203.554 149.616 203.494 149.484C203.278 148.896 202.984 148.482 202.612 148.242C202.24 148.002 201.778 147.882 201.226 147.882C200.506 147.882 199.918 148.104 199.462 148.548C199.018 148.992 198.778 149.706 198.742 150.69C198.73 151.122 198.73 151.542 198.742 151.95C198.778 152.946 199.018 153.666 199.462 154.11C199.918 154.542 200.506 154.758 201.226 154.758C201.778 154.758 202.24 154.638 202.612 154.398C202.984 154.158 203.278 153.744 203.494 153.156C203.554 153.024 203.614 152.934 203.674 152.886C203.734 152.826 203.824 152.796 203.944 152.796H204.808C204.928 152.796 205.03 152.832 205.114 152.904C205.198 152.976 205.234 153.072 205.222 153.192C205.21 153.444 205.156 153.702 205.06 153.966C204.964 154.23 204.808 154.5 204.592 154.776C204.388 155.04 204.13 155.28 203.818 155.496C203.506 155.7 203.128 155.868 202.684 156C202.252 156.12 201.76 156.18 201.208 156.18ZM211.085 156.18C209.849 156.18 208.865 155.802 208.133 155.046C207.401 154.278 206.999 153.234 206.927 151.914C206.915 151.758 206.909 151.56 206.909 151.32C206.909 151.068 206.915 150.864 206.927 150.708C206.975 149.856 207.173 149.112 207.521 148.476C207.869 147.828 208.343 147.33 208.943 146.982C209.555 146.634 210.269 146.46 211.085 146.46C211.997 146.46 212.759 146.652 213.371 147.036C213.995 147.42 214.469 147.966 214.793 148.674C215.117 149.382 215.279 150.21 215.279 151.158V151.464C215.279 151.596 215.237 151.698 215.153 151.77C215.081 151.842 214.985 151.878 214.865 151.878H208.637C208.637 151.89 208.637 151.914 208.637 151.95C208.637 151.986 208.637 152.016 208.637 152.04C208.661 152.532 208.769 152.994 208.961 153.426C209.153 153.846 209.429 154.188 209.789 154.452C210.149 154.716 210.581 154.848 211.085 154.848C211.517 154.848 211.877 154.782 212.165 154.65C212.453 154.518 212.687 154.374 212.867 154.218C213.047 154.05 213.167 153.924 213.227 153.84C213.335 153.684 213.419 153.594 213.479 153.57C213.539 153.534 213.635 153.516 213.767 153.516H214.631C214.751 153.516 214.847 153.552 214.919 153.624C215.003 153.684 215.039 153.774 215.027 153.894C215.015 154.074 214.919 154.296 214.739 154.56C214.559 154.812 214.301 155.064 213.965 155.316C213.629 155.568 213.221 155.778 212.741 155.946C212.261 156.102 211.709 156.18 211.085 156.18ZM208.637 150.636H213.569V150.582C213.569 150.042 213.467 149.562 213.263 149.142C213.071 148.722 212.789 148.392 212.417 148.152C212.045 147.9 211.601 147.774 211.085 147.774C210.569 147.774 210.125 147.9 209.753 148.152C209.393 148.392 209.117 148.722 208.925 149.142C208.733 149.562 208.637 150.042 208.637 150.582V150.636ZM222.058 156.18C221.338 156.18 220.738 156.054 220.258 155.802C219.778 155.538 219.394 155.214 219.106 154.83V155.586C219.106 155.706 219.064 155.808 218.98 155.892C218.908 155.964 218.812 156 218.692 156H217.864C217.744 156 217.642 155.964 217.558 155.892C217.486 155.808 217.45 155.706 217.45 155.586V143.634C217.45 143.514 217.486 143.418 217.558 143.346C217.642 143.262 217.744 143.22 217.864 143.22H218.728C218.86 143.22 218.962 143.262 219.034 143.346C219.106 143.418 219.142 143.514 219.142 143.634V147.774C219.442 147.402 219.826 147.09 220.294 146.838C220.774 146.586 221.362 146.46 222.058 146.46C222.73 146.46 223.3 146.58 223.768 146.82C224.248 147.048 224.638 147.366 224.938 147.774C225.25 148.182 225.484 148.644 225.64 149.16C225.796 149.676 225.88 150.216 225.892 150.78C225.904 150.972 225.91 151.152 225.91 151.32C225.91 151.488 225.904 151.668 225.892 151.86C225.88 152.436 225.796 152.982 225.64 153.498C225.484 154.014 225.25 154.476 224.938 154.884C224.638 155.28 224.248 155.598 223.768 155.838C223.3 156.066 222.73 156.18 222.058 156.18ZM221.68 154.722C222.304 154.722 222.79 154.59 223.138 154.326C223.498 154.05 223.756 153.696 223.912 153.264C224.068 152.82 224.158 152.346 224.182 151.842C224.194 151.494 224.194 151.146 224.182 150.798C224.158 150.294 224.068 149.826 223.912 149.394C223.756 148.95 223.498 148.596 223.138 148.332C222.79 148.056 222.304 147.918 221.68 147.918C221.116 147.918 220.648 148.05 220.276 148.314C219.904 148.578 219.622 148.914 219.43 149.322C219.25 149.73 219.154 150.144 219.142 150.564C219.13 150.756 219.124 150.99 219.124 151.266C219.124 151.53 219.13 151.758 219.142 151.95C219.166 152.394 219.262 152.832 219.43 153.264C219.61 153.684 219.88 154.032 220.24 154.308C220.612 154.584 221.092 154.722 221.68 154.722ZM231.971 156.18C231.059 156.18 230.297 156.006 229.685 155.658C229.073 155.31 228.605 154.83 228.281 154.218C227.957 153.594 227.777 152.886 227.741 152.094C227.729 151.89 227.723 151.632 227.723 151.32C227.723 150.996 227.729 150.738 227.741 150.546C227.777 149.742 227.957 149.034 228.281 148.422C228.617 147.81 229.091 147.33 229.703 146.982C230.315 146.634 231.071 146.46 231.971 146.46C232.871 146.46 233.627 146.634 234.239 146.982C234.851 147.33 235.319 147.81 235.643 148.422C235.979 149.034 236.165 149.742 236.201 150.546C236.213 150.738 236.219 150.996 236.219 151.32C236.219 151.632 236.213 151.89 236.201 152.094C236.165 152.886 235.985 153.594 235.661 154.218C235.337 154.83 234.869 155.31 234.257 155.658C233.645 156.006 232.883 156.18 231.971 156.18ZM231.971 154.794C232.715 154.794 233.309 154.56 233.753 154.092C234.197 153.612 234.437 152.916 234.473 152.004C234.485 151.824 234.491 151.596 234.491 151.32C234.491 151.044 234.485 150.816 234.473 150.636C234.437 149.724 234.197 149.034 233.753 148.566C233.309 148.086 232.715 147.846 231.971 147.846C231.227 147.846 230.627 148.086 230.171 148.566C229.727 149.034 229.493 149.724 229.469 150.636C229.457 150.816 229.451 151.044 229.451 151.32C229.451 151.596 229.457 151.824 229.469 152.004C229.493 152.916 229.727 153.612 230.171 154.092C230.627 154.56 231.227 154.794 231.971 154.794ZM242.307 156.18C241.395 156.18 240.633 156.006 240.021 155.658C239.409 155.31 238.941 154.83 238.617 154.218C238.293 153.594 238.113 152.886 238.077 152.094C238.065 151.89 238.059 151.632 238.059 151.32C238.059 150.996 238.065 150.738 238.077 150.546C238.113 149.742 238.293 149.034 238.617 148.422C238.953 147.81 239.427 147.33 240.039 146.982C240.651 146.634 241.407 146.46 242.307 146.46C243.207 146.46 243.963 146.634 244.575 146.982C245.187 147.33 245.655 147.81 245.979 148.422C246.315 149.034 246.501 149.742 246.537 150.546C246.549 150.738 246.555 150.996 246.555 151.32C246.555 151.632 246.549 151.89 246.537 152.094C246.501 152.886 246.321 153.594 245.997 154.218C245.673 154.83 245.205 155.31 244.593 155.658C243.981 156.006 243.219 156.18 242.307 156.18ZM242.307 154.794C243.051 154.794 243.645 154.56 244.089 154.092C244.533 153.612 244.773 152.916 244.809 152.004C244.821 151.824 244.827 151.596 244.827 151.32C244.827 151.044 244.821 150.816 244.809 150.636C244.773 149.724 244.533 149.034 244.089 148.566C243.645 148.086 243.051 147.846 242.307 147.846C241.563 147.846 240.963 148.086 240.507 148.566C240.063 149.034 239.829 149.724 239.805 150.636C239.793 150.816 239.787 151.044 239.787 151.32C239.787 151.596 239.793 151.824 239.805 152.004C239.829 152.916 240.063 153.612 240.507 154.092C240.963 154.56 241.563 154.794 242.307 154.794ZM249.241 156C249.121 156 249.019 155.964 248.935 155.892C248.863 155.808 248.827 155.706 248.827 155.586V143.634C248.827 143.514 248.863 143.418 248.935 143.346C249.019 143.262 249.121 143.22 249.241 143.22H250.087C250.207 143.22 250.303 143.262 250.375 143.346C250.459 143.418 250.501 143.514 250.501 143.634V149.898L254.047 146.946C254.191 146.826 254.299 146.748 254.371 146.712C254.455 146.664 254.587 146.64 254.767 146.64H255.721C255.829 146.64 255.919 146.676 255.991 146.748C256.063 146.82 256.099 146.91 256.099 147.018C256.099 147.066 256.081 147.12 256.045 147.18C256.021 147.24 255.967 147.3 255.883 147.36L251.725 150.816L256.333 155.298C256.477 155.418 256.549 155.526 256.549 155.622C256.549 155.73 256.513 155.82 256.441 155.892C256.369 155.964 256.279 156 256.171 156H255.235C255.055 156 254.923 155.982 254.839 155.946C254.755 155.898 254.647 155.814 254.515 155.694L250.501 151.86V155.586C250.501 155.706 250.459 155.808 250.375 155.892C250.303 155.964 250.207 156 250.087 156H249.241Z" fill="#3E4442"/>
<path d="M88.653 354.812V356H81.2077V354.961L84.9343 350.812C85.3926 350.302 85.7468 349.87 85.9968 349.516C86.252 349.156 86.4291 348.836 86.528 348.555C86.6322 348.268 86.6843 347.977 86.6843 347.68C86.6843 347.305 86.6062 346.966 86.4499 346.664C86.2989 346.357 86.0749 346.112 85.778 345.93C85.4812 345.747 85.1218 345.656 84.6999 345.656C84.1947 345.656 83.7728 345.755 83.4343 345.953C83.101 346.146 82.851 346.417 82.6843 346.766C82.5176 347.115 82.4343 347.516 82.4343 347.969H80.989C80.989 347.328 81.1296 346.742 81.4109 346.211C81.6921 345.68 82.1088 345.258 82.6609 344.945C83.2129 344.628 83.8926 344.469 84.6999 344.469C85.4187 344.469 86.0332 344.596 86.5437 344.852C87.0541 345.102 87.4447 345.456 87.7155 345.914C87.9916 346.367 88.1296 346.898 88.1296 347.508C88.1296 347.841 88.0723 348.18 87.9577 348.523C87.8484 348.862 87.6947 349.201 87.4968 349.539C87.3041 349.878 87.0775 350.211 86.8171 350.539C86.5619 350.867 86.2885 351.19 85.9968 351.508L82.9499 354.812H88.653ZM97.3405 349.406V351.141C97.3405 352.073 97.2572 352.859 97.0905 353.5C96.9239 354.141 96.6843 354.656 96.3718 355.047C96.0593 355.438 95.6817 355.721 95.239 355.898C94.8015 356.07 94.3067 356.156 93.7546 356.156C93.3171 356.156 92.9135 356.102 92.5437 355.992C92.1739 355.883 91.8405 355.708 91.5437 355.469C91.252 355.224 91.002 354.906 90.7937 354.516C90.5853 354.125 90.4265 353.651 90.3171 353.094C90.2077 352.536 90.153 351.885 90.153 351.141V349.406C90.153 348.474 90.2364 347.693 90.403 347.062C90.5749 346.432 90.8171 345.927 91.1296 345.547C91.4421 345.161 91.8171 344.885 92.2546 344.719C92.6973 344.552 93.1921 344.469 93.739 344.469C94.1817 344.469 94.5879 344.523 94.9577 344.633C95.3327 344.737 95.6661 344.906 95.9577 345.141C96.2494 345.37 96.4968 345.677 96.6999 346.062C96.9082 346.443 97.0671 346.909 97.1765 347.461C97.2859 348.013 97.3405 348.661 97.3405 349.406ZM95.8874 351.375V349.164C95.8874 348.654 95.8562 348.206 95.7937 347.82C95.7364 347.43 95.6504 347.096 95.5359 346.82C95.4213 346.544 95.2754 346.32 95.0984 346.148C94.9265 345.977 94.726 345.852 94.4968 345.773C94.2728 345.69 94.0202 345.648 93.739 345.648C93.3952 345.648 93.0905 345.714 92.8249 345.844C92.5593 345.969 92.3353 346.169 92.153 346.445C91.976 346.721 91.8405 347.083 91.7468 347.531C91.653 347.979 91.6062 348.523 91.6062 349.164V351.375C91.6062 351.885 91.6348 352.336 91.6921 352.727C91.7546 353.117 91.8457 353.456 91.9655 353.742C92.0853 354.023 92.2312 354.255 92.403 354.438C92.5749 354.62 92.7728 354.755 92.9968 354.844C93.226 354.927 93.4786 354.969 93.7546 354.969C94.1088 354.969 94.4187 354.901 94.6843 354.766C94.9499 354.63 95.1713 354.419 95.3484 354.133C95.5306 353.841 95.6661 353.469 95.7546 353.016C95.8431 352.557 95.8874 352.01 95.8874 351.375ZM106.653 354.812V356H99.2077V354.961L102.934 350.812C103.393 350.302 103.747 349.87 103.997 349.516C104.252 349.156 104.429 348.836 104.528 348.555C104.632 348.268 104.684 347.977 104.684 347.68C104.684 347.305 104.606 346.966 104.45 346.664C104.299 346.357 104.075 346.112 103.778 345.93C103.481 345.747 103.122 345.656 102.7 345.656C102.195 345.656 101.773 345.755 101.434 345.953C101.101 346.146 100.851 346.417 100.684 346.766C100.518 347.115 100.434 347.516 100.434 347.969H98.989C98.989 347.328 99.1296 346.742 99.4109 346.211C99.6921 345.68 100.109 345.258 100.661 344.945C101.213 344.628 101.893 344.469 102.7 344.469C103.419 344.469 104.033 344.596 104.544 344.852C105.054 345.102 105.445 345.456 105.716 345.914C105.992 346.367 106.13 346.898 106.13 347.508C106.13 347.841 106.072 348.18 105.958 348.523C105.848 348.862 105.695 349.201 105.497 349.539C105.304 349.878 105.078 350.211 104.817 350.539C104.562 350.867 104.288 351.19 103.997 351.508L100.95 354.812H106.653ZM115.341 349.406V351.141C115.341 352.073 115.257 352.859 115.091 353.5C114.924 354.141 114.684 354.656 114.372 355.047C114.059 355.438 113.682 355.721 113.239 355.898C112.801 356.07 112.307 356.156 111.755 356.156C111.317 356.156 110.913 356.102 110.544 355.992C110.174 355.883 109.841 355.708 109.544 355.469C109.252 355.224 109.002 354.906 108.794 354.516C108.585 354.125 108.426 353.651 108.317 353.094C108.208 352.536 108.153 351.885 108.153 351.141V349.406C108.153 348.474 108.236 347.693 108.403 347.062C108.575 346.432 108.817 345.927 109.13 345.547C109.442 345.161 109.817 344.885 110.255 344.719C110.697 344.552 111.192 344.469 111.739 344.469C112.182 344.469 112.588 344.523 112.958 344.633C113.333 344.737 113.666 344.906 113.958 345.141C114.249 345.37 114.497 345.677 114.7 346.062C114.908 346.443 115.067 346.909 115.176 347.461C115.286 348.013 115.341 348.661 115.341 349.406ZM113.887 351.375V349.164C113.887 348.654 113.856 348.206 113.794 347.82C113.736 347.43 113.65 347.096 113.536 346.82C113.421 346.544 113.275 346.32 113.098 346.148C112.926 345.977 112.726 345.852 112.497 345.773C112.273 345.69 112.02 345.648 111.739 345.648C111.395 345.648 111.091 345.714 110.825 345.844C110.559 345.969 110.335 346.169 110.153 346.445C109.976 346.721 109.841 347.083 109.747 347.531C109.653 347.979 109.606 348.523 109.606 349.164V351.375C109.606 351.885 109.635 352.336 109.692 352.727C109.755 353.117 109.846 353.456 109.966 353.742C110.085 354.023 110.231 354.255 110.403 354.438C110.575 354.62 110.773 354.755 110.997 354.844C111.226 354.927 111.479 354.969 111.755 354.969C112.109 354.969 112.419 354.901 112.684 354.766C112.95 354.63 113.171 354.419 113.348 354.133C113.531 353.841 113.666 353.469 113.755 353.016C113.843 352.557 113.887 352.01 113.887 351.375Z" fill="#767272"/>
<path d="M222.144 354.812V356H214.699V354.961L218.425 350.812C218.883 350.302 219.238 349.87 219.488 349.516C219.743 349.156 219.92 348.836 220.019 348.555C220.123 348.268 220.175 347.977 220.175 347.68C220.175 347.305 220.097 346.966 219.941 346.664C219.79 346.357 219.566 346.112 219.269 345.93C218.972 345.747 218.613 345.656 218.191 345.656C217.686 345.656 217.264 345.755 216.925 345.953C216.592 346.146 216.342 346.417 216.175 346.766C216.008 347.115 215.925 347.516 215.925 347.969H214.48C214.48 347.328 214.62 346.742 214.902 346.211C215.183 345.68 215.6 345.258 216.152 344.945C216.704 344.628 217.383 344.469 218.191 344.469C218.91 344.469 219.524 344.596 220.035 344.852C220.545 345.102 220.936 345.456 221.206 345.914C221.482 346.367 221.62 346.898 221.62 347.508C221.62 347.841 221.563 348.18 221.449 348.523C221.339 348.862 221.186 349.201 220.988 349.539C220.795 349.878 220.568 350.211 220.308 350.539C220.053 350.867 219.779 351.19 219.488 351.508L216.441 354.812H222.144ZM230.831 349.406V351.141C230.831 352.073 230.748 352.859 230.581 353.5C230.415 354.141 230.175 354.656 229.863 355.047C229.55 355.438 229.173 355.721 228.73 355.898C228.292 356.07 227.798 356.156 227.245 356.156C226.808 356.156 226.404 356.102 226.035 355.992C225.665 355.883 225.331 355.708 225.035 355.469C224.743 355.224 224.493 354.906 224.285 354.516C224.076 354.125 223.917 353.651 223.808 353.094C223.699 352.536 223.644 351.885 223.644 351.141V349.406C223.644 348.474 223.727 347.693 223.894 347.062C224.066 346.432 224.308 345.927 224.62 345.547C224.933 345.161 225.308 344.885 225.745 344.719C226.188 344.552 226.683 344.469 227.23 344.469C227.673 344.469 228.079 344.523 228.449 344.633C228.824 344.737 229.157 344.906 229.449 345.141C229.74 345.37 229.988 345.677 230.191 346.062C230.399 346.443 230.558 346.909 230.667 347.461C230.777 348.013 230.831 348.661 230.831 349.406ZM229.378 351.375V349.164C229.378 348.654 229.347 348.206 229.285 347.82C229.227 347.43 229.141 347.096 229.027 346.82C228.912 346.544 228.766 346.32 228.589 346.148C228.417 345.977 228.217 345.852 227.988 345.773C227.764 345.69 227.511 345.648 227.23 345.648C226.886 345.648 226.581 345.714 226.316 345.844C226.05 345.969 225.826 346.169 225.644 346.445C225.467 346.721 225.331 347.083 225.238 347.531C225.144 347.979 225.097 348.523 225.097 349.164V351.375C225.097 351.885 225.126 352.336 225.183 352.727C225.245 353.117 225.337 353.456 225.456 353.742C225.576 354.023 225.722 354.255 225.894 354.438C226.066 354.62 226.264 354.755 226.488 354.844C226.717 354.927 226.969 354.969 227.245 354.969C227.6 354.969 227.91 354.901 228.175 354.766C228.441 354.63 228.662 354.419 228.839 354.133C229.022 353.841 229.157 353.469 229.245 353.016C229.334 352.557 229.378 352.01 229.378 351.375ZM240.144 354.812V356H232.699V354.961L236.425 350.812C236.883 350.302 237.238 349.87 237.488 349.516C237.743 349.156 237.92 348.836 238.019 348.555C238.123 348.268 238.175 347.977 238.175 347.68C238.175 347.305 238.097 346.966 237.941 346.664C237.79 346.357 237.566 346.112 237.269 345.93C236.972 345.747 236.613 345.656 236.191 345.656C235.686 345.656 235.264 345.755 234.925 345.953C234.592 346.146 234.342 346.417 234.175 346.766C234.008 347.115 233.925 347.516 233.925 347.969H232.48C232.48 347.328 232.62 346.742 232.902 346.211C233.183 345.68 233.6 345.258 234.152 344.945C234.704 344.628 235.383 344.469 236.191 344.469C236.91 344.469 237.524 344.596 238.035 344.852C238.545 345.102 238.936 345.456 239.206 345.914C239.482 346.367 239.62 346.898 239.62 347.508C239.62 347.841 239.563 348.18 239.449 348.523C239.339 348.862 239.186 349.201 238.988 349.539C238.795 349.878 238.568 350.211 238.308 350.539C238.053 350.867 237.779 351.19 237.488 351.508L234.441 354.812H240.144ZM246.441 344.562V356H244.995V346.367L242.081 347.43V346.125L246.214 344.562H246.441Z" fill="#767272"/>
<rect x="32" y="235" width="265.018" height="1" fill="#C3CDCA"/>
<rect x="32" y="268" width="265.018" height="1" fill="#C3CDCA"/>
<rect x="32" y="301" width="265.018" height="1" fill="#C3CDCA"/>
<rect x="32" y="334" width="265.018" height="1" fill="#C3CDCA"/>
<rect x="164.509" y="202" width="0.98155" height="166" fill="#C3CDCA"/>
<path d="M32 301.356L51.3191 280.282L69.6475 276.361L89.9573 319L111.258 295.965L132.063 312.139L152.868 258.228L173.178 272.931L194.479 241.074L215.779 254.307L235.594 230.292L257.389 241.074L277.204 225.881L297.018 220" stroke="#475996" stroke-width="3" stroke-linecap="round"/>
</svg>
