<svg width="330" height="394" viewBox="0 0 330 394" fill="none" xmlns="http://www.w3.org/2000/svg">
<rect width="330" height="394" rx="8" fill="white"/>
<rect x="130" y="48" width="70" height="70" rx="35" fill="#76AAEB"/>
<path d="M173.739 78.4859C173.753 78.6828 173.753 78.8797 173.753 79.0766C173.753 85.0812 169.216 92 160.924 92C158.369 92 155.996 91.2547 154 89.961C154.363 90.0031 154.712 90.0172 155.089 90.0172C157.197 90.0172 159.137 89.3 160.687 88.0766C158.704 88.0344 157.043 86.7266 156.471 84.9266C156.75 84.9687 157.029 84.9969 157.322 84.9969C157.727 84.9969 158.132 84.9406 158.509 84.8422C156.443 84.4203 154.893 82.5922 154.893 80.3844V80.3281C155.494 80.6656 156.192 80.8766 156.931 80.9047C155.717 80.089 154.921 78.6969 154.921 77.1218C154.921 76.2781 155.145 75.5047 155.535 74.8297C157.755 77.5859 161.091 79.3859 164.832 79.5828C164.763 79.2453 164.721 78.8938 164.721 78.5422C164.721 76.039 166.731 74 169.23 74C170.528 74 171.7 74.5484 172.524 75.4344C173.543 75.2375 174.52 74.8578 175.386 74.3375C175.051 75.3922 174.339 76.2782 173.404 76.8406C174.311 76.7422 175.19 76.489 176 76.1375C175.386 77.0375 174.618 77.839 173.739 78.4859V78.4859Z" fill="white"/>
<path d="M86.4607 156.18C85.4167 156.18 84.5407 156.024 83.8327 155.712C83.1247 155.388 82.5787 154.974 82.1947 154.47C81.8227 153.954 81.6247 153.408 81.6007 152.832C81.6007 152.736 81.6367 152.652 81.7087 152.58C81.7927 152.496 81.8887 152.454 81.9967 152.454H82.9147C83.0587 152.454 83.1667 152.49 83.2387 152.562C83.3107 152.634 83.3587 152.718 83.3827 152.814C83.4427 153.102 83.5867 153.39 83.8147 153.678C84.0547 153.954 84.3847 154.188 84.8047 154.38C85.2367 154.56 85.7887 154.65 86.4607 154.65C87.4927 154.65 88.2487 154.47 88.7287 154.11C89.2207 153.738 89.4667 153.246 89.4667 152.634C89.4667 152.214 89.3347 151.878 89.0707 151.626C88.8187 151.362 88.4287 151.128 87.9007 150.924C87.3727 150.72 86.6887 150.498 85.8487 150.258C84.9727 150.006 84.2467 149.73 83.6707 149.43C83.0947 149.13 82.6627 148.758 82.3747 148.314C82.0987 147.87 81.9607 147.306 81.9607 146.622C81.9607 145.974 82.1347 145.398 82.4827 144.894C82.8307 144.378 83.3287 143.97 83.9767 143.67C84.6367 143.37 85.4347 143.22 86.3707 143.22C87.1147 143.22 87.7627 143.322 88.3147 143.526C88.8787 143.718 89.3467 143.982 89.7187 144.318C90.0907 144.642 90.3727 144.996 90.5647 145.38C90.7567 145.752 90.8587 146.118 90.8707 146.478C90.8707 146.562 90.8407 146.646 90.7807 146.73C90.7207 146.802 90.6247 146.838 90.4927 146.838H89.5387C89.4547 146.838 89.3647 146.814 89.2687 146.766C89.1847 146.718 89.1187 146.628 89.0707 146.496C88.9987 146.004 88.7227 145.59 88.2427 145.254C87.7627 144.918 87.1387 144.75 86.3707 144.75C85.5907 144.75 84.9547 144.9 84.4627 145.2C83.9827 145.5 83.7427 145.968 83.7427 146.604C83.7427 147.012 83.8567 147.354 84.0847 147.63C84.3127 147.894 84.6727 148.128 85.1647 148.332C85.6567 148.536 86.2987 148.752 87.0907 148.98C88.0507 149.244 88.8367 149.526 89.4487 149.826C90.0607 150.114 90.5107 150.48 90.7987 150.924C91.0987 151.356 91.2487 151.914 91.2487 152.598C91.2487 153.354 91.0507 154.002 90.6547 154.542C90.2587 155.07 89.7007 155.478 88.9807 155.766C88.2727 156.042 87.4327 156.18 86.4607 156.18ZM93.806 159.42C93.686 159.42 93.584 159.378 93.5 159.294C93.428 159.222 93.392 159.126 93.392 159.006V147.054C93.392 146.934 93.428 146.838 93.5 146.766C93.584 146.682 93.686 146.64 93.806 146.64H94.634C94.754 146.64 94.85 146.682 94.922 146.766C95.006 146.838 95.048 146.934 95.048 147.054V147.846C95.336 147.45 95.72 147.12 96.2 146.856C96.68 146.592 97.28 146.46 98 146.46C98.672 146.46 99.242 146.574 99.71 146.802C100.19 147.03 100.58 147.342 100.88 147.738C101.192 148.134 101.426 148.584 101.582 149.088C101.738 149.592 101.822 150.132 101.834 150.708C101.846 150.9 101.852 151.104 101.852 151.32C101.852 151.536 101.846 151.74 101.834 151.932C101.822 152.496 101.738 153.036 101.582 153.552C101.426 154.056 101.192 154.506 100.88 154.902C100.58 155.286 100.19 155.598 99.71 155.838C99.242 156.066 98.672 156.18 98 156.18C97.304 156.18 96.716 156.054 96.236 155.802C95.768 155.538 95.384 155.214 95.084 154.83V159.006C95.084 159.126 95.048 159.222 94.976 159.294C94.904 159.378 94.802 159.42 94.67 159.42H93.806ZM97.622 154.722C98.246 154.722 98.732 154.59 99.08 154.326C99.44 154.05 99.698 153.696 99.854 153.264C100.01 152.82 100.1 152.346 100.124 151.842C100.136 151.494 100.136 151.146 100.124 150.798C100.1 150.294 100.01 149.826 99.854 149.394C99.698 148.95 99.44 148.596 99.08 148.332C98.732 148.056 98.246 147.918 97.622 147.918C97.034 147.918 96.554 148.056 96.182 148.332C95.822 148.608 95.552 148.962 95.372 149.394C95.204 149.814 95.108 150.246 95.084 150.69C95.072 150.882 95.066 151.11 95.066 151.374C95.066 151.638 95.072 151.872 95.084 152.076C95.096 152.496 95.192 152.91 95.372 153.318C95.564 153.726 95.846 154.062 96.218 154.326C96.59 154.59 97.058 154.722 97.622 154.722ZM107.823 156.18C106.587 156.18 105.603 155.802 104.871 155.046C104.139 154.278 103.737 153.234 103.665 151.914C103.653 151.758 103.647 151.56 103.647 151.32C103.647 151.068 103.653 150.864 103.665 150.708C103.713 149.856 103.911 149.112 104.259 148.476C104.607 147.828 105.081 147.33 105.681 146.982C106.293 146.634 107.007 146.46 107.823 146.46C108.735 146.46 109.497 146.652 110.109 147.036C110.733 147.42 111.207 147.966 111.531 148.674C111.855 149.382 112.017 150.21 112.017 151.158V151.464C112.017 151.596 111.975 151.698 111.891 151.77C111.819 151.842 111.723 151.878 111.603 151.878H105.375C105.375 151.89 105.375 151.914 105.375 151.95C105.375 151.986 105.375 152.016 105.375 152.04C105.399 152.532 105.507 152.994 105.699 153.426C105.891 153.846 106.167 154.188 106.527 154.452C106.887 154.716 107.319 154.848 107.823 154.848C108.255 154.848 108.615 154.782 108.903 154.65C109.191 154.518 109.425 154.374 109.605 154.218C109.785 154.05 109.905 153.924 109.965 153.84C110.073 153.684 110.157 153.594 110.217 153.57C110.277 153.534 110.373 153.516 110.505 153.516H111.369C111.489 153.516 111.585 153.552 111.657 153.624C111.741 153.684 111.777 153.774 111.765 153.894C111.753 154.074 111.657 154.296 111.477 154.56C111.297 154.812 111.039 155.064 110.703 155.316C110.367 155.568 109.959 155.778 109.479 155.946C108.999 156.102 108.447 156.18 107.823 156.18ZM105.375 150.636H110.307V150.582C110.307 150.042 110.205 149.562 110.001 149.142C109.809 148.722 109.527 148.392 109.155 148.152C108.783 147.9 108.339 147.774 107.823 147.774C107.307 147.774 106.863 147.9 106.491 148.152C106.131 148.392 105.855 148.722 105.663 149.142C105.471 149.562 105.375 150.042 105.375 150.582V150.636ZM114.583 156C114.463 156 114.361 155.964 114.277 155.892C114.205 155.808 114.169 155.706 114.169 155.586V147.054C114.169 146.934 114.205 146.838 114.277 146.766C114.361 146.682 114.463 146.64 114.583 146.64H115.429C115.549 146.64 115.645 146.682 115.717 146.766C115.801 146.838 115.843 146.934 115.843 147.054V147.846C116.155 147.438 116.545 147.108 117.013 146.856C117.493 146.592 118.105 146.46 118.849 146.46C119.629 146.46 120.289 146.634 120.829 146.982C121.381 147.318 121.795 147.792 122.071 148.404C122.347 149.004 122.485 149.706 122.485 150.51V155.586C122.485 155.706 122.449 155.808 122.377 155.892C122.305 155.964 122.209 156 122.089 156H121.189C121.069 156 120.967 155.964 120.883 155.892C120.811 155.808 120.775 155.706 120.775 155.586V150.6C120.775 149.76 120.571 149.106 120.163 148.638C119.755 148.158 119.155 147.918 118.363 147.918C117.619 147.918 117.019 148.158 116.563 148.638C116.119 149.106 115.897 149.76 115.897 150.6V155.586C115.897 155.706 115.855 155.808 115.771 155.892C115.699 155.964 115.603 156 115.483 156H114.583ZM128.505 156.18C127.845 156.18 127.275 156.066 126.795 155.838C126.315 155.598 125.919 155.28 125.607 154.884C125.307 154.476 125.079 154.014 124.923 153.498C124.779 152.982 124.695 152.436 124.671 151.86C124.659 151.668 124.653 151.488 124.653 151.32C124.653 151.152 124.659 150.972 124.671 150.78C124.695 150.216 124.779 149.676 124.923 149.16C125.079 148.644 125.307 148.182 125.607 147.774C125.919 147.366 126.315 147.048 126.795 146.82C127.275 146.58 127.845 146.46 128.505 146.46C129.213 146.46 129.801 146.586 130.269 146.838C130.737 147.09 131.121 147.402 131.421 147.774V143.634C131.421 143.514 131.457 143.418 131.529 143.346C131.613 143.262 131.715 143.22 131.835 143.22H132.699C132.819 143.22 132.915 143.262 132.987 143.346C133.071 143.418 133.113 143.514 133.113 143.634V155.586C133.113 155.706 133.071 155.808 132.987 155.892C132.915 155.964 132.819 156 132.699 156H131.889C131.757 156 131.655 155.964 131.583 155.892C131.511 155.808 131.475 155.706 131.475 155.586V154.83C131.175 155.214 130.785 155.538 130.305 155.802C129.825 156.054 129.225 156.18 128.505 156.18ZM128.883 154.722C129.483 154.722 129.963 154.584 130.323 154.308C130.683 154.032 130.953 153.684 131.133 153.264C131.313 152.832 131.409 152.394 131.421 151.95C131.433 151.758 131.439 151.53 131.439 151.266C131.439 150.99 131.433 150.756 131.421 150.564C131.409 150.144 131.307 149.73 131.115 149.322C130.935 148.914 130.659 148.578 130.287 148.314C129.927 148.05 129.459 147.918 128.883 147.918C128.271 147.918 127.785 148.056 127.425 148.332C127.065 148.596 126.807 148.95 126.651 149.394C126.495 149.826 126.405 150.294 126.381 150.798C126.369 151.146 126.369 151.494 126.381 151.842C126.405 152.346 126.495 152.82 126.651 153.264C126.807 153.696 127.065 154.05 127.425 154.326C127.785 154.59 128.271 154.722 128.883 154.722ZM136.204 156C136.084 156 135.982 155.964 135.898 155.892C135.826 155.808 135.79 155.706 135.79 155.586V147.054C135.79 146.934 135.826 146.838 135.898 146.766C135.982 146.682 136.084 146.64 136.204 146.64H137.068C137.188 146.64 137.284 146.682 137.356 146.766C137.428 146.838 137.464 146.934 137.464 147.054V155.586C137.464 155.706 137.428 155.808 137.356 155.892C137.284 155.964 137.188 156 137.068 156H136.204ZM136.06 144.894C135.94 144.894 135.838 144.858 135.754 144.786C135.682 144.702 135.646 144.6 135.646 144.48V143.508C135.646 143.388 135.682 143.292 135.754 143.22C135.838 143.136 135.94 143.094 136.06 143.094H137.194C137.314 143.094 137.41 143.136 137.482 143.22C137.566 143.292 137.608 143.388 137.608 143.508V144.48C137.608 144.6 137.566 144.702 137.482 144.786C137.41 144.858 137.314 144.894 137.194 144.894H136.06ZM140.739 156C140.619 156 140.517 155.964 140.433 155.892C140.361 155.808 140.325 155.706 140.325 155.586V147.054C140.325 146.934 140.361 146.838 140.433 146.766C140.517 146.682 140.619 146.64 140.739 146.64H141.585C141.705 146.64 141.801 146.682 141.873 146.766C141.957 146.838 141.999 146.934 141.999 147.054V147.846C142.311 147.438 142.701 147.108 143.169 146.856C143.649 146.592 144.261 146.46 145.005 146.46C145.785 146.46 146.445 146.634 146.985 146.982C147.537 147.318 147.951 147.792 148.227 148.404C148.503 149.004 148.641 149.706 148.641 150.51V155.586C148.641 155.706 148.605 155.808 148.533 155.892C148.461 155.964 148.365 156 148.245 156H147.345C147.225 156 147.123 155.964 147.039 155.892C146.967 155.808 146.931 155.706 146.931 155.586V150.6C146.931 149.76 146.727 149.106 146.319 148.638C145.911 148.158 145.311 147.918 144.519 147.918C143.775 147.918 143.175 148.158 142.719 148.638C142.275 149.106 142.053 149.76 142.053 150.6V155.586C142.053 155.706 142.011 155.808 141.927 155.892C141.855 155.964 141.759 156 141.639 156H140.739ZM155.075 159.96C154.259 159.96 153.587 159.852 153.059 159.636C152.543 159.42 152.135 159.156 151.835 158.844C151.547 158.544 151.337 158.238 151.205 157.926C151.085 157.626 151.019 157.386 151.007 157.206C150.995 157.086 151.031 156.984 151.115 156.9C151.211 156.816 151.313 156.774 151.421 156.774H152.285C152.393 156.774 152.483 156.798 152.555 156.846C152.627 156.894 152.687 156.996 152.735 157.152C152.807 157.332 152.915 157.53 153.059 157.746C153.203 157.974 153.425 158.166 153.725 158.322C154.025 158.49 154.445 158.574 154.985 158.574C155.549 158.574 156.023 158.496 156.407 158.34C156.791 158.196 157.079 157.932 157.271 157.548C157.475 157.176 157.577 156.66 157.577 156V154.776C157.289 155.148 156.911 155.46 156.443 155.712C155.975 155.952 155.387 156.072 154.679 156.072C154.007 156.072 153.431 155.958 152.951 155.73C152.471 155.49 152.075 155.172 151.763 154.776C151.463 154.368 151.235 153.906 151.079 153.39C150.935 152.874 150.851 152.334 150.827 151.77C150.815 151.434 150.815 151.104 150.827 150.78C150.851 150.216 150.935 149.676 151.079 149.16C151.235 148.644 151.463 148.182 151.763 147.774C152.075 147.366 152.471 147.048 152.951 146.82C153.431 146.58 154.007 146.46 154.679 146.46C155.399 146.46 155.993 146.598 156.461 146.874C156.941 147.138 157.331 147.462 157.631 147.846V147.072C157.631 146.952 157.667 146.85 157.739 146.766C157.823 146.682 157.925 146.64 158.045 146.64H158.873C158.993 146.64 159.095 146.682 159.179 146.766C159.263 146.85 159.305 146.952 159.305 147.072V155.802C159.305 156.606 159.167 157.32 158.891 157.944C158.627 158.568 158.183 159.06 157.559 159.42C156.947 159.78 156.119 159.96 155.075 159.96ZM155.039 154.632C155.639 154.632 156.119 154.494 156.479 154.218C156.851 153.942 157.121 153.594 157.289 153.174C157.469 152.754 157.565 152.328 157.577 151.896C157.589 151.728 157.595 151.524 157.595 151.284C157.595 151.032 157.589 150.822 157.577 150.654C157.565 150.222 157.469 149.796 157.289 149.376C157.121 148.956 156.851 148.608 156.479 148.332C156.119 148.056 155.639 147.918 155.039 147.918C154.439 147.918 153.959 148.056 153.599 148.332C153.239 148.596 152.981 148.95 152.825 149.394C152.669 149.826 152.579 150.294 152.555 150.798C152.543 151.11 152.543 151.428 152.555 151.752C152.579 152.256 152.669 152.73 152.825 153.174C152.981 153.606 153.239 153.96 153.599 154.236C153.959 154.5 154.439 154.632 155.039 154.632ZM170.228 156.18C169.316 156.18 168.554 156.006 167.942 155.658C167.33 155.31 166.862 154.83 166.538 154.218C166.214 153.594 166.034 152.886 165.998 152.094C165.986 151.89 165.98 151.632 165.98 151.32C165.98 150.996 165.986 150.738 165.998 150.546C166.034 149.742 166.214 149.034 166.538 148.422C166.874 147.81 167.348 147.33 167.96 146.982C168.572 146.634 169.328 146.46 170.228 146.46C171.128 146.46 171.884 146.634 172.496 146.982C173.108 147.33 173.576 147.81 173.9 148.422C174.236 149.034 174.422 149.742 174.458 150.546C174.47 150.738 174.476 150.996 174.476 151.32C174.476 151.632 174.47 151.89 174.458 152.094C174.422 152.886 174.242 153.594 173.918 154.218C173.594 154.83 173.126 155.31 172.514 155.658C171.902 156.006 171.14 156.18 170.228 156.18ZM170.228 154.794C170.972 154.794 171.566 154.56 172.01 154.092C172.454 153.612 172.694 152.916 172.73 152.004C172.742 151.824 172.748 151.596 172.748 151.32C172.748 151.044 172.742 150.816 172.73 150.636C172.694 149.724 172.454 149.034 172.01 148.566C171.566 148.086 170.972 147.846 170.228 147.846C169.484 147.846 168.884 148.086 168.428 148.566C167.984 149.034 167.75 149.724 167.726 150.636C167.714 150.816 167.708 151.044 167.708 151.32C167.708 151.596 167.714 151.824 167.726 152.004C167.75 152.916 167.984 153.612 168.428 154.092C168.884 154.56 169.484 154.794 170.228 154.794ZM177.143 156C177.023 156 176.921 155.964 176.837 155.892C176.765 155.808 176.729 155.706 176.729 155.586V147.054C176.729 146.934 176.765 146.838 176.837 146.766C176.921 146.682 177.023 146.64 177.143 146.64H177.989C178.109 146.64 178.205 146.682 178.277 146.766C178.361 146.838 178.403 146.934 178.403 147.054V147.846C178.715 147.438 179.105 147.108 179.573 146.856C180.053 146.592 180.665 146.46 181.409 146.46C182.189 146.46 182.849 146.634 183.389 146.982C183.941 147.318 184.355 147.792 184.631 148.404C184.907 149.004 185.045 149.706 185.045 150.51V155.586C185.045 155.706 185.009 155.808 184.937 155.892C184.865 155.964 184.769 156 184.649 156H183.749C183.629 156 183.527 155.964 183.443 155.892C183.371 155.808 183.335 155.706 183.335 155.586V150.6C183.335 149.76 183.131 149.106 182.723 148.638C182.315 148.158 181.715 147.918 180.923 147.918C180.179 147.918 179.579 148.158 179.123 148.638C178.679 149.106 178.457 149.76 178.457 150.6V155.586C178.457 155.706 178.415 155.808 178.331 155.892C178.259 155.964 178.163 156 178.043 156H177.143ZM195.003 156C194.883 156 194.781 155.964 194.697 155.892C194.625 155.808 194.589 155.706 194.589 155.586V145.002H191.133C191.013 145.002 190.911 144.966 190.827 144.894C190.755 144.81 190.719 144.708 190.719 144.588V143.832C190.719 143.7 190.755 143.598 190.827 143.526C190.911 143.442 191.013 143.4 191.133 143.4H199.809C199.941 143.4 200.043 143.442 200.115 143.526C200.199 143.598 200.241 143.7 200.241 143.832V144.588C200.241 144.708 200.199 144.81 200.115 144.894C200.043 144.966 199.941 145.002 199.809 145.002H196.371V155.586C196.371 155.706 196.329 155.808 196.245 155.892C196.173 155.964 196.071 156 195.939 156H195.003ZM203.208 156C203.052 156 202.932 155.964 202.848 155.892C202.764 155.808 202.692 155.694 202.632 155.55L200.076 147.198C200.052 147.138 200.04 147.078 200.04 147.018C200.04 146.91 200.076 146.82 200.148 146.748C200.232 146.676 200.322 146.64 200.418 146.64H201.21C201.342 146.64 201.444 146.676 201.516 146.748C201.588 146.82 201.636 146.886 201.66 146.946L203.658 153.732L205.8 147.018C205.824 146.934 205.872 146.85 205.944 146.766C206.028 146.682 206.148 146.64 206.304 146.64H206.916C207.072 146.64 207.192 146.682 207.276 146.766C207.36 146.85 207.408 146.934 207.42 147.018L209.562 153.732L211.56 146.946C211.572 146.886 211.614 146.82 211.686 146.748C211.758 146.676 211.86 146.64 211.992 146.64H212.784C212.892 146.64 212.982 146.676 213.054 146.748C213.126 146.82 213.162 146.91 213.162 147.018C213.162 147.078 213.15 147.138 213.126 147.198L210.57 155.55C210.534 155.694 210.468 155.808 210.372 155.892C210.288 155.964 210.162 156 209.994 156H209.292C209.136 156 209.004 155.964 208.896 155.892C208.8 155.808 208.734 155.694 208.698 155.55L206.61 149.106L204.522 155.55C204.474 155.694 204.402 155.808 204.306 155.892C204.21 155.964 204.078 156 203.91 156H203.208ZM215.569 156C215.449 156 215.347 155.964 215.263 155.892C215.191 155.808 215.155 155.706 215.155 155.586V147.054C215.155 146.934 215.191 146.838 215.263 146.766C215.347 146.682 215.449 146.64 215.569 146.64H216.433C216.553 146.64 216.649 146.682 216.721 146.766C216.793 146.838 216.829 146.934 216.829 147.054V155.586C216.829 155.706 216.793 155.808 216.721 155.892C216.649 155.964 216.553 156 216.433 156H215.569ZM215.425 144.894C215.305 144.894 215.203 144.858 215.119 144.786C215.047 144.702 215.011 144.6 215.011 144.48V143.508C215.011 143.388 215.047 143.292 215.119 143.22C215.203 143.136 215.305 143.094 215.425 143.094H216.559C216.679 143.094 216.775 143.136 216.847 143.22C216.931 143.292 216.973 143.388 216.973 143.508V144.48C216.973 144.6 216.931 144.702 216.847 144.786C216.775 144.858 216.679 144.894 216.559 144.894H215.425ZM223.169 156C222.497 156 221.951 155.874 221.531 155.622C221.111 155.358 220.805 154.992 220.613 154.524C220.421 154.044 220.325 153.48 220.325 152.832V148.08H218.921C218.801 148.08 218.699 148.044 218.615 147.972C218.543 147.888 218.507 147.786 218.507 147.666V147.054C218.507 146.934 218.543 146.838 218.615 146.766C218.699 146.682 218.801 146.64 218.921 146.64H220.325V143.634C220.325 143.514 220.361 143.418 220.433 143.346C220.517 143.262 220.619 143.22 220.739 143.22H221.585C221.705 143.22 221.801 143.262 221.873 143.346C221.957 143.418 221.999 143.514 221.999 143.634V146.64H224.231C224.351 146.64 224.447 146.682 224.519 146.766C224.603 146.838 224.645 146.934 224.645 147.054V147.666C224.645 147.786 224.603 147.888 224.519 147.972C224.447 148.044 224.351 148.08 224.231 148.08H221.999V152.706C221.999 153.27 222.095 153.714 222.287 154.038C222.479 154.362 222.821 154.524 223.313 154.524H224.411C224.531 154.524 224.627 154.566 224.699 154.65C224.783 154.722 224.825 154.818 224.825 154.938V155.586C224.825 155.706 224.783 155.808 224.699 155.892C224.627 155.964 224.531 156 224.411 156H223.169ZM230.2 156C229.528 156 228.982 155.874 228.562 155.622C228.142 155.358 227.836 154.992 227.644 154.524C227.452 154.044 227.356 153.48 227.356 152.832V148.08H225.952C225.832 148.08 225.73 148.044 225.646 147.972C225.574 147.888 225.538 147.786 225.538 147.666V147.054C225.538 146.934 225.574 146.838 225.646 146.766C225.73 146.682 225.832 146.64 225.952 146.64H227.356V143.634C227.356 143.514 227.392 143.418 227.464 143.346C227.548 143.262 227.65 143.22 227.77 143.22H228.616C228.736 143.22 228.832 143.262 228.904 143.346C228.988 143.418 229.03 143.514 229.03 143.634V146.64H231.262C231.382 146.64 231.478 146.682 231.55 146.766C231.634 146.838 231.676 146.934 231.676 147.054V147.666C231.676 147.786 231.634 147.888 231.55 147.972C231.478 148.044 231.382 148.08 231.262 148.08H229.03V152.706C229.03 153.27 229.126 153.714 229.318 154.038C229.51 154.362 229.852 154.524 230.344 154.524H231.442C231.562 154.524 231.658 154.566 231.73 154.65C231.814 154.722 231.856 154.818 231.856 154.938V155.586C231.856 155.706 231.814 155.808 231.73 155.892C231.658 155.964 231.562 156 231.442 156H230.2ZM237.303 156.18C236.067 156.18 235.083 155.802 234.351 155.046C233.619 154.278 233.217 153.234 233.145 151.914C233.133 151.758 233.127 151.56 233.127 151.32C233.127 151.068 233.133 150.864 233.145 150.708C233.193 149.856 233.391 149.112 233.739 148.476C234.087 147.828 234.561 147.33 235.161 146.982C235.773 146.634 236.487 146.46 237.303 146.46C238.215 146.46 238.977 146.652 239.589 147.036C240.213 147.42 240.687 147.966 241.011 148.674C241.335 149.382 241.497 150.21 241.497 151.158V151.464C241.497 151.596 241.455 151.698 241.371 151.77C241.299 151.842 241.203 151.878 241.083 151.878H234.855C234.855 151.89 234.855 151.914 234.855 151.95C234.855 151.986 234.855 152.016 234.855 152.04C234.879 152.532 234.987 152.994 235.179 153.426C235.371 153.846 235.647 154.188 236.007 154.452C236.367 154.716 236.799 154.848 237.303 154.848C237.735 154.848 238.095 154.782 238.383 154.65C238.671 154.518 238.905 154.374 239.085 154.218C239.265 154.05 239.385 153.924 239.445 153.84C239.553 153.684 239.637 153.594 239.697 153.57C239.757 153.534 239.853 153.516 239.985 153.516H240.849C240.969 153.516 241.065 153.552 241.137 153.624C241.221 153.684 241.257 153.774 241.245 153.894C241.233 154.074 241.137 154.296 240.957 154.56C240.777 154.812 240.519 155.064 240.183 155.316C239.847 155.568 239.439 155.778 238.959 155.946C238.479 156.102 237.927 156.18 237.303 156.18ZM234.855 150.636H239.787V150.582C239.787 150.042 239.685 149.562 239.481 149.142C239.289 148.722 239.007 148.392 238.635 148.152C238.263 147.9 237.819 147.774 237.303 147.774C236.787 147.774 236.343 147.9 235.971 148.152C235.611 148.392 235.335 148.722 235.143 149.142C234.951 149.562 234.855 150.042 234.855 150.582V150.636ZM244.063 156C243.943 156 243.841 155.964 243.757 155.892C243.685 155.808 243.649 155.706 243.649 155.586V147.072C243.649 146.952 243.685 146.85 243.757 146.766C243.841 146.682 243.943 146.64 244.063 146.64H244.891C245.011 146.64 245.113 146.682 245.197 146.766C245.281 146.85 245.323 146.952 245.323 147.072V147.864C245.563 147.456 245.893 147.15 246.313 146.946C246.733 146.742 247.237 146.64 247.825 146.64H248.545C248.665 146.64 248.761 146.682 248.833 146.766C248.905 146.838 248.941 146.934 248.941 147.054V147.792C248.941 147.912 248.905 148.008 248.833 148.08C248.761 148.152 248.665 148.188 248.545 148.188H247.465C246.817 148.188 246.307 148.38 245.935 148.764C245.563 149.136 245.377 149.646 245.377 150.294V155.586C245.377 155.706 245.335 155.808 245.251 155.892C245.167 155.964 245.065 156 244.945 156H244.063Z" fill="#3E4442"/>
<path d="M148.85 252.8C148.498 252.8 148.226 252.688 148.034 252.464C147.842 252.272 147.746 252.016 147.746 251.696V248.336C145.41 248.144 143.442 247.616 141.842 246.752C140.242 245.856 139.026 244.784 138.194 243.536C137.362 242.288 136.914 240.96 136.85 239.552C136.85 239.296 136.946 239.072 137.138 238.88C137.362 238.656 137.618 238.544 137.906 238.544H140.354C140.738 238.544 141.026 238.64 141.218 238.832C141.41 239.024 141.538 239.248 141.602 239.504C141.794 240.272 142.194 241.04 142.802 241.808C143.41 242.544 144.274 243.168 145.394 243.68C146.546 244.16 148.018 244.4 149.81 244.4C152.562 244.4 154.578 243.92 155.858 242.96C157.17 241.968 157.826 240.656 157.826 239.024C157.826 237.904 157.474 237.008 156.77 236.336C156.098 235.632 155.058 235.008 153.65 234.464C152.242 233.92 150.418 233.328 148.178 232.688C145.842 232.016 143.906 231.28 142.37 230.48C140.834 229.68 139.682 228.688 138.914 227.504C138.178 226.32 137.81 224.816 137.81 222.992C137.81 220.656 138.674 218.656 140.402 216.992C142.13 215.296 144.578 214.304 147.746 214.016V210.704C147.746 210.384 147.842 210.128 148.034 209.936C148.226 209.712 148.498 209.6 148.85 209.6H150.674C150.994 209.6 151.25 209.712 151.442 209.936C151.666 210.128 151.778 210.384 151.778 210.704V214.064C153.922 214.32 155.714 214.912 157.154 215.84C158.594 216.768 159.682 217.84 160.418 219.056C161.154 220.272 161.538 221.456 161.57 222.608C161.57 222.832 161.49 223.056 161.33 223.28C161.17 223.472 160.914 223.568 160.562 223.568H158.018C157.794 223.568 157.554 223.504 157.298 223.376C157.074 223.248 156.898 223.008 156.77 222.656C156.578 221.344 155.842 220.24 154.562 219.344C153.282 218.448 151.618 218 149.57 218C147.49 218 145.794 218.4 144.482 219.2C143.202 220 142.562 221.248 142.562 222.944C142.562 224.032 142.866 224.944 143.474 225.68C144.082 226.384 145.042 227.008 146.354 227.552C147.666 228.096 149.378 228.672 151.49 229.28C154.05 229.984 156.146 230.736 157.778 231.536C159.41 232.304 160.61 233.28 161.378 234.464C162.178 235.616 162.578 237.104 162.578 238.928C162.578 240.752 162.13 242.336 161.234 243.68C160.37 245.024 159.122 246.096 157.49 246.896C155.89 247.696 153.986 248.192 151.778 248.384V251.696C151.778 252.016 151.666 252.272 151.442 252.464C151.25 252.688 150.994 252.8 150.674 252.8H148.85ZM179.818 248.48C177.61 248.48 175.738 248.144 174.202 247.472C172.698 246.768 171.466 245.808 170.506 244.592C169.546 243.376 168.842 241.984 168.394 240.416C167.978 238.848 167.738 237.184 167.674 235.424C167.642 234.56 167.61 233.648 167.578 232.688C167.578 231.728 167.578 230.768 167.578 229.808C167.61 228.816 167.642 227.872 167.674 226.976C167.706 225.216 167.946 223.552 168.394 221.984C168.874 220.384 169.578 218.992 170.506 217.808C171.466 216.592 172.714 215.648 174.25 214.976C175.786 214.272 177.642 213.92 179.818 213.92C182.026 213.92 183.882 214.272 185.386 214.976C186.922 215.648 188.17 216.592 189.13 217.808C190.09 218.992 190.794 220.384 191.242 221.984C191.722 223.552 191.978 225.216 192.01 226.976C192.042 227.872 192.058 228.816 192.058 229.808C192.09 230.768 192.09 231.728 192.058 232.688C192.058 233.648 192.042 234.56 192.01 235.424C191.978 237.184 191.722 238.848 191.242 240.416C190.794 241.984 190.09 243.376 189.13 244.592C188.202 245.808 186.97 246.768 185.434 247.472C183.93 248.144 182.058 248.48 179.818 248.48ZM179.818 244.4C182.314 244.4 184.154 243.584 185.338 241.952C186.554 240.288 187.178 238.032 187.21 235.184C187.274 234.256 187.306 233.36 187.306 232.496C187.306 231.6 187.306 230.72 187.306 229.856C187.306 228.96 187.274 228.08 187.21 227.216C187.178 224.432 186.554 222.208 185.338 220.544C184.154 218.848 182.314 218 179.818 218C177.354 218 175.514 218.848 174.298 220.544C173.114 222.208 172.49 224.432 172.426 227.216C172.426 228.08 172.41 228.96 172.378 229.856C172.378 230.72 172.378 231.6 172.378 232.496C172.41 233.36 172.426 234.256 172.426 235.184C172.49 238.032 173.13 240.288 174.346 241.952C175.562 243.584 177.386 244.4 179.818 244.4Z" fill="#76AAEB"/>
<path d="M78.683 314C78.507 314 78.371 313.952 78.275 313.856C78.179 313.744 78.131 313.608 78.131 313.448V297.776C78.131 297.6 78.179 297.464 78.275 297.368C78.371 297.256 78.507 297.2 78.683 297.2H84.779C85.963 297.2 86.987 297.392 87.851 297.776C88.731 298.16 89.411 298.736 89.891 299.504C90.371 300.256 90.611 301.2 90.611 302.336C90.611 303.472 90.371 304.416 89.891 305.168C89.411 305.92 88.731 306.488 87.851 306.872C86.987 307.256 85.963 307.448 84.779 307.448H80.531V313.448C80.531 313.608 80.475 313.744 80.363 313.856C80.267 313.952 80.131 314 79.955 314H78.683ZM80.507 305.432H84.659C85.843 305.432 86.731 305.168 87.323 304.64C87.915 304.112 88.211 303.344 88.211 302.336C88.211 301.344 87.923 300.576 87.347 300.032C86.771 299.488 85.875 299.216 84.659 299.216H80.507V305.432ZM93.7694 314C93.6094 314 93.4734 313.952 93.3614 313.856C93.2654 313.744 93.2174 313.608 93.2174 313.448V302.096C93.2174 301.936 93.2654 301.8 93.3614 301.688C93.4734 301.576 93.6094 301.52 93.7694 301.52H94.8734C95.0334 301.52 95.1694 301.576 95.2814 301.688C95.3934 301.8 95.4494 301.936 95.4494 302.096V303.152C95.7694 302.608 96.2094 302.2 96.7694 301.928C97.3294 301.656 98.0014 301.52 98.7854 301.52H99.7454C99.9054 301.52 100.033 301.576 100.129 301.688C100.225 301.784 100.273 301.912 100.273 302.072V303.056C100.273 303.216 100.225 303.344 100.129 303.44C100.033 303.536 99.9054 303.584 99.7454 303.584H98.3054C97.4414 303.584 96.7614 303.84 96.2654 304.352C95.7694 304.848 95.5214 305.528 95.5214 306.392V313.448C95.5214 313.608 95.4654 313.744 95.3534 313.856C95.2414 313.952 95.1054 314 94.9454 314H93.7694ZM107.212 314.24C105.996 314.24 104.98 314.008 104.164 313.544C103.348 313.08 102.724 312.44 102.292 311.624C101.86 310.792 101.62 309.848 101.572 308.792C101.556 308.52 101.548 308.176 101.548 307.76C101.548 307.328 101.556 306.984 101.572 306.728C101.62 305.656 101.86 304.712 102.292 303.896C102.74 303.08 103.372 302.44 104.188 301.976C105.004 301.512 106.012 301.28 107.212 301.28C108.412 301.28 109.42 301.512 110.236 301.976C111.052 302.44 111.676 303.08 112.108 303.896C112.556 304.712 112.804 305.656 112.852 306.728C112.868 306.984 112.876 307.328 112.876 307.76C112.876 308.176 112.868 308.52 112.852 308.792C112.804 309.848 112.564 310.792 112.132 311.624C111.7 312.44 111.076 313.08 110.26 313.544C109.444 314.008 108.428 314.24 107.212 314.24ZM107.212 312.392C108.204 312.392 108.996 312.08 109.588 311.456C110.18 310.816 110.5 309.888 110.548 308.672C110.564 308.432 110.572 308.128 110.572 307.76C110.572 307.392 110.564 307.088 110.548 306.848C110.5 305.632 110.18 304.712 109.588 304.088C108.996 303.448 108.204 303.128 107.212 303.128C106.22 303.128 105.42 303.448 104.812 304.088C104.22 304.712 103.908 305.632 103.876 306.848C103.86 307.088 103.852 307.392 103.852 307.76C103.852 308.128 103.86 308.432 103.876 308.672C103.908 309.888 104.22 310.816 104.812 311.456C105.42 312.08 106.22 312.392 107.212 312.392ZM116.433 314C116.273 314 116.137 313.952 116.025 313.856C115.929 313.744 115.881 313.608 115.881 313.448V302.072C115.881 301.912 115.929 301.784 116.025 301.688C116.137 301.576 116.273 301.52 116.433 301.52H117.513C117.673 301.52 117.801 301.576 117.897 301.688C118.009 301.784 118.065 301.912 118.065 302.072V302.912C118.433 302.416 118.897 302.024 119.457 301.736C120.017 301.432 120.689 301.28 121.473 301.28C123.281 301.264 124.561 302 125.313 303.488C125.681 302.816 126.217 302.28 126.921 301.88C127.625 301.48 128.425 301.28 129.321 301.28C130.153 301.28 130.905 301.472 131.577 301.856C132.265 302.24 132.801 302.824 133.185 303.608C133.585 304.376 133.785 305.344 133.785 306.512V313.448C133.785 313.608 133.729 313.744 133.617 313.856C133.521 313.952 133.393 314 133.233 314H132.105C131.945 314 131.809 313.952 131.697 313.856C131.601 313.744 131.553 313.608 131.553 313.448V306.728C131.553 305.832 131.425 305.128 131.169 304.616C130.913 304.104 130.569 303.744 130.137 303.536C129.705 303.328 129.233 303.224 128.721 303.224C128.305 303.224 127.881 303.328 127.449 303.536C127.017 303.744 126.657 304.104 126.369 304.616C126.097 305.128 125.961 305.832 125.961 306.728V313.448C125.961 313.608 125.905 313.744 125.793 313.856C125.697 313.952 125.569 314 125.409 314H124.281C124.121 314 123.985 313.952 123.873 313.856C123.777 313.744 123.729 313.608 123.729 313.448V306.728C123.729 305.832 123.593 305.128 123.321 304.616C123.049 304.104 122.697 303.744 122.265 303.536C121.833 303.328 121.377 303.224 120.897 303.224C120.481 303.224 120.057 303.328 119.625 303.536C119.193 303.744 118.833 304.104 118.545 304.616C118.273 305.128 118.137 305.824 118.137 306.704V313.448C118.137 313.608 118.081 313.744 117.969 313.856C117.873 313.952 117.745 314 117.585 314H116.433ZM142.322 314.24C141.106 314.24 140.09 314.008 139.274 313.544C138.458 313.08 137.834 312.44 137.402 311.624C136.97 310.792 136.73 309.848 136.682 308.792C136.666 308.52 136.658 308.176 136.658 307.76C136.658 307.328 136.666 306.984 136.682 306.728C136.73 305.656 136.97 304.712 137.402 303.896C137.85 303.08 138.482 302.44 139.298 301.976C140.114 301.512 141.122 301.28 142.322 301.28C143.522 301.28 144.53 301.512 145.346 301.976C146.162 302.44 146.786 303.08 147.218 303.896C147.666 304.712 147.914 305.656 147.962 306.728C147.978 306.984 147.986 307.328 147.986 307.76C147.986 308.176 147.978 308.52 147.962 308.792C147.914 309.848 147.674 310.792 147.242 311.624C146.81 312.44 146.186 313.08 145.37 313.544C144.554 314.008 143.538 314.24 142.322 314.24ZM142.322 312.392C143.314 312.392 144.106 312.08 144.698 311.456C145.29 310.816 145.61 309.888 145.658 308.672C145.674 308.432 145.682 308.128 145.682 307.76C145.682 307.392 145.674 307.088 145.658 306.848C145.61 305.632 145.29 304.712 144.698 304.088C144.106 303.448 143.314 303.128 142.322 303.128C141.33 303.128 140.53 303.448 139.922 304.088C139.33 304.712 139.018 305.632 138.986 306.848C138.97 307.088 138.962 307.392 138.962 307.76C138.962 308.128 138.97 308.432 138.986 308.672C139.018 309.888 139.33 310.816 139.922 311.456C140.53 312.08 141.33 312.392 142.322 312.392ZM155.746 314C154.85 314 154.122 313.832 153.562 313.496C153.002 313.144 152.594 312.656 152.338 312.032C152.082 311.392 151.954 310.64 151.954 309.776V303.44H150.082C149.922 303.44 149.786 303.392 149.674 303.296C149.578 303.184 149.53 303.048 149.53 302.888V302.072C149.53 301.912 149.578 301.784 149.674 301.688C149.786 301.576 149.922 301.52 150.082 301.52H151.954V297.512C151.954 297.352 152.002 297.224 152.098 297.128C152.21 297.016 152.346 296.96 152.506 296.96H153.634C153.794 296.96 153.922 297.016 154.018 297.128C154.13 297.224 154.186 297.352 154.186 297.512V301.52H157.162C157.322 301.52 157.45 301.576 157.546 301.688C157.658 301.784 157.714 301.912 157.714 302.072V302.888C157.714 303.048 157.658 303.184 157.546 303.296C157.45 303.392 157.322 303.44 157.162 303.44H154.186V309.608C154.186 310.36 154.314 310.952 154.57 311.384C154.826 311.816 155.282 312.032 155.938 312.032H157.402C157.562 312.032 157.69 312.088 157.786 312.2C157.898 312.296 157.954 312.424 157.954 312.584V313.448C157.954 313.608 157.898 313.744 157.786 313.856C157.69 313.952 157.562 314 157.402 314H155.746ZM165.217 314.24C163.569 314.24 162.257 313.736 161.281 312.728C160.305 311.704 159.769 310.312 159.673 308.552C159.657 308.344 159.649 308.08 159.649 307.76C159.649 307.424 159.657 307.152 159.673 306.944C159.737 305.808 160.001 304.816 160.465 303.968C160.929 303.104 161.561 302.44 162.361 301.976C163.177 301.512 164.129 301.28 165.217 301.28C166.433 301.28 167.449 301.536 168.265 302.048C169.097 302.56 169.729 303.288 170.161 304.232C170.593 305.176 170.809 306.28 170.809 307.544V307.952C170.809 308.128 170.753 308.264 170.641 308.36C170.545 308.456 170.417 308.504 170.257 308.504H161.953C161.953 308.52 161.953 308.552 161.953 308.6C161.953 308.648 161.953 308.688 161.953 308.72C161.985 309.376 162.129 309.992 162.385 310.568C162.641 311.128 163.009 311.584 163.489 311.936C163.969 312.288 164.545 312.464 165.217 312.464C165.793 312.464 166.273 312.376 166.657 312.2C167.041 312.024 167.353 311.832 167.593 311.624C167.833 311.4 167.993 311.232 168.073 311.12C168.217 310.912 168.329 310.792 168.409 310.76C168.489 310.712 168.617 310.688 168.793 310.688H169.945C170.105 310.688 170.233 310.736 170.329 310.832C170.441 310.912 170.489 311.032 170.473 311.192C170.457 311.432 170.329 311.728 170.089 312.08C169.849 312.416 169.505 312.752 169.057 313.088C168.609 313.424 168.065 313.704 167.425 313.928C166.785 314.136 166.049 314.24 165.217 314.24ZM161.953 306.848H168.529V306.776C168.529 306.056 168.393 305.416 168.121 304.856C167.865 304.296 167.489 303.856 166.993 303.536C166.497 303.2 165.905 303.032 165.217 303.032C164.529 303.032 163.937 303.2 163.441 303.536C162.961 303.856 162.593 304.296 162.337 304.856C162.081 305.416 161.953 306.056 161.953 306.776V306.848ZM178.238 314.24C177.358 314.24 176.598 314.088 175.958 313.784C175.318 313.464 174.79 313.04 174.374 312.512C173.974 311.968 173.67 311.352 173.462 310.664C173.27 309.976 173.158 309.248 173.126 308.48C173.11 308.224 173.102 307.984 173.102 307.76C173.102 307.536 173.11 307.296 173.126 307.04C173.158 306.288 173.27 305.568 173.462 304.88C173.67 304.192 173.974 303.576 174.374 303.032C174.79 302.488 175.318 302.064 175.958 301.76C176.598 301.44 177.358 301.28 178.238 301.28C179.182 301.28 179.966 301.448 180.59 301.784C181.214 302.12 181.726 302.536 182.126 303.032V297.512C182.126 297.352 182.174 297.224 182.27 297.128C182.382 297.016 182.518 296.96 182.678 296.96H183.83C183.99 296.96 184.118 297.016 184.214 297.128C184.326 297.224 184.382 297.352 184.382 297.512V313.448C184.382 313.608 184.326 313.744 184.214 313.856C184.118 313.952 183.99 314 183.83 314H182.75C182.574 314 182.438 313.952 182.342 313.856C182.246 313.744 182.198 313.608 182.198 313.448V312.44C181.798 312.952 181.278 313.384 180.638 313.736C179.998 314.072 179.198 314.24 178.238 314.24ZM178.742 312.296C179.542 312.296 180.182 312.112 180.662 311.744C181.142 311.376 181.502 310.912 181.742 310.352C181.982 309.776 182.11 309.192 182.126 308.6C182.142 308.344 182.15 308.04 182.15 307.688C182.15 307.32 182.142 307.008 182.126 306.752C182.11 306.192 181.974 305.64 181.718 305.096C181.478 304.552 181.11 304.104 180.614 303.752C180.134 303.4 179.51 303.224 178.742 303.224C177.926 303.224 177.278 303.408 176.798 303.776C176.318 304.128 175.974 304.6 175.766 305.192C175.558 305.768 175.438 306.392 175.406 307.064C175.39 307.528 175.39 307.992 175.406 308.456C175.438 309.128 175.558 309.76 175.766 310.352C175.974 310.928 176.318 311.4 176.798 311.768C177.278 312.12 177.926 312.296 178.742 312.296ZM194.411 318.56C194.251 318.56 194.115 318.504 194.003 318.392C193.907 318.296 193.859 318.168 193.859 318.008V302.072C193.859 301.912 193.907 301.784 194.003 301.688C194.115 301.576 194.251 301.52 194.411 301.52H195.515C195.675 301.52 195.803 301.576 195.899 301.688C196.011 301.784 196.067 301.912 196.067 302.072V303.128C196.451 302.6 196.963 302.16 197.603 301.808C198.243 301.456 199.043 301.28 200.003 301.28C200.899 301.28 201.659 301.432 202.283 301.736C202.923 302.04 203.443 302.456 203.843 302.984C204.259 303.512 204.571 304.112 204.779 304.784C204.987 305.456 205.099 306.176 205.115 306.944C205.131 307.2 205.139 307.472 205.139 307.76C205.139 308.048 205.131 308.32 205.115 308.576C205.099 309.328 204.987 310.048 204.779 310.736C204.571 311.408 204.259 312.008 203.843 312.536C203.443 313.048 202.923 313.464 202.283 313.784C201.659 314.088 200.899 314.24 200.003 314.24C199.075 314.24 198.291 314.072 197.651 313.736C197.027 313.384 196.515 312.952 196.115 312.44V318.008C196.115 318.168 196.067 318.296 195.971 318.392C195.875 318.504 195.739 318.56 195.563 318.56H194.411ZM199.499 312.296C200.331 312.296 200.979 312.12 201.443 311.768C201.923 311.4 202.267 310.928 202.475 310.352C202.683 309.76 202.803 309.128 202.835 308.456C202.851 307.992 202.851 307.528 202.835 307.064C202.803 306.392 202.683 305.768 202.475 305.192C202.267 304.6 201.923 304.128 201.443 303.776C200.979 303.408 200.331 303.224 199.499 303.224C198.715 303.224 198.075 303.408 197.579 303.776C197.099 304.144 196.739 304.616 196.499 305.192C196.275 305.752 196.147 306.328 196.115 306.92C196.099 307.176 196.091 307.48 196.091 307.832C196.091 308.184 196.099 308.496 196.115 308.768C196.131 309.328 196.259 309.88 196.499 310.424C196.755 310.968 197.131 311.416 197.627 311.768C198.123 312.12 198.747 312.296 199.499 312.296ZM213.243 314.24C212.027 314.24 211.011 314.008 210.195 313.544C209.379 313.08 208.755 312.44 208.323 311.624C207.891 310.792 207.651 309.848 207.603 308.792C207.587 308.52 207.579 308.176 207.579 307.76C207.579 307.328 207.587 306.984 207.603 306.728C207.651 305.656 207.891 304.712 208.323 303.896C208.771 303.08 209.403 302.44 210.219 301.976C211.035 301.512 212.043 301.28 213.243 301.28C214.443 301.28 215.451 301.512 216.267 301.976C217.083 302.44 217.707 303.08 218.139 303.896C218.587 304.712 218.835 305.656 218.883 306.728C218.899 306.984 218.907 307.328 218.907 307.76C218.907 308.176 218.899 308.52 218.883 308.792C218.835 309.848 218.595 310.792 218.163 311.624C217.731 312.44 217.107 313.08 216.291 313.544C215.475 314.008 214.459 314.24 213.243 314.24ZM213.243 312.392C214.235 312.392 215.027 312.08 215.619 311.456C216.211 310.816 216.531 309.888 216.579 308.672C216.595 308.432 216.603 308.128 216.603 307.76C216.603 307.392 216.595 307.088 216.579 306.848C216.531 305.632 216.211 304.712 215.619 304.088C215.027 303.448 214.235 303.128 213.243 303.128C212.251 303.128 211.451 303.448 210.843 304.088C210.251 304.712 209.939 305.632 209.907 306.848C209.891 307.088 209.883 307.392 209.883 307.76C209.883 308.128 209.891 308.432 209.907 308.672C209.939 309.888 210.251 310.816 210.843 311.456C211.451 312.08 212.251 312.392 213.243 312.392ZM226.233 314.24C225.337 314.24 224.569 314.128 223.929 313.904C223.289 313.68 222.769 313.408 222.369 313.088C221.969 312.768 221.665 312.448 221.457 312.128C221.265 311.808 221.161 311.552 221.145 311.36C221.129 311.184 221.185 311.048 221.313 310.952C221.441 310.856 221.569 310.808 221.697 310.808H222.753C222.849 310.808 222.921 310.824 222.969 310.856C223.033 310.872 223.113 310.936 223.209 311.048C223.417 311.272 223.649 311.496 223.905 311.72C224.161 311.944 224.473 312.128 224.841 312.272C225.225 312.416 225.697 312.488 226.257 312.488C227.073 312.488 227.745 312.336 228.273 312.032C228.801 311.712 229.065 311.248 229.065 310.64C229.065 310.24 228.953 309.92 228.729 309.68C228.521 309.44 228.137 309.224 227.577 309.032C227.033 308.84 226.281 308.64 225.321 308.432C224.361 308.208 223.601 307.936 223.041 307.616C222.481 307.28 222.081 306.888 221.841 306.44C221.601 305.976 221.481 305.456 221.481 304.88C221.481 304.288 221.657 303.72 222.009 303.176C222.361 302.616 222.873 302.16 223.545 301.808C224.233 301.456 225.089 301.28 226.113 301.28C226.945 301.28 227.657 301.384 228.249 301.592C228.841 301.8 229.329 302.064 229.713 302.384C230.097 302.688 230.385 302.992 230.577 303.296C230.769 303.6 230.873 303.856 230.889 304.064C230.905 304.224 230.857 304.36 230.745 304.472C230.633 304.568 230.505 304.616 230.361 304.616H229.353C229.241 304.616 229.145 304.592 229.065 304.544C229.001 304.496 228.937 304.44 228.873 304.376C228.713 304.168 228.521 303.96 228.297 303.752C228.089 303.544 227.809 303.376 227.457 303.248C227.121 303.104 226.673 303.032 226.113 303.032C225.313 303.032 224.713 303.2 224.313 303.536C223.913 303.872 223.713 304.296 223.713 304.808C223.713 305.112 223.801 305.384 223.977 305.624C224.153 305.864 224.489 306.08 224.985 306.272C225.481 306.464 226.217 306.672 227.193 306.896C228.249 307.104 229.081 307.384 229.689 307.736C230.297 308.088 230.729 308.496 230.985 308.96C231.241 309.424 231.369 309.96 231.369 310.568C231.369 311.24 231.169 311.856 230.769 312.416C230.385 312.976 229.809 313.424 229.041 313.76C228.289 314.08 227.353 314.24 226.233 314.24ZM238.996 314C238.1 314 237.372 313.832 236.812 313.496C236.252 313.144 235.844 312.656 235.588 312.032C235.332 311.392 235.204 310.64 235.204 309.776V303.44H233.332C233.172 303.44 233.036 303.392 232.924 303.296C232.828 303.184 232.78 303.048 232.78 302.888V302.072C232.78 301.912 232.828 301.784 232.924 301.688C233.036 301.576 233.172 301.52 233.332 301.52H235.204V297.512C235.204 297.352 235.252 297.224 235.348 297.128C235.46 297.016 235.596 296.96 235.756 296.96H236.884C237.044 296.96 237.172 297.016 237.268 297.128C237.38 297.224 237.436 297.352 237.436 297.512V301.52H240.412C240.572 301.52 240.7 301.576 240.796 301.688C240.908 301.784 240.964 301.912 240.964 302.072V302.888C240.964 303.048 240.908 303.184 240.796 303.296C240.7 303.392 240.572 303.44 240.412 303.44H237.436V309.608C237.436 310.36 237.564 310.952 237.82 311.384C238.076 311.816 238.532 312.032 239.188 312.032H240.652C240.812 312.032 240.94 312.088 241.036 312.2C241.148 312.296 241.204 312.424 241.204 312.584V313.448C241.204 313.608 241.148 313.744 241.036 313.856C240.94 313.952 240.812 314 240.652 314H238.996ZM247.819 314.24C246.923 314.24 246.155 314.128 245.515 313.904C244.875 313.68 244.355 313.408 243.955 313.088C243.555 312.768 243.251 312.448 243.043 312.128C242.851 311.808 242.747 311.552 242.731 311.36C242.715 311.184 242.771 311.048 242.899 310.952C243.027 310.856 243.155 310.808 243.283 310.808H244.339C244.435 310.808 244.507 310.824 244.555 310.856C244.619 310.872 244.699 310.936 244.795 311.048C245.003 311.272 245.235 311.496 245.491 311.72C245.747 311.944 246.059 312.128 246.427 312.272C246.811 312.416 247.283 312.488 247.843 312.488C248.659 312.488 249.331 312.336 249.859 312.032C250.387 311.712 250.651 311.248 250.651 310.64C250.651 310.24 250.539 309.92 250.315 309.68C250.107 309.44 249.723 309.224 249.163 309.032C248.619 308.84 247.867 308.64 246.907 308.432C245.947 308.208 245.187 307.936 244.627 307.616C244.067 307.28 243.667 306.888 243.427 306.44C243.187 305.976 243.067 305.456 243.067 304.88C243.067 304.288 243.243 303.72 243.595 303.176C243.947 302.616 244.459 302.16 245.131 301.808C245.819 301.456 246.675 301.28 247.699 301.28C248.531 301.28 249.243 301.384 249.835 301.592C250.427 301.8 250.915 302.064 251.299 302.384C251.683 302.688 251.971 302.992 252.163 303.296C252.355 303.6 252.459 303.856 252.475 304.064C252.491 304.224 252.443 304.36 252.331 304.472C252.219 304.568 252.091 304.616 251.947 304.616H250.939C250.827 304.616 250.731 304.592 250.651 304.544C250.587 304.496 250.523 304.44 250.459 304.376C250.299 304.168 250.107 303.96 249.883 303.752C249.675 303.544 249.395 303.376 249.043 303.248C248.707 303.104 248.259 303.032 247.699 303.032C246.899 303.032 246.299 303.2 245.899 303.536C245.499 303.872 245.299 304.296 245.299 304.808C245.299 305.112 245.387 305.384 245.563 305.624C245.739 305.864 246.075 306.08 246.571 306.272C247.067 306.464 247.803 306.672 248.779 306.896C249.835 307.104 250.667 307.384 251.275 307.736C251.883 308.088 252.315 308.496 252.571 308.96C252.827 309.424 252.955 309.96 252.955 310.568C252.955 311.24 252.755 311.856 252.355 312.416C251.971 312.976 251.395 313.424 250.627 313.76C249.875 314.08 248.939 314.24 247.819 314.24Z" fill="#76AAEB"/>
<path d="M104.062 359H102.617V349.656C102.617 349.047 102.727 348.534 102.945 348.117C103.169 347.695 103.49 347.378 103.906 347.164C104.323 346.945 104.818 346.836 105.391 346.836C105.557 346.836 105.724 346.846 105.891 346.867C106.062 346.888 106.229 346.919 106.391 346.961L106.312 348.141C106.203 348.115 106.078 348.096 105.938 348.086C105.802 348.076 105.667 348.07 105.531 348.07C105.224 348.07 104.958 348.133 104.734 348.258C104.516 348.378 104.349 348.555 104.234 348.789C104.12 349.023 104.062 349.312 104.062 349.656V359ZM105.859 350.547V351.656H101.281V350.547H105.859ZM107.086 354.867V354.688C107.086 354.078 107.174 353.513 107.352 352.992C107.529 352.466 107.784 352.01 108.117 351.625C108.451 351.234 108.854 350.932 109.328 350.719C109.802 350.5 110.333 350.391 110.922 350.391C111.516 350.391 112.049 350.5 112.523 350.719C113.003 350.932 113.409 351.234 113.742 351.625C114.081 352.01 114.339 352.466 114.516 352.992C114.693 353.513 114.781 354.078 114.781 354.688V354.867C114.781 355.477 114.693 356.042 114.516 356.562C114.339 357.083 114.081 357.539 113.742 357.93C113.409 358.315 113.005 358.617 112.531 358.836C112.062 359.049 111.531 359.156 110.938 359.156C110.344 359.156 109.81 359.049 109.336 358.836C108.862 358.617 108.456 358.315 108.117 357.93C107.784 357.539 107.529 357.083 107.352 356.562C107.174 356.042 107.086 355.477 107.086 354.867ZM108.531 354.688V354.867C108.531 355.289 108.581 355.688 108.68 356.062C108.779 356.432 108.927 356.76 109.125 357.047C109.328 357.333 109.581 357.56 109.883 357.727C110.185 357.888 110.536 357.969 110.938 357.969C111.333 357.969 111.68 357.888 111.977 357.727C112.279 357.56 112.529 357.333 112.727 357.047C112.924 356.76 113.073 356.432 113.172 356.062C113.276 355.688 113.328 355.289 113.328 354.867V354.688C113.328 354.271 113.276 353.878 113.172 353.508C113.073 353.133 112.922 352.802 112.719 352.516C112.521 352.224 112.271 351.995 111.969 351.828C111.672 351.661 111.323 351.578 110.922 351.578C110.526 351.578 110.177 351.661 109.875 351.828C109.578 351.995 109.328 352.224 109.125 352.516C108.927 352.802 108.779 353.133 108.68 353.508C108.581 353.878 108.531 354.271 108.531 354.688ZM118.039 351.875V359H116.594V350.547H118L118.039 351.875ZM120.68 350.5L120.672 351.844C120.552 351.818 120.438 351.802 120.328 351.797C120.224 351.786 120.104 351.781 119.969 351.781C119.635 351.781 119.341 351.833 119.086 351.938C118.831 352.042 118.615 352.188 118.438 352.375C118.26 352.562 118.12 352.786 118.016 353.047C117.917 353.302 117.852 353.583 117.82 353.891L117.414 354.125C117.414 353.615 117.464 353.135 117.562 352.688C117.667 352.24 117.826 351.844 118.039 351.5C118.253 351.151 118.523 350.88 118.852 350.688C119.185 350.49 119.581 350.391 120.039 350.391C120.143 350.391 120.263 350.404 120.398 350.43C120.534 350.451 120.628 350.474 120.68 350.5ZM129.523 350.547V351.656H124.953V350.547H129.523ZM126.5 348.492H127.945V356.906C127.945 357.193 127.99 357.409 128.078 357.555C128.167 357.701 128.281 357.797 128.422 357.844C128.562 357.891 128.714 357.914 128.875 357.914C128.995 357.914 129.12 357.904 129.25 357.883C129.385 357.857 129.487 357.836 129.555 357.82L129.562 359C129.448 359.036 129.297 359.07 129.109 359.102C128.927 359.138 128.706 359.156 128.445 359.156C128.091 359.156 127.766 359.086 127.469 358.945C127.172 358.805 126.935 358.57 126.758 358.242C126.586 357.909 126.5 357.461 126.5 356.898V348.492ZM132.664 347V359H131.219V347H132.664ZM132.32 354.453L131.719 354.43C131.724 353.852 131.81 353.318 131.977 352.828C132.143 352.333 132.378 351.904 132.68 351.539C132.982 351.174 133.341 350.893 133.758 350.695C134.18 350.492 134.646 350.391 135.156 350.391C135.573 350.391 135.948 350.448 136.281 350.562C136.615 350.672 136.898 350.849 137.133 351.094C137.372 351.339 137.555 351.656 137.68 352.047C137.805 352.432 137.867 352.904 137.867 353.461V359H136.414V353.445C136.414 353.003 136.349 352.648 136.219 352.383C136.089 352.112 135.898 351.917 135.648 351.797C135.398 351.672 135.091 351.609 134.727 351.609C134.367 351.609 134.039 351.685 133.742 351.836C133.451 351.987 133.198 352.195 132.984 352.461C132.776 352.727 132.612 353.031 132.492 353.375C132.378 353.714 132.32 354.073 132.32 354.453ZM143.539 359.156C142.951 359.156 142.417 359.057 141.938 358.859C141.464 358.656 141.055 358.372 140.711 358.008C140.372 357.643 140.112 357.211 139.93 356.711C139.747 356.211 139.656 355.664 139.656 355.07V354.742C139.656 354.055 139.758 353.443 139.961 352.906C140.164 352.365 140.44 351.906 140.789 351.531C141.138 351.156 141.534 350.872 141.977 350.68C142.419 350.487 142.878 350.391 143.352 350.391C143.956 350.391 144.477 350.495 144.914 350.703C145.357 350.911 145.719 351.203 146 351.578C146.281 351.948 146.49 352.385 146.625 352.891C146.76 353.391 146.828 353.938 146.828 354.531V355.18H140.516V354H145.383V353.891C145.362 353.516 145.284 353.151 145.148 352.797C145.018 352.443 144.81 352.151 144.523 351.922C144.237 351.693 143.846 351.578 143.352 351.578C143.023 351.578 142.721 351.648 142.445 351.789C142.169 351.924 141.932 352.128 141.734 352.398C141.536 352.669 141.383 353 141.273 353.391C141.164 353.781 141.109 354.232 141.109 354.742V355.07C141.109 355.471 141.164 355.849 141.273 356.203C141.388 356.552 141.552 356.859 141.766 357.125C141.984 357.391 142.247 357.599 142.555 357.75C142.867 357.901 143.221 357.977 143.617 357.977C144.128 357.977 144.56 357.872 144.914 357.664C145.268 357.456 145.578 357.177 145.844 356.828L146.719 357.523C146.536 357.799 146.305 358.062 146.023 358.312C145.742 358.562 145.396 358.766 144.984 358.922C144.578 359.078 144.096 359.156 143.539 359.156ZM154.414 359H152.969V349.812C152.969 349.172 153.094 348.63 153.344 348.188C153.594 347.745 153.951 347.409 154.414 347.18C154.878 346.951 155.427 346.836 156.062 346.836C156.438 346.836 156.805 346.883 157.164 346.977C157.523 347.065 157.893 347.177 158.273 347.312L158.031 348.531C157.792 348.438 157.513 348.349 157.195 348.266C156.883 348.177 156.539 348.133 156.164 348.133C155.544 348.133 155.096 348.273 154.82 348.555C154.549 348.831 154.414 349.25 154.414 349.812V359ZM156.141 350.547V351.656H151.633V350.547H156.141ZM158.984 350.547V359H157.539V350.547H158.984ZM162.805 351.875V359H161.359V350.547H162.766L162.805 351.875ZM165.445 350.5L165.438 351.844C165.318 351.818 165.203 351.802 165.094 351.797C164.99 351.786 164.87 351.781 164.734 351.781C164.401 351.781 164.107 351.833 163.852 351.938C163.596 352.042 163.38 352.188 163.203 352.375C163.026 352.562 162.885 352.786 162.781 353.047C162.682 353.302 162.617 353.583 162.586 353.891L162.18 354.125C162.18 353.615 162.229 353.135 162.328 352.688C162.432 352.24 162.591 351.844 162.805 351.5C163.018 351.151 163.289 350.88 163.617 350.688C163.951 350.49 164.346 350.391 164.805 350.391C164.909 350.391 165.029 350.404 165.164 350.43C165.299 350.451 165.393 350.474 165.445 350.5ZM171.703 356.758C171.703 356.549 171.656 356.357 171.562 356.18C171.474 355.997 171.289 355.833 171.008 355.688C170.732 355.536 170.315 355.406 169.758 355.297C169.289 355.198 168.865 355.081 168.484 354.945C168.109 354.81 167.789 354.646 167.523 354.453C167.263 354.26 167.062 354.034 166.922 353.773C166.781 353.513 166.711 353.208 166.711 352.859C166.711 352.526 166.784 352.211 166.93 351.914C167.081 351.617 167.292 351.354 167.562 351.125C167.839 350.896 168.169 350.716 168.555 350.586C168.94 350.456 169.37 350.391 169.844 350.391C170.521 350.391 171.099 350.51 171.578 350.75C172.057 350.99 172.424 351.31 172.68 351.711C172.935 352.107 173.062 352.547 173.062 353.031H171.617C171.617 352.797 171.547 352.57 171.406 352.352C171.271 352.128 171.07 351.943 170.805 351.797C170.544 351.651 170.224 351.578 169.844 351.578C169.443 351.578 169.117 351.641 168.867 351.766C168.622 351.885 168.443 352.039 168.328 352.227C168.219 352.414 168.164 352.612 168.164 352.82C168.164 352.977 168.19 353.117 168.242 353.242C168.299 353.362 168.398 353.474 168.539 353.578C168.68 353.677 168.878 353.771 169.133 353.859C169.388 353.948 169.714 354.036 170.109 354.125C170.802 354.281 171.372 354.469 171.82 354.688C172.268 354.906 172.602 355.174 172.82 355.492C173.039 355.81 173.148 356.195 173.148 356.648C173.148 357.018 173.07 357.357 172.914 357.664C172.763 357.971 172.542 358.237 172.25 358.461C171.964 358.68 171.62 358.852 171.219 358.977C170.823 359.096 170.378 359.156 169.883 359.156C169.138 359.156 168.508 359.023 167.992 358.758C167.477 358.492 167.086 358.148 166.82 357.727C166.555 357.305 166.422 356.859 166.422 356.391H167.875C167.896 356.786 168.01 357.102 168.219 357.336C168.427 357.565 168.682 357.729 168.984 357.828C169.286 357.922 169.586 357.969 169.883 357.969C170.279 357.969 170.609 357.917 170.875 357.812C171.146 357.708 171.352 357.565 171.492 357.383C171.633 357.201 171.703 356.992 171.703 356.758ZM178.586 350.547V351.656H174.016V350.547H178.586ZM175.562 348.492H177.008V356.906C177.008 357.193 177.052 357.409 177.141 357.555C177.229 357.701 177.344 357.797 177.484 357.844C177.625 357.891 177.776 357.914 177.938 357.914C178.057 357.914 178.182 357.904 178.312 357.883C178.448 357.857 178.549 357.836 178.617 357.82L178.625 359C178.51 359.036 178.359 359.07 178.172 359.102C177.99 359.138 177.768 359.156 177.508 359.156C177.154 359.156 176.828 359.086 176.531 358.945C176.234 358.805 175.997 358.57 175.82 358.242C175.648 357.909 175.562 357.461 175.562 356.898V348.492ZM185.688 352.227V359H184.234V350.547H185.609L185.688 352.227ZM185.391 354.453L184.719 354.43C184.724 353.852 184.799 353.318 184.945 352.828C185.091 352.333 185.307 351.904 185.594 351.539C185.88 351.174 186.237 350.893 186.664 350.695C187.091 350.492 187.586 350.391 188.148 350.391C188.544 350.391 188.909 350.448 189.242 350.562C189.576 350.672 189.865 350.846 190.109 351.086C190.354 351.326 190.544 351.633 190.68 352.008C190.815 352.383 190.883 352.836 190.883 353.367V359H189.438V353.438C189.438 352.995 189.362 352.641 189.211 352.375C189.065 352.109 188.857 351.917 188.586 351.797C188.315 351.672 187.997 351.609 187.633 351.609C187.206 351.609 186.849 351.685 186.562 351.836C186.276 351.987 186.047 352.195 185.875 352.461C185.703 352.727 185.578 353.031 185.5 353.375C185.427 353.714 185.391 354.073 185.391 354.453ZM190.867 353.656L189.898 353.953C189.904 353.49 189.979 353.044 190.125 352.617C190.276 352.19 190.492 351.81 190.773 351.477C191.06 351.143 191.411 350.88 191.828 350.688C192.245 350.49 192.721 350.391 193.258 350.391C193.711 350.391 194.112 350.451 194.461 350.57C194.815 350.69 195.112 350.875 195.352 351.125C195.596 351.37 195.781 351.685 195.906 352.07C196.031 352.456 196.094 352.914 196.094 353.445V359H194.641V353.43C194.641 352.956 194.565 352.589 194.414 352.328C194.268 352.062 194.06 351.878 193.789 351.773C193.523 351.664 193.206 351.609 192.836 351.609C192.518 351.609 192.237 351.664 191.992 351.773C191.747 351.883 191.542 352.034 191.375 352.227C191.208 352.414 191.081 352.63 190.992 352.875C190.909 353.12 190.867 353.38 190.867 353.656ZM197.898 354.867V354.688C197.898 354.078 197.987 353.513 198.164 352.992C198.341 352.466 198.596 352.01 198.93 351.625C199.263 351.234 199.667 350.932 200.141 350.719C200.615 350.5 201.146 350.391 201.734 350.391C202.328 350.391 202.862 350.5 203.336 350.719C203.815 350.932 204.221 351.234 204.555 351.625C204.893 352.01 205.151 352.466 205.328 352.992C205.505 353.513 205.594 354.078 205.594 354.688V354.867C205.594 355.477 205.505 356.042 205.328 356.562C205.151 357.083 204.893 357.539 204.555 357.93C204.221 358.315 203.818 358.617 203.344 358.836C202.875 359.049 202.344 359.156 201.75 359.156C201.156 359.156 200.622 359.049 200.148 358.836C199.674 358.617 199.268 358.315 198.93 357.93C198.596 357.539 198.341 357.083 198.164 356.562C197.987 356.042 197.898 355.477 197.898 354.867ZM199.344 354.688V354.867C199.344 355.289 199.393 355.688 199.492 356.062C199.591 356.432 199.74 356.76 199.938 357.047C200.141 357.333 200.393 357.56 200.695 357.727C200.997 357.888 201.349 357.969 201.75 357.969C202.146 357.969 202.492 357.888 202.789 357.727C203.091 357.56 203.341 357.333 203.539 357.047C203.737 356.76 203.885 356.432 203.984 356.062C204.089 355.688 204.141 355.289 204.141 354.867V354.688C204.141 354.271 204.089 353.878 203.984 353.508C203.885 353.133 203.734 352.802 203.531 352.516C203.333 352.224 203.083 351.995 202.781 351.828C202.484 351.661 202.135 351.578 201.734 351.578C201.339 351.578 200.99 351.661 200.688 351.828C200.391 351.995 200.141 352.224 199.938 352.516C199.74 352.802 199.591 353.133 199.492 353.508C199.393 353.878 199.344 354.271 199.344 354.688ZM208.852 352.352V359H207.406V350.547H208.773L208.852 352.352ZM208.508 354.453L207.906 354.43C207.911 353.852 207.997 353.318 208.164 352.828C208.331 352.333 208.565 351.904 208.867 351.539C209.169 351.174 209.529 350.893 209.945 350.695C210.367 350.492 210.833 350.391 211.344 350.391C211.76 350.391 212.135 350.448 212.469 350.562C212.802 350.672 213.086 350.849 213.32 351.094C213.56 351.339 213.742 351.656 213.867 352.047C213.992 352.432 214.055 352.904 214.055 353.461V359H212.602V353.445C212.602 353.003 212.536 352.648 212.406 352.383C212.276 352.112 212.086 351.917 211.836 351.797C211.586 351.672 211.279 351.609 210.914 351.609C210.555 351.609 210.227 351.685 209.93 351.836C209.638 351.987 209.385 352.195 209.172 352.461C208.964 352.727 208.799 353.031 208.68 353.375C208.565 353.714 208.508 354.073 208.508 354.453ZM219.789 350.547V351.656H215.219V350.547H219.789ZM216.766 348.492H218.211V356.906C218.211 357.193 218.255 357.409 218.344 357.555C218.432 357.701 218.547 357.797 218.688 357.844C218.828 357.891 218.979 357.914 219.141 357.914C219.26 357.914 219.385 357.904 219.516 357.883C219.651 357.857 219.753 357.836 219.82 357.82L219.828 359C219.714 359.036 219.562 359.07 219.375 359.102C219.193 359.138 218.971 359.156 218.711 359.156C218.357 359.156 218.031 359.086 217.734 358.945C217.438 358.805 217.201 358.57 217.023 358.242C216.852 357.909 216.766 357.461 216.766 356.898V348.492ZM222.93 347V359H221.484V347H222.93ZM222.586 354.453L221.984 354.43C221.99 353.852 222.076 353.318 222.242 352.828C222.409 352.333 222.643 351.904 222.945 351.539C223.247 351.174 223.607 350.893 224.023 350.695C224.445 350.492 224.911 350.391 225.422 350.391C225.839 350.391 226.214 350.448 226.547 350.562C226.88 350.672 227.164 350.849 227.398 351.094C227.638 351.339 227.82 351.656 227.945 352.047C228.07 352.432 228.133 352.904 228.133 353.461V359H226.68V353.445C226.68 353.003 226.615 352.648 226.484 352.383C226.354 352.112 226.164 351.917 225.914 351.797C225.664 351.672 225.357 351.609 224.992 351.609C224.633 351.609 224.305 351.685 224.008 351.836C223.716 351.987 223.464 352.195 223.25 352.461C223.042 352.727 222.878 353.031 222.758 353.375C222.643 353.714 222.586 354.073 222.586 354.453Z" fill="#767272"/>
</svg>
