<svg width="269" height="166" viewBox="0 0 269 166" fill="none" xmlns="http://www.w3.org/2000/svg">
<path d="M58.653 152.812V154H51.2077V152.961L54.9343 148.812C55.3926 148.302 55.7468 147.87 55.9968 147.516C56.252 147.156 56.4291 146.836 56.528 146.555C56.6322 146.268 56.6843 145.977 56.6843 145.68C56.6843 145.305 56.6062 144.966 56.4499 144.664C56.2989 144.357 56.0749 144.112 55.778 143.93C55.4812 143.747 55.1218 143.656 54.6999 143.656C54.1947 143.656 53.7728 143.755 53.4343 143.953C53.101 144.146 52.851 144.417 52.6843 144.766C52.5176 145.115 52.4343 145.516 52.4343 145.969H50.989C50.989 145.328 51.1296 144.742 51.4109 144.211C51.6921 143.68 52.1088 143.258 52.6609 142.945C53.2129 142.628 53.8926 142.469 54.6999 142.469C55.4187 142.469 56.0332 142.596 56.5437 142.852C57.0541 143.102 57.4447 143.456 57.7155 143.914C57.9916 144.367 58.1296 144.898 58.1296 145.508C58.1296 145.841 58.0723 146.18 57.9577 146.523C57.8484 146.862 57.6947 147.201 57.4968 147.539C57.3041 147.878 57.0775 148.211 56.8171 148.539C56.5619 148.867 56.2885 149.19 55.9968 149.508L52.9499 152.812H58.653ZM67.3405 147.406V149.141C67.3405 150.073 67.2572 150.859 67.0905 151.5C66.9239 152.141 66.6843 152.656 66.3718 153.047C66.0593 153.438 65.6817 153.721 65.239 153.898C64.8015 154.07 64.3067 154.156 63.7546 154.156C63.3171 154.156 62.9135 154.102 62.5437 153.992C62.1739 153.883 61.8405 153.708 61.5437 153.469C61.252 153.224 61.002 152.906 60.7937 152.516C60.5853 152.125 60.4265 151.651 60.3171 151.094C60.2077 150.536 60.153 149.885 60.153 149.141V147.406C60.153 146.474 60.2364 145.693 60.403 145.062C60.5749 144.432 60.8171 143.927 61.1296 143.547C61.4421 143.161 61.8171 142.885 62.2546 142.719C62.6973 142.552 63.1921 142.469 63.739 142.469C64.1817 142.469 64.5879 142.523 64.9577 142.633C65.3327 142.737 65.6661 142.906 65.9577 143.141C66.2494 143.37 66.4968 143.677 66.6999 144.062C66.9082 144.443 67.0671 144.909 67.1765 145.461C67.2859 146.013 67.3405 146.661 67.3405 147.406ZM65.8874 149.375V147.164C65.8874 146.654 65.8562 146.206 65.7937 145.82C65.7364 145.43 65.6504 145.096 65.5359 144.82C65.4213 144.544 65.2754 144.32 65.0984 144.148C64.9265 143.977 64.726 143.852 64.4968 143.773C64.2728 143.69 64.0202 143.648 63.739 143.648C63.3952 143.648 63.0905 143.714 62.8249 143.844C62.5593 143.969 62.3353 144.169 62.153 144.445C61.976 144.721 61.8405 145.083 61.7468 145.531C61.653 145.979 61.6062 146.523 61.6062 147.164V149.375C61.6062 149.885 61.6348 150.336 61.6921 150.727C61.7546 151.117 61.8457 151.456 61.9655 151.742C62.0853 152.023 62.2312 152.255 62.403 152.438C62.5749 152.62 62.7728 152.755 62.9968 152.844C63.226 152.927 63.4786 152.969 63.7546 152.969C64.1088 152.969 64.4187 152.901 64.6843 152.766C64.9499 152.63 65.1713 152.419 65.3484 152.133C65.5306 151.841 65.6661 151.469 65.7546 151.016C65.8431 150.557 65.8874 150.01 65.8874 149.375ZM76.653 152.812V154H69.2077V152.961L72.9343 148.812C73.3926 148.302 73.7468 147.87 73.9968 147.516C74.252 147.156 74.4291 146.836 74.528 146.555C74.6322 146.268 74.6843 145.977 74.6843 145.68C74.6843 145.305 74.6062 144.966 74.4499 144.664C74.2989 144.357 74.0749 144.112 73.778 143.93C73.4812 143.747 73.1218 143.656 72.6999 143.656C72.1947 143.656 71.7728 143.755 71.4343 143.953C71.101 144.146 70.851 144.417 70.6843 144.766C70.5176 145.115 70.4343 145.516 70.4343 145.969H68.989C68.989 145.328 69.1296 144.742 69.4109 144.211C69.6921 143.68 70.1088 143.258 70.6609 142.945C71.2129 142.628 71.8926 142.469 72.6999 142.469C73.4187 142.469 74.0332 142.596 74.5437 142.852C75.0541 143.102 75.4447 143.456 75.7155 143.914C75.9916 144.367 76.1296 144.898 76.1296 145.508C76.1296 145.841 76.0723 146.18 75.9577 146.523C75.8484 146.862 75.6947 147.201 75.4968 147.539C75.3041 147.878 75.0775 148.211 74.8171 148.539C74.5619 148.867 74.2885 149.19 73.9968 149.508L70.9499 152.812H76.653ZM85.3405 147.406V149.141C85.3405 150.073 85.2572 150.859 85.0905 151.5C84.9239 152.141 84.6843 152.656 84.3718 153.047C84.0593 153.438 83.6817 153.721 83.239 153.898C82.8015 154.07 82.3067 154.156 81.7546 154.156C81.3171 154.156 80.9135 154.102 80.5437 153.992C80.1739 153.883 79.8405 153.708 79.5437 153.469C79.252 153.224 79.002 152.906 78.7937 152.516C78.5853 152.125 78.4265 151.651 78.3171 151.094C78.2077 150.536 78.153 149.885 78.153 149.141V147.406C78.153 146.474 78.2364 145.693 78.403 145.062C78.5749 144.432 78.8171 143.927 79.1296 143.547C79.4421 143.161 79.8171 142.885 80.2546 142.719C80.6973 142.552 81.1921 142.469 81.739 142.469C82.1817 142.469 82.5879 142.523 82.9577 142.633C83.3327 142.737 83.6661 142.906 83.9577 143.141C84.2494 143.37 84.4968 143.677 84.6999 144.062C84.9082 144.443 85.0671 144.909 85.1765 145.461C85.2859 146.013 85.3405 146.661 85.3405 147.406ZM83.8874 149.375V147.164C83.8874 146.654 83.8562 146.206 83.7937 145.82C83.7364 145.43 83.6504 145.096 83.5359 144.82C83.4213 144.544 83.2754 144.32 83.0984 144.148C82.9265 143.977 82.726 143.852 82.4968 143.773C82.2728 143.69 82.0202 143.648 81.739 143.648C81.3952 143.648 81.0905 143.714 80.8249 143.844C80.5593 143.969 80.3353 144.169 80.153 144.445C79.976 144.721 79.8405 145.083 79.7468 145.531C79.653 145.979 79.6062 146.523 79.6062 147.164V149.375C79.6062 149.885 79.6348 150.336 79.6921 150.727C79.7546 151.117 79.8457 151.456 79.9655 151.742C80.0853 152.023 80.2312 152.255 80.403 152.438C80.5749 152.62 80.7728 152.755 80.9968 152.844C81.226 152.927 81.4786 152.969 81.7546 152.969C82.1088 152.969 82.4187 152.901 82.6843 152.766C82.9499 152.63 83.1713 152.419 83.3484 152.133C83.5306 151.841 83.6661 151.469 83.7546 151.016C83.8431 150.557 83.8874 150.01 83.8874 149.375Z" fill="#767272"/>
<path d="M192.144 152.812V154H184.699V152.961L188.425 148.812C188.883 148.302 189.238 147.87 189.488 147.516C189.743 147.156 189.92 146.836 190.019 146.555C190.123 146.268 190.175 145.977 190.175 145.68C190.175 145.305 190.097 144.966 189.941 144.664C189.79 144.357 189.566 144.112 189.269 143.93C188.972 143.747 188.613 143.656 188.191 143.656C187.686 143.656 187.264 143.755 186.925 143.953C186.592 144.146 186.342 144.417 186.175 144.766C186.008 145.115 185.925 145.516 185.925 145.969H184.48C184.48 145.328 184.62 144.742 184.902 144.211C185.183 143.68 185.6 143.258 186.152 142.945C186.704 142.628 187.383 142.469 188.191 142.469C188.91 142.469 189.524 142.596 190.035 142.852C190.545 143.102 190.936 143.456 191.206 143.914C191.482 144.367 191.62 144.898 191.62 145.508C191.62 145.841 191.563 146.18 191.449 146.523C191.339 146.862 191.186 147.201 190.988 147.539C190.795 147.878 190.568 148.211 190.308 148.539C190.053 148.867 189.779 149.19 189.488 149.508L186.441 152.812H192.144ZM200.831 147.406V149.141C200.831 150.073 200.748 150.859 200.581 151.5C200.415 152.141 200.175 152.656 199.863 153.047C199.55 153.438 199.173 153.721 198.73 153.898C198.292 154.07 197.798 154.156 197.245 154.156C196.808 154.156 196.404 154.102 196.035 153.992C195.665 153.883 195.331 153.708 195.035 153.469C194.743 153.224 194.493 152.906 194.285 152.516C194.076 152.125 193.917 151.651 193.808 151.094C193.699 150.536 193.644 149.885 193.644 149.141V147.406C193.644 146.474 193.727 145.693 193.894 145.062C194.066 144.432 194.308 143.927 194.62 143.547C194.933 143.161 195.308 142.885 195.745 142.719C196.188 142.552 196.683 142.469 197.23 142.469C197.673 142.469 198.079 142.523 198.449 142.633C198.824 142.737 199.157 142.906 199.449 143.141C199.74 143.37 199.988 143.677 200.191 144.062C200.399 144.443 200.558 144.909 200.667 145.461C200.777 146.013 200.831 146.661 200.831 147.406ZM199.378 149.375V147.164C199.378 146.654 199.347 146.206 199.285 145.82C199.227 145.43 199.141 145.096 199.027 144.82C198.912 144.544 198.766 144.32 198.589 144.148C198.417 143.977 198.217 143.852 197.988 143.773C197.764 143.69 197.511 143.648 197.23 143.648C196.886 143.648 196.581 143.714 196.316 143.844C196.05 143.969 195.826 144.169 195.644 144.445C195.467 144.721 195.331 145.083 195.238 145.531C195.144 145.979 195.097 146.523 195.097 147.164V149.375C195.097 149.885 195.126 150.336 195.183 150.727C195.245 151.117 195.337 151.456 195.456 151.742C195.576 152.023 195.722 152.255 195.894 152.438C196.066 152.62 196.264 152.755 196.488 152.844C196.717 152.927 196.969 152.969 197.245 152.969C197.6 152.969 197.91 152.901 198.175 152.766C198.441 152.63 198.662 152.419 198.839 152.133C199.021 151.841 199.157 151.469 199.245 151.016C199.334 150.557 199.378 150.01 199.378 149.375ZM210.144 152.812V154H202.699V152.961L206.425 148.812C206.883 148.302 207.238 147.87 207.488 147.516C207.743 147.156 207.92 146.836 208.019 146.555C208.123 146.268 208.175 145.977 208.175 145.68C208.175 145.305 208.097 144.966 207.941 144.664C207.79 144.357 207.566 144.112 207.269 143.93C206.972 143.747 206.613 143.656 206.191 143.656C205.686 143.656 205.264 143.755 204.925 143.953C204.592 144.146 204.342 144.417 204.175 144.766C204.008 145.115 203.925 145.516 203.925 145.969H202.48C202.48 145.328 202.62 144.742 202.902 144.211C203.183 143.68 203.6 143.258 204.152 142.945C204.704 142.628 205.383 142.469 206.191 142.469C206.91 142.469 207.524 142.596 208.035 142.852C208.545 143.102 208.936 143.456 209.206 143.914C209.482 144.367 209.62 144.898 209.62 145.508C209.62 145.841 209.563 146.18 209.449 146.523C209.339 146.862 209.186 147.201 208.988 147.539C208.795 147.878 208.568 148.211 208.308 148.539C208.053 148.867 207.779 149.19 207.488 149.508L204.441 152.812H210.144ZM216.441 142.562V154H214.995V144.367L212.081 145.43V144.125L216.214 142.562H216.441Z" fill="#767272"/>
<rect x="2" y="33" width="265.018" height="1" fill="#C3CDCA"/>
<rect x="2" y="66" width="265.018" height="1" fill="#C3CDCA"/>
<rect x="2" y="99" width="265.018" height="1" fill="#C3CDCA"/>
<rect x="2" y="132" width="265.018" height="1" fill="#C3CDCA"/>
<rect x="134.509" width="0.98155" height="166" fill="#C3CDCA"/>
<path d="M2 99.3564L21.3191 78.2822L39.6475 74.3614L59.9573 117L81.2578 93.9653L102.063 110.139L122.868 56.2277L143.178 70.9307L164.479 39.0743L185.779 52.3069L205.594 28.2921L227.389 39.0743L247.204 23.8812L267.018 18" stroke="#475996" stroke-width="3" stroke-linecap="round"/>
</svg>
