<svg width="330" height="391" viewBox="0 0 330 391" fill="none" xmlns="http://www.w3.org/2000/svg">
<rect width="330" height="391" rx="8" fill="white"/>
<rect x="129.998" y="48" width="70.0049" height="70" rx="35" fill="#D83A6A"/>
<path d="M165.002 77.3595C161.88 77.3595 159.362 79.8778 159.362 83C159.362 86.1222 161.88 88.6405 165.002 88.6405C168.125 88.6405 170.643 86.1222 170.643 83C170.643 79.8778 168.125 77.3595 165.002 77.3595ZM165.002 86.6671C162.985 86.6671 161.335 85.0225 161.335 83C161.335 80.9775 162.98 79.3329 165.002 79.3329C167.025 79.3329 168.67 80.9775 168.67 83C168.67 85.0225 167.02 86.6671 165.002 86.6671V86.6671ZM172.189 77.1288C172.189 77.8602 171.6 78.4444 170.874 78.4444C170.142 78.4444 169.558 77.8553 169.558 77.1288C169.558 76.4022 170.147 75.8131 170.874 75.8131C171.6 75.8131 172.189 76.4022 172.189 77.1288ZM175.925 78.464C175.842 76.7017 175.439 75.1406 174.148 73.8544C172.862 72.5682 171.301 72.1657 169.538 72.0773C167.722 71.9742 162.278 71.9742 160.462 72.0773C158.704 72.1608 157.143 72.5633 155.852 73.8495C154.561 75.1357 154.163 76.6968 154.075 78.4591C153.972 80.2755 153.972 85.7196 154.075 87.536C154.158 89.2983 154.561 90.8594 155.852 92.1456C157.143 93.4318 158.699 93.8343 160.462 93.9227C162.278 94.0258 167.722 94.0258 169.538 93.9227C171.301 93.8392 172.862 93.4367 174.148 92.1456C175.434 90.8594 175.837 89.2983 175.925 87.536C176.028 85.7196 176.028 80.2804 175.925 78.464V78.464ZM173.579 89.4849C173.196 90.4471 172.454 91.1883 171.487 91.5761C170.039 92.1505 166.603 92.018 165.002 92.018C163.402 92.018 159.961 92.1456 158.518 91.5761C157.555 91.1932 156.814 90.452 156.426 89.4849C155.852 88.0367 155.985 84.6004 155.985 83C155.985 81.3996 155.857 77.9584 156.426 76.5151C156.809 75.5529 157.55 74.8117 158.518 74.4239C159.966 73.8495 163.402 73.982 165.002 73.982C166.603 73.982 170.044 73.8544 171.487 74.4239C172.45 74.8068 173.191 75.548 173.579 76.5151C174.153 77.9633 174.02 81.3996 174.02 83C174.02 84.6004 174.153 88.0416 173.579 89.4849Z" fill="white"/>
<path d="M72.8491 156C72.7171 156 72.6151 155.964 72.5431 155.892C72.4711 155.808 72.4351 155.706 72.4351 155.586V143.832C72.4351 143.7 72.4711 143.598 72.5431 143.526C72.6151 143.442 72.7171 143.4 72.8491 143.4H77.4211C78.3091 143.4 79.0771 143.544 79.7251 143.832C80.3851 144.12 80.8951 144.552 81.2551 145.128C81.6151 145.692 81.7951 146.4 81.7951 147.252C81.7951 148.104 81.6151 148.812 81.2551 149.376C80.8951 149.94 80.3851 150.366 79.7251 150.654C79.0771 150.942 78.3091 151.086 77.4211 151.086H74.2351V155.586C74.2351 155.706 74.1931 155.808 74.1091 155.892C74.0371 155.964 73.9351 156 73.8031 156H72.8491ZM74.2171 149.574H77.3311C78.2191 149.574 78.8851 149.376 79.3291 148.98C79.7731 148.584 79.9951 148.008 79.9951 147.252C79.9951 146.508 79.7791 145.932 79.3471 145.524C78.9151 145.116 78.2431 144.912 77.3311 144.912H74.2171V149.574ZM84.164 156C84.044 156 83.942 155.964 83.858 155.892C83.786 155.808 83.75 155.706 83.75 155.586V147.072C83.75 146.952 83.786 146.85 83.858 146.766C83.942 146.682 84.044 146.64 84.164 146.64H84.992C85.112 146.64 85.214 146.682 85.298 146.766C85.382 146.85 85.424 146.952 85.424 147.072V147.864C85.664 147.456 85.994 147.15 86.414 146.946C86.834 146.742 87.338 146.64 87.926 146.64H88.646C88.766 146.64 88.862 146.682 88.934 146.766C89.006 146.838 89.042 146.934 89.042 147.054V147.792C89.042 147.912 89.006 148.008 88.934 148.08C88.862 148.152 88.766 148.188 88.646 148.188H87.566C86.918 148.188 86.408 148.38 86.036 148.764C85.664 149.136 85.478 149.646 85.478 150.294V155.586C85.478 155.706 85.436 155.808 85.352 155.892C85.268 155.964 85.166 156 85.046 156H84.164ZM94.2461 156.18C93.3341 156.18 92.5721 156.006 91.9601 155.658C91.3481 155.31 90.8801 154.83 90.5561 154.218C90.2321 153.594 90.0521 152.886 90.0161 152.094C90.0041 151.89 89.9981 151.632 89.9981 151.32C89.9981 150.996 90.0041 150.738 90.0161 150.546C90.0521 149.742 90.2321 149.034 90.5561 148.422C90.8921 147.81 91.3661 147.33 91.9781 146.982C92.5901 146.634 93.3461 146.46 94.2461 146.46C95.1461 146.46 95.9021 146.634 96.5141 146.982C97.1261 147.33 97.5941 147.81 97.9181 148.422C98.2541 149.034 98.4401 149.742 98.4761 150.546C98.4881 150.738 98.4941 150.996 98.4941 151.32C98.4941 151.632 98.4881 151.89 98.4761 152.094C98.4401 152.886 98.2601 153.594 97.9361 154.218C97.6121 154.83 97.1441 155.31 96.5321 155.658C95.9201 156.006 95.1581 156.18 94.2461 156.18ZM94.2461 154.794C94.9901 154.794 95.5841 154.56 96.0281 154.092C96.4721 153.612 96.7121 152.916 96.7481 152.004C96.7601 151.824 96.7661 151.596 96.7661 151.32C96.7661 151.044 96.7601 150.816 96.7481 150.636C96.7121 149.724 96.4721 149.034 96.0281 148.566C95.5841 148.086 94.9901 147.846 94.2461 147.846C93.5021 147.846 92.9021 148.086 92.4461 148.566C92.0021 149.034 91.7681 149.724 91.7441 150.636C91.7321 150.816 91.7261 151.044 91.7261 151.32C91.7261 151.596 91.7321 151.824 91.7441 152.004C91.7681 152.916 92.0021 153.612 92.4461 154.092C92.9021 154.56 93.5021 154.794 94.2461 154.794ZM101.993 156C101.873 156 101.771 155.964 101.687 155.892C101.615 155.808 101.579 155.706 101.579 155.586V148.08H100.049C99.9285 148.08 99.8265 148.044 99.7425 147.972C99.6705 147.888 99.6345 147.786 99.6345 147.666V147.054C99.6345 146.934 99.6705 146.838 99.7425 146.766C99.8265 146.682 99.9285 146.64 100.049 146.64H101.579V145.74C101.579 145.128 101.681 144.594 101.885 144.138C102.089 143.67 102.413 143.31 102.857 143.058C103.313 142.806 103.919 142.68 104.675 142.68H107.447C107.567 142.68 107.663 142.722 107.735 142.806C107.819 142.878 107.861 142.974 107.861 143.094V143.706C107.861 143.826 107.819 143.928 107.735 144.012C107.663 144.084 107.567 144.12 107.447 144.12H104.711C104.147 144.12 103.763 144.27 103.559 144.57C103.355 144.858 103.253 145.278 103.253 145.83V146.64H107.447C107.567 146.64 107.663 146.682 107.735 146.766C107.819 146.838 107.861 146.934 107.861 147.054V155.586C107.861 155.706 107.819 155.808 107.735 155.892C107.663 155.964 107.567 156 107.447 156H106.619C106.487 156 106.385 155.964 106.313 155.892C106.241 155.808 106.205 155.706 106.205 155.586V148.08H103.253V155.586C103.253 155.706 103.211 155.808 103.127 155.892C103.055 155.964 102.959 156 102.839 156H101.993ZM114.175 156C113.503 156 112.957 155.874 112.537 155.622C112.117 155.358 111.811 154.992 111.619 154.524C111.427 154.044 111.331 153.48 111.331 152.832V148.08H109.927C109.807 148.08 109.705 148.044 109.621 147.972C109.549 147.888 109.513 147.786 109.513 147.666V147.054C109.513 146.934 109.549 146.838 109.621 146.766C109.705 146.682 109.807 146.64 109.927 146.64H111.331V143.634C111.331 143.514 111.367 143.418 111.439 143.346C111.523 143.262 111.625 143.22 111.745 143.22H112.591C112.711 143.22 112.807 143.262 112.879 143.346C112.963 143.418 113.005 143.514 113.005 143.634V146.64H115.237C115.357 146.64 115.453 146.682 115.525 146.766C115.609 146.838 115.651 146.934 115.651 147.054V147.666C115.651 147.786 115.609 147.888 115.525 147.972C115.453 148.044 115.357 148.08 115.237 148.08H113.005V152.706C113.005 153.27 113.101 153.714 113.293 154.038C113.485 154.362 113.827 154.524 114.319 154.524H115.417C115.537 154.524 115.633 154.566 115.705 154.65C115.789 154.722 115.831 154.818 115.831 154.938V155.586C115.831 155.706 115.789 155.808 115.705 155.892C115.633 155.964 115.537 156 115.417 156H114.175ZM120.793 156.18C120.121 156.18 119.545 156.096 119.065 155.928C118.585 155.76 118.195 155.556 117.895 155.316C117.595 155.076 117.367 154.836 117.211 154.596C117.067 154.356 116.989 154.164 116.977 154.02C116.965 153.888 117.007 153.786 117.103 153.714C117.199 153.642 117.295 153.606 117.391 153.606H118.183C118.255 153.606 118.309 153.618 118.345 153.642C118.393 153.654 118.453 153.702 118.525 153.786C118.681 153.954 118.855 154.122 119.047 154.29C119.239 154.458 119.473 154.596 119.749 154.704C120.037 154.812 120.391 154.866 120.811 154.866C121.423 154.866 121.927 154.752 122.323 154.524C122.719 154.284 122.917 153.936 122.917 153.48C122.917 153.18 122.833 152.94 122.665 152.76C122.509 152.58 122.221 152.418 121.801 152.274C121.393 152.13 120.829 151.98 120.109 151.824C119.389 151.656 118.819 151.452 118.399 151.212C117.979 150.96 117.679 150.666 117.499 150.33C117.319 149.982 117.229 149.592 117.229 149.16C117.229 148.716 117.361 148.29 117.625 147.882C117.889 147.462 118.273 147.12 118.777 146.856C119.293 146.592 119.935 146.46 120.703 146.46C121.327 146.46 121.861 146.538 122.305 146.694C122.749 146.85 123.115 147.048 123.403 147.288C123.691 147.516 123.907 147.744 124.051 147.972C124.195 148.2 124.273 148.392 124.285 148.548C124.297 148.668 124.261 148.77 124.177 148.854C124.093 148.926 123.997 148.962 123.889 148.962H123.133C123.049 148.962 122.977 148.944 122.917 148.908C122.869 148.872 122.821 148.83 122.773 148.782C122.653 148.626 122.509 148.47 122.341 148.314C122.185 148.158 121.975 148.032 121.711 147.936C121.459 147.828 121.123 147.774 120.703 147.774C120.103 147.774 119.653 147.9 119.353 148.152C119.053 148.404 118.903 148.722 118.903 149.106C118.903 149.334 118.969 149.538 119.101 149.718C119.233 149.898 119.485 150.06 119.857 150.204C120.229 150.348 120.781 150.504 121.513 150.672C122.305 150.828 122.929 151.038 123.385 151.302C123.841 151.566 124.165 151.872 124.357 152.22C124.549 152.568 124.645 152.97 124.645 153.426C124.645 153.93 124.495 154.392 124.195 154.812C123.907 155.232 123.475 155.568 122.899 155.82C122.335 156.06 121.633 156.18 120.793 156.18ZM132.157 156C132.037 156 131.935 155.964 131.851 155.892C131.779 155.808 131.743 155.706 131.743 155.586V148.08H130.213C130.093 148.08 129.991 148.044 129.907 147.972C129.835 147.888 129.799 147.786 129.799 147.666V147.054C129.799 146.934 129.835 146.838 129.907 146.766C129.991 146.682 130.093 146.64 130.213 146.64H131.743V145.74C131.743 145.128 131.845 144.594 132.049 144.138C132.253 143.67 132.577 143.31 133.021 143.058C133.477 142.806 134.083 142.68 134.839 142.68H135.919C136.039 142.68 136.135 142.722 136.207 142.806C136.279 142.878 136.315 142.974 136.315 143.094V143.706C136.315 143.826 136.279 143.928 136.207 144.012C136.135 144.084 136.039 144.12 135.919 144.12H134.875C134.311 144.12 133.927 144.27 133.723 144.57C133.519 144.858 133.417 145.278 133.417 145.83V146.64H135.739C135.859 146.64 135.955 146.682 136.027 146.766C136.099 146.838 136.135 146.934 136.135 147.054V147.666C136.135 147.786 136.099 147.888 136.027 147.972C135.955 148.044 135.859 148.08 135.739 148.08H133.417V155.586C133.417 155.706 133.375 155.808 133.291 155.892C133.219 155.964 133.123 156 133.003 156H132.157ZM138.146 156C138.026 156 137.924 155.964 137.84 155.892C137.768 155.808 137.732 155.706 137.732 155.586V147.072C137.732 146.952 137.768 146.85 137.84 146.766C137.924 146.682 138.026 146.64 138.146 146.64H138.974C139.094 146.64 139.196 146.682 139.28 146.766C139.364 146.85 139.406 146.952 139.406 147.072V147.864C139.646 147.456 139.976 147.15 140.396 146.946C140.816 146.742 141.32 146.64 141.908 146.64H142.628C142.748 146.64 142.844 146.682 142.916 146.766C142.988 146.838 143.024 146.934 143.024 147.054V147.792C143.024 147.912 142.988 148.008 142.916 148.08C142.844 148.152 142.748 148.188 142.628 148.188H141.548C140.9 148.188 140.39 148.38 140.018 148.764C139.646 149.136 139.46 149.646 139.46 150.294V155.586C139.46 155.706 139.418 155.808 139.334 155.892C139.25 155.964 139.148 156 139.028 156H138.146ZM148.229 156.18C147.317 156.18 146.555 156.006 145.943 155.658C145.331 155.31 144.863 154.83 144.539 154.218C144.215 153.594 144.035 152.886 143.999 152.094C143.987 151.89 143.981 151.632 143.981 151.32C143.981 150.996 143.987 150.738 143.999 150.546C144.035 149.742 144.215 149.034 144.539 148.422C144.875 147.81 145.349 147.33 145.961 146.982C146.573 146.634 147.329 146.46 148.229 146.46C149.129 146.46 149.885 146.634 150.497 146.982C151.109 147.33 151.577 147.81 151.901 148.422C152.237 149.034 152.423 149.742 152.459 150.546C152.471 150.738 152.477 150.996 152.477 151.32C152.477 151.632 152.471 151.89 152.459 152.094C152.423 152.886 152.243 153.594 151.919 154.218C151.595 154.83 151.127 155.31 150.515 155.658C149.903 156.006 149.141 156.18 148.229 156.18ZM148.229 154.794C148.973 154.794 149.567 154.56 150.011 154.092C150.455 153.612 150.695 152.916 150.731 152.004C150.743 151.824 150.749 151.596 150.749 151.32C150.749 151.044 150.743 150.816 150.731 150.636C150.695 149.724 150.455 149.034 150.011 148.566C149.567 148.086 148.973 147.846 148.229 147.846C147.485 147.846 146.885 148.086 146.429 148.566C145.985 149.034 145.751 149.724 145.727 150.636C145.715 150.816 145.708 151.044 145.708 151.32C145.708 151.596 145.715 151.824 145.727 152.004C145.751 152.916 145.985 153.612 146.429 154.092C146.885 154.56 147.485 154.794 148.229 154.794ZM155.144 156C155.024 156 154.922 155.964 154.838 155.892C154.766 155.808 154.73 155.706 154.73 155.586V147.054C154.73 146.934 154.766 146.838 154.838 146.766C154.922 146.682 155.024 146.64 155.144 146.64H155.954C156.074 146.64 156.17 146.682 156.242 146.766C156.326 146.838 156.368 146.934 156.368 147.054V147.684C156.644 147.312 156.992 147.018 157.412 146.802C157.832 146.574 158.336 146.46 158.924 146.46C160.28 146.448 161.24 147 161.804 148.116C162.08 147.612 162.482 147.21 163.01 146.91C163.538 146.61 164.138 146.46 164.81 146.46C165.434 146.46 165.998 146.604 166.502 146.892C167.018 147.18 167.42 147.618 167.708 148.206C168.008 148.782 168.158 149.508 168.158 150.384V155.586C168.158 155.706 168.116 155.808 168.032 155.892C167.96 155.964 167.864 156 167.744 156H166.898C166.778 156 166.676 155.964 166.592 155.892C166.52 155.808 166.484 155.706 166.484 155.586V150.546C166.484 149.874 166.388 149.346 166.196 148.962C166.004 148.578 165.746 148.308 165.422 148.152C165.098 147.996 164.744 147.918 164.36 147.918C164.048 147.918 163.73 147.996 163.406 148.152C163.082 148.308 162.812 148.578 162.596 148.962C162.392 149.346 162.29 149.874 162.29 150.546V155.586C162.29 155.706 162.248 155.808 162.164 155.892C162.092 155.964 161.996 156 161.876 156H161.03C160.91 156 160.808 155.964 160.724 155.892C160.652 155.808 160.616 155.706 160.616 155.586V150.546C160.616 149.874 160.514 149.346 160.31 148.962C160.106 148.578 159.842 148.308 159.518 148.152C159.194 147.996 158.852 147.918 158.492 147.918C158.18 147.918 157.862 147.996 157.538 148.152C157.214 148.308 156.944 148.578 156.728 148.962C156.524 149.346 156.422 149.868 156.422 150.528V155.586C156.422 155.706 156.38 155.808 156.296 155.892C156.224 155.964 156.128 156 156.008 156H155.144ZM175.787 156C175.655 156 175.553 155.964 175.481 155.892C175.409 155.808 175.373 155.706 175.373 155.586V143.814C175.373 143.694 175.409 143.598 175.481 143.526C175.553 143.442 175.655 143.4 175.787 143.4H176.741C176.861 143.4 176.957 143.442 177.029 143.526C177.113 143.598 177.155 143.694 177.155 143.814V155.586C177.155 155.706 177.113 155.808 177.029 155.892C176.957 155.964 176.861 156 176.741 156H175.787ZM180.475 156C180.355 156 180.253 155.964 180.169 155.892C180.097 155.808 180.061 155.706 180.061 155.586V147.054C180.061 146.934 180.097 146.838 180.169 146.766C180.253 146.682 180.355 146.64 180.475 146.64H181.321C181.441 146.64 181.537 146.682 181.609 146.766C181.693 146.838 181.735 146.934 181.735 147.054V147.846C182.047 147.438 182.437 147.108 182.905 146.856C183.385 146.592 183.997 146.46 184.741 146.46C185.521 146.46 186.181 146.634 186.721 146.982C187.273 147.318 187.687 147.792 187.963 148.404C188.239 149.004 188.377 149.706 188.377 150.51V155.586C188.377 155.706 188.341 155.808 188.269 155.892C188.197 155.964 188.101 156 187.981 156H187.081C186.961 156 186.859 155.964 186.775 155.892C186.703 155.808 186.667 155.706 186.667 155.586V150.6C186.667 149.76 186.463 149.106 186.055 148.638C185.647 148.158 185.047 147.918 184.255 147.918C183.511 147.918 182.911 148.158 182.455 148.638C182.011 149.106 181.789 149.76 181.789 150.6V155.586C181.789 155.706 181.747 155.808 181.663 155.892C181.591 155.964 181.495 156 181.375 156H180.475ZM194.217 156.18C193.545 156.18 192.969 156.096 192.489 155.928C192.009 155.76 191.619 155.556 191.319 155.316C191.019 155.076 190.791 154.836 190.635 154.596C190.491 154.356 190.413 154.164 190.401 154.02C190.389 153.888 190.431 153.786 190.527 153.714C190.623 153.642 190.719 153.606 190.815 153.606H191.607C191.679 153.606 191.733 153.618 191.769 153.642C191.817 153.654 191.877 153.702 191.949 153.786C192.105 153.954 192.279 154.122 192.471 154.29C192.663 154.458 192.897 154.596 193.173 154.704C193.461 154.812 193.815 154.866 194.235 154.866C194.847 154.866 195.351 154.752 195.747 154.524C196.143 154.284 196.341 153.936 196.341 153.48C196.341 153.18 196.257 152.94 196.089 152.76C195.933 152.58 195.645 152.418 195.225 152.274C194.817 152.13 194.253 151.98 193.533 151.824C192.813 151.656 192.243 151.452 191.823 151.212C191.403 150.96 191.103 150.666 190.923 150.33C190.743 149.982 190.653 149.592 190.653 149.16C190.653 148.716 190.785 148.29 191.049 147.882C191.313 147.462 191.697 147.12 192.201 146.856C192.717 146.592 193.359 146.46 194.127 146.46C194.751 146.46 195.285 146.538 195.729 146.694C196.173 146.85 196.539 147.048 196.827 147.288C197.115 147.516 197.331 147.744 197.475 147.972C197.619 148.2 197.697 148.392 197.709 148.548C197.721 148.668 197.685 148.77 197.601 148.854C197.517 148.926 197.421 148.962 197.313 148.962H196.557C196.473 148.962 196.401 148.944 196.341 148.908C196.293 148.872 196.245 148.83 196.197 148.782C196.077 148.626 195.933 148.47 195.765 148.314C195.609 148.158 195.399 148.032 195.135 147.936C194.883 147.828 194.547 147.774 194.127 147.774C193.527 147.774 193.077 147.9 192.777 148.152C192.477 148.404 192.327 148.722 192.327 149.106C192.327 149.334 192.393 149.538 192.525 149.718C192.657 149.898 192.909 150.06 193.281 150.204C193.653 150.348 194.205 150.504 194.937 150.672C195.729 150.828 196.353 151.038 196.809 151.302C197.265 151.566 197.589 151.872 197.781 152.22C197.973 152.568 198.069 152.97 198.069 153.426C198.069 153.93 197.919 154.392 197.619 154.812C197.331 155.232 196.899 155.568 196.323 155.82C195.759 156.06 195.057 156.18 194.217 156.18ZM203.789 156C203.117 156 202.571 155.874 202.151 155.622C201.731 155.358 201.425 154.992 201.233 154.524C201.041 154.044 200.945 153.48 200.945 152.832V148.08H199.541C199.421 148.08 199.319 148.044 199.235 147.972C199.163 147.888 199.127 147.786 199.127 147.666V147.054C199.127 146.934 199.163 146.838 199.235 146.766C199.319 146.682 199.421 146.64 199.541 146.64H200.945V143.634C200.945 143.514 200.981 143.418 201.053 143.346C201.137 143.262 201.239 143.22 201.359 143.22H202.205C202.325 143.22 202.421 143.262 202.493 143.346C202.577 143.418 202.619 143.514 202.619 143.634V146.64H204.851C204.971 146.64 205.067 146.682 205.139 146.766C205.223 146.838 205.265 146.934 205.265 147.054V147.666C205.265 147.786 205.223 147.888 205.139 147.972C205.067 148.044 204.971 148.08 204.851 148.08H202.619V152.706C202.619 153.27 202.715 153.714 202.907 154.038C203.099 154.362 203.441 154.524 203.933 154.524H205.031C205.151 154.524 205.247 154.566 205.319 154.65C205.403 154.722 205.445 154.818 205.445 154.938V155.586C205.445 155.706 205.403 155.808 205.319 155.892C205.247 155.964 205.151 156 205.031 156H203.789ZM209.776 156.18C209.176 156.18 208.63 156.06 208.138 155.82C207.646 155.58 207.25 155.256 206.95 154.848C206.65 154.44 206.5 153.978 206.5 153.462C206.5 152.634 206.836 151.974 207.508 151.482C208.18 150.99 209.056 150.666 210.136 150.51L212.818 150.132V149.61C212.818 149.034 212.65 148.584 212.314 148.26C211.99 147.936 211.456 147.774 210.712 147.774C210.172 147.774 209.734 147.882 209.398 148.098C209.074 148.314 208.846 148.59 208.714 148.926C208.642 149.106 208.516 149.196 208.336 149.196H207.526C207.394 149.196 207.292 149.16 207.22 149.088C207.16 149.004 207.13 148.908 207.13 148.8C207.13 148.62 207.196 148.398 207.328 148.134C207.472 147.87 207.688 147.612 207.976 147.36C208.264 147.108 208.63 146.898 209.074 146.73C209.53 146.55 210.082 146.46 210.73 146.46C211.45 146.46 212.056 146.556 212.548 146.748C213.04 146.928 213.424 147.174 213.7 147.486C213.988 147.798 214.192 148.152 214.312 148.548C214.444 148.944 214.51 149.346 214.51 149.754V155.586C214.51 155.706 214.468 155.808 214.384 155.892C214.312 155.964 214.216 156 214.096 156H213.268C213.136 156 213.034 155.964 212.962 155.892C212.89 155.808 212.854 155.706 212.854 155.586V154.812C212.698 155.028 212.488 155.244 212.224 155.46C211.96 155.664 211.63 155.838 211.234 155.982C210.838 156.114 210.352 156.18 209.776 156.18ZM210.154 154.83C210.646 154.83 211.096 154.728 211.504 154.524C211.912 154.308 212.23 153.978 212.458 153.534C212.698 153.09 212.818 152.532 212.818 151.86V151.356L210.73 151.662C209.878 151.782 209.236 151.986 208.804 152.274C208.372 152.55 208.156 152.904 208.156 153.336C208.156 153.672 208.252 153.954 208.444 154.182C208.648 154.398 208.9 154.56 209.2 154.668C209.512 154.776 209.83 154.83 210.154 154.83ZM220.932 159.96C220.116 159.96 219.444 159.852 218.916 159.636C218.4 159.42 217.992 159.156 217.692 158.844C217.404 158.544 217.194 158.238 217.062 157.926C216.942 157.626 216.876 157.386 216.864 157.206C216.852 157.086 216.888 156.984 216.972 156.9C217.068 156.816 217.17 156.774 217.278 156.774H218.142C218.25 156.774 218.34 156.798 218.412 156.846C218.484 156.894 218.544 156.996 218.592 157.152C218.664 157.332 218.772 157.53 218.916 157.746C219.06 157.974 219.282 158.166 219.582 158.322C219.882 158.49 220.302 158.574 220.842 158.574C221.406 158.574 221.88 158.496 222.264 158.34C222.648 158.196 222.936 157.932 223.128 157.548C223.332 157.176 223.434 156.66 223.434 156V154.776C223.146 155.148 222.768 155.46 222.3 155.712C221.832 155.952 221.244 156.072 220.536 156.072C219.864 156.072 219.288 155.958 218.808 155.73C218.328 155.49 217.932 155.172 217.62 154.776C217.32 154.368 217.092 153.906 216.936 153.39C216.792 152.874 216.708 152.334 216.684 151.77C216.672 151.434 216.672 151.104 216.684 150.78C216.708 150.216 216.792 149.676 216.936 149.16C217.092 148.644 217.32 148.182 217.62 147.774C217.932 147.366 218.328 147.048 218.808 146.82C219.288 146.58 219.864 146.46 220.536 146.46C221.256 146.46 221.85 146.598 222.318 146.874C222.798 147.138 223.188 147.462 223.488 147.846V147.072C223.488 146.952 223.524 146.85 223.596 146.766C223.68 146.682 223.782 146.64 223.902 146.64H224.73C224.85 146.64 224.952 146.682 225.036 146.766C225.12 146.85 225.162 146.952 225.162 147.072V155.802C225.162 156.606 225.024 157.32 224.748 157.944C224.484 158.568 224.04 159.06 223.416 159.42C222.804 159.78 221.976 159.96 220.932 159.96ZM220.896 154.632C221.496 154.632 221.976 154.494 222.336 154.218C222.708 153.942 222.978 153.594 223.146 153.174C223.326 152.754 223.422 152.328 223.434 151.896C223.446 151.728 223.452 151.524 223.452 151.284C223.452 151.032 223.446 150.822 223.434 150.654C223.422 150.222 223.326 149.796 223.146 149.376C222.978 148.956 222.708 148.608 222.336 148.332C221.976 148.056 221.496 147.918 220.896 147.918C220.296 147.918 219.816 148.056 219.456 148.332C219.096 148.596 218.838 148.95 218.682 149.394C218.526 149.826 218.436 150.294 218.412 150.798C218.4 151.11 218.4 151.428 218.412 151.752C218.436 152.256 218.526 152.73 218.682 153.174C218.838 153.606 219.096 153.96 219.456 154.236C219.816 154.5 220.296 154.632 220.896 154.632ZM228.252 156C228.132 156 228.03 155.964 227.946 155.892C227.874 155.808 227.838 155.706 227.838 155.586V147.072C227.838 146.952 227.874 146.85 227.946 146.766C228.03 146.682 228.132 146.64 228.252 146.64H229.08C229.2 146.64 229.302 146.682 229.386 146.766C229.47 146.85 229.512 146.952 229.512 147.072V147.864C229.752 147.456 230.082 147.15 230.502 146.946C230.922 146.742 231.426 146.64 232.014 146.64H232.734C232.854 146.64 232.95 146.682 233.022 146.766C233.094 146.838 233.13 146.934 233.13 147.054V147.792C233.13 147.912 233.094 148.008 233.022 148.08C232.95 148.152 232.854 148.188 232.734 148.188H231.654C231.006 148.188 230.496 148.38 230.124 148.764C229.752 149.136 229.566 149.646 229.566 150.294V155.586C229.566 155.706 229.524 155.808 229.44 155.892C229.356 155.964 229.254 156 229.134 156H228.252ZM237.145 156.18C236.545 156.18 235.999 156.06 235.507 155.82C235.015 155.58 234.619 155.256 234.319 154.848C234.019 154.44 233.869 153.978 233.869 153.462C233.869 152.634 234.205 151.974 234.877 151.482C235.549 150.99 236.425 150.666 237.505 150.51L240.187 150.132V149.61C240.187 149.034 240.019 148.584 239.683 148.26C239.359 147.936 238.825 147.774 238.081 147.774C237.541 147.774 237.103 147.882 236.767 148.098C236.443 148.314 236.215 148.59 236.083 148.926C236.011 149.106 235.885 149.196 235.705 149.196H234.895C234.763 149.196 234.661 149.16 234.589 149.088C234.529 149.004 234.499 148.908 234.499 148.8C234.499 148.62 234.565 148.398 234.697 148.134C234.841 147.87 235.057 147.612 235.345 147.36C235.633 147.108 235.999 146.898 236.443 146.73C236.899 146.55 237.451 146.46 238.099 146.46C238.819 146.46 239.425 146.556 239.917 146.748C240.409 146.928 240.793 147.174 241.069 147.486C241.357 147.798 241.561 148.152 241.681 148.548C241.813 148.944 241.879 149.346 241.879 149.754V155.586C241.879 155.706 241.837 155.808 241.753 155.892C241.681 155.964 241.585 156 241.465 156H240.637C240.505 156 240.403 155.964 240.331 155.892C240.259 155.808 240.223 155.706 240.223 155.586V154.812C240.067 155.028 239.857 155.244 239.593 155.46C239.329 155.664 238.999 155.838 238.603 155.982C238.207 156.114 237.721 156.18 237.145 156.18ZM237.523 154.83C238.015 154.83 238.465 154.728 238.873 154.524C239.281 154.308 239.599 153.978 239.827 153.534C240.067 153.09 240.187 152.532 240.187 151.86V151.356L238.099 151.662C237.247 151.782 236.605 151.986 236.173 152.274C235.741 152.55 235.525 152.904 235.525 153.336C235.525 153.672 235.621 153.954 235.813 154.182C236.017 154.398 236.269 154.56 236.569 154.668C236.881 154.776 237.199 154.83 237.523 154.83ZM244.881 156C244.761 156 244.659 155.964 244.575 155.892C244.503 155.808 244.467 155.706 244.467 155.586V147.054C244.467 146.934 244.503 146.838 244.575 146.766C244.659 146.682 244.761 146.64 244.881 146.64H245.691C245.811 146.64 245.907 146.682 245.979 146.766C246.063 146.838 246.105 146.934 246.105 147.054V147.684C246.381 147.312 246.729 147.018 247.149 146.802C247.569 146.574 248.073 146.46 248.661 146.46C250.017 146.448 250.977 147 251.541 148.116C251.817 147.612 252.219 147.21 252.747 146.91C253.275 146.61 253.875 146.46 254.547 146.46C255.171 146.46 255.735 146.604 256.239 146.892C256.755 147.18 257.157 147.618 257.445 148.206C257.745 148.782 257.895 149.508 257.895 150.384V155.586C257.895 155.706 257.853 155.808 257.769 155.892C257.697 155.964 257.601 156 257.481 156H256.635C256.515 156 256.413 155.964 256.329 155.892C256.257 155.808 256.221 155.706 256.221 155.586V150.546C256.221 149.874 256.125 149.346 255.933 148.962C255.741 148.578 255.483 148.308 255.159 148.152C254.835 147.996 254.481 147.918 254.097 147.918C253.785 147.918 253.467 147.996 253.143 148.152C252.819 148.308 252.549 148.578 252.333 148.962C252.129 149.346 252.027 149.874 252.027 150.546V155.586C252.027 155.706 251.985 155.808 251.901 155.892C251.829 155.964 251.733 156 251.613 156H250.767C250.647 156 250.545 155.964 250.461 155.892C250.389 155.808 250.353 155.706 250.353 155.586V150.546C250.353 149.874 250.251 149.346 250.047 148.962C249.843 148.578 249.579 148.308 249.255 148.152C248.931 147.996 248.589 147.918 248.229 147.918C247.917 147.918 247.599 147.996 247.275 148.152C246.951 148.308 246.681 148.578 246.465 148.962C246.261 149.346 246.159 149.868 246.159 150.528V155.586C246.159 155.706 246.117 155.808 246.033 155.892C245.961 155.964 245.865 156 245.745 156H244.881Z" fill="#3E4442"/>
<path d="M66.7318 354.812V356H59.2865V354.961L63.013 350.812C63.4714 350.302 63.8255 349.87 64.0755 349.516C64.3307 349.156 64.5078 348.836 64.6068 348.555C64.7109 348.268 64.763 347.977 64.763 347.68C64.763 347.305 64.6849 346.966 64.5286 346.664C64.3776 346.357 64.1536 346.112 63.8568 345.93C63.5599 345.747 63.2005 345.656 62.7786 345.656C62.2734 345.656 61.8516 345.755 61.513 345.953C61.1797 346.146 60.9297 346.417 60.763 346.766C60.5964 347.115 60.513 347.516 60.513 347.969H59.0677C59.0677 347.328 59.2083 346.742 59.4896 346.211C59.7708 345.68 60.1875 345.258 60.7396 344.945C61.2917 344.628 61.9714 344.469 62.7786 344.469C63.4974 344.469 64.112 344.596 64.6224 344.852C65.1328 345.102 65.5234 345.456 65.7943 345.914C66.0703 346.367 66.2083 346.898 66.2083 347.508C66.2083 347.841 66.151 348.18 66.0365 348.523C65.9271 348.862 65.7734 349.201 65.5755 349.539C65.3828 349.878 65.1562 350.211 64.8958 350.539C64.6406 350.867 64.3672 351.19 64.0755 351.508L61.0286 354.812H66.7318ZM75.4193 349.406V351.141C75.4193 352.073 75.3359 352.859 75.1693 353.5C75.0026 354.141 74.763 354.656 74.4505 355.047C74.138 355.438 73.7604 355.721 73.3177 355.898C72.8802 356.07 72.3854 356.156 71.8333 356.156C71.3958 356.156 70.9922 356.102 70.6224 355.992C70.2526 355.883 69.9193 355.708 69.6224 355.469C69.3307 355.224 69.0807 354.906 68.8724 354.516C68.6641 354.125 68.5052 353.651 68.3958 353.094C68.2865 352.536 68.2318 351.885 68.2318 351.141V349.406C68.2318 348.474 68.3151 347.693 68.4818 347.062C68.6536 346.432 68.8958 345.927 69.2083 345.547C69.5208 345.161 69.8958 344.885 70.3333 344.719C70.776 344.552 71.2708 344.469 71.8177 344.469C72.2604 344.469 72.6667 344.523 73.0365 344.633C73.4115 344.737 73.7448 344.906 74.0365 345.141C74.3281 345.37 74.5755 345.677 74.7786 346.062C74.987 346.443 75.1458 346.909 75.2552 347.461C75.3646 348.013 75.4193 348.661 75.4193 349.406ZM73.9661 351.375V349.164C73.9661 348.654 73.9349 348.206 73.8724 347.82C73.8151 347.43 73.7292 347.096 73.6146 346.82C73.5 346.544 73.3542 346.32 73.1771 346.148C73.0052 345.977 72.8047 345.852 72.5755 345.773C72.3516 345.69 72.099 345.648 71.8177 345.648C71.474 345.648 71.1693 345.714 70.9036 345.844C70.638 345.969 70.4141 346.169 70.2318 346.445C70.0547 346.721 69.9193 347.083 69.8255 347.531C69.7318 347.979 69.6849 348.523 69.6849 349.164V351.375C69.6849 351.885 69.7135 352.336 69.7708 352.727C69.8333 353.117 69.9245 353.456 70.0443 353.742C70.1641 354.023 70.3099 354.255 70.4818 354.438C70.6536 354.62 70.8516 354.755 71.0755 354.844C71.3047 354.927 71.5573 354.969 71.8333 354.969C72.1875 354.969 72.4974 354.901 72.763 354.766C73.0286 354.63 73.25 354.419 73.4271 354.133C73.6094 353.841 73.7448 353.469 73.8333 353.016C73.9219 352.557 73.9661 352.01 73.9661 351.375ZM82.0286 344.562V356H80.5833V346.367L77.6693 347.43V346.125L81.8021 344.562H82.0286ZM87.7161 354.789H87.8646C88.6979 354.789 89.375 354.672 89.8958 354.438C90.4167 354.203 90.8177 353.888 91.099 353.492C91.3802 353.096 91.5729 352.651 91.6771 352.156C91.7812 351.656 91.8333 351.143 91.8333 350.617V348.875C91.8333 348.359 91.7734 347.901 91.6536 347.5C91.5391 347.099 91.3776 346.763 91.1693 346.492C90.9661 346.221 90.7344 346.016 90.474 345.875C90.2135 345.734 89.9375 345.664 89.6458 345.664C89.3125 345.664 89.013 345.732 88.7474 345.867C88.487 345.997 88.2656 346.182 88.0833 346.422C87.9062 346.661 87.7708 346.943 87.6771 347.266C87.5833 347.589 87.5365 347.94 87.5365 348.32C87.5365 348.659 87.5781 348.987 87.6615 349.305C87.7448 349.622 87.8724 349.909 88.0443 350.164C88.2161 350.419 88.4297 350.622 88.6849 350.773C88.9453 350.919 89.25 350.992 89.599 350.992C89.9219 350.992 90.224 350.93 90.5052 350.805C90.7917 350.674 91.0443 350.5 91.263 350.281C91.487 350.057 91.6641 349.805 91.7943 349.523C91.9297 349.242 92.0078 348.948 92.0286 348.641H92.7161C92.7161 349.073 92.6302 349.5 92.4583 349.922C92.2917 350.339 92.0573 350.719 91.7552 351.062C91.4531 351.406 91.099 351.682 90.6927 351.891C90.2865 352.094 89.8437 352.195 89.3646 352.195C88.8021 352.195 88.3151 352.086 87.9036 351.867C87.4922 351.648 87.1536 351.357 86.888 350.992C86.6276 350.628 86.4323 350.221 86.3021 349.773C86.1771 349.32 86.1146 348.862 86.1146 348.398C86.1146 347.857 86.1901 347.349 86.3411 346.875C86.4922 346.401 86.7161 345.984 87.013 345.625C87.3099 345.26 87.6771 344.977 88.1146 344.773C88.5573 344.57 89.0677 344.469 89.6458 344.469C90.2969 344.469 90.8516 344.599 91.3099 344.859C91.7682 345.12 92.1406 345.469 92.4271 345.906C92.7187 346.344 92.9323 346.836 93.0677 347.383C93.2031 347.93 93.2708 348.492 93.2708 349.07V349.594C93.2708 350.182 93.2318 350.781 93.1536 351.391C93.0807 351.995 92.9375 352.573 92.724 353.125C92.5156 353.677 92.2109 354.172 91.8099 354.609C91.4089 355.042 90.8854 355.385 90.2396 355.641C89.599 355.891 88.8073 356.016 87.8646 356.016H87.7161V354.789Z" fill="#767272"/>
<path d="M155.398 354.812V356H147.953V354.961L151.68 350.812C152.138 350.302 152.492 349.87 152.742 349.516C152.997 349.156 153.174 348.836 153.273 348.555C153.378 348.268 153.43 347.977 153.43 347.68C153.43 347.305 153.352 346.966 153.195 346.664C153.044 346.357 152.82 346.112 152.523 345.93C152.227 345.747 151.867 345.656 151.445 345.656C150.94 345.656 150.518 345.755 150.18 345.953C149.846 346.146 149.596 346.417 149.43 346.766C149.263 347.115 149.18 347.516 149.18 347.969H147.734C147.734 347.328 147.875 346.742 148.156 346.211C148.437 345.68 148.854 345.258 149.406 344.945C149.958 344.628 150.638 344.469 151.445 344.469C152.164 344.469 152.779 344.596 153.289 344.852C153.799 345.102 154.19 345.456 154.461 345.914C154.737 346.367 154.875 346.898 154.875 347.508C154.875 347.841 154.818 348.18 154.703 348.523C154.594 348.862 154.44 349.201 154.242 349.539C154.049 349.878 153.823 350.211 153.562 350.539C153.307 350.867 153.034 351.19 152.742 351.508L149.695 354.812H155.398ZM164.086 349.406V351.141C164.086 352.073 164.003 352.859 163.836 353.5C163.669 354.141 163.43 354.656 163.117 355.047C162.805 355.438 162.427 355.721 161.984 355.898C161.547 356.07 161.052 356.156 160.5 356.156C160.062 356.156 159.659 356.102 159.289 355.992C158.919 355.883 158.586 355.708 158.289 355.469C157.997 355.224 157.747 354.906 157.539 354.516C157.331 354.125 157.172 353.651 157.062 353.094C156.953 352.536 156.898 351.885 156.898 351.141V349.406C156.898 348.474 156.982 347.693 157.148 347.062C157.32 346.432 157.562 345.927 157.875 345.547C158.187 345.161 158.562 344.885 159 344.719C159.443 344.552 159.937 344.469 160.484 344.469C160.927 344.469 161.333 344.523 161.703 344.633C162.078 344.737 162.411 344.906 162.703 345.141C162.995 345.37 163.242 345.677 163.445 346.062C163.654 346.443 163.812 346.909 163.922 347.461C164.031 348.013 164.086 348.661 164.086 349.406ZM162.633 351.375V349.164C162.633 348.654 162.602 348.206 162.539 347.82C162.482 347.43 162.396 347.096 162.281 346.82C162.167 346.544 162.021 346.32 161.844 346.148C161.672 345.977 161.471 345.852 161.242 345.773C161.018 345.69 160.766 345.648 160.484 345.648C160.141 345.648 159.836 345.714 159.57 345.844C159.305 345.969 159.081 346.169 158.898 346.445C158.721 346.721 158.586 347.083 158.492 347.531C158.398 347.979 158.352 348.523 158.352 349.164V351.375C158.352 351.885 158.38 352.336 158.437 352.727C158.5 353.117 158.591 353.456 158.711 353.742C158.831 354.023 158.977 354.255 159.148 354.438C159.32 354.62 159.518 354.755 159.742 354.844C159.971 354.927 160.224 354.969 160.5 354.969C160.854 354.969 161.164 354.901 161.43 354.766C161.695 354.63 161.917 354.419 162.094 354.133C162.276 353.841 162.411 353.469 162.5 353.016C162.589 352.557 162.633 352.01 162.633 351.375ZM173.398 354.812V356H165.953V354.961L169.68 350.812C170.138 350.302 170.492 349.87 170.742 349.516C170.997 349.156 171.174 348.836 171.273 348.555C171.378 348.268 171.43 347.977 171.43 347.68C171.43 347.305 171.352 346.966 171.195 346.664C171.044 346.357 170.82 346.112 170.523 345.93C170.227 345.747 169.867 345.656 169.445 345.656C168.94 345.656 168.518 345.755 168.18 345.953C167.846 346.146 167.596 346.417 167.43 346.766C167.263 347.115 167.18 347.516 167.18 347.969H165.734C165.734 347.328 165.875 346.742 166.156 346.211C166.437 345.68 166.854 345.258 167.406 344.945C167.958 344.628 168.638 344.469 169.445 344.469C170.164 344.469 170.779 344.596 171.289 344.852C171.799 345.102 172.19 345.456 172.461 345.914C172.737 346.367 172.875 346.898 172.875 347.508C172.875 347.841 172.818 348.18 172.703 348.523C172.594 348.862 172.44 349.201 172.242 349.539C172.049 349.878 171.823 350.211 171.562 350.539C171.307 350.867 171.034 351.19 170.742 351.508L167.695 354.812H173.398ZM182.086 349.406V351.141C182.086 352.073 182.003 352.859 181.836 353.5C181.669 354.141 181.43 354.656 181.117 355.047C180.805 355.438 180.427 355.721 179.984 355.898C179.547 356.07 179.052 356.156 178.5 356.156C178.062 356.156 177.659 356.102 177.289 355.992C176.919 355.883 176.586 355.708 176.289 355.469C175.997 355.224 175.747 354.906 175.539 354.516C175.331 354.125 175.172 353.651 175.062 353.094C174.953 352.536 174.898 351.885 174.898 351.141V349.406C174.898 348.474 174.982 347.693 175.148 347.062C175.32 346.432 175.562 345.927 175.875 345.547C176.187 345.161 176.562 344.885 177 344.719C177.443 344.552 177.937 344.469 178.484 344.469C178.927 344.469 179.333 344.523 179.703 344.633C180.078 344.737 180.411 344.906 180.703 345.141C180.995 345.37 181.242 345.677 181.445 346.062C181.654 346.443 181.812 346.909 181.922 347.461C182.031 348.013 182.086 348.661 182.086 349.406ZM180.633 351.375V349.164C180.633 348.654 180.602 348.206 180.539 347.82C180.482 347.43 180.396 347.096 180.281 346.82C180.167 346.544 180.021 346.32 179.844 346.148C179.672 345.977 179.471 345.852 179.242 345.773C179.018 345.69 178.766 345.648 178.484 345.648C178.141 345.648 177.836 345.714 177.57 345.844C177.305 345.969 177.081 346.169 176.898 346.445C176.721 346.721 176.586 347.083 176.492 347.531C176.398 347.979 176.352 348.523 176.352 349.164V351.375C176.352 351.885 176.38 352.336 176.437 352.727C176.5 353.117 176.591 353.456 176.711 353.742C176.831 354.023 176.977 354.255 177.148 354.438C177.32 354.62 177.518 354.755 177.742 354.844C177.971 354.927 178.224 354.969 178.5 354.969C178.854 354.969 179.164 354.901 179.43 354.766C179.695 354.63 179.917 354.419 180.094 354.133C180.276 353.841 180.411 353.469 180.5 353.016C180.589 352.557 180.633 352.01 180.633 351.375Z" fill="#767272"/>
<path d="M244.065 354.812V356H236.62V354.961L240.346 350.812C240.805 350.302 241.159 349.87 241.409 349.516C241.664 349.156 241.841 348.836 241.94 348.555C242.044 348.268 242.096 347.977 242.096 347.68C242.096 347.305 242.018 346.966 241.862 346.664C241.711 346.357 241.487 346.112 241.19 345.93C240.893 345.747 240.534 345.656 240.112 345.656C239.607 345.656 239.185 345.755 238.846 345.953C238.513 346.146 238.263 346.417 238.096 346.766C237.93 347.115 237.846 347.516 237.846 347.969H236.401C236.401 347.328 236.542 346.742 236.823 346.211C237.104 345.68 237.521 345.258 238.073 344.945C238.625 344.628 239.305 344.469 240.112 344.469C240.831 344.469 241.445 344.596 241.956 344.852C242.466 345.102 242.857 345.456 243.128 345.914C243.404 346.367 243.542 346.898 243.542 347.508C243.542 347.841 243.484 348.18 243.37 348.523C243.26 348.862 243.107 349.201 242.909 349.539C242.716 349.878 242.49 350.211 242.229 350.539C241.974 350.867 241.7 351.19 241.409 351.508L238.362 354.812H244.065ZM252.753 349.406V351.141C252.753 352.073 252.669 352.859 252.503 353.5C252.336 354.141 252.096 354.656 251.784 355.047C251.471 355.438 251.094 355.721 250.651 355.898C250.214 356.07 249.719 356.156 249.167 356.156C248.729 356.156 248.325 356.102 247.956 355.992C247.586 355.883 247.253 355.708 246.956 355.469C246.664 355.224 246.414 354.906 246.206 354.516C245.997 354.125 245.839 353.651 245.729 353.094C245.62 352.536 245.565 351.885 245.565 351.141V349.406C245.565 348.474 245.648 347.693 245.815 347.062C245.987 346.432 246.229 345.927 246.542 345.547C246.854 345.161 247.229 344.885 247.667 344.719C248.109 344.552 248.604 344.469 249.151 344.469C249.594 344.469 250 344.523 250.37 344.633C250.745 344.737 251.078 344.906 251.37 345.141C251.661 345.37 251.909 345.677 252.112 346.062C252.32 346.443 252.479 346.909 252.589 347.461C252.698 348.013 252.753 348.661 252.753 349.406ZM251.299 351.375V349.164C251.299 348.654 251.268 348.206 251.206 347.82C251.148 347.43 251.062 347.096 250.948 346.82C250.833 346.544 250.687 346.32 250.51 346.148C250.339 345.977 250.138 345.852 249.909 345.773C249.685 345.69 249.432 345.648 249.151 345.648C248.807 345.648 248.503 345.714 248.237 345.844C247.971 345.969 247.747 346.169 247.565 346.445C247.388 346.721 247.253 347.083 247.159 347.531C247.065 347.979 247.018 348.523 247.018 349.164V351.375C247.018 351.885 247.047 352.336 247.104 352.727C247.167 353.117 247.258 353.456 247.378 353.742C247.497 354.023 247.643 354.255 247.815 354.438C247.987 354.62 248.185 354.755 248.409 354.844C248.638 354.927 248.891 354.969 249.167 354.969C249.521 354.969 249.831 354.901 250.096 354.766C250.362 354.63 250.583 354.419 250.76 354.133C250.943 353.841 251.078 353.469 251.167 353.016C251.255 352.557 251.299 352.01 251.299 351.375ZM262.065 354.812V356H254.62V354.961L258.346 350.812C258.805 350.302 259.159 349.87 259.409 349.516C259.664 349.156 259.841 348.836 259.94 348.555C260.044 348.268 260.096 347.977 260.096 347.68C260.096 347.305 260.018 346.966 259.862 346.664C259.711 346.357 259.487 346.112 259.19 345.93C258.893 345.747 258.534 345.656 258.112 345.656C257.607 345.656 257.185 345.755 256.846 345.953C256.513 346.146 256.263 346.417 256.096 346.766C255.93 347.115 255.846 347.516 255.846 347.969H254.401C254.401 347.328 254.542 346.742 254.823 346.211C255.104 345.68 255.521 345.258 256.073 344.945C256.625 344.628 257.305 344.469 258.112 344.469C258.831 344.469 259.445 344.596 259.956 344.852C260.466 345.102 260.857 345.456 261.128 345.914C261.404 346.367 261.542 346.898 261.542 347.508C261.542 347.841 261.484 348.18 261.37 348.523C261.26 348.862 261.107 349.201 260.909 349.539C260.716 349.878 260.49 350.211 260.229 350.539C259.974 350.867 259.7 351.19 259.409 351.508L256.362 354.812H262.065ZM268.362 344.562V356H266.917V346.367L264.003 347.43V346.125L268.135 344.562H268.362Z" fill="#767272"/>
<rect x="32" y="202" width="265.989" height="1" fill="#C3CDCA"/>
<rect x="32" y="235" width="265.989" height="1" fill="#C3CDCA"/>
<rect x="32" y="268" width="265.989" height="1" fill="#C3CDCA"/>
<rect x="32" y="301" width="265.989" height="1" fill="#C3CDCA"/>
<rect x="32" y="334" width="265.989" height="1" fill="#C3CDCA"/>
<path d="M39.7949 292.897C39.7949 290.745 41.5398 289 43.6923 289V289C45.8448 289 47.5897 290.745 47.5897 292.897V335H39.7949V292.897Z" fill="#D83A6A"/>
<path d="M67.0768 299.897C67.0768 297.745 68.8218 296 70.9743 296V296C73.1268 296 74.8717 297.745 74.8717 299.897V335H67.0768V299.897Z" fill="#D83A6A"/>
<path d="M94.3589 279.897C94.3589 277.745 96.1038 276 98.2563 276V276C100.409 276 102.154 277.745 102.154 279.897V335H94.3589V279.897Z" fill="#D83A6A"/>
<path d="M121.641 258.897C121.641 256.745 123.386 255 125.538 255V255C127.691 255 129.436 256.745 129.436 258.897V335H121.641V258.897Z" fill="#D83A6A"/>
<path d="M148.923 244.897C148.923 242.745 150.668 241 152.82 241V241C154.973 241 156.718 242.745 156.718 244.897V335H148.923V244.897Z" fill="#D83A6A"/>
<path d="M176.205 266.897C176.205 264.745 177.95 263 180.103 263V263C182.255 263 184 264.745 184 266.897V335H176.205V266.897Z" fill="#D83A6A"/>
<path d="M203.487 281.897C203.487 279.745 205.232 278 207.385 278V278C209.537 278 211.282 279.745 211.282 281.897V335H203.487V281.897Z" fill="#D83A6A"/>
<path d="M230.769 229.897C230.769 227.745 232.514 226 234.667 226V226C236.819 226 238.564 227.745 238.564 229.897V335H230.769V229.897Z" fill="#D83A6A"/>
<path d="M258.051 212.897C258.051 210.745 259.796 209 261.949 209V209C264.101 209 265.846 210.745 265.846 212.897V335H258.051V212.897Z" fill="#D83A6A"/>
<path d="M285.333 234.897C285.333 232.745 287.078 231 289.231 231V231C291.383 231 293.128 232.745 293.128 234.897V335H285.333V234.897Z" fill="#D83A6A"/>
</svg>
