<svg width="266" height="161" viewBox="0 0 266 161" fill="none" xmlns="http://www.w3.org/2000/svg">
<path d="M34.7318 152.812V154H27.2865V152.961L31.013 148.812C31.4714 148.302 31.8255 147.87 32.0755 147.516C32.3307 147.156 32.5078 146.836 32.6068 146.555C32.7109 146.268 32.763 145.977 32.763 145.68C32.763 145.305 32.6849 144.966 32.5286 144.664C32.3776 144.357 32.1536 144.112 31.8568 143.93C31.5599 143.747 31.2005 143.656 30.7786 143.656C30.2734 143.656 29.8516 143.755 29.513 143.953C29.1797 144.146 28.9297 144.417 28.763 144.766C28.5964 145.115 28.513 145.516 28.513 145.969H27.0677C27.0677 145.328 27.2083 144.742 27.4896 144.211C27.7708 143.68 28.1875 143.258 28.7396 142.945C29.2917 142.628 29.9714 142.469 30.7786 142.469C31.4974 142.469 32.112 142.596 32.6224 142.852C33.1328 143.102 33.5234 143.456 33.7943 143.914C34.0703 144.367 34.2083 144.898 34.2083 145.508C34.2083 145.841 34.151 146.18 34.0365 146.523C33.9271 146.862 33.7734 147.201 33.5755 147.539C33.3828 147.878 33.1562 148.211 32.8958 148.539C32.6406 148.867 32.3672 149.19 32.0755 149.508L29.0286 152.812H34.7318ZM43.4193 147.406V149.141C43.4193 150.073 43.3359 150.859 43.1693 151.5C43.0026 152.141 42.763 152.656 42.4505 153.047C42.138 153.438 41.7604 153.721 41.3177 153.898C40.8802 154.07 40.3854 154.156 39.8333 154.156C39.3958 154.156 38.9922 154.102 38.6224 153.992C38.2526 153.883 37.9193 153.708 37.6224 153.469C37.3307 153.224 37.0807 152.906 36.8724 152.516C36.6641 152.125 36.5052 151.651 36.3958 151.094C36.2865 150.536 36.2318 149.885 36.2318 149.141V147.406C36.2318 146.474 36.3151 145.693 36.4818 145.062C36.6536 144.432 36.8958 143.927 37.2083 143.547C37.5208 143.161 37.8958 142.885 38.3333 142.719C38.776 142.552 39.2708 142.469 39.8177 142.469C40.2604 142.469 40.6667 142.523 41.0365 142.633C41.4115 142.737 41.7448 142.906 42.0365 143.141C42.3281 143.37 42.5755 143.677 42.7786 144.062C42.987 144.443 43.1458 144.909 43.2552 145.461C43.3646 146.013 43.4193 146.661 43.4193 147.406ZM41.9661 149.375V147.164C41.9661 146.654 41.9349 146.206 41.8724 145.82C41.8151 145.43 41.7292 145.096 41.6146 144.82C41.5 144.544 41.3542 144.32 41.1771 144.148C41.0052 143.977 40.8047 143.852 40.5755 143.773C40.3516 143.69 40.099 143.648 39.8177 143.648C39.474 143.648 39.1693 143.714 38.9036 143.844C38.638 143.969 38.4141 144.169 38.2318 144.445C38.0547 144.721 37.9193 145.083 37.8255 145.531C37.7318 145.979 37.6849 146.523 37.6849 147.164V149.375C37.6849 149.885 37.7135 150.336 37.7708 150.727C37.8333 151.117 37.9245 151.456 38.0443 151.742C38.1641 152.023 38.3099 152.255 38.4818 152.438C38.6536 152.62 38.8516 152.755 39.0755 152.844C39.3047 152.927 39.5573 152.969 39.8333 152.969C40.1875 152.969 40.4974 152.901 40.763 152.766C41.0286 152.63 41.25 152.419 41.4271 152.133C41.6094 151.841 41.7448 151.469 41.8333 151.016C41.9219 150.557 41.9661 150.01 41.9661 149.375ZM50.0286 142.562V154H48.5833V144.367L45.6693 145.43V144.125L49.8021 142.562H50.0286ZM55.7161 152.789H55.8646C56.6979 152.789 57.375 152.672 57.8958 152.438C58.4167 152.203 58.8177 151.888 59.099 151.492C59.3802 151.096 59.5729 150.651 59.6771 150.156C59.7812 149.656 59.8333 149.143 59.8333 148.617V146.875C59.8333 146.359 59.7734 145.901 59.6536 145.5C59.5391 145.099 59.3776 144.763 59.1693 144.492C58.9661 144.221 58.7344 144.016 58.474 143.875C58.2135 143.734 57.9375 143.664 57.6458 143.664C57.3125 143.664 57.013 143.732 56.7474 143.867C56.487 143.997 56.2656 144.182 56.0833 144.422C55.9062 144.661 55.7708 144.943 55.6771 145.266C55.5833 145.589 55.5365 145.94 55.5365 146.32C55.5365 146.659 55.5781 146.987 55.6615 147.305C55.7448 147.622 55.8724 147.909 56.0443 148.164C56.2161 148.419 56.4297 148.622 56.6849 148.773C56.9453 148.919 57.25 148.992 57.599 148.992C57.9219 148.992 58.224 148.93 58.5052 148.805C58.7917 148.674 59.0443 148.5 59.263 148.281C59.487 148.057 59.6641 147.805 59.7943 147.523C59.9297 147.242 60.0078 146.948 60.0286 146.641H60.7161C60.7161 147.073 60.6302 147.5 60.4583 147.922C60.2917 148.339 60.0573 148.719 59.7552 149.062C59.4531 149.406 59.099 149.682 58.6927 149.891C58.2865 150.094 57.8437 150.195 57.3646 150.195C56.8021 150.195 56.3151 150.086 55.9036 149.867C55.4922 149.648 55.1536 149.357 54.888 148.992C54.6276 148.628 54.4323 148.221 54.3021 147.773C54.1771 147.32 54.1146 146.862 54.1146 146.398C54.1146 145.857 54.1901 145.349 54.3411 144.875C54.4922 144.401 54.7161 143.984 55.013 143.625C55.3099 143.26 55.6771 142.977 56.1146 142.773C56.5573 142.57 57.0677 142.469 57.6458 142.469C58.2969 142.469 58.8516 142.599 59.3099 142.859C59.7682 143.12 60.1406 143.469 60.4271 143.906C60.7187 144.344 60.9323 144.836 61.0677 145.383C61.2031 145.93 61.2708 146.492 61.2708 147.07V147.594C61.2708 148.182 61.2318 148.781 61.1536 149.391C61.0807 149.995 60.9375 150.573 60.724 151.125C60.5156 151.677 60.2109 152.172 59.8099 152.609C59.4089 153.042 58.8854 153.385 58.2396 153.641C57.599 153.891 56.8073 154.016 55.8646 154.016H55.7161V152.789Z" fill="#767272"/>
<path d="M123.398 152.812V154H115.953V152.961L119.68 148.812C120.138 148.302 120.492 147.87 120.742 147.516C120.997 147.156 121.174 146.836 121.273 146.555C121.378 146.268 121.43 145.977 121.43 145.68C121.43 145.305 121.352 144.966 121.195 144.664C121.044 144.357 120.82 144.112 120.523 143.93C120.227 143.747 119.867 143.656 119.445 143.656C118.94 143.656 118.518 143.755 118.18 143.953C117.846 144.146 117.596 144.417 117.43 144.766C117.263 145.115 117.18 145.516 117.18 145.969H115.734C115.734 145.328 115.875 144.742 116.156 144.211C116.438 143.68 116.854 143.258 117.406 142.945C117.958 142.628 118.638 142.469 119.445 142.469C120.164 142.469 120.779 142.596 121.289 142.852C121.799 143.102 122.19 143.456 122.461 143.914C122.737 144.367 122.875 144.898 122.875 145.508C122.875 145.841 122.818 146.18 122.703 146.523C122.594 146.862 122.44 147.201 122.242 147.539C122.049 147.878 121.823 148.211 121.563 148.539C121.307 148.867 121.034 149.19 120.742 149.508L117.695 152.812H123.398ZM132.086 147.406V149.141C132.086 150.073 132.003 150.859 131.836 151.5C131.669 152.141 131.43 152.656 131.117 153.047C130.805 153.438 130.427 153.721 129.984 153.898C129.547 154.07 129.052 154.156 128.5 154.156C128.063 154.156 127.659 154.102 127.289 153.992C126.919 153.883 126.586 153.708 126.289 153.469C125.997 153.224 125.747 152.906 125.539 152.516C125.331 152.125 125.172 151.651 125.063 151.094C124.953 150.536 124.898 149.885 124.898 149.141V147.406C124.898 146.474 124.982 145.693 125.148 145.062C125.32 144.432 125.563 143.927 125.875 143.547C126.188 143.161 126.563 142.885 127 142.719C127.443 142.552 127.938 142.469 128.484 142.469C128.927 142.469 129.333 142.523 129.703 142.633C130.078 142.737 130.411 142.906 130.703 143.141C130.995 143.37 131.242 143.677 131.445 144.062C131.654 144.443 131.813 144.909 131.922 145.461C132.031 146.013 132.086 146.661 132.086 147.406ZM130.633 149.375V147.164C130.633 146.654 130.602 146.206 130.539 145.82C130.482 145.43 130.396 145.096 130.281 144.82C130.167 144.544 130.021 144.32 129.844 144.148C129.672 143.977 129.471 143.852 129.242 143.773C129.018 143.69 128.766 143.648 128.484 143.648C128.141 143.648 127.836 143.714 127.57 143.844C127.305 143.969 127.081 144.169 126.898 144.445C126.721 144.721 126.586 145.083 126.492 145.531C126.398 145.979 126.352 146.523 126.352 147.164V149.375C126.352 149.885 126.38 150.336 126.438 150.727C126.5 151.117 126.591 151.456 126.711 151.742C126.831 152.023 126.977 152.255 127.148 152.438C127.32 152.62 127.518 152.755 127.742 152.844C127.971 152.927 128.224 152.969 128.5 152.969C128.854 152.969 129.164 152.901 129.43 152.766C129.695 152.63 129.917 152.419 130.094 152.133C130.276 151.841 130.411 151.469 130.5 151.016C130.589 150.557 130.633 150.01 130.633 149.375ZM141.398 152.812V154H133.953V152.961L137.68 148.812C138.138 148.302 138.492 147.87 138.742 147.516C138.997 147.156 139.174 146.836 139.273 146.555C139.378 146.268 139.43 145.977 139.43 145.68C139.43 145.305 139.352 144.966 139.195 144.664C139.044 144.357 138.82 144.112 138.523 143.93C138.227 143.747 137.867 143.656 137.445 143.656C136.94 143.656 136.518 143.755 136.18 143.953C135.846 144.146 135.596 144.417 135.43 144.766C135.263 145.115 135.18 145.516 135.18 145.969H133.734C133.734 145.328 133.875 144.742 134.156 144.211C134.438 143.68 134.854 143.258 135.406 142.945C135.958 142.628 136.638 142.469 137.445 142.469C138.164 142.469 138.779 142.596 139.289 142.852C139.799 143.102 140.19 143.456 140.461 143.914C140.737 144.367 140.875 144.898 140.875 145.508C140.875 145.841 140.818 146.18 140.703 146.523C140.594 146.862 140.44 147.201 140.242 147.539C140.049 147.878 139.823 148.211 139.563 148.539C139.307 148.867 139.034 149.19 138.742 149.508L135.695 152.812H141.398ZM150.086 147.406V149.141C150.086 150.073 150.003 150.859 149.836 151.5C149.669 152.141 149.43 152.656 149.117 153.047C148.805 153.438 148.427 153.721 147.984 153.898C147.547 154.07 147.052 154.156 146.5 154.156C146.063 154.156 145.659 154.102 145.289 153.992C144.919 153.883 144.586 153.708 144.289 153.469C143.997 153.224 143.747 152.906 143.539 152.516C143.331 152.125 143.172 151.651 143.063 151.094C142.953 150.536 142.898 149.885 142.898 149.141V147.406C142.898 146.474 142.982 145.693 143.148 145.062C143.32 144.432 143.563 143.927 143.875 143.547C144.188 143.161 144.563 142.885 145 142.719C145.443 142.552 145.938 142.469 146.484 142.469C146.927 142.469 147.333 142.523 147.703 142.633C148.078 142.737 148.411 142.906 148.703 143.141C148.995 143.37 149.242 143.677 149.445 144.062C149.654 144.443 149.813 144.909 149.922 145.461C150.031 146.013 150.086 146.661 150.086 147.406ZM148.633 149.375V147.164C148.633 146.654 148.602 146.206 148.539 145.82C148.482 145.43 148.396 145.096 148.281 144.82C148.167 144.544 148.021 144.32 147.844 144.148C147.672 143.977 147.471 143.852 147.242 143.773C147.018 143.69 146.766 143.648 146.484 143.648C146.141 143.648 145.836 143.714 145.57 143.844C145.305 143.969 145.081 144.169 144.898 144.445C144.721 144.721 144.586 145.083 144.492 145.531C144.398 145.979 144.352 146.523 144.352 147.164V149.375C144.352 149.885 144.38 150.336 144.438 150.727C144.5 151.117 144.591 151.456 144.711 151.742C144.831 152.023 144.977 152.255 145.148 152.438C145.32 152.62 145.518 152.755 145.742 152.844C145.971 152.927 146.224 152.969 146.5 152.969C146.854 152.969 147.164 152.901 147.43 152.766C147.695 152.63 147.917 152.419 148.094 152.133C148.276 151.841 148.411 151.469 148.5 151.016C148.589 150.557 148.633 150.01 148.633 149.375Z" fill="#767272"/>
<path d="M212.065 152.812V154H204.62V152.961L208.346 148.812C208.805 148.302 209.159 147.87 209.409 147.516C209.664 147.156 209.841 146.836 209.94 146.555C210.044 146.268 210.096 145.977 210.096 145.68C210.096 145.305 210.018 144.966 209.862 144.664C209.711 144.357 209.487 144.112 209.19 143.93C208.893 143.747 208.534 143.656 208.112 143.656C207.607 143.656 207.185 143.755 206.846 143.953C206.513 144.146 206.263 144.417 206.096 144.766C205.93 145.115 205.846 145.516 205.846 145.969H204.401C204.401 145.328 204.542 144.742 204.823 144.211C205.104 143.68 205.521 143.258 206.073 142.945C206.625 142.628 207.305 142.469 208.112 142.469C208.831 142.469 209.445 142.596 209.956 142.852C210.466 143.102 210.857 143.456 211.128 143.914C211.404 144.367 211.542 144.898 211.542 145.508C211.542 145.841 211.484 146.18 211.37 146.523C211.26 146.862 211.107 147.201 210.909 147.539C210.716 147.878 210.49 148.211 210.229 148.539C209.974 148.867 209.7 149.19 209.409 149.508L206.362 152.812H212.065ZM220.753 147.406V149.141C220.753 150.073 220.669 150.859 220.503 151.5C220.336 152.141 220.096 152.656 219.784 153.047C219.471 153.438 219.094 153.721 218.651 153.898C218.214 154.07 217.719 154.156 217.167 154.156C216.729 154.156 216.325 154.102 215.956 153.992C215.586 153.883 215.253 153.708 214.956 153.469C214.664 153.224 214.414 152.906 214.206 152.516C213.997 152.125 213.839 151.651 213.729 151.094C213.62 150.536 213.565 149.885 213.565 149.141V147.406C213.565 146.474 213.648 145.693 213.815 145.062C213.987 144.432 214.229 143.927 214.542 143.547C214.854 143.161 215.229 142.885 215.667 142.719C216.109 142.552 216.604 142.469 217.151 142.469C217.594 142.469 218 142.523 218.37 142.633C218.745 142.737 219.078 142.906 219.37 143.141C219.661 143.37 219.909 143.677 220.112 144.062C220.32 144.443 220.479 144.909 220.589 145.461C220.698 146.013 220.753 146.661 220.753 147.406ZM219.299 149.375V147.164C219.299 146.654 219.268 146.206 219.206 145.82C219.148 145.43 219.062 145.096 218.948 144.82C218.833 144.544 218.687 144.32 218.51 144.148C218.339 143.977 218.138 143.852 217.909 143.773C217.685 143.69 217.432 143.648 217.151 143.648C216.807 143.648 216.503 143.714 216.237 143.844C215.971 143.969 215.747 144.169 215.565 144.445C215.388 144.721 215.253 145.083 215.159 145.531C215.065 145.979 215.018 146.523 215.018 147.164V149.375C215.018 149.885 215.047 150.336 215.104 150.727C215.167 151.117 215.258 151.456 215.378 151.742C215.497 152.023 215.643 152.255 215.815 152.438C215.987 152.62 216.185 152.755 216.409 152.844C216.638 152.927 216.891 152.969 217.167 152.969C217.521 152.969 217.831 152.901 218.096 152.766C218.362 152.63 218.583 152.419 218.76 152.133C218.943 151.841 219.078 151.469 219.167 151.016C219.255 150.557 219.299 150.01 219.299 149.375ZM230.065 152.812V154H222.62V152.961L226.346 148.812C226.805 148.302 227.159 147.87 227.409 147.516C227.664 147.156 227.841 146.836 227.94 146.555C228.044 146.268 228.096 145.977 228.096 145.68C228.096 145.305 228.018 144.966 227.862 144.664C227.711 144.357 227.487 144.112 227.19 143.93C226.893 143.747 226.534 143.656 226.112 143.656C225.607 143.656 225.185 143.755 224.846 143.953C224.513 144.146 224.263 144.417 224.096 144.766C223.93 145.115 223.846 145.516 223.846 145.969H222.401C222.401 145.328 222.542 144.742 222.823 144.211C223.104 143.68 223.521 143.258 224.073 142.945C224.625 142.628 225.305 142.469 226.112 142.469C226.831 142.469 227.445 142.596 227.956 142.852C228.466 143.102 228.857 143.456 229.128 143.914C229.404 144.367 229.542 144.898 229.542 145.508C229.542 145.841 229.484 146.18 229.37 146.523C229.26 146.862 229.107 147.201 228.909 147.539C228.716 147.878 228.49 148.211 228.229 148.539C227.974 148.867 227.7 149.19 227.409 149.508L224.362 152.812H230.065ZM236.362 142.562V154H234.917V144.367L232.003 145.43V144.125L236.135 142.562H236.362Z" fill="#767272"/>
<rect width="265.989" height="1" fill="#C3CDCA"/>
<rect y="33" width="265.989" height="1" fill="#C3CDCA"/>
<rect y="66" width="265.989" height="1" fill="#C3CDCA"/>
<rect y="99" width="265.989" height="1" fill="#C3CDCA"/>
<rect y="132" width="265.989" height="1" fill="#C3CDCA"/>
<path d="M7.79486 90.8974C7.79486 88.7449 9.5398 87 11.6923 87C13.8448 87 15.5897 88.7449 15.5897 90.8974V133H7.79486V90.8974Z" fill="#D83A6A"/>
<path d="M35.0768 97.8974C35.0768 95.7449 36.8218 94 38.9743 94C41.1268 94 42.8717 95.7449 42.8717 97.8974V133H35.0768V97.8974Z" fill="#D83A6A"/>
<path d="M62.3589 77.8974C62.3589 75.7449 64.1038 74 66.2563 74C68.4088 74 70.1538 75.7449 70.1538 77.8974V133H62.3589V77.8974Z" fill="#D83A6A"/>
<path d="M89.6409 56.8974C89.6409 54.7449 91.3858 53 93.5383 53C95.6908 53 97.4357 54.7449 97.4357 56.8974V133H89.6409V56.8974Z" fill="#D83A6A"/>
<path d="M116.923 42.8974C116.923 40.7449 118.668 39 120.82 39C122.973 39 124.718 40.7449 124.718 42.8974V133H116.923V42.8974Z" fill="#D83A6A"/>
<path d="M144.205 64.8974C144.205 62.7449 145.95 61 148.103 61C150.255 61 152 62.7449 152 64.8974V133H144.205V64.8974Z" fill="#D83A6A"/>
<path d="M171.487 79.8974C171.487 77.7449 173.232 76 175.385 76C177.537 76 179.282 77.7449 179.282 79.8974V133H171.487V79.8974Z" fill="#D83A6A"/>
<path d="M198.769 27.8974C198.769 25.7449 200.514 24 202.667 24C204.819 24 206.564 25.7449 206.564 27.8974V133H198.769V27.8974Z" fill="#D83A6A"/>
<path d="M226.051 10.8974C226.051 8.74495 227.796 7 229.949 7C232.101 7 233.846 8.74494 233.846 10.8974V133H226.051V10.8974Z" fill="#D83A6A"/>
<path d="M253.333 32.8974C253.333 30.7449 255.078 29 257.231 29C259.383 29 261.128 30.7449 261.128 32.8974V133H253.333V32.8974Z" fill="#D83A6A"/>
</svg>
