<svg width="1086" height="1068" viewBox="0 0 1086 1068" fill="none" xmlns="http://www.w3.org/2000/svg">
<path opacity="0.2" d="M939.667 1003C1024.37 1003 1109.99 918.317 1078.23 814.119C1073.4 798.273 1065.83 783.51 1056.19 770.37C1029.48 733.967 986.876 710 942.652 710C926.413 710 909.964 713.228 893.996 720.257C817.697 753.838 789.138 854.351 825.992 927.282C852.979 980.691 896.206 1003 939.667 1003Z" fill="url(#paint0_linear_9_679)"/>
<path opacity="0.2" d="M448.376 149.89C442.882 156.492 438.761 164.301 436.438 173.573C430.672 196.581 436.85 219.597 445.6 239.653C464.284 282.47 494.512 317.757 512.354 361.057C530.197 404.357 532.738 462.144 500.175 501.578C500.09 501.681 500 501.789 499.914 501.893C473.963 533.071 434.035 543.822 397.337 553.843C312.706 576.951 228.929 606.44 146.876 642C108.025 658.841 67.1763 679.165 39.3901 712.552C34.5821 718.328 30.1651 724.49 26.2181 731.103C-13.3961 797.42 -9.37911 926.463 46.8962 967.475C69.2983 983.802 97.7884 989.812 126.258 990.944C198.86 993.829 274.429 967.166 345.905 976.173C449.958 989.29 533.585 1076.45 640.521 1066.16C691.314 1061.27 727.838 1036.72 756.847 1001.87C783.435 969.92 803.714 929.332 822.906 887.267C853.013 821.297 870.219 747.708 873.552 676.172C873.69 673.225 873.782 670.279 873.825 667.325C875.298 571.92 828.511 464.886 891.301 371.338C895.265 365.435 899.63 359.678 904.312 354.055C923.978 330.426 949.313 308.989 974.756 287.421C1000.19 265.852 1025.74 244.158 1045.83 220.025C1073.29 187.033 1090.54 149.485 1083.37 101.459C1072.08 25.7786 1002.59 -3.19635 935.343 0.276646C879.431 3.17165 826.665 30.9466 775.246 57.5906C720.534 85.9446 663.488 104.117 605.131 110.426C566.508 114.604 481.902 109.617 448.376 149.89Z" fill="url(#paint1_linear_9_679)"/>
<path opacity="0.2" d="M151.765 703.432C151.905 703.677 152.035 703.906 152.174 704.151C227.902 836.515 371.999 929.118 514.532 970.029C573.54 986.966 638.182 994.649 695.25 971.564C799.858 929.242 838.964 804.247 787.373 713.709C778.464 698.074 766.86 683.478 752.412 670.496C722.671 643.781 688.457 619.461 668.816 584.993C666.568 581.048 664.512 576.977 662.676 572.749C645.146 532.406 651.012 486.067 654.592 442.043C660.677 367.184 658.814 290.019 633.038 219.728C627.453 204.496 620.718 190.047 613.002 176.504C541.996 51.8927 386.993 2.10835 260.73 87.8293C179.836 142.754 136.212 238.23 109.795 330.327C73.5553 456.663 86.8065 589.435 151.765 703.432Z" fill="url(#paint2_linear_9_679)"/>
<defs>
<linearGradient id="paint0_linear_9_679" x1="947.501" y1="1003" x2="947.501" y2="710" gradientUnits="userSpaceOnUse">
<stop stop-color="#5B8B7C"/>
<stop offset="1" stop-color="#5B8B7C" stop-opacity="0"/>
</linearGradient>
<linearGradient id="paint1_linear_9_679" x1="542.5" y1="0" x2="542.5" y2="1067" gradientUnits="userSpaceOnUse">
<stop stop-color="#5B8B7C"/>
<stop offset="1" stop-color="#5B8B7C" stop-opacity="0"/>
</linearGradient>
<linearGradient id="paint2_linear_9_679" x1="450" y1="45" x2="450" y2="986" gradientUnits="userSpaceOnUse">
<stop stop-color="#5B8B7C"/>
<stop offset="1" stop-color="#5B8B7C" stop-opacity="0"/>
</linearGradient>
</defs>
</svg>
