<svg width="1199" height="430" viewBox="0 0 1199 430" fill="none" xmlns="http://www.w3.org/2000/svg">
<path d="M1159.34 404.058C1159.35 404.058 1159.35 404.058 1159.36 404.058C1161.11 404.07 1162.99 404.717 1165.02 406.648C1167.11 408.625 1168.32 411.756 1168.31 414.809C1168.31 417.419 1167.47 419.858 1165.78 421.63C1164.26 423.211 1162.36 423.934 1160.28 423.944C1160.28 423.944 1160.27 423.944 1160.27 423.944C1158.48 423.944 1156.61 423.356 1155.04 422.289C1154.14 421.682 1153.35 420.923 1152.7 420.048C1151.26 418.067 1150.7 416.065 1150.69 414.079C1150.68 411.512 1151.71 408.935 1153.36 407.055C1155.01 405.173 1157.17 404.058 1159.34 404.058ZM1160.32 430C1163.67 430 1167.13 428.728 1169.77 425.944C1172.68 422.89 1174 418.795 1174 414.808C1173.99 410.126 1172.23 405.427 1168.83 402.145C1165.94 399.356 1162.6 398 1159.4 398C1159.38 398 1159.37 398 1159.36 398C1155.35 398.005 1151.76 400 1149.2 402.928C1146.64 405.865 1145.01 409.815 1145 414.078C1144.99 417.351 1146.01 420.784 1148.23 423.782C1149.29 425.228 1150.57 426.437 1151.98 427.393L1153.51 424.841L1151.98 427.395C1154.47 429.077 1157.36 429.996 1160.28 430C1160.3 430 1160.31 430 1160.32 430Z" fill="#F9D5E0"/>
<path d="M1071.59 356.522C1071.6 356.522 1071.61 356.522 1071.63 356.522C1076.11 356.553 1080.91 358.211 1086.09 363.157C1091.41 368.226 1094.51 376.246 1094.48 384.072C1094.47 390.762 1092.34 397.01 1088.02 401.551C1084.16 405.603 1079.3 407.457 1074 407.48C1073.99 407.48 1073.97 407.48 1073.96 407.48C1069.39 407.48 1064.61 405.975 1060.6 403.241C1058.33 401.681 1056.3 399.74 1054.66 397.497C1050.96 392.417 1049.54 387.288 1049.51 382.2C1049.49 375.621 1052.13 369.02 1056.34 364.202C1060.54 359.38 1066.05 356.522 1071.59 356.522ZM1074.09 423C1082.64 423 1091.46 419.742 1098.21 412.608C1105.64 404.781 1109.01 394.288 1109 384.071C1108.97 372.074 1104.5 360.036 1095.8 351.622C1088.43 344.473 1079.9 341 1071.75 341C1071.71 341 1071.67 341 1071.63 341C1061.41 341.014 1052.25 346.125 1045.72 353.63C1039.18 361.155 1035.02 371.276 1035 382.199C1034.97 390.586 1037.57 399.386 1043.23 407.065C1045.95 410.772 1049.22 413.869 1052.81 416.32L1056.71 409.781L1052.81 416.325C1059.15 420.637 1066.52 422.991 1074 423C1074.03 423 1074.07 423 1074.09 423Z" fill="#F9D5E0"/>
<path opacity="0.2" d="M987.577 89C987.692 89 987.802 89 987.92 89C1051.41 89.11 1114.98 122.452 1159.65 165.977C1178.14 183.995 1194.49 205.996 1198.19 231.632C1204.97 278.625 1168.27 318.904 1124.89 318.904C1117.4 318.904 1109.71 317.704 1102.01 315.129C1086.16 309.83 1070.22 302.399 1053.71 302.399C1051.82 302.399 1049.92 302.497 1048.02 302.705C1029.83 304.698 1014.41 316.478 999.345 326.944C973.722 344.739 945.6 360.11 914.92 365.323C908.273 366.453 901.664 367 895.175 367C835.465 367 784.99 320.769 789.252 256.842C791.984 215.884 817.125 180.096 844.668 151.293C882.452 111.781 932.952 89 987.577 89Z" fill="url(#paint0_linear_10_494)" fill-opacity="0.5"/>
<path opacity="0.2" d="M1016.9 279.722C1017.79 279.768 1018.68 279.81 1019.56 279.85C1030.99 280.362 1042.75 280.439 1053.46 276.619C1097.02 261.09 1076.03 200.247 1055.25 175.166C1030.78 145.643 990.537 131.394 951.914 140.1C926.566 145.81 900.758 155.017 875.162 150.102C850.089 145.286 830.095 127.829 810.422 112.162C776.969 85.5156 739.731 61.7826 697.658 51.2046C604.648 27.8206 511.348 85.4316 509.042 179.91C507.709 234.507 538.236 284.936 572.981 326.397C599.918 358.54 669.637 426.301 718.877 404.897C735.774 397.554 747.789 382.865 757.772 367.943C772.128 346.488 783.8 323.351 800.052 303.161C816.304 282.972 838.316 265.433 864.612 261.001C887.895 257.077 911.492 263.757 934.543 268.778C961.599 274.67 989.188 278.336 1016.9 279.722Z" fill="url(#paint1_linear_10_494)" fill-opacity="0.5"/>
<path opacity="0.2" d="M478.812 40C426.351 40 374.472 54.3922 334.239 86.013C237.762 161.833 252.511 295.856 350.675 366.327C398.304 400.516 448.866 415 496.764 415C662.056 415 795.71 242.608 668.404 113.088C651.905 96.298 631.868 82.0883 609.619 70.7801C570.44 50.8784 524.405 40 478.812 40Z" fill="url(#paint2_linear_10_494)" fill-opacity="0.5"/>
<path opacity="0.2" d="M420.1 83C401.405 82.999 382.643 94.4249 364.722 102.811C339.26 114.726 311.687 120.807 284.126 120.807C270.904 120.807 257.688 119.409 244.703 116.584C230.577 113.511 216.717 108.797 202.434 106.841C196.594 106.041 190.723 105.709 184.845 105.709C174.512 105.709 164.155 106.734 153.873 108.047C124.59 111.784 94.5674 121.201 71.2594 139.488C49.9204 156.229 34.2094 180.406 29.8454 214.466C22.7824 269.597 61.0034 316.851 106.184 316.851C113.988 316.851 121.992 315.443 130.014 312.423C146.525 306.207 163.117 297.489 180.319 297.489C182.286 297.489 184.261 297.603 186.246 297.847C205.184 300.184 221.242 314.006 236.934 326.282C263.622 347.159 292.912 365.194 324.864 371.308C330.965 372.476 336.841 373 342.56 373C363.644 373 382.669 365.873 403.478 357.529C424.295 349.182 437.478 329.375 449.095 308.515C475.216 261.612 485.449 203.145 474.907 148.828C469.651 121.75 456.861 92.931 433.291 85.0938C428.908 83.6348 424.504 83 420.1 83Z" fill="url(#paint3_linear_10_494)" fill-opacity="0.5"/>
<path d="M156.412 82.4778C156.394 82.4778 156.386 82.4778 156.369 82.4778C151.89 82.4464 147.093 80.7894 141.911 75.8434C136.59 70.7732 133.493 62.7547 133.519 54.9274C133.528 48.2375 135.664 41.9893 139.98 37.4468C143.842 33.3967 148.698 31.5434 154.001 31.5202C154.009 31.5202 154.027 31.5202 154.035 31.5202C158.608 31.5202 163.389 33.0246 167.395 35.7584C169.67 37.3184 171.703 39.2596 173.342 41.503C177.04 46.5824 178.465 51.7123 178.49 56.7998C178.508 63.3785 175.874 69.9805 171.661 74.798C167.456 79.6196 161.947 82.4778 156.412 82.4778ZM153.907 16C145.359 16 136.539 19.2575 129.786 26.3913C122.363 34.2186 118.992 44.711 119 54.9284C119.026 66.9252 123.505 78.9645 132.197 87.3792C139.568 94.5261 148.097 98 156.249 98C156.291 98 156.327 98 156.369 98C166.59 97.9858 175.752 92.8751 182.283 85.3703C188.821 77.8453 192.984 67.7249 193 56.8008C193.025 48.4144 190.426 39.6144 184.771 31.9337C182.052 28.2273 178.782 25.1305 175.195 22.6808L171.291 29.2181L175.187 22.6758C168.845 18.3628 161.475 16.0091 154.001 16C153.966 16 153.932 16 153.907 16Z" fill="#F9D5E0"/>
<path d="M14.6619 25.942C14.6549 25.942 14.6519 25.942 14.6449 25.942C12.8893 25.929 11.0097 25.2841 8.97914 23.3524C6.89358 21.3747 5.67982 18.2451 5.68982 15.1906C5.69382 12.58 6.53063 10.1414 8.22228 8.36969C9.73596 6.78894 11.6386 6.06507 13.7171 6.05707C13.7211 6.05707 13.7281 6.05707 13.7311 6.05707C15.5238 6.05707 17.3964 6.64397 18.967 7.7108C19.8578 8.3187 20.6547 9.07658 21.2975 9.95145C22.7472 11.9341 23.3051 13.9358 23.3151 15.9215C23.3221 18.4881 22.2893 21.0657 20.6377 22.9454C18.99 24.8271 16.8315 25.942 14.6619 25.942ZM13.6801 0C10.3308 0 6.87356 1.27079 4.22711 4.05436C1.31773 7.10988 -0.00299427 11.2032 5.09674e-06 15.1916C0.010003 19.8739 1.76564 24.5712 5.17192 27.8557C8.06032 30.6442 11.4026 32 14.598 32C14.6149 32 14.6279 32 14.6449 32C18.6501 31.995 22.2414 30.0003 24.7998 27.0708C27.3623 24.1342 28.9929 20.1849 28.9999 15.9225C29.0099 12.65 27.9911 9.21656 25.7746 6.21903C24.7088 4.77225 23.4271 3.56344 22.0214 2.60759L20.4917 5.1592L22.0184 2.60659C19.5339 0.92285 16.6445 0.00401353 13.7151 0.00201385C13.7041 1.41578e-05 13.6911 0 13.6801 0Z" fill="#F9D5E0"/>
<defs>
<linearGradient id="paint0_linear_10_494" x1="994" y1="89" x2="994" y2="367" gradientUnits="userSpaceOnUse">
<stop stop-color="white"/>
<stop offset="1" stop-color="#D83A6A"/>
</linearGradient>
<linearGradient id="paint1_linear_10_494" x1="793.997" y1="46" x2="793.997" y2="408.999" gradientUnits="userSpaceOnUse">
<stop stop-color="white"/>
<stop offset="1" stop-color="#D83A6A"/>
</linearGradient>
<linearGradient id="paint2_linear_10_494" x1="494" y1="40" x2="494" y2="415" gradientUnits="userSpaceOnUse">
<stop stop-color="white"/>
<stop offset="1" stop-color="#D83A6A"/>
</linearGradient>
<linearGradient id="paint3_linear_10_494" x1="254.002" y1="83" x2="254.002" y2="373" gradientUnits="userSpaceOnUse">
<stop stop-color="white"/>
<stop offset="1" stop-color="#D83A6A"/>
</linearGradient>
</defs>
</svg>
