<svg width="1920" height="342" viewBox="0 0 1920 342" fill="none" xmlns="http://www.w3.org/2000/svg">
<rect width="1920" height="342" fill="#D83A6A"/>
<path opacity="0.5" d="M1920 9.86908C1920 9.86908 1682.94 -50.511 1670.21 127.427C1662.06 241.241 1537.82 248.996 1301.82 214.706C1056.98 179.132 975 341 975 341H1920V9.86908Z" fill="url(#paint0_linear_9_516)"/>
<path opacity="0.5" d="M1737 0C1718.2 0 1699.4 3.51676 1682.64 10.534C1652.26 23.2493 1626.41 44.6276 1618.31 71.8026C1617.28 75.2895 1616.53 78.8741 1616.1 82.5473C1614.05 100.207 1616.1 118.269 1611.11 135.529C1606.11 152.786 1591.49 169.959 1570.21 172.638C1568.15 172.898 1566.11 173.018 1564.09 173.018C1543.47 173.018 1524.92 160.393 1505.37 153.448C1489.32 147.745 1463.32 143.003 1437.84 143.002C1402.91 143.001 1368.94 151.913 1362.86 179.489C1359.72 193.722 1365.53 208.495 1375.03 220.663C1410.7 266.365 1481.9 268.483 1528.63 302.348C1548.37 316.655 1567.39 333.494 1593.44 339.757C1599.9 341.31 1606.15 342 1612.21 342C1647.13 342 1676.22 319.141 1706.38 305.993C1739.65 291.488 1778.2 291.591 1814.85 290.981C1834.13 290.661 1853.07 288.698 1872.22 287.873C1887.86 287.198 1903.25 289.963 1913.58 277.133C1920.68 268.318 1921.31 256.816 1918.28 246.537C1915.24 236.257 1908.93 226.876 1902.84 217.556C1882.91 187.009 1864.51 154.918 1859.59 120.471C1857.63 106.777 1857.83 92.8624 1854.57 79.3391C1847.38 49.5503 1822.51 23.0177 1789.35 9.74776C1773.1 3.24444 1755.05 0 1737 0Z" fill="url(#paint1_linear_9_516)"/>
<path opacity="0.5" d="M506.145 121.85C555.6 135.512 597.364 177.982 581.63 216.582C562.03 264.668 487.455 294.119 423.725 278.343C394.442 271.095 365.008 260.599 334.247 263.095C304.11 265.538 278.561 279.998 253.588 292.842C211.125 314.679 164.517 333.544 113.674 339.942C1.27621 354.084 -102.418 293.79 -94.5826 206.81C-90.0589 156.543 -48.3896 112.624 -2.74454 77.276C81.602 11.9552 285.476 -48.9404 358.436 59.0654C370.643 77.1376 377.546 99.1257 400.589 109.917C423.979 120.868 454.278 115.718 481.816 117.628C489.987 118.192 498.169 119.647 506.145 121.85Z" fill="url(#paint2_linear_9_516)"/>
<path opacity="0.5" d="M202.839 0C159.885 0 119.571 27.8833 105.212 78.6745C93.1601 121.312 103.772 167.448 119.104 207.429C140.179 262.393 179.102 305.283 230.017 326.556C253.912 336.538 279.762 341 305.847 341C344.204 341 383.073 331.356 417.005 315.435C440.606 304.362 463.635 288.413 476.206 263.836C503.229 211.004 471.406 144.22 416.586 141.557C398.063 140.657 378.514 142.407 361.991 133.1C345.804 123.981 335.675 106.006 325.403 89.5047C307.933 61.4446 287.277 34.8685 260.627 17.607C242.27 5.71685 222.281 0 202.839 0Z" fill="url(#paint3_linear_9_516)"/>
<path fill-rule="evenodd" clip-rule="evenodd" d="M1920 342C1920 342 1734.1 282 1478 282C1340.02 282 1181.65 342 1021 342C888.154 342 753.744 308.667 628 308.667C449.417 308.667 288.314 342 174 342C66.194 342 0 328.667 0 328.667V341.999L1920 342Z" fill="white"/>
<defs>
<linearGradient id="paint0_linear_9_516" x1="1447.5" y1="0" x2="1447.5" y2="341" gradientUnits="userSpaceOnUse">
<stop stop-color="#A52149"/>
<stop offset="1" stop-color="#D83A6A"/>
</linearGradient>
<linearGradient id="paint1_linear_9_516" x1="1641" y1="0" x2="1641" y2="342" gradientUnits="userSpaceOnUse">
<stop stop-color="#A52149"/>
<stop offset="1" stop-color="#D83A6A"/>
</linearGradient>
<linearGradient id="paint2_linear_9_516" x1="245" y1="0" x2="245" y2="342" gradientUnits="userSpaceOnUse">
<stop stop-color="#A52149"/>
<stop offset="1" stop-color="#D83A6A"/>
</linearGradient>
<linearGradient id="paint3_linear_9_516" x1="293" y1="0" x2="293" y2="341" gradientUnits="userSpaceOnUse">
<stop stop-color="#A52149"/>
<stop offset="1" stop-color="#D83A6A"/>
</linearGradient>
</defs>
</svg>
