<svg width="1920" height="1060" viewBox="0 0 1920 1060" fill="none" xmlns="http://www.w3.org/2000/svg">
<path opacity="0.2" d="M1791.71 130.031C1743.84 48.1339 1656.77 2.99296 1565.89 0.156139C1557.99 -0.0900858 1550.18 -0.0330456 1542.42 0.24265C1542.23 0.243601 1542.05 0.236948 1541.86 0.2398C1239.15 1.25988 1044.33 114.29 963.287 173.181C948.072 183.494 933.739 195.042 920.459 207.795C920.319 207.93 920.227 208.019 920.227 208.019L920.226 208.021C888.198 238.852 862.358 276.74 845.37 321.56C815.708 399.802 815.318 492.982 854.362 572.201C892.867 650.319 967.344 707.177 1049.64 729.441C1089.2 740.146 1131.49 742.004 1170.34 732.601C1215.15 721.763 1253.75 697.602 1287.37 667.363C1322.54 635.72 1352.59 598.885 1387.07 566.534C1424.43 531.498 1462.44 497.624 1510.47 479.144C1599.02 445.07 1698.48 432.383 1764.99 361.424C1822.98 299.554 1837.99 209.186 1791.71 130.031Z" fill="url(#paint0_linear_3_454)" fill-opacity="0.5"/>
<path opacity="0.2" d="M1207.9 733.274C1248.08 795.357 1321.15 829.575 1397.41 831.726C1404.03 831.911 1410.59 831.868 1417.1 831.66C1417.27 831.659 1417.41 831.665 1417.58 831.661C1671.61 830.889 1835.1 745.209 1903.11 700.566C1915.88 692.747 1927.91 683.994 1939.05 674.326C1939.17 674.224 1939.25 674.156 1939.25 674.156L1939.25 674.154C1966.13 650.784 1987.81 622.062 2002.07 588.087C2026.96 528.777 2027.29 458.141 1994.52 398.09C1962.21 338.874 1899.71 295.773 1830.65 278.895C1797.45 270.781 1761.96 269.372 1729.35 276.5C1691.75 284.715 1659.35 303.03 1631.15 325.952C1601.63 349.939 1576.41 377.863 1547.47 402.385C1516.12 428.944 1484.23 454.621 1443.92 468.63C1369.61 494.459 1286.14 504.077 1230.32 557.867C1181.66 604.77 1169.07 673.272 1207.9 733.274Z" fill="url(#paint1_linear_3_454)" fill-opacity="0.5"/>
<path opacity="0.2" d="M1064.82 426.606L1064.83 426.608C1064.83 426.556 1064.82 426.499 1064.82 426.449C1063.85 391.472 1059 356.688 1049.22 322.523C961.315 -38.0459 580.649 165.76 580.649 165.76L580.675 165.779C538.022 186.362 502.261 215.808 465.541 243.349C417.822 279.135 366.857 310.469 303.933 324.915C203.231 348.056 78.8779 332.876 -4.31225 391.509C-79.2212 444.304 -103.954 539.683 -82.6643 624.162C-58.3487 720.633 21.3164 804.24 111.995 864.354C225.259 939.443 360.244 981.367 492.184 1018.15C595.713 1047 723.301 1088.61 815.717 1031.5C902.156 978.08 936.31 877.631 972.532 794.049C1020.66 683.007 1068.29 553.585 1064.82 426.606Z" fill="url(#paint2_linear_3_454)" fill-opacity="0.5"/>
<path opacity="0.2" d="M465.132 700.841L465.125 700.838C465.129 700.878 465.132 700.921 465.137 700.958C465.851 726.849 469.449 752.598 476.698 777.891C541.844 1044.81 823.966 893.934 823.966 893.934L823.946 893.921C855.558 878.684 882.06 856.885 909.274 836.5C944.641 810.008 982.412 786.814 1029.05 776.119C1103.68 758.988 1195.84 770.227 1257.49 726.822C1313.01 687.739 1331.34 617.134 1315.56 554.599C1297.54 483.185 1238.5 421.295 1171.29 376.793C1087.35 321.208 987.311 290.173 889.527 262.947C812.798 241.584 718.239 210.788 649.747 253.064C585.685 292.606 560.372 366.965 533.527 428.836C497.864 511.038 462.565 606.843 465.132 700.841Z" fill="url(#paint3_linear_3_454)" fill-opacity="0.5"/>
<defs>
<linearGradient id="paint0_linear_3_454" x1="1321.5" y1="0" x2="1321.5" y2="738.678" gradientUnits="userSpaceOnUse">
<stop stop-color="white"/>
<stop offset="1" stop-color="#D83A6A"/>
</linearGradient>
<linearGradient id="paint1_linear_3_454" x1="1602.5" y1="271.893" x2="1602.5" y2="831.843" gradientUnits="userSpaceOnUse">
<stop stop-color="white"/>
<stop offset="1" stop-color="#D83A6A"/>
</linearGradient>
<linearGradient id="paint2_linear_3_454" x1="487.5" y1="108.377" x2="487.5" y2="1060" gradientUnits="userSpaceOnUse">
<stop stop-color="white"/>
<stop offset="1" stop-color="#D83A6A"/>
</linearGradient>
<linearGradient id="paint3_linear_3_454" x1="893" y1="231.965" x2="893" y2="936.414" gradientUnits="userSpaceOnUse">
<stop stop-color="white"/>
<stop offset="1" stop-color="#D83A6A"/>
</linearGradient>
</defs>
</svg>
